G04 #@! TF.GenerationSoftware,KiCad,Pcbnew,5.0.1-33cea8e~67~ubuntu18.04.1*
G04 #@! TF.CreationDate,2018-12-03T16:30:20-06:00*
G04 #@! TF.ProjectId,PiHatAx5043,50694861744178353034332E6B696361,V1.3*
G04 #@! TF.SameCoordinates,Original*
G04 #@! TF.FileFunction,Legend,Top*
G04 #@! TF.FilePolarity,Positive*
%FSLAX46Y46*%
G04 Gerber Fmt 4.6, Leading zero omitted, Abs format (unit mm)*
G04 Created by KiCad (PCBNEW 5.0.1-33cea8e~67~ubuntu18.04.1) date Mon 03 Dec 2018 04:30:20 PM CST*
%MOMM*%
%LPD*%
G01*
G04 APERTURE LIST*
%ADD10C,0.100000*%
%ADD11C,0.120000*%
%ADD12C,0.150000*%
%ADD13C,0.254000*%
G04 APERTURE END LIST*
D10*
G04 #@! TO.C,D1*
X54887000Y-49203000D02*
X54887000Y-49603000D01*
X54887000Y-49603000D02*
X54587000Y-49403000D01*
X54587000Y-49403000D02*
X54887000Y-49203000D01*
X54537000Y-49203000D02*
X54537000Y-49603000D01*
D11*
X53437000Y-48903000D02*
X53437000Y-49903000D01*
X53437000Y-49903000D02*
X55537000Y-49903000D01*
X53437000Y-48903000D02*
X55537000Y-48903000D01*
G04 #@! TO.C,Y1*
X66243000Y-63995000D02*
X69393000Y-63995000D01*
X69393000Y-63995000D02*
X69393000Y-59195000D01*
D12*
G04 #@! TO.C,U2*
X94006000Y-57322000D02*
X94006000Y-59772000D01*
X97256000Y-56597000D02*
X97256000Y-59772000D01*
G04 #@! TO.C,P2*
X101800000Y-39560000D02*
X51000000Y-39560000D01*
X53540000Y-44640000D02*
X101800000Y-44640000D01*
X101800000Y-39560000D02*
X101800000Y-44640000D01*
X51000000Y-39560000D02*
X51000000Y-42100000D01*
X50720000Y-43370000D02*
X50720000Y-44920000D01*
X51000000Y-42100000D02*
X53540000Y-42100000D01*
X53540000Y-42100000D02*
X53540000Y-44640000D01*
X50720000Y-44920000D02*
X52270000Y-44920000D01*
D11*
G04 #@! TO.C,C1*
X74516500Y-83029500D02*
X75216500Y-83029500D01*
X75216500Y-84229500D02*
X74516500Y-84229500D01*
G04 #@! TO.C,C2*
X76552500Y-81947500D02*
X76552500Y-81247500D01*
X77752500Y-81247500D02*
X77752500Y-81947500D01*
G04 #@! TO.C,C3*
X74516500Y-78965500D02*
X75216500Y-78965500D01*
X75216500Y-80165500D02*
X74516500Y-80165500D01*
G04 #@! TO.C,C4*
X76806500Y-77883500D02*
X76806500Y-77183500D01*
X78006500Y-77183500D02*
X78006500Y-77883500D01*
G04 #@! TO.C,C5*
X74516500Y-73123500D02*
X75216500Y-73123500D01*
X75216500Y-74323500D02*
X74516500Y-74323500D01*
G04 #@! TO.C,C6*
X78518500Y-74323500D02*
X77818500Y-74323500D01*
X77818500Y-73123500D02*
X78518500Y-73123500D01*
G04 #@! TO.C,C7*
X75028500Y-69247500D02*
X75028500Y-68547500D01*
X76228500Y-68547500D02*
X76228500Y-69247500D01*
G04 #@! TO.C,C8*
X76806500Y-69247500D02*
X76806500Y-68547500D01*
X78006500Y-68547500D02*
X78006500Y-69247500D01*
G04 #@! TO.C,C9*
X73119500Y-63217500D02*
X73819500Y-63217500D01*
X73819500Y-64417500D02*
X73119500Y-64417500D01*
G04 #@! TO.C,C10*
X80931500Y-64417500D02*
X80231500Y-64417500D01*
X80231500Y-63217500D02*
X80931500Y-63217500D01*
G04 #@! TO.C,C11*
X72863000Y-56800000D02*
X72863000Y-57500000D01*
X71663000Y-57500000D02*
X71663000Y-56800000D01*
G04 #@! TO.C,C12*
X96047000Y-63215000D02*
X96047000Y-62515000D01*
X97247000Y-62515000D02*
X97247000Y-63215000D01*
G04 #@! TO.C,L1*
X74948500Y-82097500D02*
X74948500Y-81097500D01*
X76308500Y-81097500D02*
X76308500Y-82097500D01*
G04 #@! TO.C,L2*
X74948500Y-78033500D02*
X74948500Y-77033500D01*
X76308500Y-77033500D02*
X76308500Y-78033500D01*
G04 #@! TO.C,L3*
X77668500Y-74567500D02*
X78668500Y-74567500D01*
X78668500Y-75927500D02*
X77668500Y-75927500D01*
G04 #@! TO.C,L4*
X74948500Y-72191500D02*
X74948500Y-71191500D01*
X76308500Y-71191500D02*
X76308500Y-72191500D01*
G04 #@! TO.C,L5*
X76726500Y-72191500D02*
X76726500Y-71191500D01*
X78086500Y-71191500D02*
X78086500Y-72191500D01*
G04 #@! TO.C,L6*
X77668500Y-65931500D02*
X78668500Y-65931500D01*
X78668500Y-67291500D02*
X77668500Y-67291500D01*
G04 #@! TO.C,L7*
X75366500Y-67291500D02*
X74366500Y-67291500D01*
X74366500Y-65931500D02*
X75366500Y-65931500D01*
G04 #@! TO.C,L8*
X80917500Y-62158500D02*
X80917500Y-61158500D01*
X82277500Y-61158500D02*
X82277500Y-62158500D01*
G04 #@! TO.C,P1*
X78928500Y-88090500D02*
X78928500Y-90090500D01*
X72328500Y-88090500D02*
X72328500Y-90090500D01*
X76628500Y-92390500D02*
X74628500Y-92390500D01*
X76628500Y-85790500D02*
X74628500Y-85790500D01*
G04 #@! TO.C,P3*
X63052000Y-49724000D02*
X60392000Y-49724000D01*
X63052000Y-62484000D02*
X63052000Y-49724000D01*
X60392000Y-62484000D02*
X60392000Y-49724000D01*
X63052000Y-62484000D02*
X60392000Y-62484000D01*
X63052000Y-63754000D02*
X63052000Y-65084000D01*
X63052000Y-65084000D02*
X61722000Y-65084000D01*
G04 #@! TO.C,R1*
X57412000Y-60534000D02*
X58412000Y-60534000D01*
X58412000Y-61894000D02*
X57412000Y-61894000D01*
G04 #@! TO.C,R2*
X57412000Y-57994000D02*
X58412000Y-57994000D01*
X58412000Y-59354000D02*
X57412000Y-59354000D01*
G04 #@! TO.C,R3*
X96475000Y-54856000D02*
X96475000Y-53856000D01*
X97835000Y-53856000D02*
X97835000Y-54856000D01*
G04 #@! TO.C,R4*
X94697000Y-54856000D02*
X94697000Y-53856000D01*
X96057000Y-53856000D02*
X96057000Y-54856000D01*
G04 #@! TO.C,R5*
X55237000Y-52369000D02*
X54237000Y-52369000D01*
X54237000Y-51009000D02*
X55237000Y-51009000D01*
D13*
G04 #@! TO.C,IC1*
X75453840Y-62319000D02*
G75*
G03X75453840Y-62319000I-125000J0D01*
G01*
G04 #@! TO.C,D1*
D12*
X53998904Y-48605380D02*
X53998904Y-47605380D01*
X54237000Y-47605380D01*
X54379857Y-47653000D01*
X54475095Y-47748238D01*
X54522714Y-47843476D01*
X54570333Y-48033952D01*
X54570333Y-48176809D01*
X54522714Y-48367285D01*
X54475095Y-48462523D01*
X54379857Y-48557761D01*
X54237000Y-48605380D01*
X53998904Y-48605380D01*
X55522714Y-48605380D02*
X54951285Y-48605380D01*
X55237000Y-48605380D02*
X55237000Y-47605380D01*
X55141761Y-47748238D01*
X55046523Y-47843476D01*
X54951285Y-47891095D01*
G04 #@! TO.C,Y1*
X67214809Y-65127190D02*
X67214809Y-65603380D01*
X66881476Y-64603380D02*
X67214809Y-65127190D01*
X67548142Y-64603380D01*
X68405285Y-65603380D02*
X67833857Y-65603380D01*
X68119571Y-65603380D02*
X68119571Y-64603380D01*
X68024333Y-64746238D01*
X67929095Y-64841476D01*
X67833857Y-64889095D01*
X70072214Y-64968380D02*
X69500785Y-64968380D01*
X69786500Y-64968380D02*
X69786500Y-63968380D01*
X69691261Y-64111238D01*
X69596023Y-64206476D01*
X69500785Y-64254095D01*
G04 #@! TO.C,U2*
X97623380Y-60642404D02*
X98432904Y-60642404D01*
X98528142Y-60594785D01*
X98575761Y-60547166D01*
X98623380Y-60451928D01*
X98623380Y-60261452D01*
X98575761Y-60166214D01*
X98528142Y-60118595D01*
X98432904Y-60070976D01*
X97623380Y-60070976D01*
X97718619Y-59642404D02*
X97671000Y-59594785D01*
X97623380Y-59499547D01*
X97623380Y-59261452D01*
X97671000Y-59166214D01*
X97718619Y-59118595D01*
X97813857Y-59070976D01*
X97909095Y-59070976D01*
X98051952Y-59118595D01*
X98623380Y-59690023D01*
X98623380Y-59070976D01*
X97670880Y-55975285D02*
X97670880Y-56546714D01*
X97670880Y-56261000D02*
X96670880Y-56261000D01*
X96813738Y-56356238D01*
X96908976Y-56451476D01*
X96956595Y-56546714D01*
G04 #@! TO.C,P2*
X54173380Y-47029595D02*
X53173380Y-47029595D01*
X53173380Y-46648642D01*
X53221000Y-46553404D01*
X53268619Y-46505785D01*
X53363857Y-46458166D01*
X53506714Y-46458166D01*
X53601952Y-46505785D01*
X53649571Y-46553404D01*
X53697190Y-46648642D01*
X53697190Y-47029595D01*
X53268619Y-46077214D02*
X53221000Y-46029595D01*
X53173380Y-45934357D01*
X53173380Y-45696261D01*
X53221000Y-45601023D01*
X53268619Y-45553404D01*
X53363857Y-45505785D01*
X53459095Y-45505785D01*
X53601952Y-45553404D01*
X54173380Y-46124833D01*
X54173380Y-45505785D01*
G04 #@! TO.C,C1*
X72048642Y-83859666D02*
X72096261Y-83907285D01*
X72143880Y-84050142D01*
X72143880Y-84145380D01*
X72096261Y-84288238D01*
X72001023Y-84383476D01*
X71905785Y-84431095D01*
X71715309Y-84478714D01*
X71572452Y-84478714D01*
X71381976Y-84431095D01*
X71286738Y-84383476D01*
X71191500Y-84288238D01*
X71143880Y-84145380D01*
X71143880Y-84050142D01*
X71191500Y-83907285D01*
X71239119Y-83859666D01*
X72143880Y-82907285D02*
X72143880Y-83478714D01*
X72143880Y-83193000D02*
X71143880Y-83193000D01*
X71286738Y-83288238D01*
X71381976Y-83383476D01*
X71429595Y-83478714D01*
G04 #@! TO.C,C2*
X80176642Y-81700666D02*
X80224261Y-81748285D01*
X80271880Y-81891142D01*
X80271880Y-81986380D01*
X80224261Y-82129238D01*
X80129023Y-82224476D01*
X80033785Y-82272095D01*
X79843309Y-82319714D01*
X79700452Y-82319714D01*
X79509976Y-82272095D01*
X79414738Y-82224476D01*
X79319500Y-82129238D01*
X79271880Y-81986380D01*
X79271880Y-81891142D01*
X79319500Y-81748285D01*
X79367119Y-81700666D01*
X79367119Y-81319714D02*
X79319500Y-81272095D01*
X79271880Y-81176857D01*
X79271880Y-80938761D01*
X79319500Y-80843523D01*
X79367119Y-80795904D01*
X79462357Y-80748285D01*
X79557595Y-80748285D01*
X79700452Y-80795904D01*
X80271880Y-81367333D01*
X80271880Y-80748285D01*
G04 #@! TO.C,C3*
X72112142Y-79795666D02*
X72159761Y-79843285D01*
X72207380Y-79986142D01*
X72207380Y-80081380D01*
X72159761Y-80224238D01*
X72064523Y-80319476D01*
X71969285Y-80367095D01*
X71778809Y-80414714D01*
X71635952Y-80414714D01*
X71445476Y-80367095D01*
X71350238Y-80319476D01*
X71255000Y-80224238D01*
X71207380Y-80081380D01*
X71207380Y-79986142D01*
X71255000Y-79843285D01*
X71302619Y-79795666D01*
X71207380Y-79462333D02*
X71207380Y-78843285D01*
X71588333Y-79176619D01*
X71588333Y-79033761D01*
X71635952Y-78938523D01*
X71683571Y-78890904D01*
X71778809Y-78843285D01*
X72016904Y-78843285D01*
X72112142Y-78890904D01*
X72159761Y-78938523D01*
X72207380Y-79033761D01*
X72207380Y-79319476D01*
X72159761Y-79414714D01*
X72112142Y-79462333D01*
G04 #@! TO.C,C4*
X80430642Y-77890666D02*
X80478261Y-77938285D01*
X80525880Y-78081142D01*
X80525880Y-78176380D01*
X80478261Y-78319238D01*
X80383023Y-78414476D01*
X80287785Y-78462095D01*
X80097309Y-78509714D01*
X79954452Y-78509714D01*
X79763976Y-78462095D01*
X79668738Y-78414476D01*
X79573500Y-78319238D01*
X79525880Y-78176380D01*
X79525880Y-78081142D01*
X79573500Y-77938285D01*
X79621119Y-77890666D01*
X79859214Y-77033523D02*
X80525880Y-77033523D01*
X79478261Y-77271619D02*
X80192547Y-77509714D01*
X80192547Y-76890666D01*
G04 #@! TO.C,C5*
X72048642Y-73953666D02*
X72096261Y-74001285D01*
X72143880Y-74144142D01*
X72143880Y-74239380D01*
X72096261Y-74382238D01*
X72001023Y-74477476D01*
X71905785Y-74525095D01*
X71715309Y-74572714D01*
X71572452Y-74572714D01*
X71381976Y-74525095D01*
X71286738Y-74477476D01*
X71191500Y-74382238D01*
X71143880Y-74239380D01*
X71143880Y-74144142D01*
X71191500Y-74001285D01*
X71239119Y-73953666D01*
X71143880Y-73048904D02*
X71143880Y-73525095D01*
X71620071Y-73572714D01*
X71572452Y-73525095D01*
X71524833Y-73429857D01*
X71524833Y-73191761D01*
X71572452Y-73096523D01*
X71620071Y-73048904D01*
X71715309Y-73001285D01*
X71953404Y-73001285D01*
X72048642Y-73048904D01*
X72096261Y-73096523D01*
X72143880Y-73191761D01*
X72143880Y-73429857D01*
X72096261Y-73525095D01*
X72048642Y-73572714D01*
G04 #@! TO.C,C6*
X81700642Y-73953666D02*
X81748261Y-74001285D01*
X81795880Y-74144142D01*
X81795880Y-74239380D01*
X81748261Y-74382238D01*
X81653023Y-74477476D01*
X81557785Y-74525095D01*
X81367309Y-74572714D01*
X81224452Y-74572714D01*
X81033976Y-74525095D01*
X80938738Y-74477476D01*
X80843500Y-74382238D01*
X80795880Y-74239380D01*
X80795880Y-74144142D01*
X80843500Y-74001285D01*
X80891119Y-73953666D01*
X80795880Y-73096523D02*
X80795880Y-73287000D01*
X80843500Y-73382238D01*
X80891119Y-73429857D01*
X81033976Y-73525095D01*
X81224452Y-73572714D01*
X81605404Y-73572714D01*
X81700642Y-73525095D01*
X81748261Y-73477476D01*
X81795880Y-73382238D01*
X81795880Y-73191761D01*
X81748261Y-73096523D01*
X81700642Y-73048904D01*
X81605404Y-73001285D01*
X81367309Y-73001285D01*
X81272071Y-73048904D01*
X81224452Y-73096523D01*
X81176833Y-73191761D01*
X81176833Y-73382238D01*
X81224452Y-73477476D01*
X81272071Y-73525095D01*
X81367309Y-73572714D01*
G04 #@! TO.C,C7*
X73255142Y-69064166D02*
X73302761Y-69111785D01*
X73350380Y-69254642D01*
X73350380Y-69349880D01*
X73302761Y-69492738D01*
X73207523Y-69587976D01*
X73112285Y-69635595D01*
X72921809Y-69683214D01*
X72778952Y-69683214D01*
X72588476Y-69635595D01*
X72493238Y-69587976D01*
X72398000Y-69492738D01*
X72350380Y-69349880D01*
X72350380Y-69254642D01*
X72398000Y-69111785D01*
X72445619Y-69064166D01*
X72350380Y-68730833D02*
X72350380Y-68064166D01*
X73350380Y-68492738D01*
G04 #@! TO.C,C8*
X80494142Y-69064166D02*
X80541761Y-69111785D01*
X80589380Y-69254642D01*
X80589380Y-69349880D01*
X80541761Y-69492738D01*
X80446523Y-69587976D01*
X80351285Y-69635595D01*
X80160809Y-69683214D01*
X80017952Y-69683214D01*
X79827476Y-69635595D01*
X79732238Y-69587976D01*
X79637000Y-69492738D01*
X79589380Y-69349880D01*
X79589380Y-69254642D01*
X79637000Y-69111785D01*
X79684619Y-69064166D01*
X80017952Y-68492738D02*
X79970333Y-68587976D01*
X79922714Y-68635595D01*
X79827476Y-68683214D01*
X79779857Y-68683214D01*
X79684619Y-68635595D01*
X79637000Y-68587976D01*
X79589380Y-68492738D01*
X79589380Y-68302261D01*
X79637000Y-68207023D01*
X79684619Y-68159404D01*
X79779857Y-68111785D01*
X79827476Y-68111785D01*
X79922714Y-68159404D01*
X79970333Y-68207023D01*
X80017952Y-68302261D01*
X80017952Y-68492738D01*
X80065571Y-68587976D01*
X80113190Y-68635595D01*
X80208428Y-68683214D01*
X80398904Y-68683214D01*
X80494142Y-68635595D01*
X80541761Y-68587976D01*
X80589380Y-68492738D01*
X80589380Y-68302261D01*
X80541761Y-68207023D01*
X80494142Y-68159404D01*
X80398904Y-68111785D01*
X80208428Y-68111785D01*
X80113190Y-68159404D01*
X80065571Y-68207023D01*
X80017952Y-68302261D01*
G04 #@! TO.C,C9*
X71540642Y-63857166D02*
X71588261Y-63904785D01*
X71635880Y-64047642D01*
X71635880Y-64142880D01*
X71588261Y-64285738D01*
X71493023Y-64380976D01*
X71397785Y-64428595D01*
X71207309Y-64476214D01*
X71064452Y-64476214D01*
X70873976Y-64428595D01*
X70778738Y-64380976D01*
X70683500Y-64285738D01*
X70635880Y-64142880D01*
X70635880Y-64047642D01*
X70683500Y-63904785D01*
X70731119Y-63857166D01*
X71635880Y-63380976D02*
X71635880Y-63190500D01*
X71588261Y-63095261D01*
X71540642Y-63047642D01*
X71397785Y-62952404D01*
X71207309Y-62904785D01*
X70826357Y-62904785D01*
X70731119Y-62952404D01*
X70683500Y-63000023D01*
X70635880Y-63095261D01*
X70635880Y-63285738D01*
X70683500Y-63380976D01*
X70731119Y-63428595D01*
X70826357Y-63476214D01*
X71064452Y-63476214D01*
X71159690Y-63428595D01*
X71207309Y-63380976D01*
X71254928Y-63285738D01*
X71254928Y-63095261D01*
X71207309Y-63000023D01*
X71159690Y-62952404D01*
X71064452Y-62904785D01*
G04 #@! TO.C,C10*
X84240642Y-65095357D02*
X84288261Y-65142976D01*
X84335880Y-65285833D01*
X84335880Y-65381071D01*
X84288261Y-65523928D01*
X84193023Y-65619166D01*
X84097785Y-65666785D01*
X83907309Y-65714404D01*
X83764452Y-65714404D01*
X83573976Y-65666785D01*
X83478738Y-65619166D01*
X83383500Y-65523928D01*
X83335880Y-65381071D01*
X83335880Y-65285833D01*
X83383500Y-65142976D01*
X83431119Y-65095357D01*
X84335880Y-64142976D02*
X84335880Y-64714404D01*
X84335880Y-64428690D02*
X83335880Y-64428690D01*
X83478738Y-64523928D01*
X83573976Y-64619166D01*
X83621595Y-64714404D01*
X83335880Y-63523928D02*
X83335880Y-63428690D01*
X83383500Y-63333452D01*
X83431119Y-63285833D01*
X83526357Y-63238214D01*
X83716833Y-63190595D01*
X83954928Y-63190595D01*
X84145404Y-63238214D01*
X84240642Y-63285833D01*
X84288261Y-63333452D01*
X84335880Y-63428690D01*
X84335880Y-63523928D01*
X84288261Y-63619166D01*
X84240642Y-63666785D01*
X84145404Y-63714404D01*
X83954928Y-63762023D01*
X83716833Y-63762023D01*
X83526357Y-63714404D01*
X83431119Y-63666785D01*
X83383500Y-63619166D01*
X83335880Y-63523928D01*
G04 #@! TO.C,C11*
X71937642Y-55094142D02*
X71890023Y-55141761D01*
X71747166Y-55189380D01*
X71651928Y-55189380D01*
X71509071Y-55141761D01*
X71413833Y-55046523D01*
X71366214Y-54951285D01*
X71318595Y-54760809D01*
X71318595Y-54617952D01*
X71366214Y-54427476D01*
X71413833Y-54332238D01*
X71509071Y-54237000D01*
X71651928Y-54189380D01*
X71747166Y-54189380D01*
X71890023Y-54237000D01*
X71937642Y-54284619D01*
X72890023Y-55189380D02*
X72318595Y-55189380D01*
X72604309Y-55189380D02*
X72604309Y-54189380D01*
X72509071Y-54332238D01*
X72413833Y-54427476D01*
X72318595Y-54475095D01*
X73842404Y-55189380D02*
X73270976Y-55189380D01*
X73556690Y-55189380D02*
X73556690Y-54189380D01*
X73461452Y-54332238D01*
X73366214Y-54427476D01*
X73270976Y-54475095D01*
G04 #@! TO.C,C12*
X96067642Y-66778142D02*
X96020023Y-66825761D01*
X95877166Y-66873380D01*
X95781928Y-66873380D01*
X95639071Y-66825761D01*
X95543833Y-66730523D01*
X95496214Y-66635285D01*
X95448595Y-66444809D01*
X95448595Y-66301952D01*
X95496214Y-66111476D01*
X95543833Y-66016238D01*
X95639071Y-65921000D01*
X95781928Y-65873380D01*
X95877166Y-65873380D01*
X96020023Y-65921000D01*
X96067642Y-65968619D01*
X97020023Y-66873380D02*
X96448595Y-66873380D01*
X96734309Y-66873380D02*
X96734309Y-65873380D01*
X96639071Y-66016238D01*
X96543833Y-66111476D01*
X96448595Y-66159095D01*
X97400976Y-65968619D02*
X97448595Y-65921000D01*
X97543833Y-65873380D01*
X97781928Y-65873380D01*
X97877166Y-65921000D01*
X97924785Y-65968619D01*
X97972404Y-66063857D01*
X97972404Y-66159095D01*
X97924785Y-66301952D01*
X97353357Y-66873380D01*
X97972404Y-66873380D01*
G04 #@! TO.C,L1*
X73350380Y-81764166D02*
X73350380Y-82240357D01*
X72350380Y-82240357D01*
X73350380Y-80907023D02*
X73350380Y-81478452D01*
X73350380Y-81192738D02*
X72350380Y-81192738D01*
X72493238Y-81287976D01*
X72588476Y-81383214D01*
X72636095Y-81478452D01*
G04 #@! TO.C,L2*
X73413880Y-77763666D02*
X73413880Y-78239857D01*
X72413880Y-78239857D01*
X72509119Y-77477952D02*
X72461500Y-77430333D01*
X72413880Y-77335095D01*
X72413880Y-77097000D01*
X72461500Y-77001761D01*
X72509119Y-76954142D01*
X72604357Y-76906523D01*
X72699595Y-76906523D01*
X72842452Y-76954142D01*
X73413880Y-77525571D01*
X73413880Y-76906523D01*
G04 #@! TO.C,L3*
X81795880Y-75922166D02*
X81795880Y-76398357D01*
X80795880Y-76398357D01*
X80795880Y-75684071D02*
X80795880Y-75065023D01*
X81176833Y-75398357D01*
X81176833Y-75255500D01*
X81224452Y-75160261D01*
X81272071Y-75112642D01*
X81367309Y-75065023D01*
X81605404Y-75065023D01*
X81700642Y-75112642D01*
X81748261Y-75160261D01*
X81795880Y-75255500D01*
X81795880Y-75541214D01*
X81748261Y-75636452D01*
X81700642Y-75684071D01*
G04 #@! TO.C,L4*
X73350380Y-71731166D02*
X73350380Y-72207357D01*
X72350380Y-72207357D01*
X72683714Y-70969261D02*
X73350380Y-70969261D01*
X72302761Y-71207357D02*
X73017047Y-71445452D01*
X73017047Y-70826404D01*
G04 #@! TO.C,L5*
X80652880Y-71731166D02*
X80652880Y-72207357D01*
X79652880Y-72207357D01*
X79652880Y-70921642D02*
X79652880Y-71397833D01*
X80129071Y-71445452D01*
X80081452Y-71397833D01*
X80033833Y-71302595D01*
X80033833Y-71064500D01*
X80081452Y-70969261D01*
X80129071Y-70921642D01*
X80224309Y-70874023D01*
X80462404Y-70874023D01*
X80557642Y-70921642D01*
X80605261Y-70969261D01*
X80652880Y-71064500D01*
X80652880Y-71302595D01*
X80605261Y-71397833D01*
X80557642Y-71445452D01*
G04 #@! TO.C,L6*
X81478380Y-66778166D02*
X81478380Y-67254357D01*
X80478380Y-67254357D01*
X80478380Y-66016261D02*
X80478380Y-66206738D01*
X80526000Y-66301976D01*
X80573619Y-66349595D01*
X80716476Y-66444833D01*
X80906952Y-66492452D01*
X81287904Y-66492452D01*
X81383142Y-66444833D01*
X81430761Y-66397214D01*
X81478380Y-66301976D01*
X81478380Y-66111500D01*
X81430761Y-66016261D01*
X81383142Y-65968642D01*
X81287904Y-65921023D01*
X81049809Y-65921023D01*
X80954571Y-65968642D01*
X80906952Y-66016261D01*
X80859333Y-66111500D01*
X80859333Y-66301976D01*
X80906952Y-66397214D01*
X80954571Y-66444833D01*
X81049809Y-66492452D01*
G04 #@! TO.C,L7*
X72016880Y-66778166D02*
X72016880Y-67254357D01*
X71016880Y-67254357D01*
X71016880Y-66540071D02*
X71016880Y-65873404D01*
X72016880Y-66301976D01*
G04 #@! TO.C,L8*
X84018380Y-61952166D02*
X84018380Y-62428357D01*
X83018380Y-62428357D01*
X83446952Y-61475976D02*
X83399333Y-61571214D01*
X83351714Y-61618833D01*
X83256476Y-61666452D01*
X83208857Y-61666452D01*
X83113619Y-61618833D01*
X83066000Y-61571214D01*
X83018380Y-61475976D01*
X83018380Y-61285500D01*
X83066000Y-61190261D01*
X83113619Y-61142642D01*
X83208857Y-61095023D01*
X83256476Y-61095023D01*
X83351714Y-61142642D01*
X83399333Y-61190261D01*
X83446952Y-61285500D01*
X83446952Y-61475976D01*
X83494571Y-61571214D01*
X83542190Y-61618833D01*
X83637428Y-61666452D01*
X83827904Y-61666452D01*
X83923142Y-61618833D01*
X83970761Y-61571214D01*
X84018380Y-61475976D01*
X84018380Y-61285500D01*
X83970761Y-61190261D01*
X83923142Y-61142642D01*
X83827904Y-61095023D01*
X83637428Y-61095023D01*
X83542190Y-61142642D01*
X83494571Y-61190261D01*
X83446952Y-61285500D01*
G04 #@! TO.C,P1*
X81080880Y-89828595D02*
X80080880Y-89828595D01*
X80080880Y-89447642D01*
X80128500Y-89352404D01*
X80176119Y-89304785D01*
X80271357Y-89257166D01*
X80414214Y-89257166D01*
X80509452Y-89304785D01*
X80557071Y-89352404D01*
X80604690Y-89447642D01*
X80604690Y-89828595D01*
X81080880Y-88304785D02*
X81080880Y-88876214D01*
X81080880Y-88590500D02*
X80080880Y-88590500D01*
X80223738Y-88685738D01*
X80318976Y-88780976D01*
X80366595Y-88876214D01*
G04 #@! TO.C,P3*
X60983904Y-66536380D02*
X60983904Y-65536380D01*
X61364857Y-65536380D01*
X61460095Y-65584000D01*
X61507714Y-65631619D01*
X61555333Y-65726857D01*
X61555333Y-65869714D01*
X61507714Y-65964952D01*
X61460095Y-66012571D01*
X61364857Y-66060190D01*
X60983904Y-66060190D01*
X61888666Y-65536380D02*
X62507714Y-65536380D01*
X62174380Y-65917333D01*
X62317238Y-65917333D01*
X62412476Y-65964952D01*
X62460095Y-66012571D01*
X62507714Y-66107809D01*
X62507714Y-66345904D01*
X62460095Y-66441142D01*
X62412476Y-66488761D01*
X62317238Y-66536380D01*
X62031523Y-66536380D01*
X61936285Y-66488761D01*
X61888666Y-66441142D01*
G04 #@! TO.C,R1*
X57046833Y-63380880D02*
X56713500Y-62904690D01*
X56475404Y-63380880D02*
X56475404Y-62380880D01*
X56856357Y-62380880D01*
X56951595Y-62428500D01*
X56999214Y-62476119D01*
X57046833Y-62571357D01*
X57046833Y-62714214D01*
X56999214Y-62809452D01*
X56951595Y-62857071D01*
X56856357Y-62904690D01*
X56475404Y-62904690D01*
X57999214Y-63380880D02*
X57427785Y-63380880D01*
X57713500Y-63380880D02*
X57713500Y-62380880D01*
X57618261Y-62523738D01*
X57523023Y-62618976D01*
X57427785Y-62666595D01*
G04 #@! TO.C,R2*
X56856333Y-57284880D02*
X56523000Y-56808690D01*
X56284904Y-57284880D02*
X56284904Y-56284880D01*
X56665857Y-56284880D01*
X56761095Y-56332500D01*
X56808714Y-56380119D01*
X56856333Y-56475357D01*
X56856333Y-56618214D01*
X56808714Y-56713452D01*
X56761095Y-56761071D01*
X56665857Y-56808690D01*
X56284904Y-56808690D01*
X57237285Y-56380119D02*
X57284904Y-56332500D01*
X57380142Y-56284880D01*
X57618238Y-56284880D01*
X57713476Y-56332500D01*
X57761095Y-56380119D01*
X57808714Y-56475357D01*
X57808714Y-56570595D01*
X57761095Y-56713452D01*
X57189666Y-57284880D01*
X57808714Y-57284880D01*
G04 #@! TO.C,R3*
X97305833Y-51125380D02*
X96972500Y-50649190D01*
X96734404Y-51125380D02*
X96734404Y-50125380D01*
X97115357Y-50125380D01*
X97210595Y-50173000D01*
X97258214Y-50220619D01*
X97305833Y-50315857D01*
X97305833Y-50458714D01*
X97258214Y-50553952D01*
X97210595Y-50601571D01*
X97115357Y-50649190D01*
X96734404Y-50649190D01*
X97639166Y-50125380D02*
X98258214Y-50125380D01*
X97924880Y-50506333D01*
X98067738Y-50506333D01*
X98162976Y-50553952D01*
X98210595Y-50601571D01*
X98258214Y-50696809D01*
X98258214Y-50934904D01*
X98210595Y-51030142D01*
X98162976Y-51077761D01*
X98067738Y-51125380D01*
X97782023Y-51125380D01*
X97686785Y-51077761D01*
X97639166Y-51030142D01*
G04 #@! TO.C,R4*
X94892833Y-50998380D02*
X94559500Y-50522190D01*
X94321404Y-50998380D02*
X94321404Y-49998380D01*
X94702357Y-49998380D01*
X94797595Y-50046000D01*
X94845214Y-50093619D01*
X94892833Y-50188857D01*
X94892833Y-50331714D01*
X94845214Y-50426952D01*
X94797595Y-50474571D01*
X94702357Y-50522190D01*
X94321404Y-50522190D01*
X95749976Y-50331714D02*
X95749976Y-50998380D01*
X95511880Y-49950761D02*
X95273785Y-50665047D01*
X95892833Y-50665047D01*
G04 #@! TO.C,R5*
X54506833Y-53665380D02*
X54173500Y-53189190D01*
X53935404Y-53665380D02*
X53935404Y-52665380D01*
X54316357Y-52665380D01*
X54411595Y-52713000D01*
X54459214Y-52760619D01*
X54506833Y-52855857D01*
X54506833Y-52998714D01*
X54459214Y-53093952D01*
X54411595Y-53141571D01*
X54316357Y-53189190D01*
X53935404Y-53189190D01*
X55411595Y-52665380D02*
X54935404Y-52665380D01*
X54887785Y-53141571D01*
X54935404Y-53093952D01*
X55030642Y-53046333D01*
X55268738Y-53046333D01*
X55363976Y-53093952D01*
X55411595Y-53141571D01*
X55459214Y-53236809D01*
X55459214Y-53474904D01*
X55411595Y-53570142D01*
X55363976Y-53617761D01*
X55268738Y-53665380D01*
X55030642Y-53665380D01*
X54935404Y-53617761D01*
X54887785Y-53570142D01*
G04 #@! TO.C,IC1*
D13*
X82088203Y-56642241D02*
X80818203Y-56642241D01*
X81967251Y-55311765D02*
X82027727Y-55372241D01*
X82088203Y-55553670D01*
X82088203Y-55674622D01*
X82027727Y-55856051D01*
X81906775Y-55977003D01*
X81785822Y-56037480D01*
X81543918Y-56097956D01*
X81362489Y-56097956D01*
X81120584Y-56037480D01*
X80999632Y-55977003D01*
X80878680Y-55856051D01*
X80818203Y-55674622D01*
X80818203Y-55553670D01*
X80878680Y-55372241D01*
X80939156Y-55311765D01*
X82088203Y-54102241D02*
X82088203Y-54827956D01*
X82088203Y-54465099D02*
X80818203Y-54465099D01*
X80999632Y-54586051D01*
X81120584Y-54707003D01*
X81181060Y-54827956D01*
G04 #@! TD*
M02*
