M48
;DRILL file {KiCad 5.0.1-33cea8e~67~ubuntu18.04.1} date Mon 03 Dec 2018 04:30:45 PM CST
;FORMAT={3:3/ absolute / metric / suppress leading zeros}
FMAT,2
METRIC,TZ
T1C0.400
T2C1.000
T3C1.016
T4C1.500
T5C1.700
T6C2.750
%
G90
G05
M71
T1
X52324Y-45974
X55499Y-62103
X55753Y-58674
X58674Y-47752
X58674Y-63754
X59055Y-51054
X64262Y-58674
X64262Y-61214
X65405Y-63119
X65659Y-46038
X67691Y-46039
X70231Y-60960
X70231Y-86614
X70358Y-91694
X70612Y-58166
X70866Y-55753
X71374Y-39497
X71374Y-59055
X71501Y-64897
X72136Y-60071
X72644Y-66675
X72771Y-73787
X72771Y-79502
X72771Y-83566
X72898Y-82487
X72962Y-72771
X73025Y-65468
X73089Y-78423
X73152Y-67755
X73152Y-80709
X73216Y-74867
X73660Y-53594
X73787Y-42037
X74105Y-71120
X74105Y-72263
X74105Y-76454
X74105Y-77597
X74232Y-80772
X74232Y-82106
X74295Y-74930
X74359Y-68009
X74359Y-69025
X74359Y-70041
X74486Y-65278
X74867Y-75692
X75184Y-45974
X75692Y-63754
X75692Y-64961
X76835Y-83566
X77089Y-54864
X77407Y-79502
X77724Y-45974
X77788Y-63754
X77788Y-64961
X77978Y-53784
X78042Y-83503
X78423Y-80264
X78423Y-81344
X78423Y-82487
X78613Y-67945
X78613Y-68961
X78613Y-69977
X78613Y-76581
X78613Y-77661
X78613Y-78804
X78740Y-70993
X78740Y-72072
X78867Y-54864
X78931Y-64961
X79693Y-72517
X79756Y-56896
X79756Y-67691
X79883Y-76391
X80010Y-65532
X80010Y-66675
X80137Y-73787
X80137Y-75311
X80264Y-45974
X80899Y-86487
X81026Y-91694
X81153Y-58420
X81407Y-45974
X82804Y-63881
X93218Y-56388
X93599Y-55118
X94107Y-61341
X95123Y-62357
X95377Y-52197
X96647Y-65024
X97155Y-52197
X98552Y-56388
T2
X61722Y-51054
X61722Y-53594
X61722Y-56134
X61722Y-58674
X61722Y-61214
X61722Y-63754
T3
X52270Y-40830
X52270Y-43370
X54810Y-40830
X54810Y-43370
X57350Y-40830
X57350Y-43370
X59890Y-40830
X59890Y-43370
X62430Y-40830
X62430Y-43370
X64970Y-40830
X64970Y-43370
X67510Y-40830
X67510Y-43370
X70050Y-40830
X70050Y-43370
X72590Y-40830
X72590Y-43370
X75130Y-40830
X75130Y-43370
X77670Y-40830
X77670Y-43370
X80210Y-40830
X80210Y-43370
X82750Y-40830
X82750Y-43370
X85290Y-40830
X85290Y-43370
X87830Y-40830
X87830Y-43370
X90370Y-40830
X90370Y-43370
X92910Y-40830
X92910Y-43370
X95450Y-40830
X95450Y-43370
X97990Y-40830
X97990Y-43370
X100530Y-40830
X100530Y-43370
T4
X75629Y-89091
T5
X73089Y-86551
X73089Y-91631
X78169Y-86551
X78169Y-91631
T6
X47400Y-91100
X105400Y-91100
X47400Y-42100
X105400Y-42100
T0
M30
