G04 #@! TF.GenerationSoftware,KiCad,Pcbnew,5.0.1-33cea8e~67~ubuntu18.04.1*
G04 #@! TF.CreationDate,2018-12-03T16:30:20-06:00*
G04 #@! TF.ProjectId,PiHatAx5043,50694861744178353034332E6B696361,V1.3*
G04 #@! TF.SameCoordinates,Original*
G04 #@! TF.FileFunction,Copper,L4,Bot,Signal*
G04 #@! TF.FilePolarity,Positive*
%FSLAX46Y46*%
G04 Gerber Fmt 4.6, Leading zero omitted, Abs format (unit mm)*
G04 Created by KiCad (PCBNEW 5.0.1-33cea8e~67~ubuntu18.04.1) date Mon 03 Dec 2018 04:30:20 PM CST*
%MOMM*%
%LPD*%
G01*
G04 APERTURE LIST*
G04 #@! TA.AperFunction,ComponentPad*
%ADD10R,1.727200X1.727200*%
G04 #@! TD*
G04 #@! TA.AperFunction,ComponentPad*
%ADD11O,1.727200X1.727200*%
G04 #@! TD*
G04 #@! TA.AperFunction,ComponentPad*
%ADD12C,2.200000*%
G04 #@! TD*
G04 #@! TA.AperFunction,ComponentPad*
%ADD13C,2.000000*%
G04 #@! TD*
G04 #@! TA.AperFunction,ComponentPad*
%ADD14R,1.700000X1.700000*%
G04 #@! TD*
G04 #@! TA.AperFunction,ComponentPad*
%ADD15O,1.700000X1.700000*%
G04 #@! TD*
G04 #@! TA.AperFunction,ViaPad*
%ADD16C,0.800000*%
G04 #@! TD*
G04 #@! TA.AperFunction,Conductor*
%ADD17C,0.250000*%
G04 #@! TD*
G04 #@! TA.AperFunction,Conductor*
%ADD18C,0.254000*%
G04 #@! TD*
G04 APERTURE END LIST*
D10*
G04 #@! TO.P,P2,1*
G04 #@! TO.N,+3V3*
X52270000Y-43370000D03*
D11*
G04 #@! TO.P,P2,2*
G04 #@! TO.N,+5V*
X52270000Y-40830000D03*
G04 #@! TO.P,P2,3*
G04 #@! TO.N,/GPIO0(SDA)*
X54810000Y-43370000D03*
G04 #@! TO.P,P2,4*
G04 #@! TO.N,Net-(P2-Pad4)*
X54810000Y-40830000D03*
G04 #@! TO.P,P2,5*
G04 #@! TO.N,/GPIO1(SCL)*
X57350000Y-43370000D03*
G04 #@! TO.P,P2,6*
G04 #@! TO.N,GND*
X57350000Y-40830000D03*
G04 #@! TO.P,P2,7*
G04 #@! TO.N,/GPIO4*
X59890000Y-43370000D03*
G04 #@! TO.P,P2,8*
G04 #@! TO.N,/TXD*
X59890000Y-40830000D03*
G04 #@! TO.P,P2,9*
G04 #@! TO.N,Net-(P2-Pad9)*
X62430000Y-43370000D03*
G04 #@! TO.P,P2,10*
G04 #@! TO.N,/RXD*
X62430000Y-40830000D03*
G04 #@! TO.P,P2,11*
G04 #@! TO.N,AX5043_IRQ*
X64970000Y-43370000D03*
G04 #@! TO.P,P2,12*
G04 #@! TO.N,/GPIO18*
X64970000Y-40830000D03*
G04 #@! TO.P,P2,13*
G04 #@! TO.N,AX5043_SYSCLK*
X67510000Y-43370000D03*
G04 #@! TO.P,P2,14*
G04 #@! TO.N,Net-(P2-Pad14)*
X67510000Y-40830000D03*
G04 #@! TO.P,P2,15*
G04 #@! TO.N,Net-(P2-Pad15)*
X70050000Y-43370000D03*
G04 #@! TO.P,P2,16*
G04 #@! TO.N,I2C_SDA*
X70050000Y-40830000D03*
G04 #@! TO.P,P2,17*
G04 #@! TO.N,Net-(P2-Pad17)*
X72590000Y-43370000D03*
G04 #@! TO.P,P2,18*
G04 #@! TO.N,I2C_SCL*
X72590000Y-40830000D03*
G04 #@! TO.P,P2,19*
G04 #@! TO.N,AX5043_MOSI*
X75130000Y-43370000D03*
G04 #@! TO.P,P2,20*
G04 #@! TO.N,Net-(P2-Pad20)*
X75130000Y-40830000D03*
G04 #@! TO.P,P2,21*
G04 #@! TO.N,AX5043_MISO*
X77670000Y-43370000D03*
G04 #@! TO.P,P2,22*
G04 #@! TO.N,/GPIO25*
X77670000Y-40830000D03*
G04 #@! TO.P,P2,23*
G04 #@! TO.N,AX5043_CLK*
X80210000Y-43370000D03*
G04 #@! TO.P,P2,24*
G04 #@! TO.N,AX5043_SEL*
X80210000Y-40830000D03*
G04 #@! TO.P,P2,25*
G04 #@! TO.N,Net-(P2-Pad25)*
X82750000Y-43370000D03*
G04 #@! TO.P,P2,26*
G04 #@! TO.N,/GPIO7(CE1)*
X82750000Y-40830000D03*
G04 #@! TO.P,P2,27*
G04 #@! TO.N,N/C*
X85290000Y-43370000D03*
G04 #@! TO.P,P2,28*
X85290000Y-40830000D03*
G04 #@! TO.P,P2,29*
X87830000Y-43370000D03*
G04 #@! TO.P,P2,30*
X87830000Y-40830000D03*
G04 #@! TO.P,P2,31*
X90370000Y-43370000D03*
G04 #@! TO.P,P2,32*
X90370000Y-40830000D03*
G04 #@! TO.P,P2,33*
X92910000Y-43370000D03*
G04 #@! TO.P,P2,34*
X92910000Y-40830000D03*
G04 #@! TO.P,P2,35*
X95450000Y-43370000D03*
G04 #@! TO.P,P2,36*
X95450000Y-40830000D03*
G04 #@! TO.P,P2,37*
X97990000Y-43370000D03*
G04 #@! TO.P,P2,38*
X97990000Y-40830000D03*
G04 #@! TO.P,P2,39*
X100530000Y-43370000D03*
G04 #@! TO.P,P2,40*
X100530000Y-40830000D03*
G04 #@! TD*
D12*
G04 #@! TO.P,P1,2*
G04 #@! TO.N,GND*
X73088500Y-86550500D03*
X78168500Y-86550500D03*
X78168500Y-91630500D03*
X73088500Y-91630500D03*
D13*
G04 #@! TO.P,P1,1*
G04 #@! TO.N,Net-(C1-Pad1)*
X75628500Y-89090500D03*
G04 #@! TD*
D14*
G04 #@! TO.P,P3,1*
G04 #@! TO.N,+3V3*
X61722000Y-63754000D03*
D15*
G04 #@! TO.P,P3,2*
G04 #@! TO.N,AX5043_GPADC2*
X61722000Y-61214000D03*
G04 #@! TO.P,P3,3*
G04 #@! TO.N,AX5043_GPADC1*
X61722000Y-58674000D03*
G04 #@! TO.P,P3,4*
G04 #@! TO.N,Net-(P3-Pad4)*
X61722000Y-56134000D03*
G04 #@! TO.P,P3,5*
G04 #@! TO.N,Net-(P3-Pad5)*
X61722000Y-53594000D03*
G04 #@! TO.P,P3,6*
G04 #@! TO.N,GND*
X61722000Y-51054000D03*
G04 #@! TD*
D16*
G04 #@! TO.N,GND*
X78930500Y-64960500D03*
X80010000Y-66675000D03*
X80010000Y-65532000D03*
X77787500Y-63754000D03*
X77787500Y-64960500D03*
X59055000Y-51054000D03*
X82804000Y-63881000D03*
X72771000Y-79502000D03*
X72898000Y-82486500D03*
X74231500Y-82105500D03*
X74231500Y-80772000D03*
X73152000Y-80708500D03*
X72771000Y-73787000D03*
X73088500Y-78422500D03*
X74104500Y-77597000D03*
X74104500Y-76454000D03*
X74866500Y-75692000D03*
X74295000Y-74930000D03*
X73215500Y-74866500D03*
X72644000Y-66675000D03*
X72961500Y-72771000D03*
X74104500Y-72263000D03*
X74104500Y-71120000D03*
X74358500Y-70040500D03*
X74358500Y-69024500D03*
X74358500Y-68008500D03*
X73152000Y-67754500D03*
X73025000Y-65468500D03*
X74485500Y-65278000D03*
X75692000Y-64960500D03*
X80137000Y-75311000D03*
X76835000Y-83566000D03*
X78041500Y-83502500D03*
X78422500Y-82486500D03*
X78422500Y-81343500D03*
X78422500Y-80264000D03*
X77406500Y-79502000D03*
X78613000Y-78803500D03*
X78613000Y-77660500D03*
X78613000Y-76581000D03*
X79883000Y-76390500D03*
X78613000Y-67945000D03*
X79756000Y-67691000D03*
X79692500Y-72517000D03*
X78740000Y-72072500D03*
X78740000Y-70993000D03*
X78613000Y-69977000D03*
X78613000Y-68961000D03*
X93218000Y-56388000D03*
X72771000Y-83566000D03*
X58674000Y-47752000D03*
X55753000Y-58674000D03*
X55499000Y-62103000D03*
X70866000Y-55753000D03*
X65405000Y-63119000D03*
X70231000Y-60960000D03*
X71501000Y-64897000D03*
X94107000Y-61341000D03*
X96647000Y-65024000D03*
X80137000Y-73787000D03*
X81026000Y-91694000D03*
X80899000Y-86487000D03*
X70231000Y-86614000D03*
X70358000Y-91694000D03*
X75692000Y-63754000D03*
G04 #@! TO.N,+3V3*
X95123000Y-62357000D03*
X97155000Y-52197000D03*
X95377000Y-52197000D03*
X70612000Y-58166000D03*
X58674000Y-63754000D03*
X52324000Y-45974000D03*
G04 #@! TO.N,AX5043_IRQ*
X73660000Y-53594000D03*
X65659000Y-46037500D03*
G04 #@! TO.N,AX5043_SYSCLK*
X67690500Y-46038900D03*
X81153000Y-58420000D03*
G04 #@! TO.N,I2C_SDA*
X98552000Y-56388000D03*
X71374000Y-39497000D03*
G04 #@! TO.N,I2C_SCL*
X73787000Y-42037000D03*
X93599000Y-55118000D03*
G04 #@! TO.N,AX5043_MOSI*
X77089000Y-54864000D03*
X75184000Y-45974000D03*
G04 #@! TO.N,AX5043_MISO*
X77978000Y-53784500D03*
X77724000Y-45974000D03*
G04 #@! TO.N,AX5043_CLK*
X78867000Y-54864000D03*
X80264000Y-45974000D03*
G04 #@! TO.N,AX5043_SEL*
X79756000Y-56896000D03*
X81407000Y-45974000D03*
G04 #@! TO.N,AX5043_GPADC2*
X64262000Y-61214000D03*
X72136000Y-60071000D03*
G04 #@! TO.N,AX5043_GPADC1*
X71374000Y-59055000D03*
X64262000Y-58674000D03*
G04 #@! TD*
D17*
G04 #@! TO.N,AX5043_IRQ*
X65659000Y-45974000D02*
X73660000Y-53594000D01*
X65659000Y-46037500D02*
X65659000Y-45974000D01*
G04 #@! TO.N,AX5043_SYSCLK*
X81026000Y-58293000D02*
X81153000Y-58420000D01*
X78510900Y-57468900D02*
X81026000Y-58293000D01*
X67690500Y-46038900D02*
X78510900Y-57468900D01*
G04 #@! TO.N,I2C_SDA*
X99314000Y-55626000D02*
X98552000Y-56388000D01*
X99314000Y-39878000D02*
X99314000Y-55626000D01*
X98806000Y-39370000D02*
X99314000Y-39878000D01*
X71501000Y-39370000D02*
X98806000Y-39370000D01*
X71374000Y-39497000D02*
X71501000Y-39370000D01*
G04 #@! TO.N,I2C_SCL*
X73787000Y-42037000D02*
X83820000Y-42037000D01*
X83820000Y-42037000D02*
X84074000Y-42291000D01*
X84074000Y-42291000D02*
X84074000Y-45593000D01*
X84074000Y-45593000D02*
X93599000Y-55118000D01*
G04 #@! TO.N,AX5043_MOSI*
X77089000Y-47879000D02*
X77089000Y-54864000D01*
X75184000Y-45974000D02*
X77089000Y-47879000D01*
G04 #@! TO.N,AX5043_MISO*
X77978000Y-46228000D02*
X77978000Y-53784500D01*
X77724000Y-45974000D02*
X77978000Y-46228000D01*
G04 #@! TO.N,AX5043_CLK*
X78867000Y-47371000D02*
X78867000Y-54864000D01*
X80264000Y-45974000D02*
X78867000Y-47371000D01*
G04 #@! TO.N,AX5043_SEL*
X79756000Y-47625000D02*
X79756000Y-56896000D01*
X81407000Y-45974000D02*
X79756000Y-47625000D01*
G04 #@! TO.N,AX5043_GPADC2*
X64262000Y-61214000D02*
X65405000Y-60071000D01*
X65405000Y-60071000D02*
X72136000Y-60071000D01*
G04 #@! TO.N,AX5043_GPADC1*
X64643000Y-59055000D02*
X71374000Y-59055000D01*
X64262000Y-58674000D02*
X64643000Y-59055000D01*
G04 #@! TD*
D18*
G04 #@! TO.N,GND*
G36*
X101854000Y-45720000D02*
X101863667Y-45768601D01*
X101891197Y-45809803D01*
X101932399Y-45837333D01*
X101981000Y-45847000D01*
X108077767Y-45847000D01*
X108215001Y-68490499D01*
X108215001Y-87503000D01*
X101854000Y-87503000D01*
X101805399Y-87512667D01*
X101764197Y-87540197D01*
X101736667Y-87581399D01*
X101727000Y-87630000D01*
X101727000Y-93853000D01*
X51181000Y-93853000D01*
X51181000Y-92855368D01*
X72043237Y-92855368D01*
X72154141Y-93132599D01*
X72800093Y-93375823D01*
X73489953Y-93353336D01*
X74022859Y-93132599D01*
X74133763Y-92855368D01*
X77123237Y-92855368D01*
X77234141Y-93132599D01*
X77880093Y-93375823D01*
X78569953Y-93353336D01*
X79102859Y-93132599D01*
X79213763Y-92855368D01*
X78168500Y-91810105D01*
X77123237Y-92855368D01*
X74133763Y-92855368D01*
X73088500Y-91810105D01*
X72043237Y-92855368D01*
X51181000Y-92855368D01*
X51181000Y-91342093D01*
X71343177Y-91342093D01*
X71365664Y-92031953D01*
X71586401Y-92564859D01*
X71863632Y-92675763D01*
X72908895Y-91630500D01*
X73268105Y-91630500D01*
X74313368Y-92675763D01*
X74590599Y-92564859D01*
X74833823Y-91918907D01*
X74815021Y-91342093D01*
X76423177Y-91342093D01*
X76445664Y-92031953D01*
X76666401Y-92564859D01*
X76943632Y-92675763D01*
X77988895Y-91630500D01*
X78348105Y-91630500D01*
X79393368Y-92675763D01*
X79670599Y-92564859D01*
X79913823Y-91918907D01*
X79891336Y-91229047D01*
X79670599Y-90696141D01*
X79393368Y-90585237D01*
X78348105Y-91630500D01*
X77988895Y-91630500D01*
X76943632Y-90585237D01*
X76666401Y-90696141D01*
X76423177Y-91342093D01*
X74815021Y-91342093D01*
X74811336Y-91229047D01*
X74590599Y-90696141D01*
X74313368Y-90585237D01*
X73268105Y-91630500D01*
X72908895Y-91630500D01*
X71863632Y-90585237D01*
X71586401Y-90696141D01*
X71343177Y-91342093D01*
X51181000Y-91342093D01*
X51181000Y-90405632D01*
X72043237Y-90405632D01*
X73088500Y-91450895D01*
X74133763Y-90405632D01*
X74022859Y-90128401D01*
X73376907Y-89885177D01*
X72687047Y-89907664D01*
X72154141Y-90128401D01*
X72043237Y-90405632D01*
X51181000Y-90405632D01*
X51181000Y-88765278D01*
X73993500Y-88765278D01*
X73993500Y-89415722D01*
X74242414Y-90016653D01*
X74702347Y-90476586D01*
X75303278Y-90725500D01*
X75953722Y-90725500D01*
X76554653Y-90476586D01*
X76625607Y-90405632D01*
X77123237Y-90405632D01*
X78168500Y-91450895D01*
X79213763Y-90405632D01*
X79102859Y-90128401D01*
X78456907Y-89885177D01*
X77767047Y-89907664D01*
X77234141Y-90128401D01*
X77123237Y-90405632D01*
X76625607Y-90405632D01*
X77014586Y-90016653D01*
X77263500Y-89415722D01*
X77263500Y-88765278D01*
X77014586Y-88164347D01*
X76625607Y-87775368D01*
X77123237Y-87775368D01*
X77234141Y-88052599D01*
X77880093Y-88295823D01*
X78569953Y-88273336D01*
X79102859Y-88052599D01*
X79213763Y-87775368D01*
X78168500Y-86730105D01*
X77123237Y-87775368D01*
X76625607Y-87775368D01*
X76554653Y-87704414D01*
X75953722Y-87455500D01*
X75303278Y-87455500D01*
X74702347Y-87704414D01*
X74242414Y-88164347D01*
X73993500Y-88765278D01*
X51181000Y-88765278D01*
X51181000Y-87775368D01*
X72043237Y-87775368D01*
X72154141Y-88052599D01*
X72800093Y-88295823D01*
X73489953Y-88273336D01*
X74022859Y-88052599D01*
X74133763Y-87775368D01*
X73088500Y-86730105D01*
X72043237Y-87775368D01*
X51181000Y-87775368D01*
X51181000Y-87630000D01*
X51171333Y-87581399D01*
X51143803Y-87540197D01*
X51102601Y-87512667D01*
X51054000Y-87503000D01*
X44585000Y-87503000D01*
X44585000Y-86262093D01*
X71343177Y-86262093D01*
X71365664Y-86951953D01*
X71586401Y-87484859D01*
X71863632Y-87595763D01*
X72908895Y-86550500D01*
X73268105Y-86550500D01*
X74313368Y-87595763D01*
X74590599Y-87484859D01*
X74833823Y-86838907D01*
X74815021Y-86262093D01*
X76423177Y-86262093D01*
X76445664Y-86951953D01*
X76666401Y-87484859D01*
X76943632Y-87595763D01*
X77988895Y-86550500D01*
X78348105Y-86550500D01*
X79393368Y-87595763D01*
X79670599Y-87484859D01*
X79913823Y-86838907D01*
X79891336Y-86149047D01*
X79670599Y-85616141D01*
X79393368Y-85505237D01*
X78348105Y-86550500D01*
X77988895Y-86550500D01*
X76943632Y-85505237D01*
X76666401Y-85616141D01*
X76423177Y-86262093D01*
X74815021Y-86262093D01*
X74811336Y-86149047D01*
X74590599Y-85616141D01*
X74313368Y-85505237D01*
X73268105Y-86550500D01*
X72908895Y-86550500D01*
X71863632Y-85505237D01*
X71586401Y-85616141D01*
X71343177Y-86262093D01*
X44585000Y-86262093D01*
X44585000Y-85325632D01*
X72043237Y-85325632D01*
X73088500Y-86370895D01*
X74133763Y-85325632D01*
X77123237Y-85325632D01*
X78168500Y-86370895D01*
X79213763Y-85325632D01*
X79102859Y-85048401D01*
X78456907Y-84805177D01*
X77767047Y-84827664D01*
X77234141Y-85048401D01*
X77123237Y-85325632D01*
X74133763Y-85325632D01*
X74022859Y-85048401D01*
X73376907Y-84805177D01*
X72687047Y-84827664D01*
X72154141Y-85048401D01*
X72043237Y-85325632D01*
X44585000Y-85325632D01*
X44585000Y-76167466D01*
X44621376Y-75984591D01*
X44621625Y-75984218D01*
X44869452Y-75819000D01*
X49276000Y-75819000D01*
X49324601Y-75809333D01*
X49365803Y-75781803D01*
X49393333Y-75740601D01*
X49403000Y-75692000D01*
X49403000Y-75532539D01*
X87215000Y-75532539D01*
X87215001Y-90667462D01*
X87228162Y-90733627D01*
X87228162Y-90733636D01*
X87304282Y-91116319D01*
X87355534Y-91240052D01*
X87406563Y-91363248D01*
X87623336Y-91687672D01*
X87812328Y-91876664D01*
X88136751Y-92093437D01*
X88190876Y-92115856D01*
X88383681Y-92195718D01*
X88766364Y-92271838D01*
X89033636Y-92271838D01*
X89416319Y-92195718D01*
X89663248Y-92093437D01*
X89663249Y-92093436D01*
X89987672Y-91876664D01*
X90176664Y-91687672D01*
X90393437Y-91363249D01*
X90450942Y-91224419D01*
X90495718Y-91116319D01*
X90571838Y-90733636D01*
X90571838Y-90733632D01*
X90585000Y-90667462D01*
X90585000Y-75532538D01*
X90571838Y-75466368D01*
X90571838Y-75466364D01*
X90495718Y-75083681D01*
X90415594Y-74890243D01*
X90393437Y-74836751D01*
X90176664Y-74512328D01*
X89987672Y-74323336D01*
X89663248Y-74106563D01*
X89652517Y-74102118D01*
X89416319Y-74004282D01*
X89033636Y-73928162D01*
X88766364Y-73928162D01*
X88383681Y-74004282D01*
X88239032Y-74064197D01*
X88136751Y-74106563D01*
X87812328Y-74323336D01*
X87623336Y-74512328D01*
X87406564Y-74836751D01*
X87406563Y-74836752D01*
X87304282Y-75083681D01*
X87228162Y-75466364D01*
X87228162Y-75466369D01*
X87215000Y-75532539D01*
X49403000Y-75532539D01*
X49403000Y-74840161D01*
X49447123Y-74733637D01*
X49495718Y-74616319D01*
X49571838Y-74233636D01*
X49571838Y-74233632D01*
X49585000Y-74167462D01*
X49585000Y-63548126D01*
X57639000Y-63548126D01*
X57639000Y-63959874D01*
X57796569Y-64340280D01*
X58087720Y-64631431D01*
X58468126Y-64789000D01*
X58879874Y-64789000D01*
X59260280Y-64631431D01*
X59551431Y-64340280D01*
X59709000Y-63959874D01*
X59709000Y-63548126D01*
X59551431Y-63167720D01*
X59260280Y-62876569D01*
X58879874Y-62719000D01*
X58468126Y-62719000D01*
X58087720Y-62876569D01*
X57796569Y-63167720D01*
X57639000Y-63548126D01*
X49585000Y-63548126D01*
X49585000Y-59032538D01*
X49571838Y-58966368D01*
X49571838Y-58966364D01*
X49495718Y-58583681D01*
X49393437Y-58336752D01*
X49393437Y-58336751D01*
X49176664Y-58012328D01*
X48987672Y-57823336D01*
X48663248Y-57606563D01*
X48632573Y-57593857D01*
X48627264Y-57591658D01*
X48603803Y-57568197D01*
X48562601Y-57540667D01*
X48514000Y-57531000D01*
X48480822Y-57531000D01*
X48416319Y-57504282D01*
X48033636Y-57428162D01*
X48033632Y-57428162D01*
X47967462Y-57415000D01*
X44967466Y-57415000D01*
X44784590Y-57378624D01*
X44686751Y-57313250D01*
X44621376Y-57215409D01*
X44585000Y-57032534D01*
X44585000Y-53594000D01*
X60207908Y-53594000D01*
X60323161Y-54173418D01*
X60651375Y-54664625D01*
X60949761Y-54864000D01*
X60651375Y-55063375D01*
X60323161Y-55554582D01*
X60207908Y-56134000D01*
X60323161Y-56713418D01*
X60651375Y-57204625D01*
X60949761Y-57404000D01*
X60651375Y-57603375D01*
X60323161Y-58094582D01*
X60207908Y-58674000D01*
X60323161Y-59253418D01*
X60651375Y-59744625D01*
X60949761Y-59944000D01*
X60651375Y-60143375D01*
X60323161Y-60634582D01*
X60207908Y-61214000D01*
X60323161Y-61793418D01*
X60651375Y-62284625D01*
X60669619Y-62296816D01*
X60624235Y-62305843D01*
X60414191Y-62446191D01*
X60273843Y-62656235D01*
X60224560Y-62904000D01*
X60224560Y-64604000D01*
X60273843Y-64851765D01*
X60414191Y-65061809D01*
X60624235Y-65202157D01*
X60872000Y-65251440D01*
X62572000Y-65251440D01*
X62819765Y-65202157D01*
X63029809Y-65061809D01*
X63170157Y-64851765D01*
X63219440Y-64604000D01*
X63219440Y-62904000D01*
X63170157Y-62656235D01*
X63029809Y-62446191D01*
X62819765Y-62305843D01*
X62774381Y-62296816D01*
X62792625Y-62284625D01*
X63120839Y-61793418D01*
X63227000Y-61259709D01*
X63227000Y-61419874D01*
X63384569Y-61800280D01*
X63675720Y-62091431D01*
X64056126Y-62249000D01*
X64467874Y-62249000D01*
X64704163Y-62151126D01*
X94088000Y-62151126D01*
X94088000Y-62562874D01*
X94245569Y-62943280D01*
X94536720Y-63234431D01*
X94917126Y-63392000D01*
X95328874Y-63392000D01*
X95709280Y-63234431D01*
X96000431Y-62943280D01*
X96158000Y-62562874D01*
X96158000Y-62151126D01*
X96000431Y-61770720D01*
X95709280Y-61479569D01*
X95328874Y-61322000D01*
X94917126Y-61322000D01*
X94536720Y-61479569D01*
X94245569Y-61770720D01*
X94088000Y-62151126D01*
X64704163Y-62151126D01*
X64848280Y-62091431D01*
X65139431Y-61800280D01*
X65297000Y-61419874D01*
X65297000Y-61253801D01*
X65719802Y-60831000D01*
X71432289Y-60831000D01*
X71549720Y-60948431D01*
X71930126Y-61106000D01*
X72341874Y-61106000D01*
X72722280Y-60948431D01*
X73013431Y-60657280D01*
X73171000Y-60276874D01*
X73171000Y-59865126D01*
X73013431Y-59484720D01*
X72722280Y-59193569D01*
X72409000Y-59063804D01*
X72409000Y-58849126D01*
X72251431Y-58468720D01*
X71960280Y-58177569D01*
X71647000Y-58047804D01*
X71647000Y-57960126D01*
X71489431Y-57579720D01*
X71198280Y-57288569D01*
X70817874Y-57131000D01*
X70406126Y-57131000D01*
X70025720Y-57288569D01*
X69734569Y-57579720D01*
X69577000Y-57960126D01*
X69577000Y-58295000D01*
X65225289Y-58295000D01*
X65139431Y-58087720D01*
X64848280Y-57796569D01*
X64467874Y-57639000D01*
X64056126Y-57639000D01*
X63675720Y-57796569D01*
X63384569Y-58087720D01*
X63227000Y-58468126D01*
X63227000Y-58628291D01*
X63120839Y-58094582D01*
X62792625Y-57603375D01*
X62494239Y-57404000D01*
X62792625Y-57204625D01*
X63120839Y-56713418D01*
X63236092Y-56134000D01*
X63120839Y-55554582D01*
X62792625Y-55063375D01*
X62494239Y-54864000D01*
X62792625Y-54664625D01*
X63120839Y-54173418D01*
X63236092Y-53594000D01*
X63120839Y-53014582D01*
X62792625Y-52523375D01*
X62473522Y-52310157D01*
X62603358Y-52249183D01*
X62993645Y-51820924D01*
X63163476Y-51410890D01*
X63042155Y-51181000D01*
X61849000Y-51181000D01*
X61849000Y-51201000D01*
X61595000Y-51201000D01*
X61595000Y-51181000D01*
X60401845Y-51181000D01*
X60280524Y-51410890D01*
X60450355Y-51820924D01*
X60840642Y-52249183D01*
X60970478Y-52310157D01*
X60651375Y-52523375D01*
X60323161Y-53014582D01*
X60207908Y-53594000D01*
X44585000Y-53594000D01*
X44585000Y-50697110D01*
X60280524Y-50697110D01*
X60401845Y-50927000D01*
X61595000Y-50927000D01*
X61595000Y-49733181D01*
X61849000Y-49733181D01*
X61849000Y-50927000D01*
X63042155Y-50927000D01*
X63163476Y-50697110D01*
X62993645Y-50287076D01*
X62603358Y-49858817D01*
X62078892Y-49612514D01*
X61849000Y-49733181D01*
X61595000Y-49733181D01*
X61365108Y-49612514D01*
X60840642Y-49858817D01*
X60450355Y-50287076D01*
X60280524Y-50697110D01*
X44585000Y-50697110D01*
X44585000Y-45847000D01*
X50800000Y-45847000D01*
X50848601Y-45837333D01*
X50889803Y-45809803D01*
X50917333Y-45768601D01*
X50917427Y-45768126D01*
X51289000Y-45768126D01*
X51289000Y-46179874D01*
X51446569Y-46560280D01*
X51737720Y-46851431D01*
X52118126Y-47009000D01*
X52529874Y-47009000D01*
X52910280Y-46851431D01*
X53201431Y-46560280D01*
X53359000Y-46179874D01*
X53359000Y-45831626D01*
X64624000Y-45831626D01*
X64624000Y-46243374D01*
X64781569Y-46623780D01*
X65072720Y-46914931D01*
X65453126Y-47072500D01*
X65710426Y-47072500D01*
X72625000Y-53657809D01*
X72625000Y-53799874D01*
X72782569Y-54180280D01*
X73073720Y-54471431D01*
X73454126Y-54629000D01*
X73865874Y-54629000D01*
X74246280Y-54471431D01*
X74441734Y-54275977D01*
X77934703Y-57965734D01*
X78006192Y-58056881D01*
X78103624Y-58111763D01*
X78194867Y-58176413D01*
X78307816Y-58202115D01*
X80199171Y-58821837D01*
X80275569Y-59006280D01*
X80566720Y-59297431D01*
X80947126Y-59455000D01*
X81358874Y-59455000D01*
X81739280Y-59297431D01*
X82030431Y-59006280D01*
X82188000Y-58625874D01*
X82188000Y-58214126D01*
X82030431Y-57833720D01*
X81739280Y-57542569D01*
X81358874Y-57385000D01*
X80947126Y-57385000D01*
X80836058Y-57431006D01*
X80676346Y-57378674D01*
X80791000Y-57101874D01*
X80791000Y-56690126D01*
X80633431Y-56309720D01*
X80516000Y-56192289D01*
X80516000Y-47939801D01*
X81446802Y-47009000D01*
X81612874Y-47009000D01*
X81993280Y-46851431D01*
X82284431Y-46560280D01*
X82442000Y-46179874D01*
X82442000Y-45768126D01*
X82284431Y-45387720D01*
X81993280Y-45096569D01*
X81612874Y-44939000D01*
X81201126Y-44939000D01*
X80835500Y-45090447D01*
X80469874Y-44939000D01*
X80058126Y-44939000D01*
X79677720Y-45096569D01*
X79386569Y-45387720D01*
X79229000Y-45768126D01*
X79229000Y-45934198D01*
X78738000Y-46425198D01*
X78738000Y-46302846D01*
X78752888Y-46227999D01*
X78748404Y-46205456D01*
X78759000Y-46179874D01*
X78759000Y-45768126D01*
X78601431Y-45387720D01*
X78310280Y-45096569D01*
X77929874Y-44939000D01*
X77518126Y-44939000D01*
X77137720Y-45096569D01*
X76846569Y-45387720D01*
X76689000Y-45768126D01*
X76689000Y-46179874D01*
X76846569Y-46560280D01*
X77137720Y-46851431D01*
X77218000Y-46884684D01*
X77218000Y-46933198D01*
X76219000Y-45934199D01*
X76219000Y-45768126D01*
X76061431Y-45387720D01*
X75770280Y-45096569D01*
X75389874Y-44939000D01*
X74978126Y-44939000D01*
X74597720Y-45096569D01*
X74306569Y-45387720D01*
X74149000Y-45768126D01*
X74149000Y-46179874D01*
X74306569Y-46560280D01*
X74597720Y-46851431D01*
X74978126Y-47009000D01*
X75144199Y-47009000D01*
X76329000Y-48193802D01*
X76329001Y-54058584D01*
X68725500Y-46026718D01*
X68725500Y-45833026D01*
X68567931Y-45452620D01*
X68276780Y-45161469D01*
X67896374Y-45003900D01*
X67484626Y-45003900D01*
X67104220Y-45161469D01*
X66813069Y-45452620D01*
X66675040Y-45785852D01*
X66536431Y-45451220D01*
X66245280Y-45160069D01*
X65864874Y-45002500D01*
X65453126Y-45002500D01*
X65072720Y-45160069D01*
X64781569Y-45451220D01*
X64624000Y-45831626D01*
X53359000Y-45831626D01*
X53359000Y-45768126D01*
X53201431Y-45387720D01*
X52910280Y-45096569D01*
X52529874Y-44939000D01*
X52118126Y-44939000D01*
X51737720Y-45096569D01*
X51446569Y-45387720D01*
X51289000Y-45768126D01*
X50917427Y-45768126D01*
X50927000Y-45720000D01*
X50927000Y-44659096D01*
X50948591Y-44691409D01*
X51158635Y-44831757D01*
X51406400Y-44881040D01*
X53133600Y-44881040D01*
X53381365Y-44831757D01*
X53591409Y-44691409D01*
X53731757Y-44481365D01*
X53736932Y-44455349D01*
X54225275Y-44781650D01*
X54662402Y-44868600D01*
X54957598Y-44868600D01*
X55394725Y-44781650D01*
X55890430Y-44450430D01*
X56080000Y-44166719D01*
X56269570Y-44450430D01*
X56765275Y-44781650D01*
X57202402Y-44868600D01*
X57497598Y-44868600D01*
X57934725Y-44781650D01*
X58430430Y-44450430D01*
X58620000Y-44166719D01*
X58809570Y-44450430D01*
X59305275Y-44781650D01*
X59742402Y-44868600D01*
X60037598Y-44868600D01*
X60474725Y-44781650D01*
X60970430Y-44450430D01*
X61160000Y-44166719D01*
X61349570Y-44450430D01*
X61845275Y-44781650D01*
X62282402Y-44868600D01*
X62577598Y-44868600D01*
X63014725Y-44781650D01*
X63510430Y-44450430D01*
X63700000Y-44166719D01*
X63889570Y-44450430D01*
X64385275Y-44781650D01*
X64822402Y-44868600D01*
X65117598Y-44868600D01*
X65554725Y-44781650D01*
X66050430Y-44450430D01*
X66240000Y-44166719D01*
X66429570Y-44450430D01*
X66925275Y-44781650D01*
X67362402Y-44868600D01*
X67657598Y-44868600D01*
X68094725Y-44781650D01*
X68590430Y-44450430D01*
X68780000Y-44166719D01*
X68969570Y-44450430D01*
X69465275Y-44781650D01*
X69902402Y-44868600D01*
X70197598Y-44868600D01*
X70634725Y-44781650D01*
X71130430Y-44450430D01*
X71320000Y-44166719D01*
X71509570Y-44450430D01*
X72005275Y-44781650D01*
X72442402Y-44868600D01*
X72737598Y-44868600D01*
X73174725Y-44781650D01*
X73670430Y-44450430D01*
X73860000Y-44166719D01*
X74049570Y-44450430D01*
X74545275Y-44781650D01*
X74982402Y-44868600D01*
X75277598Y-44868600D01*
X75714725Y-44781650D01*
X76210430Y-44450430D01*
X76400000Y-44166719D01*
X76589570Y-44450430D01*
X77085275Y-44781650D01*
X77522402Y-44868600D01*
X77817598Y-44868600D01*
X78254725Y-44781650D01*
X78750430Y-44450430D01*
X78940000Y-44166719D01*
X79129570Y-44450430D01*
X79625275Y-44781650D01*
X80062402Y-44868600D01*
X80357598Y-44868600D01*
X80794725Y-44781650D01*
X81290430Y-44450430D01*
X81480000Y-44166719D01*
X81669570Y-44450430D01*
X82165275Y-44781650D01*
X82602402Y-44868600D01*
X82897598Y-44868600D01*
X83314001Y-44785772D01*
X83314001Y-45518148D01*
X83299112Y-45593000D01*
X83314001Y-45667852D01*
X83358097Y-45889537D01*
X83526072Y-46140929D01*
X83589528Y-46183329D01*
X92564000Y-55157802D01*
X92564000Y-55323874D01*
X92721569Y-55704280D01*
X93012720Y-55995431D01*
X93393126Y-56153000D01*
X93804874Y-56153000D01*
X94185280Y-55995431D01*
X94476431Y-55704280D01*
X94634000Y-55323874D01*
X94634000Y-54912126D01*
X94476431Y-54531720D01*
X94185280Y-54240569D01*
X93804874Y-54083000D01*
X93638802Y-54083000D01*
X91546928Y-51991126D01*
X94342000Y-51991126D01*
X94342000Y-52402874D01*
X94499569Y-52783280D01*
X94790720Y-53074431D01*
X95171126Y-53232000D01*
X95582874Y-53232000D01*
X95963280Y-53074431D01*
X96254431Y-52783280D01*
X96266000Y-52755350D01*
X96277569Y-52783280D01*
X96568720Y-53074431D01*
X96949126Y-53232000D01*
X97360874Y-53232000D01*
X97741280Y-53074431D01*
X98032431Y-52783280D01*
X98190000Y-52402874D01*
X98190000Y-51991126D01*
X98032431Y-51610720D01*
X97741280Y-51319569D01*
X97360874Y-51162000D01*
X96949126Y-51162000D01*
X96568720Y-51319569D01*
X96277569Y-51610720D01*
X96266000Y-51638650D01*
X96254431Y-51610720D01*
X95963280Y-51319569D01*
X95582874Y-51162000D01*
X95171126Y-51162000D01*
X94790720Y-51319569D01*
X94499569Y-51610720D01*
X94342000Y-51991126D01*
X91546928Y-51991126D01*
X84834000Y-45278199D01*
X84834000Y-44807255D01*
X85142402Y-44868600D01*
X85437598Y-44868600D01*
X85874725Y-44781650D01*
X86370430Y-44450430D01*
X86560000Y-44166719D01*
X86749570Y-44450430D01*
X87245275Y-44781650D01*
X87682402Y-44868600D01*
X87977598Y-44868600D01*
X88414725Y-44781650D01*
X88910430Y-44450430D01*
X89100000Y-44166719D01*
X89289570Y-44450430D01*
X89785275Y-44781650D01*
X90222402Y-44868600D01*
X90517598Y-44868600D01*
X90954725Y-44781650D01*
X91450430Y-44450430D01*
X91640000Y-44166719D01*
X91829570Y-44450430D01*
X92325275Y-44781650D01*
X92762402Y-44868600D01*
X93057598Y-44868600D01*
X93494725Y-44781650D01*
X93990430Y-44450430D01*
X94180000Y-44166719D01*
X94369570Y-44450430D01*
X94865275Y-44781650D01*
X95302402Y-44868600D01*
X95597598Y-44868600D01*
X96034725Y-44781650D01*
X96530430Y-44450430D01*
X96720000Y-44166719D01*
X96909570Y-44450430D01*
X97405275Y-44781650D01*
X97842402Y-44868600D01*
X98137598Y-44868600D01*
X98554000Y-44785772D01*
X98554001Y-55311197D01*
X98512198Y-55353000D01*
X98346126Y-55353000D01*
X97965720Y-55510569D01*
X97674569Y-55801720D01*
X97517000Y-56182126D01*
X97517000Y-56593874D01*
X97674569Y-56974280D01*
X97965720Y-57265431D01*
X98346126Y-57423000D01*
X98757874Y-57423000D01*
X99138280Y-57265431D01*
X99429431Y-56974280D01*
X99587000Y-56593874D01*
X99587000Y-56427802D01*
X99798473Y-56216329D01*
X99861929Y-56173929D01*
X99917031Y-56091463D01*
X100029904Y-55922538D01*
X100039480Y-55874395D01*
X100074000Y-55700852D01*
X100074000Y-55700848D01*
X100088888Y-55626000D01*
X100074000Y-55551152D01*
X100074000Y-44807255D01*
X100382402Y-44868600D01*
X100677598Y-44868600D01*
X101114725Y-44781650D01*
X101610430Y-44450430D01*
X101854000Y-44085902D01*
X101854000Y-45720000D01*
X101854000Y-45720000D01*
G37*
X101854000Y-45720000D02*
X101863667Y-45768601D01*
X101891197Y-45809803D01*
X101932399Y-45837333D01*
X101981000Y-45847000D01*
X108077767Y-45847000D01*
X108215001Y-68490499D01*
X108215001Y-87503000D01*
X101854000Y-87503000D01*
X101805399Y-87512667D01*
X101764197Y-87540197D01*
X101736667Y-87581399D01*
X101727000Y-87630000D01*
X101727000Y-93853000D01*
X51181000Y-93853000D01*
X51181000Y-92855368D01*
X72043237Y-92855368D01*
X72154141Y-93132599D01*
X72800093Y-93375823D01*
X73489953Y-93353336D01*
X74022859Y-93132599D01*
X74133763Y-92855368D01*
X77123237Y-92855368D01*
X77234141Y-93132599D01*
X77880093Y-93375823D01*
X78569953Y-93353336D01*
X79102859Y-93132599D01*
X79213763Y-92855368D01*
X78168500Y-91810105D01*
X77123237Y-92855368D01*
X74133763Y-92855368D01*
X73088500Y-91810105D01*
X72043237Y-92855368D01*
X51181000Y-92855368D01*
X51181000Y-91342093D01*
X71343177Y-91342093D01*
X71365664Y-92031953D01*
X71586401Y-92564859D01*
X71863632Y-92675763D01*
X72908895Y-91630500D01*
X73268105Y-91630500D01*
X74313368Y-92675763D01*
X74590599Y-92564859D01*
X74833823Y-91918907D01*
X74815021Y-91342093D01*
X76423177Y-91342093D01*
X76445664Y-92031953D01*
X76666401Y-92564859D01*
X76943632Y-92675763D01*
X77988895Y-91630500D01*
X78348105Y-91630500D01*
X79393368Y-92675763D01*
X79670599Y-92564859D01*
X79913823Y-91918907D01*
X79891336Y-91229047D01*
X79670599Y-90696141D01*
X79393368Y-90585237D01*
X78348105Y-91630500D01*
X77988895Y-91630500D01*
X76943632Y-90585237D01*
X76666401Y-90696141D01*
X76423177Y-91342093D01*
X74815021Y-91342093D01*
X74811336Y-91229047D01*
X74590599Y-90696141D01*
X74313368Y-90585237D01*
X73268105Y-91630500D01*
X72908895Y-91630500D01*
X71863632Y-90585237D01*
X71586401Y-90696141D01*
X71343177Y-91342093D01*
X51181000Y-91342093D01*
X51181000Y-90405632D01*
X72043237Y-90405632D01*
X73088500Y-91450895D01*
X74133763Y-90405632D01*
X74022859Y-90128401D01*
X73376907Y-89885177D01*
X72687047Y-89907664D01*
X72154141Y-90128401D01*
X72043237Y-90405632D01*
X51181000Y-90405632D01*
X51181000Y-88765278D01*
X73993500Y-88765278D01*
X73993500Y-89415722D01*
X74242414Y-90016653D01*
X74702347Y-90476586D01*
X75303278Y-90725500D01*
X75953722Y-90725500D01*
X76554653Y-90476586D01*
X76625607Y-90405632D01*
X77123237Y-90405632D01*
X78168500Y-91450895D01*
X79213763Y-90405632D01*
X79102859Y-90128401D01*
X78456907Y-89885177D01*
X77767047Y-89907664D01*
X77234141Y-90128401D01*
X77123237Y-90405632D01*
X76625607Y-90405632D01*
X77014586Y-90016653D01*
X77263500Y-89415722D01*
X77263500Y-88765278D01*
X77014586Y-88164347D01*
X76625607Y-87775368D01*
X77123237Y-87775368D01*
X77234141Y-88052599D01*
X77880093Y-88295823D01*
X78569953Y-88273336D01*
X79102859Y-88052599D01*
X79213763Y-87775368D01*
X78168500Y-86730105D01*
X77123237Y-87775368D01*
X76625607Y-87775368D01*
X76554653Y-87704414D01*
X75953722Y-87455500D01*
X75303278Y-87455500D01*
X74702347Y-87704414D01*
X74242414Y-88164347D01*
X73993500Y-88765278D01*
X51181000Y-88765278D01*
X51181000Y-87775368D01*
X72043237Y-87775368D01*
X72154141Y-88052599D01*
X72800093Y-88295823D01*
X73489953Y-88273336D01*
X74022859Y-88052599D01*
X74133763Y-87775368D01*
X73088500Y-86730105D01*
X72043237Y-87775368D01*
X51181000Y-87775368D01*
X51181000Y-87630000D01*
X51171333Y-87581399D01*
X51143803Y-87540197D01*
X51102601Y-87512667D01*
X51054000Y-87503000D01*
X44585000Y-87503000D01*
X44585000Y-86262093D01*
X71343177Y-86262093D01*
X71365664Y-86951953D01*
X71586401Y-87484859D01*
X71863632Y-87595763D01*
X72908895Y-86550500D01*
X73268105Y-86550500D01*
X74313368Y-87595763D01*
X74590599Y-87484859D01*
X74833823Y-86838907D01*
X74815021Y-86262093D01*
X76423177Y-86262093D01*
X76445664Y-86951953D01*
X76666401Y-87484859D01*
X76943632Y-87595763D01*
X77988895Y-86550500D01*
X78348105Y-86550500D01*
X79393368Y-87595763D01*
X79670599Y-87484859D01*
X79913823Y-86838907D01*
X79891336Y-86149047D01*
X79670599Y-85616141D01*
X79393368Y-85505237D01*
X78348105Y-86550500D01*
X77988895Y-86550500D01*
X76943632Y-85505237D01*
X76666401Y-85616141D01*
X76423177Y-86262093D01*
X74815021Y-86262093D01*
X74811336Y-86149047D01*
X74590599Y-85616141D01*
X74313368Y-85505237D01*
X73268105Y-86550500D01*
X72908895Y-86550500D01*
X71863632Y-85505237D01*
X71586401Y-85616141D01*
X71343177Y-86262093D01*
X44585000Y-86262093D01*
X44585000Y-85325632D01*
X72043237Y-85325632D01*
X73088500Y-86370895D01*
X74133763Y-85325632D01*
X77123237Y-85325632D01*
X78168500Y-86370895D01*
X79213763Y-85325632D01*
X79102859Y-85048401D01*
X78456907Y-84805177D01*
X77767047Y-84827664D01*
X77234141Y-85048401D01*
X77123237Y-85325632D01*
X74133763Y-85325632D01*
X74022859Y-85048401D01*
X73376907Y-84805177D01*
X72687047Y-84827664D01*
X72154141Y-85048401D01*
X72043237Y-85325632D01*
X44585000Y-85325632D01*
X44585000Y-76167466D01*
X44621376Y-75984591D01*
X44621625Y-75984218D01*
X44869452Y-75819000D01*
X49276000Y-75819000D01*
X49324601Y-75809333D01*
X49365803Y-75781803D01*
X49393333Y-75740601D01*
X49403000Y-75692000D01*
X49403000Y-75532539D01*
X87215000Y-75532539D01*
X87215001Y-90667462D01*
X87228162Y-90733627D01*
X87228162Y-90733636D01*
X87304282Y-91116319D01*
X87355534Y-91240052D01*
X87406563Y-91363248D01*
X87623336Y-91687672D01*
X87812328Y-91876664D01*
X88136751Y-92093437D01*
X88190876Y-92115856D01*
X88383681Y-92195718D01*
X88766364Y-92271838D01*
X89033636Y-92271838D01*
X89416319Y-92195718D01*
X89663248Y-92093437D01*
X89663249Y-92093436D01*
X89987672Y-91876664D01*
X90176664Y-91687672D01*
X90393437Y-91363249D01*
X90450942Y-91224419D01*
X90495718Y-91116319D01*
X90571838Y-90733636D01*
X90571838Y-90733632D01*
X90585000Y-90667462D01*
X90585000Y-75532538D01*
X90571838Y-75466368D01*
X90571838Y-75466364D01*
X90495718Y-75083681D01*
X90415594Y-74890243D01*
X90393437Y-74836751D01*
X90176664Y-74512328D01*
X89987672Y-74323336D01*
X89663248Y-74106563D01*
X89652517Y-74102118D01*
X89416319Y-74004282D01*
X89033636Y-73928162D01*
X88766364Y-73928162D01*
X88383681Y-74004282D01*
X88239032Y-74064197D01*
X88136751Y-74106563D01*
X87812328Y-74323336D01*
X87623336Y-74512328D01*
X87406564Y-74836751D01*
X87406563Y-74836752D01*
X87304282Y-75083681D01*
X87228162Y-75466364D01*
X87228162Y-75466369D01*
X87215000Y-75532539D01*
X49403000Y-75532539D01*
X49403000Y-74840161D01*
X49447123Y-74733637D01*
X49495718Y-74616319D01*
X49571838Y-74233636D01*
X49571838Y-74233632D01*
X49585000Y-74167462D01*
X49585000Y-63548126D01*
X57639000Y-63548126D01*
X57639000Y-63959874D01*
X57796569Y-64340280D01*
X58087720Y-64631431D01*
X58468126Y-64789000D01*
X58879874Y-64789000D01*
X59260280Y-64631431D01*
X59551431Y-64340280D01*
X59709000Y-63959874D01*
X59709000Y-63548126D01*
X59551431Y-63167720D01*
X59260280Y-62876569D01*
X58879874Y-62719000D01*
X58468126Y-62719000D01*
X58087720Y-62876569D01*
X57796569Y-63167720D01*
X57639000Y-63548126D01*
X49585000Y-63548126D01*
X49585000Y-59032538D01*
X49571838Y-58966368D01*
X49571838Y-58966364D01*
X49495718Y-58583681D01*
X49393437Y-58336752D01*
X49393437Y-58336751D01*
X49176664Y-58012328D01*
X48987672Y-57823336D01*
X48663248Y-57606563D01*
X48632573Y-57593857D01*
X48627264Y-57591658D01*
X48603803Y-57568197D01*
X48562601Y-57540667D01*
X48514000Y-57531000D01*
X48480822Y-57531000D01*
X48416319Y-57504282D01*
X48033636Y-57428162D01*
X48033632Y-57428162D01*
X47967462Y-57415000D01*
X44967466Y-57415000D01*
X44784590Y-57378624D01*
X44686751Y-57313250D01*
X44621376Y-57215409D01*
X44585000Y-57032534D01*
X44585000Y-53594000D01*
X60207908Y-53594000D01*
X60323161Y-54173418D01*
X60651375Y-54664625D01*
X60949761Y-54864000D01*
X60651375Y-55063375D01*
X60323161Y-55554582D01*
X60207908Y-56134000D01*
X60323161Y-56713418D01*
X60651375Y-57204625D01*
X60949761Y-57404000D01*
X60651375Y-57603375D01*
X60323161Y-58094582D01*
X60207908Y-58674000D01*
X60323161Y-59253418D01*
X60651375Y-59744625D01*
X60949761Y-59944000D01*
X60651375Y-60143375D01*
X60323161Y-60634582D01*
X60207908Y-61214000D01*
X60323161Y-61793418D01*
X60651375Y-62284625D01*
X60669619Y-62296816D01*
X60624235Y-62305843D01*
X60414191Y-62446191D01*
X60273843Y-62656235D01*
X60224560Y-62904000D01*
X60224560Y-64604000D01*
X60273843Y-64851765D01*
X60414191Y-65061809D01*
X60624235Y-65202157D01*
X60872000Y-65251440D01*
X62572000Y-65251440D01*
X62819765Y-65202157D01*
X63029809Y-65061809D01*
X63170157Y-64851765D01*
X63219440Y-64604000D01*
X63219440Y-62904000D01*
X63170157Y-62656235D01*
X63029809Y-62446191D01*
X62819765Y-62305843D01*
X62774381Y-62296816D01*
X62792625Y-62284625D01*
X63120839Y-61793418D01*
X63227000Y-61259709D01*
X63227000Y-61419874D01*
X63384569Y-61800280D01*
X63675720Y-62091431D01*
X64056126Y-62249000D01*
X64467874Y-62249000D01*
X64704163Y-62151126D01*
X94088000Y-62151126D01*
X94088000Y-62562874D01*
X94245569Y-62943280D01*
X94536720Y-63234431D01*
X94917126Y-63392000D01*
X95328874Y-63392000D01*
X95709280Y-63234431D01*
X96000431Y-62943280D01*
X96158000Y-62562874D01*
X96158000Y-62151126D01*
X96000431Y-61770720D01*
X95709280Y-61479569D01*
X95328874Y-61322000D01*
X94917126Y-61322000D01*
X94536720Y-61479569D01*
X94245569Y-61770720D01*
X94088000Y-62151126D01*
X64704163Y-62151126D01*
X64848280Y-62091431D01*
X65139431Y-61800280D01*
X65297000Y-61419874D01*
X65297000Y-61253801D01*
X65719802Y-60831000D01*
X71432289Y-60831000D01*
X71549720Y-60948431D01*
X71930126Y-61106000D01*
X72341874Y-61106000D01*
X72722280Y-60948431D01*
X73013431Y-60657280D01*
X73171000Y-60276874D01*
X73171000Y-59865126D01*
X73013431Y-59484720D01*
X72722280Y-59193569D01*
X72409000Y-59063804D01*
X72409000Y-58849126D01*
X72251431Y-58468720D01*
X71960280Y-58177569D01*
X71647000Y-58047804D01*
X71647000Y-57960126D01*
X71489431Y-57579720D01*
X71198280Y-57288569D01*
X70817874Y-57131000D01*
X70406126Y-57131000D01*
X70025720Y-57288569D01*
X69734569Y-57579720D01*
X69577000Y-57960126D01*
X69577000Y-58295000D01*
X65225289Y-58295000D01*
X65139431Y-58087720D01*
X64848280Y-57796569D01*
X64467874Y-57639000D01*
X64056126Y-57639000D01*
X63675720Y-57796569D01*
X63384569Y-58087720D01*
X63227000Y-58468126D01*
X63227000Y-58628291D01*
X63120839Y-58094582D01*
X62792625Y-57603375D01*
X62494239Y-57404000D01*
X62792625Y-57204625D01*
X63120839Y-56713418D01*
X63236092Y-56134000D01*
X63120839Y-55554582D01*
X62792625Y-55063375D01*
X62494239Y-54864000D01*
X62792625Y-54664625D01*
X63120839Y-54173418D01*
X63236092Y-53594000D01*
X63120839Y-53014582D01*
X62792625Y-52523375D01*
X62473522Y-52310157D01*
X62603358Y-52249183D01*
X62993645Y-51820924D01*
X63163476Y-51410890D01*
X63042155Y-51181000D01*
X61849000Y-51181000D01*
X61849000Y-51201000D01*
X61595000Y-51201000D01*
X61595000Y-51181000D01*
X60401845Y-51181000D01*
X60280524Y-51410890D01*
X60450355Y-51820924D01*
X60840642Y-52249183D01*
X60970478Y-52310157D01*
X60651375Y-52523375D01*
X60323161Y-53014582D01*
X60207908Y-53594000D01*
X44585000Y-53594000D01*
X44585000Y-50697110D01*
X60280524Y-50697110D01*
X60401845Y-50927000D01*
X61595000Y-50927000D01*
X61595000Y-49733181D01*
X61849000Y-49733181D01*
X61849000Y-50927000D01*
X63042155Y-50927000D01*
X63163476Y-50697110D01*
X62993645Y-50287076D01*
X62603358Y-49858817D01*
X62078892Y-49612514D01*
X61849000Y-49733181D01*
X61595000Y-49733181D01*
X61365108Y-49612514D01*
X60840642Y-49858817D01*
X60450355Y-50287076D01*
X60280524Y-50697110D01*
X44585000Y-50697110D01*
X44585000Y-45847000D01*
X50800000Y-45847000D01*
X50848601Y-45837333D01*
X50889803Y-45809803D01*
X50917333Y-45768601D01*
X50917427Y-45768126D01*
X51289000Y-45768126D01*
X51289000Y-46179874D01*
X51446569Y-46560280D01*
X51737720Y-46851431D01*
X52118126Y-47009000D01*
X52529874Y-47009000D01*
X52910280Y-46851431D01*
X53201431Y-46560280D01*
X53359000Y-46179874D01*
X53359000Y-45831626D01*
X64624000Y-45831626D01*
X64624000Y-46243374D01*
X64781569Y-46623780D01*
X65072720Y-46914931D01*
X65453126Y-47072500D01*
X65710426Y-47072500D01*
X72625000Y-53657809D01*
X72625000Y-53799874D01*
X72782569Y-54180280D01*
X73073720Y-54471431D01*
X73454126Y-54629000D01*
X73865874Y-54629000D01*
X74246280Y-54471431D01*
X74441734Y-54275977D01*
X77934703Y-57965734D01*
X78006192Y-58056881D01*
X78103624Y-58111763D01*
X78194867Y-58176413D01*
X78307816Y-58202115D01*
X80199171Y-58821837D01*
X80275569Y-59006280D01*
X80566720Y-59297431D01*
X80947126Y-59455000D01*
X81358874Y-59455000D01*
X81739280Y-59297431D01*
X82030431Y-59006280D01*
X82188000Y-58625874D01*
X82188000Y-58214126D01*
X82030431Y-57833720D01*
X81739280Y-57542569D01*
X81358874Y-57385000D01*
X80947126Y-57385000D01*
X80836058Y-57431006D01*
X80676346Y-57378674D01*
X80791000Y-57101874D01*
X80791000Y-56690126D01*
X80633431Y-56309720D01*
X80516000Y-56192289D01*
X80516000Y-47939801D01*
X81446802Y-47009000D01*
X81612874Y-47009000D01*
X81993280Y-46851431D01*
X82284431Y-46560280D01*
X82442000Y-46179874D01*
X82442000Y-45768126D01*
X82284431Y-45387720D01*
X81993280Y-45096569D01*
X81612874Y-44939000D01*
X81201126Y-44939000D01*
X80835500Y-45090447D01*
X80469874Y-44939000D01*
X80058126Y-44939000D01*
X79677720Y-45096569D01*
X79386569Y-45387720D01*
X79229000Y-45768126D01*
X79229000Y-45934198D01*
X78738000Y-46425198D01*
X78738000Y-46302846D01*
X78752888Y-46227999D01*
X78748404Y-46205456D01*
X78759000Y-46179874D01*
X78759000Y-45768126D01*
X78601431Y-45387720D01*
X78310280Y-45096569D01*
X77929874Y-44939000D01*
X77518126Y-44939000D01*
X77137720Y-45096569D01*
X76846569Y-45387720D01*
X76689000Y-45768126D01*
X76689000Y-46179874D01*
X76846569Y-46560280D01*
X77137720Y-46851431D01*
X77218000Y-46884684D01*
X77218000Y-46933198D01*
X76219000Y-45934199D01*
X76219000Y-45768126D01*
X76061431Y-45387720D01*
X75770280Y-45096569D01*
X75389874Y-44939000D01*
X74978126Y-44939000D01*
X74597720Y-45096569D01*
X74306569Y-45387720D01*
X74149000Y-45768126D01*
X74149000Y-46179874D01*
X74306569Y-46560280D01*
X74597720Y-46851431D01*
X74978126Y-47009000D01*
X75144199Y-47009000D01*
X76329000Y-48193802D01*
X76329001Y-54058584D01*
X68725500Y-46026718D01*
X68725500Y-45833026D01*
X68567931Y-45452620D01*
X68276780Y-45161469D01*
X67896374Y-45003900D01*
X67484626Y-45003900D01*
X67104220Y-45161469D01*
X66813069Y-45452620D01*
X66675040Y-45785852D01*
X66536431Y-45451220D01*
X66245280Y-45160069D01*
X65864874Y-45002500D01*
X65453126Y-45002500D01*
X65072720Y-45160069D01*
X64781569Y-45451220D01*
X64624000Y-45831626D01*
X53359000Y-45831626D01*
X53359000Y-45768126D01*
X53201431Y-45387720D01*
X52910280Y-45096569D01*
X52529874Y-44939000D01*
X52118126Y-44939000D01*
X51737720Y-45096569D01*
X51446569Y-45387720D01*
X51289000Y-45768126D01*
X50917427Y-45768126D01*
X50927000Y-45720000D01*
X50927000Y-44659096D01*
X50948591Y-44691409D01*
X51158635Y-44831757D01*
X51406400Y-44881040D01*
X53133600Y-44881040D01*
X53381365Y-44831757D01*
X53591409Y-44691409D01*
X53731757Y-44481365D01*
X53736932Y-44455349D01*
X54225275Y-44781650D01*
X54662402Y-44868600D01*
X54957598Y-44868600D01*
X55394725Y-44781650D01*
X55890430Y-44450430D01*
X56080000Y-44166719D01*
X56269570Y-44450430D01*
X56765275Y-44781650D01*
X57202402Y-44868600D01*
X57497598Y-44868600D01*
X57934725Y-44781650D01*
X58430430Y-44450430D01*
X58620000Y-44166719D01*
X58809570Y-44450430D01*
X59305275Y-44781650D01*
X59742402Y-44868600D01*
X60037598Y-44868600D01*
X60474725Y-44781650D01*
X60970430Y-44450430D01*
X61160000Y-44166719D01*
X61349570Y-44450430D01*
X61845275Y-44781650D01*
X62282402Y-44868600D01*
X62577598Y-44868600D01*
X63014725Y-44781650D01*
X63510430Y-44450430D01*
X63700000Y-44166719D01*
X63889570Y-44450430D01*
X64385275Y-44781650D01*
X64822402Y-44868600D01*
X65117598Y-44868600D01*
X65554725Y-44781650D01*
X66050430Y-44450430D01*
X66240000Y-44166719D01*
X66429570Y-44450430D01*
X66925275Y-44781650D01*
X67362402Y-44868600D01*
X67657598Y-44868600D01*
X68094725Y-44781650D01*
X68590430Y-44450430D01*
X68780000Y-44166719D01*
X68969570Y-44450430D01*
X69465275Y-44781650D01*
X69902402Y-44868600D01*
X70197598Y-44868600D01*
X70634725Y-44781650D01*
X71130430Y-44450430D01*
X71320000Y-44166719D01*
X71509570Y-44450430D01*
X72005275Y-44781650D01*
X72442402Y-44868600D01*
X72737598Y-44868600D01*
X73174725Y-44781650D01*
X73670430Y-44450430D01*
X73860000Y-44166719D01*
X74049570Y-44450430D01*
X74545275Y-44781650D01*
X74982402Y-44868600D01*
X75277598Y-44868600D01*
X75714725Y-44781650D01*
X76210430Y-44450430D01*
X76400000Y-44166719D01*
X76589570Y-44450430D01*
X77085275Y-44781650D01*
X77522402Y-44868600D01*
X77817598Y-44868600D01*
X78254725Y-44781650D01*
X78750430Y-44450430D01*
X78940000Y-44166719D01*
X79129570Y-44450430D01*
X79625275Y-44781650D01*
X80062402Y-44868600D01*
X80357598Y-44868600D01*
X80794725Y-44781650D01*
X81290430Y-44450430D01*
X81480000Y-44166719D01*
X81669570Y-44450430D01*
X82165275Y-44781650D01*
X82602402Y-44868600D01*
X82897598Y-44868600D01*
X83314001Y-44785772D01*
X83314001Y-45518148D01*
X83299112Y-45593000D01*
X83314001Y-45667852D01*
X83358097Y-45889537D01*
X83526072Y-46140929D01*
X83589528Y-46183329D01*
X92564000Y-55157802D01*
X92564000Y-55323874D01*
X92721569Y-55704280D01*
X93012720Y-55995431D01*
X93393126Y-56153000D01*
X93804874Y-56153000D01*
X94185280Y-55995431D01*
X94476431Y-55704280D01*
X94634000Y-55323874D01*
X94634000Y-54912126D01*
X94476431Y-54531720D01*
X94185280Y-54240569D01*
X93804874Y-54083000D01*
X93638802Y-54083000D01*
X91546928Y-51991126D01*
X94342000Y-51991126D01*
X94342000Y-52402874D01*
X94499569Y-52783280D01*
X94790720Y-53074431D01*
X95171126Y-53232000D01*
X95582874Y-53232000D01*
X95963280Y-53074431D01*
X96254431Y-52783280D01*
X96266000Y-52755350D01*
X96277569Y-52783280D01*
X96568720Y-53074431D01*
X96949126Y-53232000D01*
X97360874Y-53232000D01*
X97741280Y-53074431D01*
X98032431Y-52783280D01*
X98190000Y-52402874D01*
X98190000Y-51991126D01*
X98032431Y-51610720D01*
X97741280Y-51319569D01*
X97360874Y-51162000D01*
X96949126Y-51162000D01*
X96568720Y-51319569D01*
X96277569Y-51610720D01*
X96266000Y-51638650D01*
X96254431Y-51610720D01*
X95963280Y-51319569D01*
X95582874Y-51162000D01*
X95171126Y-51162000D01*
X94790720Y-51319569D01*
X94499569Y-51610720D01*
X94342000Y-51991126D01*
X91546928Y-51991126D01*
X84834000Y-45278199D01*
X84834000Y-44807255D01*
X85142402Y-44868600D01*
X85437598Y-44868600D01*
X85874725Y-44781650D01*
X86370430Y-44450430D01*
X86560000Y-44166719D01*
X86749570Y-44450430D01*
X87245275Y-44781650D01*
X87682402Y-44868600D01*
X87977598Y-44868600D01*
X88414725Y-44781650D01*
X88910430Y-44450430D01*
X89100000Y-44166719D01*
X89289570Y-44450430D01*
X89785275Y-44781650D01*
X90222402Y-44868600D01*
X90517598Y-44868600D01*
X90954725Y-44781650D01*
X91450430Y-44450430D01*
X91640000Y-44166719D01*
X91829570Y-44450430D01*
X92325275Y-44781650D01*
X92762402Y-44868600D01*
X93057598Y-44868600D01*
X93494725Y-44781650D01*
X93990430Y-44450430D01*
X94180000Y-44166719D01*
X94369570Y-44450430D01*
X94865275Y-44781650D01*
X95302402Y-44868600D01*
X95597598Y-44868600D01*
X96034725Y-44781650D01*
X96530430Y-44450430D01*
X96720000Y-44166719D01*
X96909570Y-44450430D01*
X97405275Y-44781650D01*
X97842402Y-44868600D01*
X98137598Y-44868600D01*
X98554000Y-44785772D01*
X98554001Y-55311197D01*
X98512198Y-55353000D01*
X98346126Y-55353000D01*
X97965720Y-55510569D01*
X97674569Y-55801720D01*
X97517000Y-56182126D01*
X97517000Y-56593874D01*
X97674569Y-56974280D01*
X97965720Y-57265431D01*
X98346126Y-57423000D01*
X98757874Y-57423000D01*
X99138280Y-57265431D01*
X99429431Y-56974280D01*
X99587000Y-56593874D01*
X99587000Y-56427802D01*
X99798473Y-56216329D01*
X99861929Y-56173929D01*
X99917031Y-56091463D01*
X100029904Y-55922538D01*
X100039480Y-55874395D01*
X100074000Y-55700852D01*
X100074000Y-55700848D01*
X100088888Y-55626000D01*
X100074000Y-55551152D01*
X100074000Y-44807255D01*
X100382402Y-44868600D01*
X100677598Y-44868600D01*
X101114725Y-44781650D01*
X101610430Y-44450430D01*
X101854000Y-44085902D01*
X101854000Y-45720000D01*
G36*
X70339000Y-39291126D02*
X70339000Y-39359527D01*
X70197598Y-39331400D01*
X69902402Y-39331400D01*
X69465275Y-39418350D01*
X68969570Y-39749570D01*
X68780000Y-40033281D01*
X68590430Y-39749570D01*
X68094725Y-39418350D01*
X67657598Y-39331400D01*
X67362402Y-39331400D01*
X66925275Y-39418350D01*
X66429570Y-39749570D01*
X66240000Y-40033281D01*
X66050430Y-39749570D01*
X65554725Y-39418350D01*
X65117598Y-39331400D01*
X64822402Y-39331400D01*
X64385275Y-39418350D01*
X63889570Y-39749570D01*
X63700000Y-40033281D01*
X63510430Y-39749570D01*
X63014725Y-39418350D01*
X62577598Y-39331400D01*
X62282402Y-39331400D01*
X61845275Y-39418350D01*
X61349570Y-39749570D01*
X61160000Y-40033281D01*
X60970430Y-39749570D01*
X60474725Y-39418350D01*
X60037598Y-39331400D01*
X59742402Y-39331400D01*
X59305275Y-39418350D01*
X58809570Y-39749570D01*
X58608146Y-40051021D01*
X58556821Y-39941510D01*
X58124947Y-39547312D01*
X57709026Y-39375042D01*
X57477000Y-39496183D01*
X57477000Y-40703000D01*
X57497000Y-40703000D01*
X57497000Y-40957000D01*
X57477000Y-40957000D01*
X57477000Y-40977000D01*
X57223000Y-40977000D01*
X57223000Y-40957000D01*
X57203000Y-40957000D01*
X57203000Y-40703000D01*
X57223000Y-40703000D01*
X57223000Y-39496183D01*
X56990974Y-39375042D01*
X56575053Y-39547312D01*
X56143179Y-39941510D01*
X56091854Y-40051021D01*
X55890430Y-39749570D01*
X55394725Y-39418350D01*
X54957598Y-39331400D01*
X54662402Y-39331400D01*
X54225275Y-39418350D01*
X53729570Y-39749570D01*
X53540000Y-40033281D01*
X53350430Y-39749570D01*
X52854725Y-39418350D01*
X52417598Y-39331400D01*
X52122402Y-39331400D01*
X51685275Y-39418350D01*
X51189570Y-39749570D01*
X50927000Y-40142533D01*
X50927000Y-39285000D01*
X70341537Y-39285000D01*
X70339000Y-39291126D01*
X70339000Y-39291126D01*
G37*
X70339000Y-39291126D02*
X70339000Y-39359527D01*
X70197598Y-39331400D01*
X69902402Y-39331400D01*
X69465275Y-39418350D01*
X68969570Y-39749570D01*
X68780000Y-40033281D01*
X68590430Y-39749570D01*
X68094725Y-39418350D01*
X67657598Y-39331400D01*
X67362402Y-39331400D01*
X66925275Y-39418350D01*
X66429570Y-39749570D01*
X66240000Y-40033281D01*
X66050430Y-39749570D01*
X65554725Y-39418350D01*
X65117598Y-39331400D01*
X64822402Y-39331400D01*
X64385275Y-39418350D01*
X63889570Y-39749570D01*
X63700000Y-40033281D01*
X63510430Y-39749570D01*
X63014725Y-39418350D01*
X62577598Y-39331400D01*
X62282402Y-39331400D01*
X61845275Y-39418350D01*
X61349570Y-39749570D01*
X61160000Y-40033281D01*
X60970430Y-39749570D01*
X60474725Y-39418350D01*
X60037598Y-39331400D01*
X59742402Y-39331400D01*
X59305275Y-39418350D01*
X58809570Y-39749570D01*
X58608146Y-40051021D01*
X58556821Y-39941510D01*
X58124947Y-39547312D01*
X57709026Y-39375042D01*
X57477000Y-39496183D01*
X57477000Y-40703000D01*
X57497000Y-40703000D01*
X57497000Y-40957000D01*
X57477000Y-40957000D01*
X57477000Y-40977000D01*
X57223000Y-40977000D01*
X57223000Y-40957000D01*
X57203000Y-40957000D01*
X57203000Y-40703000D01*
X57223000Y-40703000D01*
X57223000Y-39496183D01*
X56990974Y-39375042D01*
X56575053Y-39547312D01*
X56143179Y-39941510D01*
X56091854Y-40051021D01*
X55890430Y-39749570D01*
X55394725Y-39418350D01*
X54957598Y-39331400D01*
X54662402Y-39331400D01*
X54225275Y-39418350D01*
X53729570Y-39749570D01*
X53540000Y-40033281D01*
X53350430Y-39749570D01*
X52854725Y-39418350D01*
X52417598Y-39331400D01*
X52122402Y-39331400D01*
X51685275Y-39418350D01*
X51189570Y-39749570D01*
X50927000Y-40142533D01*
X50927000Y-39285000D01*
X70341537Y-39285000D01*
X70339000Y-39291126D01*
G04 #@! TD*
M02*
