G04 #@! TF.GenerationSoftware,KiCad,Pcbnew,5.0.1-33cea8e~67~ubuntu18.04.1*
G04 #@! TF.CreationDate,2018-12-03T16:30:20-06:00*
G04 #@! TF.ProjectId,PiHatAx5043,50694861744178353034332E6B696361,V1.3*
G04 #@! TF.SameCoordinates,Original*
G04 #@! TF.FileFunction,Copper,L1,Top,Signal*
G04 #@! TF.FilePolarity,Positive*
%FSLAX46Y46*%
G04 Gerber Fmt 4.6, Leading zero omitted, Abs format (unit mm)*
G04 Created by KiCad (PCBNEW 5.0.1-33cea8e~67~ubuntu18.04.1) date Mon 03 Dec 2018 04:30:20 PM CST*
%MOMM*%
%LPD*%
G01*
G04 APERTURE LIST*
G04 #@! TA.AperFunction,NonConductor*
%ADD10C,0.200000*%
G04 #@! TD*
G04 #@! TA.AperFunction,SMDPad,CuDef*
%ADD11R,0.800000X0.800000*%
G04 #@! TD*
G04 #@! TA.AperFunction,SMDPad,CuDef*
%ADD12R,1.150000X1.400000*%
G04 #@! TD*
G04 #@! TA.AperFunction,SMDPad,CuDef*
%ADD13R,0.350000X0.650000*%
G04 #@! TD*
G04 #@! TA.AperFunction,SMDPad,CuDef*
%ADD14R,1.200000X0.775000*%
G04 #@! TD*
G04 #@! TA.AperFunction,ComponentPad*
%ADD15R,1.727200X1.727200*%
G04 #@! TD*
G04 #@! TA.AperFunction,ComponentPad*
%ADD16O,1.727200X1.727200*%
G04 #@! TD*
G04 #@! TA.AperFunction,SMDPad,CuDef*
%ADD17R,0.800000X0.750000*%
G04 #@! TD*
G04 #@! TA.AperFunction,SMDPad,CuDef*
%ADD18R,0.750000X0.800000*%
G04 #@! TD*
G04 #@! TA.AperFunction,SMDPad,CuDef*
%ADD19R,0.900000X0.500000*%
G04 #@! TD*
G04 #@! TA.AperFunction,SMDPad,CuDef*
%ADD20R,0.500000X0.900000*%
G04 #@! TD*
G04 #@! TA.AperFunction,ComponentPad*
%ADD21C,2.200000*%
G04 #@! TD*
G04 #@! TA.AperFunction,ComponentPad*
%ADD22C,2.000000*%
G04 #@! TD*
G04 #@! TA.AperFunction,ComponentPad*
%ADD23R,1.700000X1.700000*%
G04 #@! TD*
G04 #@! TA.AperFunction,ComponentPad*
%ADD24O,1.700000X1.700000*%
G04 #@! TD*
G04 #@! TA.AperFunction,SMDPad,CuDef*
%ADD25R,0.300000X0.750000*%
G04 #@! TD*
G04 #@! TA.AperFunction,SMDPad,CuDef*
%ADD26R,0.750000X0.300000*%
G04 #@! TD*
G04 #@! TA.AperFunction,SMDPad,CuDef*
%ADD27R,2.850000X2.850000*%
G04 #@! TD*
G04 #@! TA.AperFunction,ViaPad*
%ADD28C,0.800000*%
G04 #@! TD*
G04 #@! TA.AperFunction,Conductor*
%ADD29C,0.250000*%
G04 #@! TD*
G04 #@! TA.AperFunction,Conductor*
%ADD30C,0.254000*%
G04 #@! TD*
G04 APERTURE END LIST*
D10*
X100693071Y-82993452D02*
X100740690Y-82850595D01*
X100788309Y-82802976D01*
X100883547Y-82755357D01*
X101026404Y-82755357D01*
X101121642Y-82802976D01*
X101169261Y-82850595D01*
X101216880Y-82945833D01*
X101216880Y-83326785D01*
X100216880Y-83326785D01*
X100216880Y-82993452D01*
X100264500Y-82898214D01*
X100312119Y-82850595D01*
X100407357Y-82802976D01*
X100502595Y-82802976D01*
X100597833Y-82850595D01*
X100645452Y-82898214D01*
X100693071Y-82993452D01*
X100693071Y-83326785D01*
X101216880Y-82326785D02*
X100550214Y-82326785D01*
X100740690Y-82326785D02*
X100645452Y-82279166D01*
X100597833Y-82231547D01*
X100550214Y-82136309D01*
X100550214Y-82041071D01*
X101216880Y-81279166D02*
X100693071Y-81279166D01*
X100597833Y-81326785D01*
X100550214Y-81422023D01*
X100550214Y-81612500D01*
X100597833Y-81707738D01*
X101169261Y-81279166D02*
X101216880Y-81374404D01*
X101216880Y-81612500D01*
X101169261Y-81707738D01*
X101074023Y-81755357D01*
X100978785Y-81755357D01*
X100883547Y-81707738D01*
X100835928Y-81612500D01*
X100835928Y-81374404D01*
X100788309Y-81279166D01*
X100550214Y-80802976D02*
X101216880Y-80802976D01*
X100645452Y-80802976D02*
X100597833Y-80755357D01*
X100550214Y-80660119D01*
X100550214Y-80517261D01*
X100597833Y-80422023D01*
X100693071Y-80374404D01*
X101216880Y-80374404D01*
X101216880Y-79469642D02*
X100216880Y-79469642D01*
X101169261Y-79469642D02*
X101216880Y-79564880D01*
X101216880Y-79755357D01*
X101169261Y-79850595D01*
X101121642Y-79898214D01*
X101026404Y-79945833D01*
X100740690Y-79945833D01*
X100645452Y-79898214D01*
X100597833Y-79850595D01*
X100550214Y-79755357D01*
X100550214Y-79564880D01*
X100597833Y-79469642D01*
X101169261Y-78612500D02*
X101216880Y-78707738D01*
X101216880Y-78898214D01*
X101169261Y-78993452D01*
X101074023Y-79041071D01*
X100693071Y-79041071D01*
X100597833Y-78993452D01*
X100550214Y-78898214D01*
X100550214Y-78707738D01*
X100597833Y-78612500D01*
X100693071Y-78564880D01*
X100788309Y-78564880D01*
X100883547Y-79041071D01*
X100550214Y-78136309D02*
X101216880Y-78136309D01*
X100645452Y-78136309D02*
X100597833Y-78088690D01*
X100550214Y-77993452D01*
X100550214Y-77850595D01*
X100597833Y-77755357D01*
X100693071Y-77707738D01*
X101216880Y-77707738D01*
X101216880Y-77231547D02*
X100216880Y-77231547D01*
X100597833Y-77231547D02*
X100550214Y-77136309D01*
X100550214Y-76945833D01*
X100597833Y-76850595D01*
X100645452Y-76802976D01*
X100740690Y-76755357D01*
X101026404Y-76755357D01*
X101121642Y-76802976D01*
X101169261Y-76850595D01*
X101216880Y-76945833D01*
X101216880Y-77136309D01*
X101169261Y-77231547D01*
X100550214Y-75898214D02*
X101216880Y-75898214D01*
X100550214Y-76326785D02*
X101074023Y-76326785D01*
X101169261Y-76279166D01*
X101216880Y-76183928D01*
X101216880Y-76041071D01*
X101169261Y-75945833D01*
X101121642Y-75898214D01*
X101216880Y-75422023D02*
X100550214Y-75422023D01*
X100740690Y-75422023D02*
X100645452Y-75374404D01*
X100597833Y-75326785D01*
X100550214Y-75231547D01*
X100550214Y-75136309D01*
X100550214Y-74374404D02*
X101359738Y-74374404D01*
X101454976Y-74422023D01*
X101502595Y-74469642D01*
X101550214Y-74564880D01*
X101550214Y-74707738D01*
X101502595Y-74802976D01*
X101169261Y-74374404D02*
X101216880Y-74469642D01*
X101216880Y-74660119D01*
X101169261Y-74755357D01*
X101121642Y-74802976D01*
X101026404Y-74850595D01*
X100740690Y-74850595D01*
X100645452Y-74802976D01*
X100597833Y-74755357D01*
X100550214Y-74660119D01*
X100550214Y-74469642D01*
X100597833Y-74374404D01*
X100216880Y-73279166D02*
X100216880Y-72707738D01*
X101216880Y-72993452D02*
X100216880Y-72993452D01*
X101169261Y-71993452D02*
X101216880Y-72088690D01*
X101216880Y-72279166D01*
X101169261Y-72374404D01*
X101074023Y-72422023D01*
X100693071Y-72422023D01*
X100597833Y-72374404D01*
X100550214Y-72279166D01*
X100550214Y-72088690D01*
X100597833Y-71993452D01*
X100693071Y-71945833D01*
X100788309Y-71945833D01*
X100883547Y-72422023D01*
X101169261Y-71088690D02*
X101216880Y-71183928D01*
X101216880Y-71374404D01*
X101169261Y-71469642D01*
X101121642Y-71517261D01*
X101026404Y-71564880D01*
X100740690Y-71564880D01*
X100645452Y-71517261D01*
X100597833Y-71469642D01*
X100550214Y-71374404D01*
X100550214Y-71183928D01*
X100597833Y-71088690D01*
X101216880Y-70660119D02*
X100216880Y-70660119D01*
X101216880Y-70231547D02*
X100693071Y-70231547D01*
X100597833Y-70279166D01*
X100550214Y-70374404D01*
X100550214Y-70517261D01*
X100597833Y-70612500D01*
X100645452Y-70660119D01*
X101169261Y-69707738D02*
X101216880Y-69707738D01*
X101312119Y-69755357D01*
X101359738Y-69802976D01*
X101216880Y-68041071D02*
X101216880Y-68517261D01*
X100216880Y-68517261D01*
X101216880Y-67231547D02*
X101216880Y-67707738D01*
X100216880Y-67707738D01*
X101121642Y-66326785D02*
X101169261Y-66374404D01*
X101216880Y-66517261D01*
X101216880Y-66612500D01*
X101169261Y-66755357D01*
X101074023Y-66850595D01*
X100978785Y-66898214D01*
X100788309Y-66945833D01*
X100645452Y-66945833D01*
X100454976Y-66898214D01*
X100359738Y-66850595D01*
X100264500Y-66755357D01*
X100216880Y-66612500D01*
X100216880Y-66517261D01*
X100264500Y-66374404D01*
X100312119Y-66326785D01*
X101121642Y-65898214D02*
X101169261Y-65850595D01*
X101216880Y-65898214D01*
X101169261Y-65945833D01*
X101121642Y-65898214D01*
X101216880Y-65898214D01*
X102631166Y-85350595D02*
X102631166Y-84874404D01*
X102916880Y-85445833D02*
X101916880Y-85112500D01*
X102916880Y-84779166D01*
X101916880Y-84541071D02*
X102916880Y-83874404D01*
X101916880Y-83874404D02*
X102916880Y-84541071D01*
X101916880Y-82255357D02*
X101916880Y-82731547D01*
X102393071Y-82779166D01*
X102345452Y-82731547D01*
X102297833Y-82636309D01*
X102297833Y-82398214D01*
X102345452Y-82302976D01*
X102393071Y-82255357D01*
X102488309Y-82207738D01*
X102726404Y-82207738D01*
X102821642Y-82255357D01*
X102869261Y-82302976D01*
X102916880Y-82398214D01*
X102916880Y-82636309D01*
X102869261Y-82731547D01*
X102821642Y-82779166D01*
X101916880Y-81588690D02*
X101916880Y-81493452D01*
X101964500Y-81398214D01*
X102012119Y-81350595D01*
X102107357Y-81302976D01*
X102297833Y-81255357D01*
X102535928Y-81255357D01*
X102726404Y-81302976D01*
X102821642Y-81350595D01*
X102869261Y-81398214D01*
X102916880Y-81493452D01*
X102916880Y-81588690D01*
X102869261Y-81683928D01*
X102821642Y-81731547D01*
X102726404Y-81779166D01*
X102535928Y-81826785D01*
X102297833Y-81826785D01*
X102107357Y-81779166D01*
X102012119Y-81731547D01*
X101964500Y-81683928D01*
X101916880Y-81588690D01*
X102250214Y-80398214D02*
X102916880Y-80398214D01*
X101869261Y-80636309D02*
X102583547Y-80874404D01*
X102583547Y-80255357D01*
X101916880Y-79969642D02*
X101916880Y-79350595D01*
X102297833Y-79683928D01*
X102297833Y-79541071D01*
X102345452Y-79445833D01*
X102393071Y-79398214D01*
X102488309Y-79350595D01*
X102726404Y-79350595D01*
X102821642Y-79398214D01*
X102869261Y-79445833D01*
X102916880Y-79541071D01*
X102916880Y-79826785D01*
X102869261Y-79922023D01*
X102821642Y-79969642D01*
X102916880Y-77588690D02*
X102440690Y-77922023D01*
X102916880Y-78160119D02*
X101916880Y-78160119D01*
X101916880Y-77779166D01*
X101964500Y-77683928D01*
X102012119Y-77636309D01*
X102107357Y-77588690D01*
X102250214Y-77588690D01*
X102345452Y-77636309D01*
X102393071Y-77683928D01*
X102440690Y-77779166D01*
X102440690Y-78160119D01*
X102916880Y-76731547D02*
X102393071Y-76731547D01*
X102297833Y-76779166D01*
X102250214Y-76874404D01*
X102250214Y-77064880D01*
X102297833Y-77160119D01*
X102869261Y-76731547D02*
X102916880Y-76826785D01*
X102916880Y-77064880D01*
X102869261Y-77160119D01*
X102774023Y-77207738D01*
X102678785Y-77207738D01*
X102583547Y-77160119D01*
X102535928Y-77064880D01*
X102535928Y-76826785D01*
X102488309Y-76731547D01*
X102869261Y-76302976D02*
X102916880Y-76207738D01*
X102916880Y-76017261D01*
X102869261Y-75922023D01*
X102774023Y-75874404D01*
X102726404Y-75874404D01*
X102631166Y-75922023D01*
X102583547Y-76017261D01*
X102583547Y-76160119D01*
X102535928Y-76255357D01*
X102440690Y-76302976D01*
X102393071Y-76302976D01*
X102297833Y-76255357D01*
X102250214Y-76160119D01*
X102250214Y-76017261D01*
X102297833Y-75922023D01*
X102250214Y-75445833D02*
X103250214Y-75445833D01*
X102297833Y-75445833D02*
X102250214Y-75350595D01*
X102250214Y-75160119D01*
X102297833Y-75064880D01*
X102345452Y-75017261D01*
X102440690Y-74969642D01*
X102726404Y-74969642D01*
X102821642Y-75017261D01*
X102869261Y-75064880D01*
X102916880Y-75160119D01*
X102916880Y-75350595D01*
X102869261Y-75445833D01*
X102916880Y-74541071D02*
X101916880Y-74541071D01*
X102297833Y-74541071D02*
X102250214Y-74445833D01*
X102250214Y-74255357D01*
X102297833Y-74160119D01*
X102345452Y-74112500D01*
X102440690Y-74064880D01*
X102726404Y-74064880D01*
X102821642Y-74112500D01*
X102869261Y-74160119D01*
X102916880Y-74255357D01*
X102916880Y-74445833D01*
X102869261Y-74541071D01*
X102869261Y-73255357D02*
X102916880Y-73350595D01*
X102916880Y-73541071D01*
X102869261Y-73636309D01*
X102774023Y-73683928D01*
X102393071Y-73683928D01*
X102297833Y-73636309D01*
X102250214Y-73541071D01*
X102250214Y-73350595D01*
X102297833Y-73255357D01*
X102393071Y-73207738D01*
X102488309Y-73207738D01*
X102583547Y-73683928D01*
X102916880Y-72779166D02*
X102250214Y-72779166D01*
X102440690Y-72779166D02*
X102345452Y-72731547D01*
X102297833Y-72683928D01*
X102250214Y-72588690D01*
X102250214Y-72493452D01*
X102916880Y-72160119D02*
X102250214Y-72160119D01*
X102440690Y-72160119D02*
X102345452Y-72112500D01*
X102297833Y-72064880D01*
X102250214Y-71969642D01*
X102250214Y-71874404D01*
X102250214Y-71636309D02*
X102916880Y-71398214D01*
X102250214Y-71160119D02*
X102916880Y-71398214D01*
X103154976Y-71493452D01*
X103202595Y-71541071D01*
X103250214Y-71636309D01*
X102916880Y-70017261D02*
X101916880Y-70017261D01*
X101916880Y-69636309D01*
X101964500Y-69541071D01*
X102012119Y-69493452D01*
X102107357Y-69445833D01*
X102250214Y-69445833D01*
X102345452Y-69493452D01*
X102393071Y-69541071D01*
X102440690Y-69636309D01*
X102440690Y-70017261D01*
X102916880Y-69017261D02*
X102250214Y-69017261D01*
X101916880Y-69017261D02*
X101964500Y-69064880D01*
X102012119Y-69017261D01*
X101964500Y-68969642D01*
X101916880Y-69017261D01*
X102012119Y-69017261D01*
X102393071Y-67445833D02*
X102440690Y-67302976D01*
X102488309Y-67255357D01*
X102583547Y-67207738D01*
X102726404Y-67207738D01*
X102821642Y-67255357D01*
X102869261Y-67302976D01*
X102916880Y-67398214D01*
X102916880Y-67779166D01*
X101916880Y-67779166D01*
X101916880Y-67445833D01*
X101964500Y-67350595D01*
X102012119Y-67302976D01*
X102107357Y-67255357D01*
X102202595Y-67255357D01*
X102297833Y-67302976D01*
X102345452Y-67350595D01*
X102393071Y-67445833D01*
X102393071Y-67779166D01*
X102916880Y-66636309D02*
X102869261Y-66731547D01*
X102821642Y-66779166D01*
X102726404Y-66826785D01*
X102440690Y-66826785D01*
X102345452Y-66779166D01*
X102297833Y-66731547D01*
X102250214Y-66636309D01*
X102250214Y-66493452D01*
X102297833Y-66398214D01*
X102345452Y-66350595D01*
X102440690Y-66302976D01*
X102726404Y-66302976D01*
X102821642Y-66350595D01*
X102869261Y-66398214D01*
X102916880Y-66493452D01*
X102916880Y-66636309D01*
X102916880Y-65445833D02*
X102393071Y-65445833D01*
X102297833Y-65493452D01*
X102250214Y-65588690D01*
X102250214Y-65779166D01*
X102297833Y-65874404D01*
X102869261Y-65445833D02*
X102916880Y-65541071D01*
X102916880Y-65779166D01*
X102869261Y-65874404D01*
X102774023Y-65922023D01*
X102678785Y-65922023D01*
X102583547Y-65874404D01*
X102535928Y-65779166D01*
X102535928Y-65541071D01*
X102488309Y-65445833D01*
X102916880Y-64969642D02*
X102250214Y-64969642D01*
X102440690Y-64969642D02*
X102345452Y-64922023D01*
X102297833Y-64874404D01*
X102250214Y-64779166D01*
X102250214Y-64683928D01*
X102916880Y-63922023D02*
X101916880Y-63922023D01*
X102869261Y-63922023D02*
X102916880Y-64017261D01*
X102916880Y-64207738D01*
X102869261Y-64302976D01*
X102821642Y-64350595D01*
X102726404Y-64398214D01*
X102440690Y-64398214D01*
X102345452Y-64350595D01*
X102297833Y-64302976D01*
X102250214Y-64207738D01*
X102250214Y-64017261D01*
X102297833Y-63922023D01*
X105316880Y-84945833D02*
X106316880Y-84612500D01*
X105316880Y-84279166D01*
X106316880Y-83422023D02*
X106316880Y-83993452D01*
X106316880Y-83707738D02*
X105316880Y-83707738D01*
X105459738Y-83802976D01*
X105554976Y-83898214D01*
X105602595Y-83993452D01*
X106221642Y-82993452D02*
X106269261Y-82945833D01*
X106316880Y-82993452D01*
X106269261Y-83041071D01*
X106221642Y-82993452D01*
X106316880Y-82993452D01*
X105316880Y-82612500D02*
X105316880Y-81993452D01*
X105697833Y-82326785D01*
X105697833Y-82183928D01*
X105745452Y-82088690D01*
X105793071Y-82041071D01*
X105888309Y-81993452D01*
X106126404Y-81993452D01*
X106221642Y-82041071D01*
X106269261Y-82088690D01*
X106316880Y-82183928D01*
X106316880Y-82469642D01*
X106269261Y-82564880D01*
X106221642Y-82612500D01*
X106221642Y-81564880D02*
X106269261Y-81517261D01*
X106316880Y-81564880D01*
X106269261Y-81612500D01*
X106221642Y-81564880D01*
X106316880Y-81564880D01*
X105316880Y-80612500D02*
X105316880Y-81088690D01*
X105793071Y-81136309D01*
X105745452Y-81088690D01*
X105697833Y-80993452D01*
X105697833Y-80755357D01*
X105745452Y-80660119D01*
X105793071Y-80612500D01*
X105888309Y-80564880D01*
X106126404Y-80564880D01*
X106221642Y-80612500D01*
X106269261Y-80660119D01*
X106316880Y-80755357D01*
X106316880Y-80993452D01*
X106269261Y-81088690D01*
X106221642Y-81136309D01*
X106269261Y-77136309D02*
X106316880Y-76993452D01*
X106316880Y-76755357D01*
X106269261Y-76660119D01*
X106221642Y-76612500D01*
X106126404Y-76564880D01*
X106031166Y-76564880D01*
X105935928Y-76612500D01*
X105888309Y-76660119D01*
X105840690Y-76755357D01*
X105793071Y-76945833D01*
X105745452Y-77041071D01*
X105697833Y-77088690D01*
X105602595Y-77136309D01*
X105507357Y-77136309D01*
X105412119Y-77088690D01*
X105364500Y-77041071D01*
X105316880Y-76945833D01*
X105316880Y-76707738D01*
X105364500Y-76564880D01*
X106316880Y-76136309D02*
X105316880Y-76136309D01*
X106316880Y-75564880D01*
X105316880Y-75564880D01*
X106221642Y-75088690D02*
X106269261Y-75041071D01*
X106316880Y-75088690D01*
X106269261Y-75136309D01*
X106221642Y-75088690D01*
X106316880Y-75088690D01*
X105697833Y-75088690D02*
X105745452Y-75041071D01*
X105793071Y-75088690D01*
X105745452Y-75136309D01*
X105697833Y-75088690D01*
X105793071Y-75088690D01*
X106412119Y-74088690D02*
X106412119Y-73326785D01*
X106412119Y-73326785D02*
X106412119Y-72564880D01*
X106412119Y-72564880D02*
X106412119Y-71802976D01*
X106412119Y-71802976D02*
X106412119Y-71041071D01*
X106412119Y-71041071D02*
X106412119Y-70279166D01*
X106412119Y-70279166D02*
X106412119Y-69517261D01*
X106412119Y-69517261D02*
X106412119Y-68755357D01*
X106412119Y-68755357D02*
X106412119Y-67993452D01*
X106412119Y-67993452D02*
X106412119Y-67231547D01*
X106412119Y-67231547D02*
X106412119Y-66469642D01*
X106412119Y-66469642D02*
X106412119Y-65707738D01*
X106412119Y-65707738D02*
X106412119Y-64945833D01*
X106412119Y-64945833D02*
X106412119Y-64183928D01*
D11*
G04 #@! TO.P,D1,2*
G04 #@! TO.N,+3V3*
X55537000Y-49403000D03*
G04 #@! TO.P,D1,1*
G04 #@! TO.N,Net-(D1-Pad1)*
X53937000Y-49403000D03*
G04 #@! TD*
D12*
G04 #@! TO.P,Y1,1*
G04 #@! TO.N,Net-(IC1-Pad20)*
X68618000Y-63095000D03*
G04 #@! TO.P,Y1,2*
G04 #@! TO.N,GND*
X68618000Y-60095000D03*
G04 #@! TO.P,Y1,3*
G04 #@! TO.N,Net-(IC1-Pad19)*
X67018000Y-60095000D03*
G04 #@! TO.P,Y1,4*
G04 #@! TO.N,GND*
X67018000Y-63095000D03*
G04 #@! TD*
D13*
G04 #@! TO.P,U2,1*
G04 #@! TO.N,I2C_SDA*
X96606000Y-56997000D03*
G04 #@! TO.P,U2,2*
G04 #@! TO.N,I2C_SCL*
X95956000Y-56997000D03*
G04 #@! TO.P,U2,3*
G04 #@! TO.N,Net-(U2-Pad3)*
X95306000Y-56997000D03*
G04 #@! TO.P,U2,4*
G04 #@! TO.N,GND*
X94656000Y-56997000D03*
G04 #@! TO.P,U2,5*
X94656000Y-60097000D03*
G04 #@! TO.P,U2,6*
X95306000Y-60097000D03*
G04 #@! TO.P,U2,7*
X95956000Y-60097000D03*
G04 #@! TO.P,U2,8*
G04 #@! TO.N,+3V3*
X96606000Y-60097000D03*
D14*
G04 #@! TO.P,U2,9*
G04 #@! TO.N,GND*
X95031000Y-58934500D03*
X96231000Y-58934500D03*
X95031000Y-58159500D03*
X96231000Y-58159500D03*
G04 #@! TD*
D15*
G04 #@! TO.P,P2,1*
G04 #@! TO.N,+3V3*
X52270000Y-43370000D03*
D16*
G04 #@! TO.P,P2,2*
G04 #@! TO.N,+5V*
X52270000Y-40830000D03*
G04 #@! TO.P,P2,3*
G04 #@! TO.N,/GPIO0(SDA)*
X54810000Y-43370000D03*
G04 #@! TO.P,P2,4*
G04 #@! TO.N,Net-(P2-Pad4)*
X54810000Y-40830000D03*
G04 #@! TO.P,P2,5*
G04 #@! TO.N,/GPIO1(SCL)*
X57350000Y-43370000D03*
G04 #@! TO.P,P2,6*
G04 #@! TO.N,GND*
X57350000Y-40830000D03*
G04 #@! TO.P,P2,7*
G04 #@! TO.N,/GPIO4*
X59890000Y-43370000D03*
G04 #@! TO.P,P2,8*
G04 #@! TO.N,/TXD*
X59890000Y-40830000D03*
G04 #@! TO.P,P2,9*
G04 #@! TO.N,Net-(P2-Pad9)*
X62430000Y-43370000D03*
G04 #@! TO.P,P2,10*
G04 #@! TO.N,/RXD*
X62430000Y-40830000D03*
G04 #@! TO.P,P2,11*
G04 #@! TO.N,AX5043_IRQ*
X64970000Y-43370000D03*
G04 #@! TO.P,P2,12*
G04 #@! TO.N,/GPIO18*
X64970000Y-40830000D03*
G04 #@! TO.P,P2,13*
G04 #@! TO.N,AX5043_SYSCLK*
X67510000Y-43370000D03*
G04 #@! TO.P,P2,14*
G04 #@! TO.N,Net-(P2-Pad14)*
X67510000Y-40830000D03*
G04 #@! TO.P,P2,15*
G04 #@! TO.N,Net-(P2-Pad15)*
X70050000Y-43370000D03*
G04 #@! TO.P,P2,16*
G04 #@! TO.N,I2C_SDA*
X70050000Y-40830000D03*
G04 #@! TO.P,P2,17*
G04 #@! TO.N,Net-(P2-Pad17)*
X72590000Y-43370000D03*
G04 #@! TO.P,P2,18*
G04 #@! TO.N,I2C_SCL*
X72590000Y-40830000D03*
G04 #@! TO.P,P2,19*
G04 #@! TO.N,AX5043_MOSI*
X75130000Y-43370000D03*
G04 #@! TO.P,P2,20*
G04 #@! TO.N,Net-(P2-Pad20)*
X75130000Y-40830000D03*
G04 #@! TO.P,P2,21*
G04 #@! TO.N,AX5043_MISO*
X77670000Y-43370000D03*
G04 #@! TO.P,P2,22*
G04 #@! TO.N,/GPIO25*
X77670000Y-40830000D03*
G04 #@! TO.P,P2,23*
G04 #@! TO.N,AX5043_CLK*
X80210000Y-43370000D03*
G04 #@! TO.P,P2,24*
G04 #@! TO.N,AX5043_SEL*
X80210000Y-40830000D03*
G04 #@! TO.P,P2,25*
G04 #@! TO.N,Net-(P2-Pad25)*
X82750000Y-43370000D03*
G04 #@! TO.P,P2,26*
G04 #@! TO.N,/GPIO7(CE1)*
X82750000Y-40830000D03*
G04 #@! TO.P,P2,27*
G04 #@! TO.N,N/C*
X85290000Y-43370000D03*
G04 #@! TO.P,P2,28*
X85290000Y-40830000D03*
G04 #@! TO.P,P2,29*
X87830000Y-43370000D03*
G04 #@! TO.P,P2,30*
X87830000Y-40830000D03*
G04 #@! TO.P,P2,31*
X90370000Y-43370000D03*
G04 #@! TO.P,P2,32*
X90370000Y-40830000D03*
G04 #@! TO.P,P2,33*
X92910000Y-43370000D03*
G04 #@! TO.P,P2,34*
X92910000Y-40830000D03*
G04 #@! TO.P,P2,35*
X95450000Y-43370000D03*
G04 #@! TO.P,P2,36*
X95450000Y-40830000D03*
G04 #@! TO.P,P2,37*
X97990000Y-43370000D03*
G04 #@! TO.P,P2,38*
X97990000Y-40830000D03*
G04 #@! TO.P,P2,39*
X100530000Y-43370000D03*
G04 #@! TO.P,P2,40*
X100530000Y-40830000D03*
G04 #@! TD*
D17*
G04 #@! TO.P,C1,2*
G04 #@! TO.N,GND*
X74116500Y-83629500D03*
G04 #@! TO.P,C1,1*
G04 #@! TO.N,Net-(C1-Pad1)*
X75616500Y-83629500D03*
G04 #@! TD*
D18*
G04 #@! TO.P,C2,2*
G04 #@! TO.N,Net-(C1-Pad1)*
X77152500Y-82347500D03*
G04 #@! TO.P,C2,1*
G04 #@! TO.N,Net-(C2-Pad1)*
X77152500Y-80847500D03*
G04 #@! TD*
D17*
G04 #@! TO.P,C3,2*
G04 #@! TO.N,GND*
X74116500Y-79565500D03*
G04 #@! TO.P,C3,1*
G04 #@! TO.N,Net-(C2-Pad1)*
X75616500Y-79565500D03*
G04 #@! TD*
D18*
G04 #@! TO.P,C4,2*
G04 #@! TO.N,Net-(C2-Pad1)*
X77406500Y-78283500D03*
G04 #@! TO.P,C4,1*
G04 #@! TO.N,Net-(C4-Pad1)*
X77406500Y-76783500D03*
G04 #@! TD*
D17*
G04 #@! TO.P,C5,2*
G04 #@! TO.N,GND*
X74116500Y-73723500D03*
G04 #@! TO.P,C5,1*
G04 #@! TO.N,Net-(C5-Pad1)*
X75616500Y-73723500D03*
G04 #@! TD*
G04 #@! TO.P,C6,2*
G04 #@! TO.N,GND*
X78918500Y-73723500D03*
G04 #@! TO.P,C6,1*
G04 #@! TO.N,Net-(C4-Pad1)*
X77418500Y-73723500D03*
G04 #@! TD*
D18*
G04 #@! TO.P,C7,2*
G04 #@! TO.N,Net-(C7-Pad2)*
X75628500Y-69647500D03*
G04 #@! TO.P,C7,1*
G04 #@! TO.N,Net-(C7-Pad1)*
X75628500Y-68147500D03*
G04 #@! TD*
G04 #@! TO.P,C8,2*
G04 #@! TO.N,Net-(C8-Pad2)*
X77406500Y-69647500D03*
G04 #@! TO.P,C8,1*
G04 #@! TO.N,Net-(C8-Pad1)*
X77406500Y-68147500D03*
G04 #@! TD*
D17*
G04 #@! TO.P,C9,2*
G04 #@! TO.N,GND*
X72719500Y-63817500D03*
G04 #@! TO.P,C9,1*
G04 #@! TO.N,Net-(C9-Pad1)*
X74219500Y-63817500D03*
G04 #@! TD*
G04 #@! TO.P,C10,2*
G04 #@! TO.N,GND*
X81331500Y-63817500D03*
G04 #@! TO.P,C10,1*
G04 #@! TO.N,Net-(C10-Pad1)*
X79831500Y-63817500D03*
G04 #@! TD*
D18*
G04 #@! TO.P,C11,2*
G04 #@! TO.N,GND*
X72263000Y-56400000D03*
G04 #@! TO.P,C11,1*
G04 #@! TO.N,+3V3*
X72263000Y-57900000D03*
G04 #@! TD*
G04 #@! TO.P,C12,2*
G04 #@! TO.N,GND*
X96647000Y-63615000D03*
G04 #@! TO.P,C12,1*
G04 #@! TO.N,+3V3*
X96647000Y-62115000D03*
G04 #@! TD*
D19*
G04 #@! TO.P,L1,1*
G04 #@! TO.N,Net-(C2-Pad1)*
X75628500Y-80847500D03*
G04 #@! TO.P,L1,2*
G04 #@! TO.N,Net-(C1-Pad1)*
X75628500Y-82347500D03*
G04 #@! TD*
G04 #@! TO.P,L2,1*
G04 #@! TO.N,Net-(C5-Pad1)*
X75628500Y-76783500D03*
G04 #@! TO.P,L2,2*
G04 #@! TO.N,Net-(C2-Pad1)*
X75628500Y-78283500D03*
G04 #@! TD*
D20*
G04 #@! TO.P,L3,1*
G04 #@! TO.N,GND*
X78918500Y-75247500D03*
G04 #@! TO.P,L3,2*
G04 #@! TO.N,Net-(C4-Pad1)*
X77418500Y-75247500D03*
G04 #@! TD*
D19*
G04 #@! TO.P,L4,1*
G04 #@! TO.N,Net-(C7-Pad2)*
X75628500Y-70941500D03*
G04 #@! TO.P,L4,2*
G04 #@! TO.N,Net-(C5-Pad1)*
X75628500Y-72441500D03*
G04 #@! TD*
G04 #@! TO.P,L5,1*
G04 #@! TO.N,Net-(C8-Pad2)*
X77406500Y-70941500D03*
G04 #@! TO.P,L5,2*
G04 #@! TO.N,Net-(C4-Pad1)*
X77406500Y-72441500D03*
G04 #@! TD*
D20*
G04 #@! TO.P,L6,1*
G04 #@! TO.N,GND*
X78918500Y-66611500D03*
G04 #@! TO.P,L6,2*
G04 #@! TO.N,Net-(C8-Pad1)*
X77418500Y-66611500D03*
G04 #@! TD*
G04 #@! TO.P,L7,1*
G04 #@! TO.N,GND*
X74116500Y-66611500D03*
G04 #@! TO.P,L7,2*
G04 #@! TO.N,Net-(C7-Pad1)*
X75616500Y-66611500D03*
G04 #@! TD*
D19*
G04 #@! TO.P,L8,1*
G04 #@! TO.N,Net-(IC1-Pad8)*
X81597500Y-60908500D03*
G04 #@! TO.P,L8,2*
G04 #@! TO.N,Net-(IC1-Pad7)*
X81597500Y-62408500D03*
G04 #@! TD*
D21*
G04 #@! TO.P,P1,2*
G04 #@! TO.N,GND*
X73088500Y-86550500D03*
X78168500Y-86550500D03*
X78168500Y-91630500D03*
X73088500Y-91630500D03*
D22*
G04 #@! TO.P,P1,1*
G04 #@! TO.N,Net-(C1-Pad1)*
X75628500Y-89090500D03*
G04 #@! TD*
D23*
G04 #@! TO.P,P3,1*
G04 #@! TO.N,+3V3*
X61722000Y-63754000D03*
D24*
G04 #@! TO.P,P3,2*
G04 #@! TO.N,AX5043_GPADC2*
X61722000Y-61214000D03*
G04 #@! TO.P,P3,3*
G04 #@! TO.N,AX5043_GPADC1*
X61722000Y-58674000D03*
G04 #@! TO.P,P3,4*
G04 #@! TO.N,Net-(P3-Pad4)*
X61722000Y-56134000D03*
G04 #@! TO.P,P3,5*
G04 #@! TO.N,Net-(P3-Pad5)*
X61722000Y-53594000D03*
G04 #@! TO.P,P3,6*
G04 #@! TO.N,GND*
X61722000Y-51054000D03*
G04 #@! TD*
D20*
G04 #@! TO.P,R1,1*
G04 #@! TO.N,AX5043_GPADC2*
X58662000Y-61214000D03*
G04 #@! TO.P,R1,2*
G04 #@! TO.N,GND*
X57162000Y-61214000D03*
G04 #@! TD*
G04 #@! TO.P,R2,1*
G04 #@! TO.N,AX5043_GPADC1*
X58662000Y-58674000D03*
G04 #@! TO.P,R2,2*
G04 #@! TO.N,GND*
X57162000Y-58674000D03*
G04 #@! TD*
D19*
G04 #@! TO.P,R3,1*
G04 #@! TO.N,+3V3*
X97155000Y-53606000D03*
G04 #@! TO.P,R3,2*
G04 #@! TO.N,I2C_SDA*
X97155000Y-55106000D03*
G04 #@! TD*
G04 #@! TO.P,R4,1*
G04 #@! TO.N,+3V3*
X95377000Y-53606000D03*
G04 #@! TO.P,R4,2*
G04 #@! TO.N,I2C_SCL*
X95377000Y-55106000D03*
G04 #@! TD*
D20*
G04 #@! TO.P,R5,1*
G04 #@! TO.N,Net-(D1-Pad1)*
X53987000Y-51689000D03*
G04 #@! TO.P,R5,2*
G04 #@! TO.N,GND*
X55487000Y-51689000D03*
G04 #@! TD*
D25*
G04 #@! TO.P,IC1,1*
G04 #@! TO.N,Net-(C9-Pad1)*
X76078840Y-61944000D03*
G04 #@! TO.P,IC1,2*
G04 #@! TO.N,GND*
X76578840Y-61944000D03*
G04 #@! TO.P,IC1,3*
G04 #@! TO.N,Net-(C7-Pad1)*
X77078840Y-61944000D03*
G04 #@! TO.P,IC1,4*
G04 #@! TO.N,Net-(C8-Pad1)*
X77578840Y-61944000D03*
G04 #@! TO.P,IC1,5*
G04 #@! TO.N,Net-(C10-Pad1)*
X78078840Y-61944000D03*
D26*
G04 #@! TO.P,IC1,6*
G04 #@! TO.N,Net-(IC1-Pad6)*
X79078840Y-60944000D03*
G04 #@! TO.P,IC1,7*
G04 #@! TO.N,Net-(IC1-Pad7)*
X79078840Y-60444000D03*
G04 #@! TO.P,IC1,8*
G04 #@! TO.N,Net-(IC1-Pad8)*
X79078840Y-59944000D03*
G04 #@! TO.P,IC1,9*
G04 #@! TO.N,AX5043_SYSCLK*
X79078840Y-59444000D03*
G04 #@! TO.P,IC1,10*
G04 #@! TO.N,AX5043_SEL*
X79078840Y-58944000D03*
D25*
G04 #@! TO.P,IC1,11*
G04 #@! TO.N,AX5043_CLK*
X78078840Y-57944000D03*
G04 #@! TO.P,IC1,12*
G04 #@! TO.N,AX5043_MISO*
X77578840Y-57944000D03*
G04 #@! TO.P,IC1,13*
G04 #@! TO.N,AX5043_MOSI*
X77078840Y-57944000D03*
G04 #@! TO.P,IC1,14*
G04 #@! TO.N,AX5043_IRQ*
X76578840Y-57944000D03*
G04 #@! TO.P,IC1,15*
G04 #@! TO.N,Net-(IC1-Pad15)*
X76078840Y-57944000D03*
D26*
G04 #@! TO.P,IC1,16*
G04 #@! TO.N,+3V3*
X75078840Y-58944000D03*
G04 #@! TO.P,IC1,17*
G04 #@! TO.N,AX5043_GPADC1*
X75078840Y-59444000D03*
G04 #@! TO.P,IC1,18*
G04 #@! TO.N,AX5043_GPADC2*
X75078840Y-59944000D03*
G04 #@! TO.P,IC1,19*
G04 #@! TO.N,Net-(IC1-Pad19)*
X75078840Y-60444000D03*
G04 #@! TO.P,IC1,20*
G04 #@! TO.N,Net-(IC1-Pad20)*
X75078840Y-60944000D03*
D27*
G04 #@! TO.P,IC1,21*
G04 #@! TO.N,GND*
X77078840Y-59944000D03*
G04 #@! TD*
D28*
G04 #@! TO.N,GND*
X78930500Y-64960500D03*
X80010000Y-66675000D03*
X80010000Y-65532000D03*
X77787500Y-63754000D03*
X77787500Y-64960500D03*
X59055000Y-51054000D03*
X82804000Y-63881000D03*
X72771000Y-79502000D03*
X72898000Y-82486500D03*
X74231500Y-82105500D03*
X74231500Y-80772000D03*
X73152000Y-80708500D03*
X72771000Y-73787000D03*
X73088500Y-78422500D03*
X74104500Y-77597000D03*
X74104500Y-76454000D03*
X74866500Y-75692000D03*
X74295000Y-74930000D03*
X73215500Y-74866500D03*
X72644000Y-66675000D03*
X72961500Y-72771000D03*
X74104500Y-72263000D03*
X74104500Y-71120000D03*
X74358500Y-70040500D03*
X74358500Y-69024500D03*
X74358500Y-68008500D03*
X73152000Y-67754500D03*
X73025000Y-65468500D03*
X74485500Y-65278000D03*
X75692000Y-64960500D03*
X80137000Y-75311000D03*
X76835000Y-83566000D03*
X78041500Y-83502500D03*
X78422500Y-82486500D03*
X78422500Y-81343500D03*
X78422500Y-80264000D03*
X77406500Y-79502000D03*
X78613000Y-78803500D03*
X78613000Y-77660500D03*
X78613000Y-76581000D03*
X79883000Y-76390500D03*
X78613000Y-67945000D03*
X79756000Y-67691000D03*
X79692500Y-72517000D03*
X78740000Y-72072500D03*
X78740000Y-70993000D03*
X78613000Y-69977000D03*
X78613000Y-68961000D03*
X93218000Y-56388000D03*
X72771000Y-83566000D03*
X58674000Y-47752000D03*
X55753000Y-58674000D03*
X55499000Y-62103000D03*
X70866000Y-55753000D03*
X65405000Y-63119000D03*
X70231000Y-60960000D03*
X71501000Y-64897000D03*
X94107000Y-61341000D03*
X96647000Y-65024000D03*
X80137000Y-73787000D03*
X81026000Y-91694000D03*
X80899000Y-86487000D03*
X70231000Y-86614000D03*
X70358000Y-91694000D03*
X75692000Y-63754000D03*
G04 #@! TO.N,+3V3*
X95123000Y-62357000D03*
X97155000Y-52197000D03*
X95377000Y-52197000D03*
X70612000Y-58166000D03*
X58674000Y-63754000D03*
X52324000Y-45974000D03*
G04 #@! TO.N,AX5043_IRQ*
X73660000Y-53594000D03*
X65659000Y-46037500D03*
G04 #@! TO.N,AX5043_SYSCLK*
X67690500Y-46038900D03*
X81153000Y-58420000D03*
G04 #@! TO.N,I2C_SDA*
X98552000Y-56388000D03*
X71374000Y-39497000D03*
G04 #@! TO.N,I2C_SCL*
X73787000Y-42037000D03*
X93599000Y-55118000D03*
G04 #@! TO.N,AX5043_MOSI*
X77089000Y-54864000D03*
X75184000Y-45974000D03*
G04 #@! TO.N,AX5043_MISO*
X77978000Y-53784500D03*
X77724000Y-45974000D03*
G04 #@! TO.N,AX5043_CLK*
X78867000Y-54864000D03*
X80264000Y-45974000D03*
G04 #@! TO.N,AX5043_SEL*
X79756000Y-56896000D03*
X81407000Y-45974000D03*
G04 #@! TO.N,AX5043_GPADC2*
X64262000Y-61214000D03*
X72136000Y-60071000D03*
G04 #@! TO.N,AX5043_GPADC1*
X71374000Y-59055000D03*
X64262000Y-58674000D03*
G04 #@! TD*
D29*
G04 #@! TO.N,*
X52270000Y-46821000D02*
X52324000Y-46875000D01*
G04 #@! TO.N,GND*
X55487000Y-51689000D02*
X58420000Y-51689000D01*
X59055000Y-51054000D02*
X61722000Y-51054000D01*
X58420000Y-51689000D02*
X59055000Y-51054000D01*
X96231000Y-58934500D02*
X96231000Y-58159500D01*
X95031000Y-58159500D02*
X96231000Y-58159500D01*
X95031000Y-58159500D02*
X95031000Y-58934500D01*
X94656000Y-56997000D02*
X94656000Y-57784500D01*
X94656000Y-57784500D02*
X95031000Y-58159500D01*
X81395000Y-63881000D02*
X82804000Y-63881000D01*
X74053000Y-79502000D02*
X72771000Y-79502000D01*
X74053000Y-73787000D02*
X72771000Y-73787000D01*
X74116500Y-66611500D02*
X72707500Y-66611500D01*
X78982000Y-75311000D02*
X80137000Y-75311000D01*
X78982000Y-66675000D02*
X80010000Y-66675000D01*
X94656000Y-56997000D02*
X94656000Y-56746500D01*
X94656000Y-56746500D02*
X93218000Y-56388000D01*
X72771000Y-83566000D02*
X74053000Y-83566000D01*
X57350000Y-40830000D02*
X57350000Y-40967000D01*
X57350000Y-40967000D02*
X58674000Y-42291000D01*
X58674000Y-42291000D02*
X58674000Y-47752000D01*
X57162000Y-58674000D02*
X55753000Y-58674000D01*
X57162000Y-61214000D02*
X56388000Y-61214000D01*
X56388000Y-61214000D02*
X55499000Y-62103000D01*
X72263000Y-56400000D02*
X71616000Y-55753000D01*
X71616000Y-55753000D02*
X70866000Y-55753000D01*
X67018000Y-63095000D02*
X65429000Y-63095000D01*
X65429000Y-63095000D02*
X65405000Y-63119000D01*
X68618000Y-60095000D02*
X69366000Y-60095000D01*
X69366000Y-60095000D02*
X70231000Y-60960000D01*
X72719500Y-63817500D02*
X72580500Y-63817500D01*
X72580500Y-63817500D02*
X71501000Y-64897000D01*
X94656000Y-61128000D02*
X94320000Y-61128000D01*
X94320000Y-61128000D02*
X94107000Y-61341000D01*
X95306000Y-60097000D02*
X95306000Y-61285000D01*
X95306000Y-61285000D02*
X95250000Y-61341000D01*
X95250000Y-61341000D02*
X94869000Y-61341000D01*
X94869000Y-61341000D02*
X94656000Y-61128000D01*
X94656000Y-61128000D02*
X94656000Y-60097000D01*
X95956000Y-60097000D02*
X95956000Y-60635000D01*
X95956000Y-60635000D02*
X95250000Y-61341000D01*
X96647000Y-63615000D02*
X96647000Y-65024000D01*
X81331500Y-63817500D02*
X81395000Y-63881000D01*
X78918500Y-66611500D02*
X78982000Y-66675000D01*
X78918500Y-73723500D02*
X78982000Y-73787000D01*
X78982000Y-73787000D02*
X80137000Y-73787000D01*
X78918500Y-75247500D02*
X78982000Y-75311000D01*
X74116500Y-73723500D02*
X74053000Y-73787000D01*
X74116500Y-79565500D02*
X74053000Y-79502000D01*
X74116500Y-83629500D02*
X74053000Y-83566000D01*
X78168500Y-91630500D02*
X78232000Y-91694000D01*
X78232000Y-91694000D02*
X81026000Y-91694000D01*
X78168500Y-86550500D02*
X78232000Y-86487000D01*
X78232000Y-86487000D02*
X80899000Y-86487000D01*
X73088500Y-86550500D02*
X73025000Y-86614000D01*
X73025000Y-86614000D02*
X70231000Y-86614000D01*
X73088500Y-91630500D02*
X73025000Y-91694000D01*
X73025000Y-91694000D02*
X70358000Y-91694000D01*
X72707500Y-66611500D02*
X72644000Y-66675000D01*
X75692000Y-63319430D02*
X75692000Y-63754000D01*
X76578840Y-62432590D02*
X75692000Y-63319430D01*
X76578840Y-61944000D02*
X76578840Y-62432590D01*
X76578840Y-60444000D02*
X77078840Y-59944000D01*
X76578840Y-61944000D02*
X76578840Y-60444000D01*
G04 #@! TO.N,Net-(C1-Pad1)*
X75628500Y-89090500D02*
X75628500Y-83641500D01*
X75628500Y-83641500D02*
X75628500Y-82347500D01*
X75628500Y-82347500D02*
X77152500Y-82347500D01*
G04 #@! TO.N,Net-(C2-Pad1)*
X75628500Y-80847500D02*
X75628500Y-79577500D01*
X75628500Y-79577500D02*
X75628500Y-78283500D01*
X77152500Y-80847500D02*
X75628500Y-80847500D01*
X75628500Y-80847500D02*
X75616500Y-80835500D01*
X75616500Y-78295500D02*
X75628500Y-78283500D01*
X75628500Y-78283500D02*
X77406500Y-78283500D01*
G04 #@! TO.N,Net-(C4-Pad1)*
X77406500Y-72441500D02*
X77406500Y-73711500D01*
X77406500Y-73711500D02*
X77418500Y-73723500D01*
X77418500Y-73723500D02*
X77418500Y-75247500D01*
X77406500Y-76783500D02*
X77406500Y-75259500D01*
X77406500Y-75259500D02*
X77418500Y-75247500D01*
X77418500Y-72453500D02*
X77406500Y-72441500D01*
G04 #@! TO.N,Net-(C5-Pad1)*
X75628500Y-76783500D02*
X75628500Y-73735500D01*
X75628500Y-73735500D02*
X75628500Y-72441500D01*
G04 #@! TO.N,Net-(C7-Pad2)*
X75628500Y-70941500D02*
X75628500Y-69647500D01*
G04 #@! TO.N,Net-(C7-Pad1)*
X75628500Y-68147500D02*
X75628500Y-66623500D01*
X75628500Y-66623500D02*
X75616500Y-66611500D01*
X77078840Y-62569000D02*
X77078840Y-61944000D01*
X76417001Y-65610999D02*
X76417001Y-63230839D01*
X76417001Y-63230839D02*
X77078840Y-62569000D01*
X75616500Y-66411500D02*
X76417001Y-65610999D01*
X75616500Y-66611500D02*
X75616500Y-66411500D01*
G04 #@! TO.N,Net-(C8-Pad2)*
X77406500Y-70941500D02*
X77406500Y-69647500D01*
G04 #@! TO.N,Net-(C8-Pad1)*
X77406500Y-68147500D02*
X77406500Y-66623500D01*
X77406500Y-66623500D02*
X77418500Y-66611500D01*
X77578840Y-62569000D02*
X77578840Y-61944000D01*
X77062499Y-63405999D02*
X77578840Y-62889658D01*
X77062499Y-65555499D02*
X77062499Y-63405999D01*
X77578840Y-62889658D02*
X77578840Y-62569000D01*
X77418500Y-65911500D02*
X77062499Y-65555499D01*
X77418500Y-66611500D02*
X77418500Y-65911500D01*
G04 #@! TO.N,Net-(C9-Pad1)*
X76078840Y-62169000D02*
X76078840Y-61944000D01*
X74430340Y-63817500D02*
X76078840Y-62169000D01*
X74219500Y-63817500D02*
X74430340Y-63817500D01*
G04 #@! TO.N,Net-(C10-Pad1)*
X78078840Y-62569000D02*
X78078840Y-61944000D01*
X78078840Y-62714840D02*
X78078840Y-62569000D01*
X79181500Y-63817500D02*
X78078840Y-62714840D01*
X79831500Y-63817500D02*
X79181500Y-63817500D01*
G04 #@! TO.N,+3V3*
X55537000Y-49403000D02*
X55537000Y-49187000D01*
X55537000Y-49187000D02*
X52324000Y-45974000D01*
X96647000Y-62115000D02*
X95365000Y-62115000D01*
X95365000Y-62115000D02*
X95123000Y-62357000D01*
X97155000Y-52197000D02*
X97155000Y-53606000D01*
X95377000Y-52197000D02*
X95377000Y-53606000D01*
X72263000Y-57900000D02*
X71997000Y-58166000D01*
X71997000Y-58166000D02*
X70612000Y-58166000D01*
X52270000Y-43370000D02*
X52270000Y-45920000D01*
X58674000Y-63754000D02*
X61722000Y-63754000D01*
X52270000Y-45920000D02*
X52324000Y-45974000D01*
X96606000Y-60097000D02*
X96606000Y-62074000D01*
X96606000Y-62074000D02*
X96647000Y-62115000D01*
X73282000Y-58944000D02*
X74453840Y-58944000D01*
X74453840Y-58944000D02*
X75078840Y-58944000D01*
X72263000Y-57925000D02*
X73282000Y-58944000D01*
X72263000Y-57900000D02*
X72263000Y-57925000D01*
G04 #@! TO.N,AX5043_IRQ*
X64970000Y-43370000D02*
X65024000Y-43424000D01*
X65024000Y-43424000D02*
X65659000Y-46037500D01*
X76578840Y-56512840D02*
X76578840Y-57944000D01*
X73660000Y-53594000D02*
X76578840Y-56512840D01*
G04 #@! TO.N,AX5043_SYSCLK*
X67690500Y-46038900D02*
X67690500Y-43550500D01*
X67690500Y-43550500D02*
X67510000Y-43370000D01*
X67510000Y-43370000D02*
X67564000Y-43424000D01*
X80129000Y-59444000D02*
X81153000Y-58420000D01*
X79078840Y-59444000D02*
X80129000Y-59444000D01*
G04 #@! TO.N,I2C_SDA*
X70050000Y-40830000D02*
X70050000Y-40821000D01*
X70050000Y-40821000D02*
X71374000Y-39497000D01*
X98552000Y-56388000D02*
X97270000Y-55106000D01*
X97270000Y-55106000D02*
X97155000Y-55106000D01*
X97155000Y-55106000D02*
X96606000Y-55655000D01*
X96606000Y-55655000D02*
X96606000Y-56997000D01*
G04 #@! TO.N,I2C_SCL*
X72590000Y-40830000D02*
X72590000Y-40840000D01*
X72590000Y-40840000D02*
X73787000Y-42037000D01*
X93599000Y-55118000D02*
X93611000Y-55106000D01*
X93611000Y-55106000D02*
X95377000Y-55106000D01*
X95377000Y-55106000D02*
X95956000Y-55685000D01*
X95956000Y-55685000D02*
X95956000Y-56997000D01*
G04 #@! TO.N,AX5043_MOSI*
X75130000Y-43370000D02*
X75130000Y-45920000D01*
X75130000Y-45920000D02*
X75184000Y-45974000D01*
X77089000Y-57933840D02*
X77078840Y-57944000D01*
X77089000Y-54864000D02*
X77089000Y-57933840D01*
G04 #@! TO.N,AX5043_MISO*
X77670000Y-43370000D02*
X77670000Y-45920000D01*
X77978000Y-53784500D02*
X78025500Y-53832000D01*
X77670000Y-45920000D02*
X77724000Y-45974000D01*
X77578840Y-57333998D02*
X77578840Y-57944000D01*
X77978000Y-56934838D02*
X77578840Y-57333998D01*
X77978000Y-53784500D02*
X77978000Y-56934838D01*
G04 #@! TO.N,AX5043_CLK*
X80210000Y-43370000D02*
X80210000Y-45920000D01*
X80210000Y-45920000D02*
X80264000Y-45974000D01*
X78478840Y-57944000D02*
X78078840Y-57944000D01*
X78867000Y-57555840D02*
X78478840Y-57944000D01*
X78867000Y-54864000D02*
X78867000Y-57555840D01*
G04 #@! TO.N,AX5043_SEL*
X81407000Y-42164000D02*
X81407000Y-45974000D01*
X81407000Y-42164000D02*
X80210000Y-40967000D01*
X80210000Y-40830000D02*
X80210000Y-40967000D01*
X79756000Y-58266840D02*
X79078840Y-58944000D01*
X79756000Y-56896000D02*
X79756000Y-58266840D01*
G04 #@! TO.N,AX5043_GPADC2*
X58662000Y-61214000D02*
X61722000Y-61214000D01*
X61722000Y-61214000D02*
X64262000Y-61214000D01*
X74453840Y-59944000D02*
X75078840Y-59944000D01*
X72828685Y-59944000D02*
X74453840Y-59944000D01*
X72701685Y-60071000D02*
X72828685Y-59944000D01*
X72136000Y-60071000D02*
X72701685Y-60071000D01*
G04 #@! TO.N,AX5043_GPADC1*
X58662000Y-58674000D02*
X61722000Y-58674000D01*
X61722000Y-58674000D02*
X64262000Y-58674000D01*
X74453840Y-59444000D02*
X75078840Y-59444000D01*
X72582002Y-59444000D02*
X74453840Y-59444000D01*
X72193002Y-59055000D02*
X72582002Y-59444000D01*
X71374000Y-59055000D02*
X72193002Y-59055000D01*
G04 #@! TO.N,Net-(P3-Pad5)*
X61747400Y-53619400D02*
X61722000Y-53594000D01*
G04 #@! TO.N,Net-(D1-Pad1)*
X53987000Y-51689000D02*
X53987000Y-49453000D01*
X53987000Y-49453000D02*
X53937000Y-49403000D01*
G04 #@! TO.N,Net-(IC1-Pad7)*
X79703840Y-60444000D02*
X79078840Y-60444000D01*
X80897500Y-61908500D02*
X80897500Y-61637660D01*
X81397500Y-62408500D02*
X80897500Y-61908500D01*
X80897500Y-61637660D02*
X79703840Y-60444000D01*
X81597500Y-62408500D02*
X81397500Y-62408500D01*
G04 #@! TO.N,Net-(IC1-Pad8)*
X79703840Y-59944000D02*
X79078840Y-59944000D01*
X80897500Y-60908500D02*
X79933000Y-59944000D01*
X79933000Y-59944000D02*
X79703840Y-59944000D01*
X81597500Y-60908500D02*
X80897500Y-60908500D01*
G04 #@! TO.N,Net-(IC1-Pad19)*
X67018000Y-59093000D02*
X67018000Y-60095000D01*
X67437000Y-58674000D02*
X67018000Y-59093000D01*
X69596000Y-58674000D02*
X67437000Y-58674000D01*
X71802500Y-60880500D02*
X69596000Y-58674000D01*
X74453840Y-60444000D02*
X75078840Y-60444000D01*
X73957560Y-60444000D02*
X74453840Y-60444000D01*
X73521060Y-60880500D02*
X73957560Y-60444000D01*
X71802500Y-60880500D02*
X73521060Y-60880500D01*
G04 #@! TO.N,Net-(IC1-Pad20)*
X74453840Y-60944000D02*
X75078840Y-60944000D01*
X72302840Y-63095000D02*
X74453840Y-60944000D01*
X68618000Y-63095000D02*
X72302840Y-63095000D01*
G04 #@! TD*
D30*
G04 #@! TO.N,GND*
G36*
X101854000Y-45720000D02*
X101863667Y-45768601D01*
X101891197Y-45809803D01*
X101932399Y-45837333D01*
X101981000Y-45847000D01*
X108077767Y-45847000D01*
X108215001Y-68490499D01*
X108215001Y-87503000D01*
X101854000Y-87503000D01*
X101805399Y-87512667D01*
X101764197Y-87540197D01*
X101736667Y-87581399D01*
X101727000Y-87630000D01*
X101727000Y-93853000D01*
X51181000Y-93853000D01*
X51181000Y-92855368D01*
X72043237Y-92855368D01*
X72154141Y-93132599D01*
X72800093Y-93375823D01*
X73489953Y-93353336D01*
X74022859Y-93132599D01*
X74133763Y-92855368D01*
X77123237Y-92855368D01*
X77234141Y-93132599D01*
X77880093Y-93375823D01*
X78569953Y-93353336D01*
X79102859Y-93132599D01*
X79213763Y-92855368D01*
X78168500Y-91810105D01*
X77123237Y-92855368D01*
X74133763Y-92855368D01*
X73088500Y-91810105D01*
X72043237Y-92855368D01*
X51181000Y-92855368D01*
X51181000Y-91342093D01*
X71343177Y-91342093D01*
X71365664Y-92031953D01*
X71586401Y-92564859D01*
X71863632Y-92675763D01*
X72908895Y-91630500D01*
X73268105Y-91630500D01*
X74313368Y-92675763D01*
X74590599Y-92564859D01*
X74833823Y-91918907D01*
X74815021Y-91342093D01*
X76423177Y-91342093D01*
X76445664Y-92031953D01*
X76666401Y-92564859D01*
X76943632Y-92675763D01*
X77988895Y-91630500D01*
X78348105Y-91630500D01*
X79393368Y-92675763D01*
X79670599Y-92564859D01*
X79913823Y-91918907D01*
X79891336Y-91229047D01*
X79670599Y-90696141D01*
X79393368Y-90585237D01*
X78348105Y-91630500D01*
X77988895Y-91630500D01*
X76943632Y-90585237D01*
X76666401Y-90696141D01*
X76423177Y-91342093D01*
X74815021Y-91342093D01*
X74811336Y-91229047D01*
X74590599Y-90696141D01*
X74313368Y-90585237D01*
X73268105Y-91630500D01*
X72908895Y-91630500D01*
X71863632Y-90585237D01*
X71586401Y-90696141D01*
X71343177Y-91342093D01*
X51181000Y-91342093D01*
X51181000Y-90405632D01*
X72043237Y-90405632D01*
X73088500Y-91450895D01*
X74133763Y-90405632D01*
X74022859Y-90128401D01*
X73376907Y-89885177D01*
X72687047Y-89907664D01*
X72154141Y-90128401D01*
X72043237Y-90405632D01*
X51181000Y-90405632D01*
X51181000Y-87775368D01*
X72043237Y-87775368D01*
X72154141Y-88052599D01*
X72800093Y-88295823D01*
X73489953Y-88273336D01*
X74022859Y-88052599D01*
X74133763Y-87775368D01*
X73088500Y-86730105D01*
X72043237Y-87775368D01*
X51181000Y-87775368D01*
X51181000Y-87630000D01*
X51171333Y-87581399D01*
X51143803Y-87540197D01*
X51102601Y-87512667D01*
X51054000Y-87503000D01*
X44585000Y-87503000D01*
X44585000Y-86262093D01*
X71343177Y-86262093D01*
X71365664Y-86951953D01*
X71586401Y-87484859D01*
X71863632Y-87595763D01*
X72908895Y-86550500D01*
X73268105Y-86550500D01*
X74313368Y-87595763D01*
X74590599Y-87484859D01*
X74833823Y-86838907D01*
X74811336Y-86149047D01*
X74590599Y-85616141D01*
X74313368Y-85505237D01*
X73268105Y-86550500D01*
X72908895Y-86550500D01*
X71863632Y-85505237D01*
X71586401Y-85616141D01*
X71343177Y-86262093D01*
X44585000Y-86262093D01*
X44585000Y-85325632D01*
X72043237Y-85325632D01*
X73088500Y-86370895D01*
X74133763Y-85325632D01*
X74022859Y-85048401D01*
X73376907Y-84805177D01*
X72687047Y-84827664D01*
X72154141Y-85048401D01*
X72043237Y-85325632D01*
X44585000Y-85325632D01*
X44585000Y-83915250D01*
X73081500Y-83915250D01*
X73081500Y-84130810D01*
X73178173Y-84364199D01*
X73356802Y-84542827D01*
X73590191Y-84639500D01*
X73830750Y-84639500D01*
X73989500Y-84480750D01*
X73989500Y-83756500D01*
X73240250Y-83756500D01*
X73081500Y-83915250D01*
X44585000Y-83915250D01*
X44585000Y-83128190D01*
X73081500Y-83128190D01*
X73081500Y-83343750D01*
X73240250Y-83502500D01*
X73989500Y-83502500D01*
X73989500Y-82778250D01*
X73830750Y-82619500D01*
X73590191Y-82619500D01*
X73356802Y-82716173D01*
X73178173Y-82894801D01*
X73081500Y-83128190D01*
X44585000Y-83128190D01*
X44585000Y-79851250D01*
X73081500Y-79851250D01*
X73081500Y-80066810D01*
X73178173Y-80300199D01*
X73356802Y-80478827D01*
X73590191Y-80575500D01*
X73830750Y-80575500D01*
X73989500Y-80416750D01*
X73989500Y-79692500D01*
X73240250Y-79692500D01*
X73081500Y-79851250D01*
X44585000Y-79851250D01*
X44585000Y-79064190D01*
X73081500Y-79064190D01*
X73081500Y-79279750D01*
X73240250Y-79438500D01*
X73989500Y-79438500D01*
X73989500Y-78714250D01*
X73830750Y-78555500D01*
X73590191Y-78555500D01*
X73356802Y-78652173D01*
X73178173Y-78830801D01*
X73081500Y-79064190D01*
X44585000Y-79064190D01*
X44585000Y-76167466D01*
X44621376Y-75984591D01*
X44621625Y-75984218D01*
X44869452Y-75819000D01*
X49276000Y-75819000D01*
X49324601Y-75809333D01*
X49365803Y-75781803D01*
X49393333Y-75740601D01*
X49403000Y-75692000D01*
X49403000Y-74840162D01*
X49447180Y-74733500D01*
X49495718Y-74616319D01*
X49571838Y-74233636D01*
X49571838Y-74233632D01*
X49585000Y-74167462D01*
X49585000Y-74009250D01*
X73081500Y-74009250D01*
X73081500Y-74224810D01*
X73178173Y-74458199D01*
X73356802Y-74636827D01*
X73590191Y-74733500D01*
X73830750Y-74733500D01*
X73989500Y-74574750D01*
X73989500Y-73850500D01*
X73240250Y-73850500D01*
X73081500Y-74009250D01*
X49585000Y-74009250D01*
X49585000Y-73222190D01*
X73081500Y-73222190D01*
X73081500Y-73437750D01*
X73240250Y-73596500D01*
X73989500Y-73596500D01*
X73989500Y-72872250D01*
X73830750Y-72713500D01*
X73590191Y-72713500D01*
X73356802Y-72810173D01*
X73178173Y-72988801D01*
X73081500Y-73222190D01*
X49585000Y-73222190D01*
X49585000Y-66897250D01*
X73231500Y-66897250D01*
X73231500Y-67187810D01*
X73328173Y-67421199D01*
X73506802Y-67599827D01*
X73740191Y-67696500D01*
X73832750Y-67696500D01*
X73991500Y-67537750D01*
X73991500Y-66738500D01*
X73390250Y-66738500D01*
X73231500Y-66897250D01*
X49585000Y-66897250D01*
X49585000Y-66035190D01*
X73231500Y-66035190D01*
X73231500Y-66325750D01*
X73390250Y-66484500D01*
X73991500Y-66484500D01*
X73991500Y-65685250D01*
X73832750Y-65526500D01*
X73740191Y-65526500D01*
X73506802Y-65623173D01*
X73328173Y-65801801D01*
X73231500Y-66035190D01*
X49585000Y-66035190D01*
X49585000Y-61499750D01*
X56277000Y-61499750D01*
X56277000Y-61790310D01*
X56373673Y-62023699D01*
X56552302Y-62202327D01*
X56785691Y-62299000D01*
X56878250Y-62299000D01*
X57037000Y-62140250D01*
X57037000Y-61341000D01*
X56435750Y-61341000D01*
X56277000Y-61499750D01*
X49585000Y-61499750D01*
X49585000Y-60637690D01*
X56277000Y-60637690D01*
X56277000Y-60928250D01*
X56435750Y-61087000D01*
X57037000Y-61087000D01*
X57037000Y-60287750D01*
X56878250Y-60129000D01*
X56785691Y-60129000D01*
X56552302Y-60225673D01*
X56373673Y-60404301D01*
X56277000Y-60637690D01*
X49585000Y-60637690D01*
X49585000Y-59032538D01*
X49571838Y-58966368D01*
X49571838Y-58966364D01*
X49570523Y-58959750D01*
X56277000Y-58959750D01*
X56277000Y-59250310D01*
X56373673Y-59483699D01*
X56552302Y-59662327D01*
X56785691Y-59759000D01*
X56878250Y-59759000D01*
X57037000Y-59600250D01*
X57037000Y-58801000D01*
X56435750Y-58801000D01*
X56277000Y-58959750D01*
X49570523Y-58959750D01*
X49495718Y-58583681D01*
X49413203Y-58384472D01*
X49393437Y-58336751D01*
X49233702Y-58097690D01*
X56277000Y-58097690D01*
X56277000Y-58388250D01*
X56435750Y-58547000D01*
X57037000Y-58547000D01*
X57037000Y-57747750D01*
X57287000Y-57747750D01*
X57287000Y-58547000D01*
X57309000Y-58547000D01*
X57309000Y-58801000D01*
X57287000Y-58801000D01*
X57287000Y-59600250D01*
X57445750Y-59759000D01*
X57538309Y-59759000D01*
X57771698Y-59662327D01*
X57913346Y-59520680D01*
X57954191Y-59581809D01*
X58164235Y-59722157D01*
X58412000Y-59771440D01*
X58912000Y-59771440D01*
X59159765Y-59722157D01*
X59369809Y-59581809D01*
X59468573Y-59434000D01*
X60443822Y-59434000D01*
X60651375Y-59744625D01*
X60949761Y-59944000D01*
X60651375Y-60143375D01*
X60443822Y-60454000D01*
X59468573Y-60454000D01*
X59369809Y-60306191D01*
X59159765Y-60165843D01*
X58912000Y-60116560D01*
X58412000Y-60116560D01*
X58164235Y-60165843D01*
X57954191Y-60306191D01*
X57913346Y-60367320D01*
X57771698Y-60225673D01*
X57538309Y-60129000D01*
X57445750Y-60129000D01*
X57287000Y-60287750D01*
X57287000Y-61087000D01*
X57309000Y-61087000D01*
X57309000Y-61341000D01*
X57287000Y-61341000D01*
X57287000Y-62140250D01*
X57445750Y-62299000D01*
X57538309Y-62299000D01*
X57771698Y-62202327D01*
X57913346Y-62060680D01*
X57954191Y-62121809D01*
X58164235Y-62262157D01*
X58412000Y-62311440D01*
X58912000Y-62311440D01*
X59159765Y-62262157D01*
X59369809Y-62121809D01*
X59468573Y-61974000D01*
X60443822Y-61974000D01*
X60651375Y-62284625D01*
X60669619Y-62296816D01*
X60624235Y-62305843D01*
X60414191Y-62446191D01*
X60273843Y-62656235D01*
X60224560Y-62904000D01*
X60224560Y-62994000D01*
X59377711Y-62994000D01*
X59260280Y-62876569D01*
X58879874Y-62719000D01*
X58468126Y-62719000D01*
X58087720Y-62876569D01*
X57796569Y-63167720D01*
X57639000Y-63548126D01*
X57639000Y-63959874D01*
X57796569Y-64340280D01*
X58087720Y-64631431D01*
X58468126Y-64789000D01*
X58879874Y-64789000D01*
X59260280Y-64631431D01*
X59377711Y-64514000D01*
X60224560Y-64514000D01*
X60224560Y-64604000D01*
X60273843Y-64851765D01*
X60414191Y-65061809D01*
X60624235Y-65202157D01*
X60872000Y-65251440D01*
X62572000Y-65251440D01*
X62819765Y-65202157D01*
X63029809Y-65061809D01*
X63170157Y-64851765D01*
X63219440Y-64604000D01*
X63219440Y-63380750D01*
X65808000Y-63380750D01*
X65808000Y-63921309D01*
X65904673Y-64154698D01*
X66083301Y-64333327D01*
X66316690Y-64430000D01*
X66732250Y-64430000D01*
X66891000Y-64271250D01*
X66891000Y-63222000D01*
X65966750Y-63222000D01*
X65808000Y-63380750D01*
X63219440Y-63380750D01*
X63219440Y-62904000D01*
X63170157Y-62656235D01*
X63029809Y-62446191D01*
X62819765Y-62305843D01*
X62774381Y-62296816D01*
X62792625Y-62284625D01*
X62803271Y-62268691D01*
X65808000Y-62268691D01*
X65808000Y-62809250D01*
X65966750Y-62968000D01*
X66891000Y-62968000D01*
X66891000Y-61918750D01*
X66732250Y-61760000D01*
X66316690Y-61760000D01*
X66083301Y-61856673D01*
X65904673Y-62035302D01*
X65808000Y-62268691D01*
X62803271Y-62268691D01*
X63000178Y-61974000D01*
X63558289Y-61974000D01*
X63675720Y-62091431D01*
X64056126Y-62249000D01*
X64467874Y-62249000D01*
X64848280Y-62091431D01*
X65139431Y-61800280D01*
X65297000Y-61419874D01*
X65297000Y-61008126D01*
X65139431Y-60627720D01*
X64848280Y-60336569D01*
X64467874Y-60179000D01*
X64056126Y-60179000D01*
X63675720Y-60336569D01*
X63558289Y-60454000D01*
X63000178Y-60454000D01*
X62792625Y-60143375D01*
X62494239Y-59944000D01*
X62792625Y-59744625D01*
X63000178Y-59434000D01*
X63558289Y-59434000D01*
X63675720Y-59551431D01*
X64056126Y-59709000D01*
X64467874Y-59709000D01*
X64848280Y-59551431D01*
X65004711Y-59395000D01*
X65795560Y-59395000D01*
X65795560Y-60795000D01*
X65844843Y-61042765D01*
X65985191Y-61252809D01*
X66195235Y-61393157D01*
X66443000Y-61442440D01*
X67593000Y-61442440D01*
X67831968Y-61394907D01*
X67916690Y-61430000D01*
X68332250Y-61430000D01*
X68491000Y-61271250D01*
X68491000Y-60222000D01*
X68745000Y-60222000D01*
X68745000Y-61271250D01*
X68903750Y-61430000D01*
X69319310Y-61430000D01*
X69552699Y-61333327D01*
X69731327Y-61154698D01*
X69828000Y-60921309D01*
X69828000Y-60380750D01*
X69669250Y-60222000D01*
X68745000Y-60222000D01*
X68491000Y-60222000D01*
X68471000Y-60222000D01*
X68471000Y-59968000D01*
X68491000Y-59968000D01*
X68491000Y-59948000D01*
X68745000Y-59948000D01*
X68745000Y-59968000D01*
X69669250Y-59968000D01*
X69742224Y-59895026D01*
X71212171Y-61364973D01*
X71254571Y-61428429D01*
X71505963Y-61596404D01*
X71727648Y-61640500D01*
X71727652Y-61640500D01*
X71802499Y-61655388D01*
X71877346Y-61640500D01*
X72682538Y-61640500D01*
X71988039Y-62335000D01*
X69828505Y-62335000D01*
X69791157Y-62147235D01*
X69650809Y-61937191D01*
X69440765Y-61796843D01*
X69193000Y-61747560D01*
X68043000Y-61747560D01*
X67804032Y-61795093D01*
X67719310Y-61760000D01*
X67303750Y-61760000D01*
X67145000Y-61918750D01*
X67145000Y-62968000D01*
X67165000Y-62968000D01*
X67165000Y-63222000D01*
X67145000Y-63222000D01*
X67145000Y-64271250D01*
X67303750Y-64430000D01*
X67719310Y-64430000D01*
X67804032Y-64394907D01*
X68043000Y-64442440D01*
X69193000Y-64442440D01*
X69440765Y-64393157D01*
X69650809Y-64252809D01*
X69791157Y-64042765D01*
X69828505Y-63855000D01*
X71684500Y-63855000D01*
X71684500Y-63944502D01*
X71843248Y-63944502D01*
X71684500Y-64103250D01*
X71684500Y-64318810D01*
X71781173Y-64552199D01*
X71959802Y-64730827D01*
X72193191Y-64827500D01*
X72433750Y-64827500D01*
X72592500Y-64668750D01*
X72592500Y-63944500D01*
X72572500Y-63944500D01*
X72572500Y-63816250D01*
X72599377Y-63810904D01*
X72809506Y-63670500D01*
X72846500Y-63670500D01*
X72846500Y-63690500D01*
X72866500Y-63690500D01*
X72866500Y-63944500D01*
X72846500Y-63944500D01*
X72846500Y-64668750D01*
X73005250Y-64827500D01*
X73245809Y-64827500D01*
X73479198Y-64730827D01*
X73480398Y-64729627D01*
X73571735Y-64790657D01*
X73819500Y-64839940D01*
X74619500Y-64839940D01*
X74867265Y-64790657D01*
X75077309Y-64650309D01*
X75217657Y-64440265D01*
X75266940Y-64192500D01*
X75266940Y-64055701D01*
X75657002Y-63665640D01*
X75657001Y-65296196D01*
X75439138Y-65514060D01*
X75366500Y-65514060D01*
X75118735Y-65563343D01*
X74908691Y-65703691D01*
X74867846Y-65764820D01*
X74726198Y-65623173D01*
X74492809Y-65526500D01*
X74400250Y-65526500D01*
X74241500Y-65685250D01*
X74241500Y-66484500D01*
X74263500Y-66484500D01*
X74263500Y-66738500D01*
X74241500Y-66738500D01*
X74241500Y-67537750D01*
X74400250Y-67696500D01*
X74492809Y-67696500D01*
X74627284Y-67640799D01*
X74606060Y-67747500D01*
X74606060Y-68547500D01*
X74655343Y-68795265D01*
X74723655Y-68897500D01*
X74655343Y-68999735D01*
X74606060Y-69247500D01*
X74606060Y-70047500D01*
X74655343Y-70295265D01*
X74667446Y-70313378D01*
X74580343Y-70443735D01*
X74531060Y-70691500D01*
X74531060Y-71191500D01*
X74580343Y-71439265D01*
X74720691Y-71649309D01*
X74783834Y-71691500D01*
X74720691Y-71733691D01*
X74580343Y-71943735D01*
X74531060Y-72191500D01*
X74531060Y-72691500D01*
X74535436Y-72713500D01*
X74402250Y-72713500D01*
X74243500Y-72872250D01*
X74243500Y-73596500D01*
X74263500Y-73596500D01*
X74263500Y-73850500D01*
X74243500Y-73850500D01*
X74243500Y-74574750D01*
X74402250Y-74733500D01*
X74642809Y-74733500D01*
X74868501Y-74640015D01*
X74868500Y-75976927D01*
X74720691Y-76075691D01*
X74580343Y-76285735D01*
X74531060Y-76533500D01*
X74531060Y-77033500D01*
X74580343Y-77281265D01*
X74720691Y-77491309D01*
X74783834Y-77533500D01*
X74720691Y-77575691D01*
X74580343Y-77785735D01*
X74531060Y-78033500D01*
X74531060Y-78533500D01*
X74535436Y-78555500D01*
X74402250Y-78555500D01*
X74243500Y-78714250D01*
X74243500Y-79438500D01*
X74263500Y-79438500D01*
X74263500Y-79692500D01*
X74243500Y-79692500D01*
X74243500Y-80416750D01*
X74402250Y-80575500D01*
X74535436Y-80575500D01*
X74531060Y-80597500D01*
X74531060Y-81097500D01*
X74580343Y-81345265D01*
X74720691Y-81555309D01*
X74783834Y-81597500D01*
X74720691Y-81639691D01*
X74580343Y-81849735D01*
X74531060Y-82097500D01*
X74531060Y-82597500D01*
X74535436Y-82619500D01*
X74402250Y-82619500D01*
X74243500Y-82778250D01*
X74243500Y-83502500D01*
X74263500Y-83502500D01*
X74263500Y-83756500D01*
X74243500Y-83756500D01*
X74243500Y-84480750D01*
X74402250Y-84639500D01*
X74642809Y-84639500D01*
X74868501Y-84546015D01*
X74868500Y-87635591D01*
X74702347Y-87704414D01*
X74242414Y-88164347D01*
X73993500Y-88765278D01*
X73993500Y-89415722D01*
X74242414Y-90016653D01*
X74702347Y-90476586D01*
X75303278Y-90725500D01*
X75953722Y-90725500D01*
X76554653Y-90476586D01*
X76625607Y-90405632D01*
X77123237Y-90405632D01*
X78168500Y-91450895D01*
X79213763Y-90405632D01*
X79102859Y-90128401D01*
X78456907Y-89885177D01*
X77767047Y-89907664D01*
X77234141Y-90128401D01*
X77123237Y-90405632D01*
X76625607Y-90405632D01*
X77014586Y-90016653D01*
X77263500Y-89415722D01*
X77263500Y-88765278D01*
X77014586Y-88164347D01*
X76625607Y-87775368D01*
X77123237Y-87775368D01*
X77234141Y-88052599D01*
X77880093Y-88295823D01*
X78569953Y-88273336D01*
X79102859Y-88052599D01*
X79213763Y-87775368D01*
X78168500Y-86730105D01*
X77123237Y-87775368D01*
X76625607Y-87775368D01*
X76554653Y-87704414D01*
X76388500Y-87635591D01*
X76388500Y-86262093D01*
X76423177Y-86262093D01*
X76445664Y-86951953D01*
X76666401Y-87484859D01*
X76943632Y-87595763D01*
X77988895Y-86550500D01*
X78348105Y-86550500D01*
X79393368Y-87595763D01*
X79670599Y-87484859D01*
X79913823Y-86838907D01*
X79891336Y-86149047D01*
X79670599Y-85616141D01*
X79393368Y-85505237D01*
X78348105Y-86550500D01*
X77988895Y-86550500D01*
X76943632Y-85505237D01*
X76666401Y-85616141D01*
X76423177Y-86262093D01*
X76388500Y-86262093D01*
X76388500Y-85325632D01*
X77123237Y-85325632D01*
X78168500Y-86370895D01*
X79213763Y-85325632D01*
X79102859Y-85048401D01*
X78456907Y-84805177D01*
X77767047Y-84827664D01*
X77234141Y-85048401D01*
X77123237Y-85325632D01*
X76388500Y-85325632D01*
X76388500Y-84519645D01*
X76474309Y-84462309D01*
X76614657Y-84252265D01*
X76663940Y-84004500D01*
X76663940Y-83372352D01*
X76777500Y-83394940D01*
X77527500Y-83394940D01*
X77775265Y-83345657D01*
X77985309Y-83205309D01*
X78125657Y-82995265D01*
X78174940Y-82747500D01*
X78174940Y-81947500D01*
X78125657Y-81699735D01*
X78057345Y-81597500D01*
X78125657Y-81495265D01*
X78174940Y-81247500D01*
X78174940Y-80447500D01*
X78125657Y-80199735D01*
X77985309Y-79989691D01*
X77775265Y-79849343D01*
X77527500Y-79800060D01*
X76777500Y-79800060D01*
X76663940Y-79822648D01*
X76663940Y-79201612D01*
X76783735Y-79281657D01*
X77031500Y-79330940D01*
X77781500Y-79330940D01*
X78029265Y-79281657D01*
X78239309Y-79141309D01*
X78379657Y-78931265D01*
X78428940Y-78683500D01*
X78428940Y-77883500D01*
X78379657Y-77635735D01*
X78311345Y-77533500D01*
X78379657Y-77431265D01*
X78428940Y-77183500D01*
X78428940Y-76383500D01*
X78407716Y-76276799D01*
X78542191Y-76332500D01*
X78634750Y-76332500D01*
X78793500Y-76173750D01*
X78793500Y-75374500D01*
X79043500Y-75374500D01*
X79043500Y-76173750D01*
X79202250Y-76332500D01*
X79294809Y-76332500D01*
X79528198Y-76235827D01*
X79706827Y-76057199D01*
X79803500Y-75823810D01*
X79803500Y-75533250D01*
X79802789Y-75532539D01*
X87215000Y-75532539D01*
X87215001Y-90667462D01*
X87228162Y-90733627D01*
X87228162Y-90733636D01*
X87304282Y-91116319D01*
X87355534Y-91240052D01*
X87406563Y-91363248D01*
X87623336Y-91687672D01*
X87812328Y-91876664D01*
X88136751Y-92093437D01*
X88190876Y-92115856D01*
X88383681Y-92195718D01*
X88766364Y-92271838D01*
X89033636Y-92271838D01*
X89416319Y-92195718D01*
X89663248Y-92093437D01*
X89663249Y-92093436D01*
X89987672Y-91876664D01*
X90176664Y-91687672D01*
X90393437Y-91363249D01*
X90450942Y-91224419D01*
X90495718Y-91116319D01*
X90571838Y-90733636D01*
X90571838Y-90733632D01*
X90585000Y-90667462D01*
X90585000Y-75532538D01*
X90571838Y-75466368D01*
X90571838Y-75466364D01*
X90495718Y-75083681D01*
X90415594Y-74890243D01*
X90393437Y-74836751D01*
X90176664Y-74512328D01*
X89987672Y-74323336D01*
X89663248Y-74106563D01*
X89643782Y-74098500D01*
X89416319Y-74004282D01*
X89033636Y-73928162D01*
X88766364Y-73928162D01*
X88383681Y-74004282D01*
X88239032Y-74064197D01*
X88136751Y-74106563D01*
X87812328Y-74323336D01*
X87623336Y-74512328D01*
X87406564Y-74836751D01*
X87406563Y-74836752D01*
X87304282Y-75083681D01*
X87228162Y-75466364D01*
X87228162Y-75466369D01*
X87215000Y-75532539D01*
X79802789Y-75532539D01*
X79644750Y-75374500D01*
X79043500Y-75374500D01*
X78793500Y-75374500D01*
X78771500Y-75374500D01*
X78771500Y-75120500D01*
X78793500Y-75120500D01*
X78793500Y-74321250D01*
X79043500Y-74321250D01*
X79043500Y-75120500D01*
X79644750Y-75120500D01*
X79803500Y-74961750D01*
X79803500Y-74671190D01*
X79756735Y-74558290D01*
X79856827Y-74458199D01*
X79953500Y-74224810D01*
X79953500Y-74009250D01*
X79794750Y-73850500D01*
X79045500Y-73850500D01*
X79045500Y-74319250D01*
X79043500Y-74321250D01*
X78793500Y-74321250D01*
X78791500Y-74319250D01*
X78791500Y-73850500D01*
X78771500Y-73850500D01*
X78771500Y-73596500D01*
X78791500Y-73596500D01*
X78791500Y-72872250D01*
X79045500Y-72872250D01*
X79045500Y-73596500D01*
X79794750Y-73596500D01*
X79953500Y-73437750D01*
X79953500Y-73222190D01*
X79856827Y-72988801D01*
X79678198Y-72810173D01*
X79444809Y-72713500D01*
X79204250Y-72713500D01*
X79045500Y-72872250D01*
X78791500Y-72872250D01*
X78632750Y-72713500D01*
X78499564Y-72713500D01*
X78503940Y-72691500D01*
X78503940Y-72191500D01*
X78454657Y-71943735D01*
X78314309Y-71733691D01*
X78251166Y-71691500D01*
X78314309Y-71649309D01*
X78454657Y-71439265D01*
X78503940Y-71191500D01*
X78503940Y-70691500D01*
X78454657Y-70443735D01*
X78367554Y-70313378D01*
X78379657Y-70295265D01*
X78428940Y-70047500D01*
X78428940Y-69247500D01*
X78379657Y-68999735D01*
X78311345Y-68897500D01*
X78379657Y-68795265D01*
X78428940Y-68547500D01*
X78428940Y-67747500D01*
X78407716Y-67640799D01*
X78542191Y-67696500D01*
X78634750Y-67696500D01*
X78793500Y-67537750D01*
X78793500Y-66738500D01*
X79043500Y-66738500D01*
X79043500Y-67537750D01*
X79202250Y-67696500D01*
X79294809Y-67696500D01*
X79528198Y-67599827D01*
X79706827Y-67421199D01*
X79803500Y-67187810D01*
X79803500Y-66897250D01*
X79644750Y-66738500D01*
X79043500Y-66738500D01*
X78793500Y-66738500D01*
X78771500Y-66738500D01*
X78771500Y-66484500D01*
X78793500Y-66484500D01*
X78793500Y-65685250D01*
X79043500Y-65685250D01*
X79043500Y-66484500D01*
X79644750Y-66484500D01*
X79803500Y-66325750D01*
X79803500Y-66035190D01*
X79706827Y-65801801D01*
X79528198Y-65623173D01*
X79294809Y-65526500D01*
X79202250Y-65526500D01*
X79043500Y-65685250D01*
X78793500Y-65685250D01*
X78634750Y-65526500D01*
X78542191Y-65526500D01*
X78308802Y-65623173D01*
X78167154Y-65764820D01*
X78162965Y-65758551D01*
X78134404Y-65614963D01*
X77966429Y-65363571D01*
X77902972Y-65321171D01*
X77822499Y-65240697D01*
X77822499Y-63720801D01*
X77916249Y-63627051D01*
X78591171Y-64301973D01*
X78633571Y-64365429D01*
X78697027Y-64407829D01*
X78884962Y-64533404D01*
X78897204Y-64535839D01*
X78973691Y-64650309D01*
X79183735Y-64790657D01*
X79431500Y-64839940D01*
X80231500Y-64839940D01*
X80479265Y-64790657D01*
X80570602Y-64729627D01*
X80571802Y-64730827D01*
X80805191Y-64827500D01*
X81045750Y-64827500D01*
X81204500Y-64668750D01*
X81204500Y-63944500D01*
X81458500Y-63944500D01*
X81458500Y-64668750D01*
X81617250Y-64827500D01*
X81857809Y-64827500D01*
X82091198Y-64730827D01*
X82269827Y-64552199D01*
X82366500Y-64318810D01*
X82366500Y-64103250D01*
X82207750Y-63944500D01*
X81458500Y-63944500D01*
X81204500Y-63944500D01*
X81184500Y-63944500D01*
X81184500Y-63900750D01*
X95637000Y-63900750D01*
X95637000Y-64141309D01*
X95733673Y-64374698D01*
X95912301Y-64553327D01*
X96145690Y-64650000D01*
X96361250Y-64650000D01*
X96520000Y-64491250D01*
X96520000Y-63742000D01*
X96774000Y-63742000D01*
X96774000Y-64491250D01*
X96932750Y-64650000D01*
X97148310Y-64650000D01*
X97381699Y-64553327D01*
X97560327Y-64374698D01*
X97657000Y-64141309D01*
X97657000Y-63900750D01*
X97498250Y-63742000D01*
X96774000Y-63742000D01*
X96520000Y-63742000D01*
X95795750Y-63742000D01*
X95637000Y-63900750D01*
X81184500Y-63900750D01*
X81184500Y-63690500D01*
X81204500Y-63690500D01*
X81204500Y-63670500D01*
X81458500Y-63670500D01*
X81458500Y-63690500D01*
X82207750Y-63690500D01*
X82366500Y-63531750D01*
X82366500Y-63316190D01*
X82331744Y-63232282D01*
X82505309Y-63116309D01*
X82645657Y-62906265D01*
X82694940Y-62658500D01*
X82694940Y-62158500D01*
X82645657Y-61910735D01*
X82505309Y-61700691D01*
X82442166Y-61658500D01*
X82505309Y-61616309D01*
X82645657Y-61406265D01*
X82694940Y-61158500D01*
X82694940Y-60658500D01*
X82645657Y-60410735D01*
X82505309Y-60200691D01*
X82295265Y-60060343D01*
X82047500Y-60011060D01*
X81147500Y-60011060D01*
X81086913Y-60023111D01*
X80855801Y-59792000D01*
X81192802Y-59455000D01*
X81358874Y-59455000D01*
X81739280Y-59297431D01*
X82030431Y-59006280D01*
X82188000Y-58625874D01*
X82188000Y-58214126D01*
X82030431Y-57833720D01*
X81739280Y-57542569D01*
X81358874Y-57385000D01*
X80947126Y-57385000D01*
X80577683Y-57538028D01*
X80633431Y-57482280D01*
X80791000Y-57101874D01*
X80791000Y-56690126D01*
X80633431Y-56309720D01*
X80342280Y-56018569D01*
X79961874Y-55861000D01*
X79627000Y-55861000D01*
X79627000Y-55567711D01*
X79744431Y-55450280D01*
X79902000Y-55069874D01*
X79902000Y-54912126D01*
X92564000Y-54912126D01*
X92564000Y-55323874D01*
X92721569Y-55704280D01*
X93012720Y-55995431D01*
X93393126Y-56153000D01*
X93804874Y-56153000D01*
X94185280Y-55995431D01*
X94314711Y-55866000D01*
X94547300Y-55866000D01*
X94679235Y-55954157D01*
X94927000Y-56003440D01*
X95196000Y-56003440D01*
X95196000Y-56024560D01*
X95131000Y-56024560D01*
X94993369Y-56051936D01*
X94957310Y-56037000D01*
X94902250Y-56037000D01*
X94829506Y-56109744D01*
X94673191Y-56214191D01*
X94568500Y-56370871D01*
X94568500Y-56195750D01*
X94409750Y-56037000D01*
X94354690Y-56037000D01*
X94121301Y-56133673D01*
X93942673Y-56312302D01*
X93846000Y-56545691D01*
X93846000Y-56711250D01*
X94004750Y-56870000D01*
X94483560Y-56870000D01*
X94483560Y-57124000D01*
X94004750Y-57124000D01*
X93846000Y-57282750D01*
X93846000Y-57448309D01*
X93861879Y-57486645D01*
X93796000Y-57645691D01*
X93796000Y-57873750D01*
X93954750Y-58032500D01*
X94047474Y-58032500D01*
X93892673Y-58187302D01*
X93796000Y-58420691D01*
X93796000Y-58673309D01*
X93892673Y-58906698D01*
X94047474Y-59061500D01*
X93954750Y-59061500D01*
X93796000Y-59220250D01*
X93796000Y-59448309D01*
X93861879Y-59607355D01*
X93846000Y-59645691D01*
X93846000Y-59811250D01*
X94004750Y-59970000D01*
X94568500Y-59970000D01*
X94568500Y-59957000D01*
X94641750Y-59957000D01*
X94654750Y-59970000D01*
X95453000Y-59970000D01*
X95453000Y-60224000D01*
X94654750Y-60224000D01*
X94568500Y-60310250D01*
X94568500Y-60224000D01*
X94004750Y-60224000D01*
X93846000Y-60382750D01*
X93846000Y-60548309D01*
X93942673Y-60781698D01*
X94121301Y-60960327D01*
X94354690Y-61057000D01*
X94409750Y-61057000D01*
X94568500Y-60898250D01*
X94568500Y-60723339D01*
X94592673Y-60781698D01*
X94771301Y-60960327D01*
X94829814Y-60984564D01*
X94902250Y-61057000D01*
X94957310Y-61057000D01*
X94981000Y-61047187D01*
X95004690Y-61057000D01*
X95059750Y-61057000D01*
X95132186Y-60984564D01*
X95190699Y-60960327D01*
X95306000Y-60845025D01*
X95421301Y-60960327D01*
X95479814Y-60984564D01*
X95552250Y-61057000D01*
X95607310Y-61057000D01*
X95631000Y-61047187D01*
X95654690Y-61057000D01*
X95709750Y-61057000D01*
X95782186Y-60984564D01*
X95828998Y-60965174D01*
X95828998Y-61057000D01*
X95846000Y-61057000D01*
X95846001Y-61235936D01*
X95814191Y-61257191D01*
X95748837Y-61355000D01*
X95439848Y-61355000D01*
X95379622Y-61343020D01*
X95328874Y-61322000D01*
X94917126Y-61322000D01*
X94536720Y-61479569D01*
X94245569Y-61770720D01*
X94088000Y-62151126D01*
X94088000Y-62562874D01*
X94245569Y-62943280D01*
X94536720Y-63234431D01*
X94917126Y-63392000D01*
X95328874Y-63392000D01*
X95637000Y-63264370D01*
X95637000Y-63329250D01*
X95795750Y-63488000D01*
X96520000Y-63488000D01*
X96520000Y-63468000D01*
X96774000Y-63468000D01*
X96774000Y-63488000D01*
X97498250Y-63488000D01*
X97657000Y-63329250D01*
X97657000Y-63088691D01*
X97599109Y-62948928D01*
X99359500Y-62948928D01*
X99359500Y-86276071D01*
X107429500Y-86276071D01*
X107429500Y-62948928D01*
X99359500Y-62948928D01*
X97599109Y-62948928D01*
X97560327Y-62855302D01*
X97559127Y-62854102D01*
X97620157Y-62762765D01*
X97669440Y-62515000D01*
X97669440Y-61715000D01*
X97620157Y-61467235D01*
X97479809Y-61257191D01*
X97366000Y-61181146D01*
X97366000Y-60689456D01*
X97379157Y-60669765D01*
X97428440Y-60422000D01*
X97428440Y-59772000D01*
X97397128Y-59614581D01*
X97466000Y-59448309D01*
X97466000Y-59220250D01*
X97307250Y-59061500D01*
X97214526Y-59061500D01*
X97369327Y-58906698D01*
X97466000Y-58673309D01*
X97466000Y-58420691D01*
X97369327Y-58187302D01*
X97214526Y-58032500D01*
X97307250Y-58032500D01*
X97466000Y-57873750D01*
X97466000Y-57645691D01*
X97397128Y-57479419D01*
X97428440Y-57322000D01*
X97428440Y-56672000D01*
X97379157Y-56424235D01*
X97366000Y-56404544D01*
X97366000Y-56276801D01*
X97517000Y-56427802D01*
X97517000Y-56593874D01*
X97674569Y-56974280D01*
X97965720Y-57265431D01*
X98346126Y-57423000D01*
X98757874Y-57423000D01*
X99138280Y-57265431D01*
X99429431Y-56974280D01*
X99587000Y-56593874D01*
X99587000Y-56182126D01*
X99429431Y-55801720D01*
X99138280Y-55510569D01*
X98757874Y-55353000D01*
X98591802Y-55353000D01*
X98252440Y-55013639D01*
X98252440Y-54856000D01*
X98203157Y-54608235D01*
X98062809Y-54398191D01*
X97999666Y-54356000D01*
X98062809Y-54313809D01*
X98203157Y-54103765D01*
X98252440Y-53856000D01*
X98252440Y-53356000D01*
X98203157Y-53108235D01*
X98062809Y-52898191D01*
X97975715Y-52839996D01*
X98032431Y-52783280D01*
X98190000Y-52402874D01*
X98190000Y-51991126D01*
X98032431Y-51610720D01*
X97741280Y-51319569D01*
X97360874Y-51162000D01*
X96949126Y-51162000D01*
X96568720Y-51319569D01*
X96277569Y-51610720D01*
X96266000Y-51638650D01*
X96254431Y-51610720D01*
X95963280Y-51319569D01*
X95582874Y-51162000D01*
X95171126Y-51162000D01*
X94790720Y-51319569D01*
X94499569Y-51610720D01*
X94342000Y-51991126D01*
X94342000Y-52402874D01*
X94499569Y-52783280D01*
X94556285Y-52839996D01*
X94469191Y-52898191D01*
X94328843Y-53108235D01*
X94279560Y-53356000D01*
X94279560Y-53856000D01*
X94328843Y-54103765D01*
X94469191Y-54313809D01*
X94517368Y-54346000D01*
X94290711Y-54346000D01*
X94185280Y-54240569D01*
X93804874Y-54083000D01*
X93393126Y-54083000D01*
X93012720Y-54240569D01*
X92721569Y-54531720D01*
X92564000Y-54912126D01*
X79902000Y-54912126D01*
X79902000Y-54658126D01*
X79744431Y-54277720D01*
X79453280Y-53986569D01*
X79072874Y-53829000D01*
X79013000Y-53829000D01*
X79013000Y-53578626D01*
X78855431Y-53198220D01*
X78564280Y-52907069D01*
X78183874Y-52749500D01*
X77772126Y-52749500D01*
X77391720Y-52907069D01*
X77100569Y-53198220D01*
X76943000Y-53578626D01*
X76943000Y-53829000D01*
X76883126Y-53829000D01*
X76502720Y-53986569D01*
X76211569Y-54277720D01*
X76054000Y-54658126D01*
X76054000Y-54913198D01*
X74695000Y-53554199D01*
X74695000Y-53388126D01*
X74537431Y-53007720D01*
X74246280Y-52716569D01*
X73865874Y-52559000D01*
X73454126Y-52559000D01*
X73073720Y-52716569D01*
X72782569Y-53007720D01*
X72625000Y-53388126D01*
X72625000Y-53799874D01*
X72782569Y-54180280D01*
X73073720Y-54471431D01*
X73454126Y-54629000D01*
X73620199Y-54629000D01*
X75818840Y-56827642D01*
X75818840Y-56943440D01*
X75681075Y-56970843D01*
X75471031Y-57111191D01*
X75330683Y-57321235D01*
X75281400Y-57569000D01*
X75281400Y-57993414D01*
X75128255Y-58146560D01*
X74703840Y-58146560D01*
X74515614Y-58184000D01*
X73596802Y-58184000D01*
X73285440Y-57872639D01*
X73285440Y-57500000D01*
X73236157Y-57252235D01*
X73175127Y-57160898D01*
X73176327Y-57159698D01*
X73273000Y-56926309D01*
X73273000Y-56685750D01*
X73114250Y-56527000D01*
X72390000Y-56527000D01*
X72390000Y-56547000D01*
X72136000Y-56547000D01*
X72136000Y-56527000D01*
X71411750Y-56527000D01*
X71253000Y-56685750D01*
X71253000Y-56926309D01*
X71349673Y-57159698D01*
X71350873Y-57160898D01*
X71289843Y-57252235D01*
X71268624Y-57358913D01*
X71198280Y-57288569D01*
X70817874Y-57131000D01*
X70406126Y-57131000D01*
X70025720Y-57288569D01*
X69734569Y-57579720D01*
X69601795Y-57900265D01*
X69596000Y-57899112D01*
X69521153Y-57914000D01*
X67511846Y-57914000D01*
X67436999Y-57899112D01*
X67362152Y-57914000D01*
X67362148Y-57914000D01*
X67140463Y-57958096D01*
X66889071Y-58126071D01*
X66846671Y-58189528D01*
X66533529Y-58502669D01*
X66470071Y-58545071D01*
X66318184Y-58772387D01*
X66195235Y-58796843D01*
X65985191Y-58937191D01*
X65844843Y-59147235D01*
X65795560Y-59395000D01*
X65004711Y-59395000D01*
X65139431Y-59260280D01*
X65297000Y-58879874D01*
X65297000Y-58468126D01*
X65139431Y-58087720D01*
X64848280Y-57796569D01*
X64467874Y-57639000D01*
X64056126Y-57639000D01*
X63675720Y-57796569D01*
X63558289Y-57914000D01*
X63000178Y-57914000D01*
X62792625Y-57603375D01*
X62494239Y-57404000D01*
X62792625Y-57204625D01*
X63120839Y-56713418D01*
X63236092Y-56134000D01*
X63184314Y-55873691D01*
X71253000Y-55873691D01*
X71253000Y-56114250D01*
X71411750Y-56273000D01*
X72136000Y-56273000D01*
X72136000Y-55523750D01*
X72390000Y-55523750D01*
X72390000Y-56273000D01*
X73114250Y-56273000D01*
X73273000Y-56114250D01*
X73273000Y-55873691D01*
X73176327Y-55640302D01*
X72997699Y-55461673D01*
X72764310Y-55365000D01*
X72548750Y-55365000D01*
X72390000Y-55523750D01*
X72136000Y-55523750D01*
X71977250Y-55365000D01*
X71761690Y-55365000D01*
X71528301Y-55461673D01*
X71349673Y-55640302D01*
X71253000Y-55873691D01*
X63184314Y-55873691D01*
X63120839Y-55554582D01*
X62792625Y-55063375D01*
X62494239Y-54864000D01*
X62792625Y-54664625D01*
X63120839Y-54173418D01*
X63236092Y-53594000D01*
X63120839Y-53014582D01*
X62792625Y-52523375D01*
X62473522Y-52310157D01*
X62603358Y-52249183D01*
X62993645Y-51820924D01*
X63163476Y-51410890D01*
X63042155Y-51181000D01*
X61849000Y-51181000D01*
X61849000Y-51201000D01*
X61595000Y-51201000D01*
X61595000Y-51181000D01*
X60401845Y-51181000D01*
X60280524Y-51410890D01*
X60450355Y-51820924D01*
X60840642Y-52249183D01*
X60970478Y-52310157D01*
X60651375Y-52523375D01*
X60323161Y-53014582D01*
X60207908Y-53594000D01*
X60323161Y-54173418D01*
X60651375Y-54664625D01*
X60949761Y-54864000D01*
X60651375Y-55063375D01*
X60323161Y-55554582D01*
X60207908Y-56134000D01*
X60323161Y-56713418D01*
X60651375Y-57204625D01*
X60949761Y-57404000D01*
X60651375Y-57603375D01*
X60443822Y-57914000D01*
X59468573Y-57914000D01*
X59369809Y-57766191D01*
X59159765Y-57625843D01*
X58912000Y-57576560D01*
X58412000Y-57576560D01*
X58164235Y-57625843D01*
X57954191Y-57766191D01*
X57913346Y-57827320D01*
X57771698Y-57685673D01*
X57538309Y-57589000D01*
X57445750Y-57589000D01*
X57287000Y-57747750D01*
X57037000Y-57747750D01*
X56878250Y-57589000D01*
X56785691Y-57589000D01*
X56552302Y-57685673D01*
X56373673Y-57864301D01*
X56277000Y-58097690D01*
X49233702Y-58097690D01*
X49176664Y-58012328D01*
X48987672Y-57823336D01*
X48663248Y-57606563D01*
X48627264Y-57591658D01*
X48603803Y-57568197D01*
X48562601Y-57540667D01*
X48514000Y-57531000D01*
X48480822Y-57531000D01*
X48416319Y-57504282D01*
X48033636Y-57428162D01*
X48033632Y-57428162D01*
X47967462Y-57415000D01*
X44967466Y-57415000D01*
X44784590Y-57378624D01*
X44686751Y-57313250D01*
X44621376Y-57215409D01*
X44585000Y-57032534D01*
X44585000Y-45847000D01*
X50800000Y-45847000D01*
X50848601Y-45837333D01*
X50889803Y-45809803D01*
X50917333Y-45768601D01*
X50927000Y-45720000D01*
X50927000Y-44659096D01*
X50948591Y-44691409D01*
X51158635Y-44831757D01*
X51406400Y-44881040D01*
X51510001Y-44881040D01*
X51510001Y-45324288D01*
X51446569Y-45387720D01*
X51289000Y-45768126D01*
X51289000Y-46179874D01*
X51446569Y-46560280D01*
X51530314Y-46644025D01*
X51495112Y-46821000D01*
X51554097Y-47117537D01*
X51679671Y-47305472D01*
X51839528Y-47465329D01*
X52027464Y-47590904D01*
X52324000Y-47649888D01*
X52620537Y-47590904D01*
X52767743Y-47492544D01*
X53630758Y-48355560D01*
X53537000Y-48355560D01*
X53289235Y-48404843D01*
X53079191Y-48545191D01*
X52938843Y-48755235D01*
X52889560Y-49003000D01*
X52889560Y-49803000D01*
X52938843Y-50050765D01*
X53079191Y-50260809D01*
X53227001Y-50359573D01*
X53227000Y-50859299D01*
X53138843Y-50991235D01*
X53089560Y-51239000D01*
X53089560Y-52139000D01*
X53138843Y-52386765D01*
X53279191Y-52596809D01*
X53489235Y-52737157D01*
X53737000Y-52786440D01*
X54237000Y-52786440D01*
X54484765Y-52737157D01*
X54694809Y-52596809D01*
X54735654Y-52535680D01*
X54877302Y-52677327D01*
X55110691Y-52774000D01*
X55203250Y-52774000D01*
X55362000Y-52615250D01*
X55362000Y-51816000D01*
X55612000Y-51816000D01*
X55612000Y-52615250D01*
X55770750Y-52774000D01*
X55863309Y-52774000D01*
X56096698Y-52677327D01*
X56275327Y-52498699D01*
X56372000Y-52265310D01*
X56372000Y-51974750D01*
X56213250Y-51816000D01*
X55612000Y-51816000D01*
X55362000Y-51816000D01*
X55340000Y-51816000D01*
X55340000Y-51562000D01*
X55362000Y-51562000D01*
X55362000Y-50762750D01*
X55612000Y-50762750D01*
X55612000Y-51562000D01*
X56213250Y-51562000D01*
X56372000Y-51403250D01*
X56372000Y-51112690D01*
X56275327Y-50879301D01*
X56096698Y-50700673D01*
X56088097Y-50697110D01*
X60280524Y-50697110D01*
X60401845Y-50927000D01*
X61595000Y-50927000D01*
X61595000Y-49733181D01*
X61849000Y-49733181D01*
X61849000Y-50927000D01*
X63042155Y-50927000D01*
X63163476Y-50697110D01*
X62993645Y-50287076D01*
X62603358Y-49858817D01*
X62078892Y-49612514D01*
X61849000Y-49733181D01*
X61595000Y-49733181D01*
X61365108Y-49612514D01*
X60840642Y-49858817D01*
X60450355Y-50287076D01*
X60280524Y-50697110D01*
X56088097Y-50697110D01*
X55863309Y-50604000D01*
X55770750Y-50604000D01*
X55612000Y-50762750D01*
X55362000Y-50762750D01*
X55203250Y-50604000D01*
X55110691Y-50604000D01*
X54877302Y-50700673D01*
X54747000Y-50830974D01*
X54747000Y-50306118D01*
X54889235Y-50401157D01*
X55137000Y-50450440D01*
X55937000Y-50450440D01*
X56184765Y-50401157D01*
X56394809Y-50260809D01*
X56535157Y-50050765D01*
X56584440Y-49803000D01*
X56584440Y-49003000D01*
X56535157Y-48755235D01*
X56394809Y-48545191D01*
X56184765Y-48404843D01*
X55937000Y-48355560D01*
X55780362Y-48355560D01*
X53359000Y-45934199D01*
X53359000Y-45768126D01*
X53201431Y-45387720D01*
X53030000Y-45216289D01*
X53030000Y-44881040D01*
X53133600Y-44881040D01*
X53381365Y-44831757D01*
X53591409Y-44691409D01*
X53731757Y-44481365D01*
X53736932Y-44455349D01*
X54225275Y-44781650D01*
X54662402Y-44868600D01*
X54957598Y-44868600D01*
X55394725Y-44781650D01*
X55890430Y-44450430D01*
X56080000Y-44166719D01*
X56269570Y-44450430D01*
X56765275Y-44781650D01*
X57202402Y-44868600D01*
X57497598Y-44868600D01*
X57934725Y-44781650D01*
X58430430Y-44450430D01*
X58620000Y-44166719D01*
X58809570Y-44450430D01*
X59305275Y-44781650D01*
X59742402Y-44868600D01*
X60037598Y-44868600D01*
X60474725Y-44781650D01*
X60970430Y-44450430D01*
X61160000Y-44166719D01*
X61349570Y-44450430D01*
X61845275Y-44781650D01*
X62282402Y-44868600D01*
X62577598Y-44868600D01*
X63014725Y-44781650D01*
X63510430Y-44450430D01*
X63700000Y-44166719D01*
X63889570Y-44450430D01*
X64385275Y-44781650D01*
X64581226Y-44820627D01*
X64751865Y-45522932D01*
X64624000Y-45831626D01*
X64624000Y-46243374D01*
X64781569Y-46623780D01*
X65072720Y-46914931D01*
X65453126Y-47072500D01*
X65864874Y-47072500D01*
X66245280Y-46914931D01*
X66536431Y-46623780D01*
X66674460Y-46290548D01*
X66813069Y-46625180D01*
X67104220Y-46916331D01*
X67484626Y-47073900D01*
X67896374Y-47073900D01*
X68276780Y-46916331D01*
X68567931Y-46625180D01*
X68725500Y-46244774D01*
X68725500Y-45833026D01*
X68567931Y-45452620D01*
X68450500Y-45335189D01*
X68450500Y-44543928D01*
X68590430Y-44450430D01*
X68780000Y-44166719D01*
X68969570Y-44450430D01*
X69465275Y-44781650D01*
X69902402Y-44868600D01*
X70197598Y-44868600D01*
X70634725Y-44781650D01*
X71130430Y-44450430D01*
X71320000Y-44166719D01*
X71509570Y-44450430D01*
X72005275Y-44781650D01*
X72442402Y-44868600D01*
X72737598Y-44868600D01*
X73174725Y-44781650D01*
X73670430Y-44450430D01*
X73860000Y-44166719D01*
X74049570Y-44450430D01*
X74370001Y-44664535D01*
X74370001Y-45324288D01*
X74306569Y-45387720D01*
X74149000Y-45768126D01*
X74149000Y-46179874D01*
X74306569Y-46560280D01*
X74597720Y-46851431D01*
X74978126Y-47009000D01*
X75389874Y-47009000D01*
X75770280Y-46851431D01*
X76061431Y-46560280D01*
X76219000Y-46179874D01*
X76219000Y-45768126D01*
X76061431Y-45387720D01*
X75890000Y-45216289D01*
X75890000Y-44664535D01*
X76210430Y-44450430D01*
X76400000Y-44166719D01*
X76589570Y-44450430D01*
X76910001Y-44664535D01*
X76910001Y-45324288D01*
X76846569Y-45387720D01*
X76689000Y-45768126D01*
X76689000Y-46179874D01*
X76846569Y-46560280D01*
X77137720Y-46851431D01*
X77518126Y-47009000D01*
X77929874Y-47009000D01*
X78310280Y-46851431D01*
X78601431Y-46560280D01*
X78759000Y-46179874D01*
X78759000Y-45768126D01*
X78601431Y-45387720D01*
X78430000Y-45216289D01*
X78430000Y-44664535D01*
X78750430Y-44450430D01*
X78940000Y-44166719D01*
X79129570Y-44450430D01*
X79450001Y-44664535D01*
X79450001Y-45324288D01*
X79386569Y-45387720D01*
X79229000Y-45768126D01*
X79229000Y-46179874D01*
X79386569Y-46560280D01*
X79677720Y-46851431D01*
X80058126Y-47009000D01*
X80469874Y-47009000D01*
X80835500Y-46857553D01*
X81201126Y-47009000D01*
X81612874Y-47009000D01*
X81993280Y-46851431D01*
X82284431Y-46560280D01*
X82442000Y-46179874D01*
X82442000Y-45768126D01*
X82284431Y-45387720D01*
X82167000Y-45270289D01*
X82167000Y-44781993D01*
X82602402Y-44868600D01*
X82897598Y-44868600D01*
X83334725Y-44781650D01*
X83830430Y-44450430D01*
X84020000Y-44166719D01*
X84209570Y-44450430D01*
X84705275Y-44781650D01*
X85142402Y-44868600D01*
X85437598Y-44868600D01*
X85874725Y-44781650D01*
X86370430Y-44450430D01*
X86560000Y-44166719D01*
X86749570Y-44450430D01*
X87245275Y-44781650D01*
X87682402Y-44868600D01*
X87977598Y-44868600D01*
X88414725Y-44781650D01*
X88910430Y-44450430D01*
X89100000Y-44166719D01*
X89289570Y-44450430D01*
X89785275Y-44781650D01*
X90222402Y-44868600D01*
X90517598Y-44868600D01*
X90954725Y-44781650D01*
X91450430Y-44450430D01*
X91640000Y-44166719D01*
X91829570Y-44450430D01*
X92325275Y-44781650D01*
X92762402Y-44868600D01*
X93057598Y-44868600D01*
X93494725Y-44781650D01*
X93990430Y-44450430D01*
X94180000Y-44166719D01*
X94369570Y-44450430D01*
X94865275Y-44781650D01*
X95302402Y-44868600D01*
X95597598Y-44868600D01*
X96034725Y-44781650D01*
X96530430Y-44450430D01*
X96720000Y-44166719D01*
X96909570Y-44450430D01*
X97405275Y-44781650D01*
X97842402Y-44868600D01*
X98137598Y-44868600D01*
X98574725Y-44781650D01*
X99070430Y-44450430D01*
X99260000Y-44166719D01*
X99449570Y-44450430D01*
X99945275Y-44781650D01*
X100382402Y-44868600D01*
X100677598Y-44868600D01*
X101114725Y-44781650D01*
X101610430Y-44450430D01*
X101854000Y-44085902D01*
X101854000Y-45720000D01*
X101854000Y-45720000D01*
G37*
X101854000Y-45720000D02*
X101863667Y-45768601D01*
X101891197Y-45809803D01*
X101932399Y-45837333D01*
X101981000Y-45847000D01*
X108077767Y-45847000D01*
X108215001Y-68490499D01*
X108215001Y-87503000D01*
X101854000Y-87503000D01*
X101805399Y-87512667D01*
X101764197Y-87540197D01*
X101736667Y-87581399D01*
X101727000Y-87630000D01*
X101727000Y-93853000D01*
X51181000Y-93853000D01*
X51181000Y-92855368D01*
X72043237Y-92855368D01*
X72154141Y-93132599D01*
X72800093Y-93375823D01*
X73489953Y-93353336D01*
X74022859Y-93132599D01*
X74133763Y-92855368D01*
X77123237Y-92855368D01*
X77234141Y-93132599D01*
X77880093Y-93375823D01*
X78569953Y-93353336D01*
X79102859Y-93132599D01*
X79213763Y-92855368D01*
X78168500Y-91810105D01*
X77123237Y-92855368D01*
X74133763Y-92855368D01*
X73088500Y-91810105D01*
X72043237Y-92855368D01*
X51181000Y-92855368D01*
X51181000Y-91342093D01*
X71343177Y-91342093D01*
X71365664Y-92031953D01*
X71586401Y-92564859D01*
X71863632Y-92675763D01*
X72908895Y-91630500D01*
X73268105Y-91630500D01*
X74313368Y-92675763D01*
X74590599Y-92564859D01*
X74833823Y-91918907D01*
X74815021Y-91342093D01*
X76423177Y-91342093D01*
X76445664Y-92031953D01*
X76666401Y-92564859D01*
X76943632Y-92675763D01*
X77988895Y-91630500D01*
X78348105Y-91630500D01*
X79393368Y-92675763D01*
X79670599Y-92564859D01*
X79913823Y-91918907D01*
X79891336Y-91229047D01*
X79670599Y-90696141D01*
X79393368Y-90585237D01*
X78348105Y-91630500D01*
X77988895Y-91630500D01*
X76943632Y-90585237D01*
X76666401Y-90696141D01*
X76423177Y-91342093D01*
X74815021Y-91342093D01*
X74811336Y-91229047D01*
X74590599Y-90696141D01*
X74313368Y-90585237D01*
X73268105Y-91630500D01*
X72908895Y-91630500D01*
X71863632Y-90585237D01*
X71586401Y-90696141D01*
X71343177Y-91342093D01*
X51181000Y-91342093D01*
X51181000Y-90405632D01*
X72043237Y-90405632D01*
X73088500Y-91450895D01*
X74133763Y-90405632D01*
X74022859Y-90128401D01*
X73376907Y-89885177D01*
X72687047Y-89907664D01*
X72154141Y-90128401D01*
X72043237Y-90405632D01*
X51181000Y-90405632D01*
X51181000Y-87775368D01*
X72043237Y-87775368D01*
X72154141Y-88052599D01*
X72800093Y-88295823D01*
X73489953Y-88273336D01*
X74022859Y-88052599D01*
X74133763Y-87775368D01*
X73088500Y-86730105D01*
X72043237Y-87775368D01*
X51181000Y-87775368D01*
X51181000Y-87630000D01*
X51171333Y-87581399D01*
X51143803Y-87540197D01*
X51102601Y-87512667D01*
X51054000Y-87503000D01*
X44585000Y-87503000D01*
X44585000Y-86262093D01*
X71343177Y-86262093D01*
X71365664Y-86951953D01*
X71586401Y-87484859D01*
X71863632Y-87595763D01*
X72908895Y-86550500D01*
X73268105Y-86550500D01*
X74313368Y-87595763D01*
X74590599Y-87484859D01*
X74833823Y-86838907D01*
X74811336Y-86149047D01*
X74590599Y-85616141D01*
X74313368Y-85505237D01*
X73268105Y-86550500D01*
X72908895Y-86550500D01*
X71863632Y-85505237D01*
X71586401Y-85616141D01*
X71343177Y-86262093D01*
X44585000Y-86262093D01*
X44585000Y-85325632D01*
X72043237Y-85325632D01*
X73088500Y-86370895D01*
X74133763Y-85325632D01*
X74022859Y-85048401D01*
X73376907Y-84805177D01*
X72687047Y-84827664D01*
X72154141Y-85048401D01*
X72043237Y-85325632D01*
X44585000Y-85325632D01*
X44585000Y-83915250D01*
X73081500Y-83915250D01*
X73081500Y-84130810D01*
X73178173Y-84364199D01*
X73356802Y-84542827D01*
X73590191Y-84639500D01*
X73830750Y-84639500D01*
X73989500Y-84480750D01*
X73989500Y-83756500D01*
X73240250Y-83756500D01*
X73081500Y-83915250D01*
X44585000Y-83915250D01*
X44585000Y-83128190D01*
X73081500Y-83128190D01*
X73081500Y-83343750D01*
X73240250Y-83502500D01*
X73989500Y-83502500D01*
X73989500Y-82778250D01*
X73830750Y-82619500D01*
X73590191Y-82619500D01*
X73356802Y-82716173D01*
X73178173Y-82894801D01*
X73081500Y-83128190D01*
X44585000Y-83128190D01*
X44585000Y-79851250D01*
X73081500Y-79851250D01*
X73081500Y-80066810D01*
X73178173Y-80300199D01*
X73356802Y-80478827D01*
X73590191Y-80575500D01*
X73830750Y-80575500D01*
X73989500Y-80416750D01*
X73989500Y-79692500D01*
X73240250Y-79692500D01*
X73081500Y-79851250D01*
X44585000Y-79851250D01*
X44585000Y-79064190D01*
X73081500Y-79064190D01*
X73081500Y-79279750D01*
X73240250Y-79438500D01*
X73989500Y-79438500D01*
X73989500Y-78714250D01*
X73830750Y-78555500D01*
X73590191Y-78555500D01*
X73356802Y-78652173D01*
X73178173Y-78830801D01*
X73081500Y-79064190D01*
X44585000Y-79064190D01*
X44585000Y-76167466D01*
X44621376Y-75984591D01*
X44621625Y-75984218D01*
X44869452Y-75819000D01*
X49276000Y-75819000D01*
X49324601Y-75809333D01*
X49365803Y-75781803D01*
X49393333Y-75740601D01*
X49403000Y-75692000D01*
X49403000Y-74840162D01*
X49447180Y-74733500D01*
X49495718Y-74616319D01*
X49571838Y-74233636D01*
X49571838Y-74233632D01*
X49585000Y-74167462D01*
X49585000Y-74009250D01*
X73081500Y-74009250D01*
X73081500Y-74224810D01*
X73178173Y-74458199D01*
X73356802Y-74636827D01*
X73590191Y-74733500D01*
X73830750Y-74733500D01*
X73989500Y-74574750D01*
X73989500Y-73850500D01*
X73240250Y-73850500D01*
X73081500Y-74009250D01*
X49585000Y-74009250D01*
X49585000Y-73222190D01*
X73081500Y-73222190D01*
X73081500Y-73437750D01*
X73240250Y-73596500D01*
X73989500Y-73596500D01*
X73989500Y-72872250D01*
X73830750Y-72713500D01*
X73590191Y-72713500D01*
X73356802Y-72810173D01*
X73178173Y-72988801D01*
X73081500Y-73222190D01*
X49585000Y-73222190D01*
X49585000Y-66897250D01*
X73231500Y-66897250D01*
X73231500Y-67187810D01*
X73328173Y-67421199D01*
X73506802Y-67599827D01*
X73740191Y-67696500D01*
X73832750Y-67696500D01*
X73991500Y-67537750D01*
X73991500Y-66738500D01*
X73390250Y-66738500D01*
X73231500Y-66897250D01*
X49585000Y-66897250D01*
X49585000Y-66035190D01*
X73231500Y-66035190D01*
X73231500Y-66325750D01*
X73390250Y-66484500D01*
X73991500Y-66484500D01*
X73991500Y-65685250D01*
X73832750Y-65526500D01*
X73740191Y-65526500D01*
X73506802Y-65623173D01*
X73328173Y-65801801D01*
X73231500Y-66035190D01*
X49585000Y-66035190D01*
X49585000Y-61499750D01*
X56277000Y-61499750D01*
X56277000Y-61790310D01*
X56373673Y-62023699D01*
X56552302Y-62202327D01*
X56785691Y-62299000D01*
X56878250Y-62299000D01*
X57037000Y-62140250D01*
X57037000Y-61341000D01*
X56435750Y-61341000D01*
X56277000Y-61499750D01*
X49585000Y-61499750D01*
X49585000Y-60637690D01*
X56277000Y-60637690D01*
X56277000Y-60928250D01*
X56435750Y-61087000D01*
X57037000Y-61087000D01*
X57037000Y-60287750D01*
X56878250Y-60129000D01*
X56785691Y-60129000D01*
X56552302Y-60225673D01*
X56373673Y-60404301D01*
X56277000Y-60637690D01*
X49585000Y-60637690D01*
X49585000Y-59032538D01*
X49571838Y-58966368D01*
X49571838Y-58966364D01*
X49570523Y-58959750D01*
X56277000Y-58959750D01*
X56277000Y-59250310D01*
X56373673Y-59483699D01*
X56552302Y-59662327D01*
X56785691Y-59759000D01*
X56878250Y-59759000D01*
X57037000Y-59600250D01*
X57037000Y-58801000D01*
X56435750Y-58801000D01*
X56277000Y-58959750D01*
X49570523Y-58959750D01*
X49495718Y-58583681D01*
X49413203Y-58384472D01*
X49393437Y-58336751D01*
X49233702Y-58097690D01*
X56277000Y-58097690D01*
X56277000Y-58388250D01*
X56435750Y-58547000D01*
X57037000Y-58547000D01*
X57037000Y-57747750D01*
X57287000Y-57747750D01*
X57287000Y-58547000D01*
X57309000Y-58547000D01*
X57309000Y-58801000D01*
X57287000Y-58801000D01*
X57287000Y-59600250D01*
X57445750Y-59759000D01*
X57538309Y-59759000D01*
X57771698Y-59662327D01*
X57913346Y-59520680D01*
X57954191Y-59581809D01*
X58164235Y-59722157D01*
X58412000Y-59771440D01*
X58912000Y-59771440D01*
X59159765Y-59722157D01*
X59369809Y-59581809D01*
X59468573Y-59434000D01*
X60443822Y-59434000D01*
X60651375Y-59744625D01*
X60949761Y-59944000D01*
X60651375Y-60143375D01*
X60443822Y-60454000D01*
X59468573Y-60454000D01*
X59369809Y-60306191D01*
X59159765Y-60165843D01*
X58912000Y-60116560D01*
X58412000Y-60116560D01*
X58164235Y-60165843D01*
X57954191Y-60306191D01*
X57913346Y-60367320D01*
X57771698Y-60225673D01*
X57538309Y-60129000D01*
X57445750Y-60129000D01*
X57287000Y-60287750D01*
X57287000Y-61087000D01*
X57309000Y-61087000D01*
X57309000Y-61341000D01*
X57287000Y-61341000D01*
X57287000Y-62140250D01*
X57445750Y-62299000D01*
X57538309Y-62299000D01*
X57771698Y-62202327D01*
X57913346Y-62060680D01*
X57954191Y-62121809D01*
X58164235Y-62262157D01*
X58412000Y-62311440D01*
X58912000Y-62311440D01*
X59159765Y-62262157D01*
X59369809Y-62121809D01*
X59468573Y-61974000D01*
X60443822Y-61974000D01*
X60651375Y-62284625D01*
X60669619Y-62296816D01*
X60624235Y-62305843D01*
X60414191Y-62446191D01*
X60273843Y-62656235D01*
X60224560Y-62904000D01*
X60224560Y-62994000D01*
X59377711Y-62994000D01*
X59260280Y-62876569D01*
X58879874Y-62719000D01*
X58468126Y-62719000D01*
X58087720Y-62876569D01*
X57796569Y-63167720D01*
X57639000Y-63548126D01*
X57639000Y-63959874D01*
X57796569Y-64340280D01*
X58087720Y-64631431D01*
X58468126Y-64789000D01*
X58879874Y-64789000D01*
X59260280Y-64631431D01*
X59377711Y-64514000D01*
X60224560Y-64514000D01*
X60224560Y-64604000D01*
X60273843Y-64851765D01*
X60414191Y-65061809D01*
X60624235Y-65202157D01*
X60872000Y-65251440D01*
X62572000Y-65251440D01*
X62819765Y-65202157D01*
X63029809Y-65061809D01*
X63170157Y-64851765D01*
X63219440Y-64604000D01*
X63219440Y-63380750D01*
X65808000Y-63380750D01*
X65808000Y-63921309D01*
X65904673Y-64154698D01*
X66083301Y-64333327D01*
X66316690Y-64430000D01*
X66732250Y-64430000D01*
X66891000Y-64271250D01*
X66891000Y-63222000D01*
X65966750Y-63222000D01*
X65808000Y-63380750D01*
X63219440Y-63380750D01*
X63219440Y-62904000D01*
X63170157Y-62656235D01*
X63029809Y-62446191D01*
X62819765Y-62305843D01*
X62774381Y-62296816D01*
X62792625Y-62284625D01*
X62803271Y-62268691D01*
X65808000Y-62268691D01*
X65808000Y-62809250D01*
X65966750Y-62968000D01*
X66891000Y-62968000D01*
X66891000Y-61918750D01*
X66732250Y-61760000D01*
X66316690Y-61760000D01*
X66083301Y-61856673D01*
X65904673Y-62035302D01*
X65808000Y-62268691D01*
X62803271Y-62268691D01*
X63000178Y-61974000D01*
X63558289Y-61974000D01*
X63675720Y-62091431D01*
X64056126Y-62249000D01*
X64467874Y-62249000D01*
X64848280Y-62091431D01*
X65139431Y-61800280D01*
X65297000Y-61419874D01*
X65297000Y-61008126D01*
X65139431Y-60627720D01*
X64848280Y-60336569D01*
X64467874Y-60179000D01*
X64056126Y-60179000D01*
X63675720Y-60336569D01*
X63558289Y-60454000D01*
X63000178Y-60454000D01*
X62792625Y-60143375D01*
X62494239Y-59944000D01*
X62792625Y-59744625D01*
X63000178Y-59434000D01*
X63558289Y-59434000D01*
X63675720Y-59551431D01*
X64056126Y-59709000D01*
X64467874Y-59709000D01*
X64848280Y-59551431D01*
X65004711Y-59395000D01*
X65795560Y-59395000D01*
X65795560Y-60795000D01*
X65844843Y-61042765D01*
X65985191Y-61252809D01*
X66195235Y-61393157D01*
X66443000Y-61442440D01*
X67593000Y-61442440D01*
X67831968Y-61394907D01*
X67916690Y-61430000D01*
X68332250Y-61430000D01*
X68491000Y-61271250D01*
X68491000Y-60222000D01*
X68745000Y-60222000D01*
X68745000Y-61271250D01*
X68903750Y-61430000D01*
X69319310Y-61430000D01*
X69552699Y-61333327D01*
X69731327Y-61154698D01*
X69828000Y-60921309D01*
X69828000Y-60380750D01*
X69669250Y-60222000D01*
X68745000Y-60222000D01*
X68491000Y-60222000D01*
X68471000Y-60222000D01*
X68471000Y-59968000D01*
X68491000Y-59968000D01*
X68491000Y-59948000D01*
X68745000Y-59948000D01*
X68745000Y-59968000D01*
X69669250Y-59968000D01*
X69742224Y-59895026D01*
X71212171Y-61364973D01*
X71254571Y-61428429D01*
X71505963Y-61596404D01*
X71727648Y-61640500D01*
X71727652Y-61640500D01*
X71802499Y-61655388D01*
X71877346Y-61640500D01*
X72682538Y-61640500D01*
X71988039Y-62335000D01*
X69828505Y-62335000D01*
X69791157Y-62147235D01*
X69650809Y-61937191D01*
X69440765Y-61796843D01*
X69193000Y-61747560D01*
X68043000Y-61747560D01*
X67804032Y-61795093D01*
X67719310Y-61760000D01*
X67303750Y-61760000D01*
X67145000Y-61918750D01*
X67145000Y-62968000D01*
X67165000Y-62968000D01*
X67165000Y-63222000D01*
X67145000Y-63222000D01*
X67145000Y-64271250D01*
X67303750Y-64430000D01*
X67719310Y-64430000D01*
X67804032Y-64394907D01*
X68043000Y-64442440D01*
X69193000Y-64442440D01*
X69440765Y-64393157D01*
X69650809Y-64252809D01*
X69791157Y-64042765D01*
X69828505Y-63855000D01*
X71684500Y-63855000D01*
X71684500Y-63944502D01*
X71843248Y-63944502D01*
X71684500Y-64103250D01*
X71684500Y-64318810D01*
X71781173Y-64552199D01*
X71959802Y-64730827D01*
X72193191Y-64827500D01*
X72433750Y-64827500D01*
X72592500Y-64668750D01*
X72592500Y-63944500D01*
X72572500Y-63944500D01*
X72572500Y-63816250D01*
X72599377Y-63810904D01*
X72809506Y-63670500D01*
X72846500Y-63670500D01*
X72846500Y-63690500D01*
X72866500Y-63690500D01*
X72866500Y-63944500D01*
X72846500Y-63944500D01*
X72846500Y-64668750D01*
X73005250Y-64827500D01*
X73245809Y-64827500D01*
X73479198Y-64730827D01*
X73480398Y-64729627D01*
X73571735Y-64790657D01*
X73819500Y-64839940D01*
X74619500Y-64839940D01*
X74867265Y-64790657D01*
X75077309Y-64650309D01*
X75217657Y-64440265D01*
X75266940Y-64192500D01*
X75266940Y-64055701D01*
X75657002Y-63665640D01*
X75657001Y-65296196D01*
X75439138Y-65514060D01*
X75366500Y-65514060D01*
X75118735Y-65563343D01*
X74908691Y-65703691D01*
X74867846Y-65764820D01*
X74726198Y-65623173D01*
X74492809Y-65526500D01*
X74400250Y-65526500D01*
X74241500Y-65685250D01*
X74241500Y-66484500D01*
X74263500Y-66484500D01*
X74263500Y-66738500D01*
X74241500Y-66738500D01*
X74241500Y-67537750D01*
X74400250Y-67696500D01*
X74492809Y-67696500D01*
X74627284Y-67640799D01*
X74606060Y-67747500D01*
X74606060Y-68547500D01*
X74655343Y-68795265D01*
X74723655Y-68897500D01*
X74655343Y-68999735D01*
X74606060Y-69247500D01*
X74606060Y-70047500D01*
X74655343Y-70295265D01*
X74667446Y-70313378D01*
X74580343Y-70443735D01*
X74531060Y-70691500D01*
X74531060Y-71191500D01*
X74580343Y-71439265D01*
X74720691Y-71649309D01*
X74783834Y-71691500D01*
X74720691Y-71733691D01*
X74580343Y-71943735D01*
X74531060Y-72191500D01*
X74531060Y-72691500D01*
X74535436Y-72713500D01*
X74402250Y-72713500D01*
X74243500Y-72872250D01*
X74243500Y-73596500D01*
X74263500Y-73596500D01*
X74263500Y-73850500D01*
X74243500Y-73850500D01*
X74243500Y-74574750D01*
X74402250Y-74733500D01*
X74642809Y-74733500D01*
X74868501Y-74640015D01*
X74868500Y-75976927D01*
X74720691Y-76075691D01*
X74580343Y-76285735D01*
X74531060Y-76533500D01*
X74531060Y-77033500D01*
X74580343Y-77281265D01*
X74720691Y-77491309D01*
X74783834Y-77533500D01*
X74720691Y-77575691D01*
X74580343Y-77785735D01*
X74531060Y-78033500D01*
X74531060Y-78533500D01*
X74535436Y-78555500D01*
X74402250Y-78555500D01*
X74243500Y-78714250D01*
X74243500Y-79438500D01*
X74263500Y-79438500D01*
X74263500Y-79692500D01*
X74243500Y-79692500D01*
X74243500Y-80416750D01*
X74402250Y-80575500D01*
X74535436Y-80575500D01*
X74531060Y-80597500D01*
X74531060Y-81097500D01*
X74580343Y-81345265D01*
X74720691Y-81555309D01*
X74783834Y-81597500D01*
X74720691Y-81639691D01*
X74580343Y-81849735D01*
X74531060Y-82097500D01*
X74531060Y-82597500D01*
X74535436Y-82619500D01*
X74402250Y-82619500D01*
X74243500Y-82778250D01*
X74243500Y-83502500D01*
X74263500Y-83502500D01*
X74263500Y-83756500D01*
X74243500Y-83756500D01*
X74243500Y-84480750D01*
X74402250Y-84639500D01*
X74642809Y-84639500D01*
X74868501Y-84546015D01*
X74868500Y-87635591D01*
X74702347Y-87704414D01*
X74242414Y-88164347D01*
X73993500Y-88765278D01*
X73993500Y-89415722D01*
X74242414Y-90016653D01*
X74702347Y-90476586D01*
X75303278Y-90725500D01*
X75953722Y-90725500D01*
X76554653Y-90476586D01*
X76625607Y-90405632D01*
X77123237Y-90405632D01*
X78168500Y-91450895D01*
X79213763Y-90405632D01*
X79102859Y-90128401D01*
X78456907Y-89885177D01*
X77767047Y-89907664D01*
X77234141Y-90128401D01*
X77123237Y-90405632D01*
X76625607Y-90405632D01*
X77014586Y-90016653D01*
X77263500Y-89415722D01*
X77263500Y-88765278D01*
X77014586Y-88164347D01*
X76625607Y-87775368D01*
X77123237Y-87775368D01*
X77234141Y-88052599D01*
X77880093Y-88295823D01*
X78569953Y-88273336D01*
X79102859Y-88052599D01*
X79213763Y-87775368D01*
X78168500Y-86730105D01*
X77123237Y-87775368D01*
X76625607Y-87775368D01*
X76554653Y-87704414D01*
X76388500Y-87635591D01*
X76388500Y-86262093D01*
X76423177Y-86262093D01*
X76445664Y-86951953D01*
X76666401Y-87484859D01*
X76943632Y-87595763D01*
X77988895Y-86550500D01*
X78348105Y-86550500D01*
X79393368Y-87595763D01*
X79670599Y-87484859D01*
X79913823Y-86838907D01*
X79891336Y-86149047D01*
X79670599Y-85616141D01*
X79393368Y-85505237D01*
X78348105Y-86550500D01*
X77988895Y-86550500D01*
X76943632Y-85505237D01*
X76666401Y-85616141D01*
X76423177Y-86262093D01*
X76388500Y-86262093D01*
X76388500Y-85325632D01*
X77123237Y-85325632D01*
X78168500Y-86370895D01*
X79213763Y-85325632D01*
X79102859Y-85048401D01*
X78456907Y-84805177D01*
X77767047Y-84827664D01*
X77234141Y-85048401D01*
X77123237Y-85325632D01*
X76388500Y-85325632D01*
X76388500Y-84519645D01*
X76474309Y-84462309D01*
X76614657Y-84252265D01*
X76663940Y-84004500D01*
X76663940Y-83372352D01*
X76777500Y-83394940D01*
X77527500Y-83394940D01*
X77775265Y-83345657D01*
X77985309Y-83205309D01*
X78125657Y-82995265D01*
X78174940Y-82747500D01*
X78174940Y-81947500D01*
X78125657Y-81699735D01*
X78057345Y-81597500D01*
X78125657Y-81495265D01*
X78174940Y-81247500D01*
X78174940Y-80447500D01*
X78125657Y-80199735D01*
X77985309Y-79989691D01*
X77775265Y-79849343D01*
X77527500Y-79800060D01*
X76777500Y-79800060D01*
X76663940Y-79822648D01*
X76663940Y-79201612D01*
X76783735Y-79281657D01*
X77031500Y-79330940D01*
X77781500Y-79330940D01*
X78029265Y-79281657D01*
X78239309Y-79141309D01*
X78379657Y-78931265D01*
X78428940Y-78683500D01*
X78428940Y-77883500D01*
X78379657Y-77635735D01*
X78311345Y-77533500D01*
X78379657Y-77431265D01*
X78428940Y-77183500D01*
X78428940Y-76383500D01*
X78407716Y-76276799D01*
X78542191Y-76332500D01*
X78634750Y-76332500D01*
X78793500Y-76173750D01*
X78793500Y-75374500D01*
X79043500Y-75374500D01*
X79043500Y-76173750D01*
X79202250Y-76332500D01*
X79294809Y-76332500D01*
X79528198Y-76235827D01*
X79706827Y-76057199D01*
X79803500Y-75823810D01*
X79803500Y-75533250D01*
X79802789Y-75532539D01*
X87215000Y-75532539D01*
X87215001Y-90667462D01*
X87228162Y-90733627D01*
X87228162Y-90733636D01*
X87304282Y-91116319D01*
X87355534Y-91240052D01*
X87406563Y-91363248D01*
X87623336Y-91687672D01*
X87812328Y-91876664D01*
X88136751Y-92093437D01*
X88190876Y-92115856D01*
X88383681Y-92195718D01*
X88766364Y-92271838D01*
X89033636Y-92271838D01*
X89416319Y-92195718D01*
X89663248Y-92093437D01*
X89663249Y-92093436D01*
X89987672Y-91876664D01*
X90176664Y-91687672D01*
X90393437Y-91363249D01*
X90450942Y-91224419D01*
X90495718Y-91116319D01*
X90571838Y-90733636D01*
X90571838Y-90733632D01*
X90585000Y-90667462D01*
X90585000Y-75532538D01*
X90571838Y-75466368D01*
X90571838Y-75466364D01*
X90495718Y-75083681D01*
X90415594Y-74890243D01*
X90393437Y-74836751D01*
X90176664Y-74512328D01*
X89987672Y-74323336D01*
X89663248Y-74106563D01*
X89643782Y-74098500D01*
X89416319Y-74004282D01*
X89033636Y-73928162D01*
X88766364Y-73928162D01*
X88383681Y-74004282D01*
X88239032Y-74064197D01*
X88136751Y-74106563D01*
X87812328Y-74323336D01*
X87623336Y-74512328D01*
X87406564Y-74836751D01*
X87406563Y-74836752D01*
X87304282Y-75083681D01*
X87228162Y-75466364D01*
X87228162Y-75466369D01*
X87215000Y-75532539D01*
X79802789Y-75532539D01*
X79644750Y-75374500D01*
X79043500Y-75374500D01*
X78793500Y-75374500D01*
X78771500Y-75374500D01*
X78771500Y-75120500D01*
X78793500Y-75120500D01*
X78793500Y-74321250D01*
X79043500Y-74321250D01*
X79043500Y-75120500D01*
X79644750Y-75120500D01*
X79803500Y-74961750D01*
X79803500Y-74671190D01*
X79756735Y-74558290D01*
X79856827Y-74458199D01*
X79953500Y-74224810D01*
X79953500Y-74009250D01*
X79794750Y-73850500D01*
X79045500Y-73850500D01*
X79045500Y-74319250D01*
X79043500Y-74321250D01*
X78793500Y-74321250D01*
X78791500Y-74319250D01*
X78791500Y-73850500D01*
X78771500Y-73850500D01*
X78771500Y-73596500D01*
X78791500Y-73596500D01*
X78791500Y-72872250D01*
X79045500Y-72872250D01*
X79045500Y-73596500D01*
X79794750Y-73596500D01*
X79953500Y-73437750D01*
X79953500Y-73222190D01*
X79856827Y-72988801D01*
X79678198Y-72810173D01*
X79444809Y-72713500D01*
X79204250Y-72713500D01*
X79045500Y-72872250D01*
X78791500Y-72872250D01*
X78632750Y-72713500D01*
X78499564Y-72713500D01*
X78503940Y-72691500D01*
X78503940Y-72191500D01*
X78454657Y-71943735D01*
X78314309Y-71733691D01*
X78251166Y-71691500D01*
X78314309Y-71649309D01*
X78454657Y-71439265D01*
X78503940Y-71191500D01*
X78503940Y-70691500D01*
X78454657Y-70443735D01*
X78367554Y-70313378D01*
X78379657Y-70295265D01*
X78428940Y-70047500D01*
X78428940Y-69247500D01*
X78379657Y-68999735D01*
X78311345Y-68897500D01*
X78379657Y-68795265D01*
X78428940Y-68547500D01*
X78428940Y-67747500D01*
X78407716Y-67640799D01*
X78542191Y-67696500D01*
X78634750Y-67696500D01*
X78793500Y-67537750D01*
X78793500Y-66738500D01*
X79043500Y-66738500D01*
X79043500Y-67537750D01*
X79202250Y-67696500D01*
X79294809Y-67696500D01*
X79528198Y-67599827D01*
X79706827Y-67421199D01*
X79803500Y-67187810D01*
X79803500Y-66897250D01*
X79644750Y-66738500D01*
X79043500Y-66738500D01*
X78793500Y-66738500D01*
X78771500Y-66738500D01*
X78771500Y-66484500D01*
X78793500Y-66484500D01*
X78793500Y-65685250D01*
X79043500Y-65685250D01*
X79043500Y-66484500D01*
X79644750Y-66484500D01*
X79803500Y-66325750D01*
X79803500Y-66035190D01*
X79706827Y-65801801D01*
X79528198Y-65623173D01*
X79294809Y-65526500D01*
X79202250Y-65526500D01*
X79043500Y-65685250D01*
X78793500Y-65685250D01*
X78634750Y-65526500D01*
X78542191Y-65526500D01*
X78308802Y-65623173D01*
X78167154Y-65764820D01*
X78162965Y-65758551D01*
X78134404Y-65614963D01*
X77966429Y-65363571D01*
X77902972Y-65321171D01*
X77822499Y-65240697D01*
X77822499Y-63720801D01*
X77916249Y-63627051D01*
X78591171Y-64301973D01*
X78633571Y-64365429D01*
X78697027Y-64407829D01*
X78884962Y-64533404D01*
X78897204Y-64535839D01*
X78973691Y-64650309D01*
X79183735Y-64790657D01*
X79431500Y-64839940D01*
X80231500Y-64839940D01*
X80479265Y-64790657D01*
X80570602Y-64729627D01*
X80571802Y-64730827D01*
X80805191Y-64827500D01*
X81045750Y-64827500D01*
X81204500Y-64668750D01*
X81204500Y-63944500D01*
X81458500Y-63944500D01*
X81458500Y-64668750D01*
X81617250Y-64827500D01*
X81857809Y-64827500D01*
X82091198Y-64730827D01*
X82269827Y-64552199D01*
X82366500Y-64318810D01*
X82366500Y-64103250D01*
X82207750Y-63944500D01*
X81458500Y-63944500D01*
X81204500Y-63944500D01*
X81184500Y-63944500D01*
X81184500Y-63900750D01*
X95637000Y-63900750D01*
X95637000Y-64141309D01*
X95733673Y-64374698D01*
X95912301Y-64553327D01*
X96145690Y-64650000D01*
X96361250Y-64650000D01*
X96520000Y-64491250D01*
X96520000Y-63742000D01*
X96774000Y-63742000D01*
X96774000Y-64491250D01*
X96932750Y-64650000D01*
X97148310Y-64650000D01*
X97381699Y-64553327D01*
X97560327Y-64374698D01*
X97657000Y-64141309D01*
X97657000Y-63900750D01*
X97498250Y-63742000D01*
X96774000Y-63742000D01*
X96520000Y-63742000D01*
X95795750Y-63742000D01*
X95637000Y-63900750D01*
X81184500Y-63900750D01*
X81184500Y-63690500D01*
X81204500Y-63690500D01*
X81204500Y-63670500D01*
X81458500Y-63670500D01*
X81458500Y-63690500D01*
X82207750Y-63690500D01*
X82366500Y-63531750D01*
X82366500Y-63316190D01*
X82331744Y-63232282D01*
X82505309Y-63116309D01*
X82645657Y-62906265D01*
X82694940Y-62658500D01*
X82694940Y-62158500D01*
X82645657Y-61910735D01*
X82505309Y-61700691D01*
X82442166Y-61658500D01*
X82505309Y-61616309D01*
X82645657Y-61406265D01*
X82694940Y-61158500D01*
X82694940Y-60658500D01*
X82645657Y-60410735D01*
X82505309Y-60200691D01*
X82295265Y-60060343D01*
X82047500Y-60011060D01*
X81147500Y-60011060D01*
X81086913Y-60023111D01*
X80855801Y-59792000D01*
X81192802Y-59455000D01*
X81358874Y-59455000D01*
X81739280Y-59297431D01*
X82030431Y-59006280D01*
X82188000Y-58625874D01*
X82188000Y-58214126D01*
X82030431Y-57833720D01*
X81739280Y-57542569D01*
X81358874Y-57385000D01*
X80947126Y-57385000D01*
X80577683Y-57538028D01*
X80633431Y-57482280D01*
X80791000Y-57101874D01*
X80791000Y-56690126D01*
X80633431Y-56309720D01*
X80342280Y-56018569D01*
X79961874Y-55861000D01*
X79627000Y-55861000D01*
X79627000Y-55567711D01*
X79744431Y-55450280D01*
X79902000Y-55069874D01*
X79902000Y-54912126D01*
X92564000Y-54912126D01*
X92564000Y-55323874D01*
X92721569Y-55704280D01*
X93012720Y-55995431D01*
X93393126Y-56153000D01*
X93804874Y-56153000D01*
X94185280Y-55995431D01*
X94314711Y-55866000D01*
X94547300Y-55866000D01*
X94679235Y-55954157D01*
X94927000Y-56003440D01*
X95196000Y-56003440D01*
X95196000Y-56024560D01*
X95131000Y-56024560D01*
X94993369Y-56051936D01*
X94957310Y-56037000D01*
X94902250Y-56037000D01*
X94829506Y-56109744D01*
X94673191Y-56214191D01*
X94568500Y-56370871D01*
X94568500Y-56195750D01*
X94409750Y-56037000D01*
X94354690Y-56037000D01*
X94121301Y-56133673D01*
X93942673Y-56312302D01*
X93846000Y-56545691D01*
X93846000Y-56711250D01*
X94004750Y-56870000D01*
X94483560Y-56870000D01*
X94483560Y-57124000D01*
X94004750Y-57124000D01*
X93846000Y-57282750D01*
X93846000Y-57448309D01*
X93861879Y-57486645D01*
X93796000Y-57645691D01*
X93796000Y-57873750D01*
X93954750Y-58032500D01*
X94047474Y-58032500D01*
X93892673Y-58187302D01*
X93796000Y-58420691D01*
X93796000Y-58673309D01*
X93892673Y-58906698D01*
X94047474Y-59061500D01*
X93954750Y-59061500D01*
X93796000Y-59220250D01*
X93796000Y-59448309D01*
X93861879Y-59607355D01*
X93846000Y-59645691D01*
X93846000Y-59811250D01*
X94004750Y-59970000D01*
X94568500Y-59970000D01*
X94568500Y-59957000D01*
X94641750Y-59957000D01*
X94654750Y-59970000D01*
X95453000Y-59970000D01*
X95453000Y-60224000D01*
X94654750Y-60224000D01*
X94568500Y-60310250D01*
X94568500Y-60224000D01*
X94004750Y-60224000D01*
X93846000Y-60382750D01*
X93846000Y-60548309D01*
X93942673Y-60781698D01*
X94121301Y-60960327D01*
X94354690Y-61057000D01*
X94409750Y-61057000D01*
X94568500Y-60898250D01*
X94568500Y-60723339D01*
X94592673Y-60781698D01*
X94771301Y-60960327D01*
X94829814Y-60984564D01*
X94902250Y-61057000D01*
X94957310Y-61057000D01*
X94981000Y-61047187D01*
X95004690Y-61057000D01*
X95059750Y-61057000D01*
X95132186Y-60984564D01*
X95190699Y-60960327D01*
X95306000Y-60845025D01*
X95421301Y-60960327D01*
X95479814Y-60984564D01*
X95552250Y-61057000D01*
X95607310Y-61057000D01*
X95631000Y-61047187D01*
X95654690Y-61057000D01*
X95709750Y-61057000D01*
X95782186Y-60984564D01*
X95828998Y-60965174D01*
X95828998Y-61057000D01*
X95846000Y-61057000D01*
X95846001Y-61235936D01*
X95814191Y-61257191D01*
X95748837Y-61355000D01*
X95439848Y-61355000D01*
X95379622Y-61343020D01*
X95328874Y-61322000D01*
X94917126Y-61322000D01*
X94536720Y-61479569D01*
X94245569Y-61770720D01*
X94088000Y-62151126D01*
X94088000Y-62562874D01*
X94245569Y-62943280D01*
X94536720Y-63234431D01*
X94917126Y-63392000D01*
X95328874Y-63392000D01*
X95637000Y-63264370D01*
X95637000Y-63329250D01*
X95795750Y-63488000D01*
X96520000Y-63488000D01*
X96520000Y-63468000D01*
X96774000Y-63468000D01*
X96774000Y-63488000D01*
X97498250Y-63488000D01*
X97657000Y-63329250D01*
X97657000Y-63088691D01*
X97599109Y-62948928D01*
X99359500Y-62948928D01*
X99359500Y-86276071D01*
X107429500Y-86276071D01*
X107429500Y-62948928D01*
X99359500Y-62948928D01*
X97599109Y-62948928D01*
X97560327Y-62855302D01*
X97559127Y-62854102D01*
X97620157Y-62762765D01*
X97669440Y-62515000D01*
X97669440Y-61715000D01*
X97620157Y-61467235D01*
X97479809Y-61257191D01*
X97366000Y-61181146D01*
X97366000Y-60689456D01*
X97379157Y-60669765D01*
X97428440Y-60422000D01*
X97428440Y-59772000D01*
X97397128Y-59614581D01*
X97466000Y-59448309D01*
X97466000Y-59220250D01*
X97307250Y-59061500D01*
X97214526Y-59061500D01*
X97369327Y-58906698D01*
X97466000Y-58673309D01*
X97466000Y-58420691D01*
X97369327Y-58187302D01*
X97214526Y-58032500D01*
X97307250Y-58032500D01*
X97466000Y-57873750D01*
X97466000Y-57645691D01*
X97397128Y-57479419D01*
X97428440Y-57322000D01*
X97428440Y-56672000D01*
X97379157Y-56424235D01*
X97366000Y-56404544D01*
X97366000Y-56276801D01*
X97517000Y-56427802D01*
X97517000Y-56593874D01*
X97674569Y-56974280D01*
X97965720Y-57265431D01*
X98346126Y-57423000D01*
X98757874Y-57423000D01*
X99138280Y-57265431D01*
X99429431Y-56974280D01*
X99587000Y-56593874D01*
X99587000Y-56182126D01*
X99429431Y-55801720D01*
X99138280Y-55510569D01*
X98757874Y-55353000D01*
X98591802Y-55353000D01*
X98252440Y-55013639D01*
X98252440Y-54856000D01*
X98203157Y-54608235D01*
X98062809Y-54398191D01*
X97999666Y-54356000D01*
X98062809Y-54313809D01*
X98203157Y-54103765D01*
X98252440Y-53856000D01*
X98252440Y-53356000D01*
X98203157Y-53108235D01*
X98062809Y-52898191D01*
X97975715Y-52839996D01*
X98032431Y-52783280D01*
X98190000Y-52402874D01*
X98190000Y-51991126D01*
X98032431Y-51610720D01*
X97741280Y-51319569D01*
X97360874Y-51162000D01*
X96949126Y-51162000D01*
X96568720Y-51319569D01*
X96277569Y-51610720D01*
X96266000Y-51638650D01*
X96254431Y-51610720D01*
X95963280Y-51319569D01*
X95582874Y-51162000D01*
X95171126Y-51162000D01*
X94790720Y-51319569D01*
X94499569Y-51610720D01*
X94342000Y-51991126D01*
X94342000Y-52402874D01*
X94499569Y-52783280D01*
X94556285Y-52839996D01*
X94469191Y-52898191D01*
X94328843Y-53108235D01*
X94279560Y-53356000D01*
X94279560Y-53856000D01*
X94328843Y-54103765D01*
X94469191Y-54313809D01*
X94517368Y-54346000D01*
X94290711Y-54346000D01*
X94185280Y-54240569D01*
X93804874Y-54083000D01*
X93393126Y-54083000D01*
X93012720Y-54240569D01*
X92721569Y-54531720D01*
X92564000Y-54912126D01*
X79902000Y-54912126D01*
X79902000Y-54658126D01*
X79744431Y-54277720D01*
X79453280Y-53986569D01*
X79072874Y-53829000D01*
X79013000Y-53829000D01*
X79013000Y-53578626D01*
X78855431Y-53198220D01*
X78564280Y-52907069D01*
X78183874Y-52749500D01*
X77772126Y-52749500D01*
X77391720Y-52907069D01*
X77100569Y-53198220D01*
X76943000Y-53578626D01*
X76943000Y-53829000D01*
X76883126Y-53829000D01*
X76502720Y-53986569D01*
X76211569Y-54277720D01*
X76054000Y-54658126D01*
X76054000Y-54913198D01*
X74695000Y-53554199D01*
X74695000Y-53388126D01*
X74537431Y-53007720D01*
X74246280Y-52716569D01*
X73865874Y-52559000D01*
X73454126Y-52559000D01*
X73073720Y-52716569D01*
X72782569Y-53007720D01*
X72625000Y-53388126D01*
X72625000Y-53799874D01*
X72782569Y-54180280D01*
X73073720Y-54471431D01*
X73454126Y-54629000D01*
X73620199Y-54629000D01*
X75818840Y-56827642D01*
X75818840Y-56943440D01*
X75681075Y-56970843D01*
X75471031Y-57111191D01*
X75330683Y-57321235D01*
X75281400Y-57569000D01*
X75281400Y-57993414D01*
X75128255Y-58146560D01*
X74703840Y-58146560D01*
X74515614Y-58184000D01*
X73596802Y-58184000D01*
X73285440Y-57872639D01*
X73285440Y-57500000D01*
X73236157Y-57252235D01*
X73175127Y-57160898D01*
X73176327Y-57159698D01*
X73273000Y-56926309D01*
X73273000Y-56685750D01*
X73114250Y-56527000D01*
X72390000Y-56527000D01*
X72390000Y-56547000D01*
X72136000Y-56547000D01*
X72136000Y-56527000D01*
X71411750Y-56527000D01*
X71253000Y-56685750D01*
X71253000Y-56926309D01*
X71349673Y-57159698D01*
X71350873Y-57160898D01*
X71289843Y-57252235D01*
X71268624Y-57358913D01*
X71198280Y-57288569D01*
X70817874Y-57131000D01*
X70406126Y-57131000D01*
X70025720Y-57288569D01*
X69734569Y-57579720D01*
X69601795Y-57900265D01*
X69596000Y-57899112D01*
X69521153Y-57914000D01*
X67511846Y-57914000D01*
X67436999Y-57899112D01*
X67362152Y-57914000D01*
X67362148Y-57914000D01*
X67140463Y-57958096D01*
X66889071Y-58126071D01*
X66846671Y-58189528D01*
X66533529Y-58502669D01*
X66470071Y-58545071D01*
X66318184Y-58772387D01*
X66195235Y-58796843D01*
X65985191Y-58937191D01*
X65844843Y-59147235D01*
X65795560Y-59395000D01*
X65004711Y-59395000D01*
X65139431Y-59260280D01*
X65297000Y-58879874D01*
X65297000Y-58468126D01*
X65139431Y-58087720D01*
X64848280Y-57796569D01*
X64467874Y-57639000D01*
X64056126Y-57639000D01*
X63675720Y-57796569D01*
X63558289Y-57914000D01*
X63000178Y-57914000D01*
X62792625Y-57603375D01*
X62494239Y-57404000D01*
X62792625Y-57204625D01*
X63120839Y-56713418D01*
X63236092Y-56134000D01*
X63184314Y-55873691D01*
X71253000Y-55873691D01*
X71253000Y-56114250D01*
X71411750Y-56273000D01*
X72136000Y-56273000D01*
X72136000Y-55523750D01*
X72390000Y-55523750D01*
X72390000Y-56273000D01*
X73114250Y-56273000D01*
X73273000Y-56114250D01*
X73273000Y-55873691D01*
X73176327Y-55640302D01*
X72997699Y-55461673D01*
X72764310Y-55365000D01*
X72548750Y-55365000D01*
X72390000Y-55523750D01*
X72136000Y-55523750D01*
X71977250Y-55365000D01*
X71761690Y-55365000D01*
X71528301Y-55461673D01*
X71349673Y-55640302D01*
X71253000Y-55873691D01*
X63184314Y-55873691D01*
X63120839Y-55554582D01*
X62792625Y-55063375D01*
X62494239Y-54864000D01*
X62792625Y-54664625D01*
X63120839Y-54173418D01*
X63236092Y-53594000D01*
X63120839Y-53014582D01*
X62792625Y-52523375D01*
X62473522Y-52310157D01*
X62603358Y-52249183D01*
X62993645Y-51820924D01*
X63163476Y-51410890D01*
X63042155Y-51181000D01*
X61849000Y-51181000D01*
X61849000Y-51201000D01*
X61595000Y-51201000D01*
X61595000Y-51181000D01*
X60401845Y-51181000D01*
X60280524Y-51410890D01*
X60450355Y-51820924D01*
X60840642Y-52249183D01*
X60970478Y-52310157D01*
X60651375Y-52523375D01*
X60323161Y-53014582D01*
X60207908Y-53594000D01*
X60323161Y-54173418D01*
X60651375Y-54664625D01*
X60949761Y-54864000D01*
X60651375Y-55063375D01*
X60323161Y-55554582D01*
X60207908Y-56134000D01*
X60323161Y-56713418D01*
X60651375Y-57204625D01*
X60949761Y-57404000D01*
X60651375Y-57603375D01*
X60443822Y-57914000D01*
X59468573Y-57914000D01*
X59369809Y-57766191D01*
X59159765Y-57625843D01*
X58912000Y-57576560D01*
X58412000Y-57576560D01*
X58164235Y-57625843D01*
X57954191Y-57766191D01*
X57913346Y-57827320D01*
X57771698Y-57685673D01*
X57538309Y-57589000D01*
X57445750Y-57589000D01*
X57287000Y-57747750D01*
X57037000Y-57747750D01*
X56878250Y-57589000D01*
X56785691Y-57589000D01*
X56552302Y-57685673D01*
X56373673Y-57864301D01*
X56277000Y-58097690D01*
X49233702Y-58097690D01*
X49176664Y-58012328D01*
X48987672Y-57823336D01*
X48663248Y-57606563D01*
X48627264Y-57591658D01*
X48603803Y-57568197D01*
X48562601Y-57540667D01*
X48514000Y-57531000D01*
X48480822Y-57531000D01*
X48416319Y-57504282D01*
X48033636Y-57428162D01*
X48033632Y-57428162D01*
X47967462Y-57415000D01*
X44967466Y-57415000D01*
X44784590Y-57378624D01*
X44686751Y-57313250D01*
X44621376Y-57215409D01*
X44585000Y-57032534D01*
X44585000Y-45847000D01*
X50800000Y-45847000D01*
X50848601Y-45837333D01*
X50889803Y-45809803D01*
X50917333Y-45768601D01*
X50927000Y-45720000D01*
X50927000Y-44659096D01*
X50948591Y-44691409D01*
X51158635Y-44831757D01*
X51406400Y-44881040D01*
X51510001Y-44881040D01*
X51510001Y-45324288D01*
X51446569Y-45387720D01*
X51289000Y-45768126D01*
X51289000Y-46179874D01*
X51446569Y-46560280D01*
X51530314Y-46644025D01*
X51495112Y-46821000D01*
X51554097Y-47117537D01*
X51679671Y-47305472D01*
X51839528Y-47465329D01*
X52027464Y-47590904D01*
X52324000Y-47649888D01*
X52620537Y-47590904D01*
X52767743Y-47492544D01*
X53630758Y-48355560D01*
X53537000Y-48355560D01*
X53289235Y-48404843D01*
X53079191Y-48545191D01*
X52938843Y-48755235D01*
X52889560Y-49003000D01*
X52889560Y-49803000D01*
X52938843Y-50050765D01*
X53079191Y-50260809D01*
X53227001Y-50359573D01*
X53227000Y-50859299D01*
X53138843Y-50991235D01*
X53089560Y-51239000D01*
X53089560Y-52139000D01*
X53138843Y-52386765D01*
X53279191Y-52596809D01*
X53489235Y-52737157D01*
X53737000Y-52786440D01*
X54237000Y-52786440D01*
X54484765Y-52737157D01*
X54694809Y-52596809D01*
X54735654Y-52535680D01*
X54877302Y-52677327D01*
X55110691Y-52774000D01*
X55203250Y-52774000D01*
X55362000Y-52615250D01*
X55362000Y-51816000D01*
X55612000Y-51816000D01*
X55612000Y-52615250D01*
X55770750Y-52774000D01*
X55863309Y-52774000D01*
X56096698Y-52677327D01*
X56275327Y-52498699D01*
X56372000Y-52265310D01*
X56372000Y-51974750D01*
X56213250Y-51816000D01*
X55612000Y-51816000D01*
X55362000Y-51816000D01*
X55340000Y-51816000D01*
X55340000Y-51562000D01*
X55362000Y-51562000D01*
X55362000Y-50762750D01*
X55612000Y-50762750D01*
X55612000Y-51562000D01*
X56213250Y-51562000D01*
X56372000Y-51403250D01*
X56372000Y-51112690D01*
X56275327Y-50879301D01*
X56096698Y-50700673D01*
X56088097Y-50697110D01*
X60280524Y-50697110D01*
X60401845Y-50927000D01*
X61595000Y-50927000D01*
X61595000Y-49733181D01*
X61849000Y-49733181D01*
X61849000Y-50927000D01*
X63042155Y-50927000D01*
X63163476Y-50697110D01*
X62993645Y-50287076D01*
X62603358Y-49858817D01*
X62078892Y-49612514D01*
X61849000Y-49733181D01*
X61595000Y-49733181D01*
X61365108Y-49612514D01*
X60840642Y-49858817D01*
X60450355Y-50287076D01*
X60280524Y-50697110D01*
X56088097Y-50697110D01*
X55863309Y-50604000D01*
X55770750Y-50604000D01*
X55612000Y-50762750D01*
X55362000Y-50762750D01*
X55203250Y-50604000D01*
X55110691Y-50604000D01*
X54877302Y-50700673D01*
X54747000Y-50830974D01*
X54747000Y-50306118D01*
X54889235Y-50401157D01*
X55137000Y-50450440D01*
X55937000Y-50450440D01*
X56184765Y-50401157D01*
X56394809Y-50260809D01*
X56535157Y-50050765D01*
X56584440Y-49803000D01*
X56584440Y-49003000D01*
X56535157Y-48755235D01*
X56394809Y-48545191D01*
X56184765Y-48404843D01*
X55937000Y-48355560D01*
X55780362Y-48355560D01*
X53359000Y-45934199D01*
X53359000Y-45768126D01*
X53201431Y-45387720D01*
X53030000Y-45216289D01*
X53030000Y-44881040D01*
X53133600Y-44881040D01*
X53381365Y-44831757D01*
X53591409Y-44691409D01*
X53731757Y-44481365D01*
X53736932Y-44455349D01*
X54225275Y-44781650D01*
X54662402Y-44868600D01*
X54957598Y-44868600D01*
X55394725Y-44781650D01*
X55890430Y-44450430D01*
X56080000Y-44166719D01*
X56269570Y-44450430D01*
X56765275Y-44781650D01*
X57202402Y-44868600D01*
X57497598Y-44868600D01*
X57934725Y-44781650D01*
X58430430Y-44450430D01*
X58620000Y-44166719D01*
X58809570Y-44450430D01*
X59305275Y-44781650D01*
X59742402Y-44868600D01*
X60037598Y-44868600D01*
X60474725Y-44781650D01*
X60970430Y-44450430D01*
X61160000Y-44166719D01*
X61349570Y-44450430D01*
X61845275Y-44781650D01*
X62282402Y-44868600D01*
X62577598Y-44868600D01*
X63014725Y-44781650D01*
X63510430Y-44450430D01*
X63700000Y-44166719D01*
X63889570Y-44450430D01*
X64385275Y-44781650D01*
X64581226Y-44820627D01*
X64751865Y-45522932D01*
X64624000Y-45831626D01*
X64624000Y-46243374D01*
X64781569Y-46623780D01*
X65072720Y-46914931D01*
X65453126Y-47072500D01*
X65864874Y-47072500D01*
X66245280Y-46914931D01*
X66536431Y-46623780D01*
X66674460Y-46290548D01*
X66813069Y-46625180D01*
X67104220Y-46916331D01*
X67484626Y-47073900D01*
X67896374Y-47073900D01*
X68276780Y-46916331D01*
X68567931Y-46625180D01*
X68725500Y-46244774D01*
X68725500Y-45833026D01*
X68567931Y-45452620D01*
X68450500Y-45335189D01*
X68450500Y-44543928D01*
X68590430Y-44450430D01*
X68780000Y-44166719D01*
X68969570Y-44450430D01*
X69465275Y-44781650D01*
X69902402Y-44868600D01*
X70197598Y-44868600D01*
X70634725Y-44781650D01*
X71130430Y-44450430D01*
X71320000Y-44166719D01*
X71509570Y-44450430D01*
X72005275Y-44781650D01*
X72442402Y-44868600D01*
X72737598Y-44868600D01*
X73174725Y-44781650D01*
X73670430Y-44450430D01*
X73860000Y-44166719D01*
X74049570Y-44450430D01*
X74370001Y-44664535D01*
X74370001Y-45324288D01*
X74306569Y-45387720D01*
X74149000Y-45768126D01*
X74149000Y-46179874D01*
X74306569Y-46560280D01*
X74597720Y-46851431D01*
X74978126Y-47009000D01*
X75389874Y-47009000D01*
X75770280Y-46851431D01*
X76061431Y-46560280D01*
X76219000Y-46179874D01*
X76219000Y-45768126D01*
X76061431Y-45387720D01*
X75890000Y-45216289D01*
X75890000Y-44664535D01*
X76210430Y-44450430D01*
X76400000Y-44166719D01*
X76589570Y-44450430D01*
X76910001Y-44664535D01*
X76910001Y-45324288D01*
X76846569Y-45387720D01*
X76689000Y-45768126D01*
X76689000Y-46179874D01*
X76846569Y-46560280D01*
X77137720Y-46851431D01*
X77518126Y-47009000D01*
X77929874Y-47009000D01*
X78310280Y-46851431D01*
X78601431Y-46560280D01*
X78759000Y-46179874D01*
X78759000Y-45768126D01*
X78601431Y-45387720D01*
X78430000Y-45216289D01*
X78430000Y-44664535D01*
X78750430Y-44450430D01*
X78940000Y-44166719D01*
X79129570Y-44450430D01*
X79450001Y-44664535D01*
X79450001Y-45324288D01*
X79386569Y-45387720D01*
X79229000Y-45768126D01*
X79229000Y-46179874D01*
X79386569Y-46560280D01*
X79677720Y-46851431D01*
X80058126Y-47009000D01*
X80469874Y-47009000D01*
X80835500Y-46857553D01*
X81201126Y-47009000D01*
X81612874Y-47009000D01*
X81993280Y-46851431D01*
X82284431Y-46560280D01*
X82442000Y-46179874D01*
X82442000Y-45768126D01*
X82284431Y-45387720D01*
X82167000Y-45270289D01*
X82167000Y-44781993D01*
X82602402Y-44868600D01*
X82897598Y-44868600D01*
X83334725Y-44781650D01*
X83830430Y-44450430D01*
X84020000Y-44166719D01*
X84209570Y-44450430D01*
X84705275Y-44781650D01*
X85142402Y-44868600D01*
X85437598Y-44868600D01*
X85874725Y-44781650D01*
X86370430Y-44450430D01*
X86560000Y-44166719D01*
X86749570Y-44450430D01*
X87245275Y-44781650D01*
X87682402Y-44868600D01*
X87977598Y-44868600D01*
X88414725Y-44781650D01*
X88910430Y-44450430D01*
X89100000Y-44166719D01*
X89289570Y-44450430D01*
X89785275Y-44781650D01*
X90222402Y-44868600D01*
X90517598Y-44868600D01*
X90954725Y-44781650D01*
X91450430Y-44450430D01*
X91640000Y-44166719D01*
X91829570Y-44450430D01*
X92325275Y-44781650D01*
X92762402Y-44868600D01*
X93057598Y-44868600D01*
X93494725Y-44781650D01*
X93990430Y-44450430D01*
X94180000Y-44166719D01*
X94369570Y-44450430D01*
X94865275Y-44781650D01*
X95302402Y-44868600D01*
X95597598Y-44868600D01*
X96034725Y-44781650D01*
X96530430Y-44450430D01*
X96720000Y-44166719D01*
X96909570Y-44450430D01*
X97405275Y-44781650D01*
X97842402Y-44868600D01*
X98137598Y-44868600D01*
X98574725Y-44781650D01*
X99070430Y-44450430D01*
X99260000Y-44166719D01*
X99449570Y-44450430D01*
X99945275Y-44781650D01*
X100382402Y-44868600D01*
X100677598Y-44868600D01*
X101114725Y-44781650D01*
X101610430Y-44450430D01*
X101854000Y-44085902D01*
X101854000Y-45720000D01*
G36*
X77205840Y-59817000D02*
X77225840Y-59817000D01*
X77225840Y-60071000D01*
X77205840Y-60071000D01*
X77205840Y-60091000D01*
X76951840Y-60091000D01*
X76951840Y-60071000D01*
X76931840Y-60071000D01*
X76931840Y-59817000D01*
X76951840Y-59817000D01*
X76951840Y-59797000D01*
X77205840Y-59797000D01*
X77205840Y-59817000D01*
X77205840Y-59817000D01*
G37*
X77205840Y-59817000D02*
X77225840Y-59817000D01*
X77225840Y-60071000D01*
X77205840Y-60071000D01*
X77205840Y-60091000D01*
X76951840Y-60091000D01*
X76951840Y-60071000D01*
X76931840Y-60071000D01*
X76931840Y-59817000D01*
X76951840Y-59817000D01*
X76951840Y-59797000D01*
X77205840Y-59797000D01*
X77205840Y-59817000D01*
G36*
X96396250Y-59061500D02*
X96358002Y-59061500D01*
X96358002Y-59023252D01*
X96396250Y-59061500D01*
X96396250Y-59061500D01*
G37*
X96396250Y-59061500D02*
X96358002Y-59061500D01*
X96358002Y-59023252D01*
X96396250Y-59061500D01*
G36*
X96103998Y-59061500D02*
X96065750Y-59061500D01*
X96103998Y-59023252D01*
X96103998Y-59061500D01*
X96103998Y-59061500D01*
G37*
X96103998Y-59061500D02*
X96065750Y-59061500D01*
X96103998Y-59023252D01*
X96103998Y-59061500D01*
G36*
X95196250Y-59061500D02*
X95158002Y-59061500D01*
X95158002Y-59023252D01*
X95196250Y-59061500D01*
X95196250Y-59061500D01*
G37*
X95196250Y-59061500D02*
X95158002Y-59061500D01*
X95158002Y-59023252D01*
X95196250Y-59061500D01*
G36*
X94903998Y-59061500D02*
X94865750Y-59061500D01*
X94903998Y-59023252D01*
X94903998Y-59061500D01*
X94903998Y-59061500D01*
G37*
X94903998Y-59061500D02*
X94865750Y-59061500D01*
X94903998Y-59023252D01*
X94903998Y-59061500D01*
G36*
X94903998Y-58070748D02*
X94865750Y-58032500D01*
X94903998Y-58032500D01*
X94903998Y-58070748D01*
X94903998Y-58070748D01*
G37*
X94903998Y-58070748D02*
X94865750Y-58032500D01*
X94903998Y-58032500D01*
X94903998Y-58070748D01*
G36*
X95158002Y-58070748D02*
X95158002Y-58032500D01*
X95196250Y-58032500D01*
X95158002Y-58070748D01*
X95158002Y-58070748D01*
G37*
X95158002Y-58070748D02*
X95158002Y-58032500D01*
X95196250Y-58032500D01*
X95158002Y-58070748D01*
G36*
X96103998Y-58070748D02*
X96065750Y-58032500D01*
X96103998Y-58032500D01*
X96103998Y-58070748D01*
X96103998Y-58070748D01*
G37*
X96103998Y-58070748D02*
X96065750Y-58032500D01*
X96103998Y-58032500D01*
X96103998Y-58070748D01*
G36*
X96358002Y-58070748D02*
X96358002Y-58032500D01*
X96396250Y-58032500D01*
X96358002Y-58070748D01*
X96358002Y-58070748D01*
G37*
X96358002Y-58070748D02*
X96358002Y-58032500D01*
X96396250Y-58032500D01*
X96358002Y-58070748D01*
G36*
X58809570Y-41910430D02*
X59093281Y-42100000D01*
X58809570Y-42289570D01*
X58620000Y-42573281D01*
X58430430Y-42289570D01*
X58142174Y-42096963D01*
X58556821Y-41718490D01*
X58608146Y-41608979D01*
X58809570Y-41910430D01*
X58809570Y-41910430D01*
G37*
X58809570Y-41910430D02*
X59093281Y-42100000D01*
X58809570Y-42289570D01*
X58620000Y-42573281D01*
X58430430Y-42289570D01*
X58142174Y-42096963D01*
X58556821Y-41718490D01*
X58608146Y-41608979D01*
X58809570Y-41910430D01*
G36*
X70339000Y-39291126D02*
X70339000Y-39359527D01*
X70197598Y-39331400D01*
X69902402Y-39331400D01*
X69465275Y-39418350D01*
X68969570Y-39749570D01*
X68780000Y-40033281D01*
X68590430Y-39749570D01*
X68094725Y-39418350D01*
X67657598Y-39331400D01*
X67362402Y-39331400D01*
X66925275Y-39418350D01*
X66429570Y-39749570D01*
X66240000Y-40033281D01*
X66050430Y-39749570D01*
X65554725Y-39418350D01*
X65117598Y-39331400D01*
X64822402Y-39331400D01*
X64385275Y-39418350D01*
X63889570Y-39749570D01*
X63700000Y-40033281D01*
X63510430Y-39749570D01*
X63014725Y-39418350D01*
X62577598Y-39331400D01*
X62282402Y-39331400D01*
X61845275Y-39418350D01*
X61349570Y-39749570D01*
X61160000Y-40033281D01*
X60970430Y-39749570D01*
X60474725Y-39418350D01*
X60037598Y-39331400D01*
X59742402Y-39331400D01*
X59305275Y-39418350D01*
X58809570Y-39749570D01*
X58608146Y-40051021D01*
X58556821Y-39941510D01*
X58124947Y-39547312D01*
X57709026Y-39375042D01*
X57477000Y-39496183D01*
X57477000Y-40703000D01*
X57497000Y-40703000D01*
X57497000Y-40957000D01*
X57477000Y-40957000D01*
X57477000Y-40977000D01*
X57223000Y-40977000D01*
X57223000Y-40957000D01*
X57203000Y-40957000D01*
X57203000Y-40703000D01*
X57223000Y-40703000D01*
X57223000Y-39496183D01*
X56990974Y-39375042D01*
X56575053Y-39547312D01*
X56143179Y-39941510D01*
X56091854Y-40051021D01*
X55890430Y-39749570D01*
X55394725Y-39418350D01*
X54957598Y-39331400D01*
X54662402Y-39331400D01*
X54225275Y-39418350D01*
X53729570Y-39749570D01*
X53540000Y-40033281D01*
X53350430Y-39749570D01*
X52854725Y-39418350D01*
X52417598Y-39331400D01*
X52122402Y-39331400D01*
X51685275Y-39418350D01*
X51189570Y-39749570D01*
X50927000Y-40142533D01*
X50927000Y-39285000D01*
X70341537Y-39285000D01*
X70339000Y-39291126D01*
X70339000Y-39291126D01*
G37*
X70339000Y-39291126D02*
X70339000Y-39359527D01*
X70197598Y-39331400D01*
X69902402Y-39331400D01*
X69465275Y-39418350D01*
X68969570Y-39749570D01*
X68780000Y-40033281D01*
X68590430Y-39749570D01*
X68094725Y-39418350D01*
X67657598Y-39331400D01*
X67362402Y-39331400D01*
X66925275Y-39418350D01*
X66429570Y-39749570D01*
X66240000Y-40033281D01*
X66050430Y-39749570D01*
X65554725Y-39418350D01*
X65117598Y-39331400D01*
X64822402Y-39331400D01*
X64385275Y-39418350D01*
X63889570Y-39749570D01*
X63700000Y-40033281D01*
X63510430Y-39749570D01*
X63014725Y-39418350D01*
X62577598Y-39331400D01*
X62282402Y-39331400D01*
X61845275Y-39418350D01*
X61349570Y-39749570D01*
X61160000Y-40033281D01*
X60970430Y-39749570D01*
X60474725Y-39418350D01*
X60037598Y-39331400D01*
X59742402Y-39331400D01*
X59305275Y-39418350D01*
X58809570Y-39749570D01*
X58608146Y-40051021D01*
X58556821Y-39941510D01*
X58124947Y-39547312D01*
X57709026Y-39375042D01*
X57477000Y-39496183D01*
X57477000Y-40703000D01*
X57497000Y-40703000D01*
X57497000Y-40957000D01*
X57477000Y-40957000D01*
X57477000Y-40977000D01*
X57223000Y-40977000D01*
X57223000Y-40957000D01*
X57203000Y-40957000D01*
X57203000Y-40703000D01*
X57223000Y-40703000D01*
X57223000Y-39496183D01*
X56990974Y-39375042D01*
X56575053Y-39547312D01*
X56143179Y-39941510D01*
X56091854Y-40051021D01*
X55890430Y-39749570D01*
X55394725Y-39418350D01*
X54957598Y-39331400D01*
X54662402Y-39331400D01*
X54225275Y-39418350D01*
X53729570Y-39749570D01*
X53540000Y-40033281D01*
X53350430Y-39749570D01*
X52854725Y-39418350D01*
X52417598Y-39331400D01*
X52122402Y-39331400D01*
X51685275Y-39418350D01*
X51189570Y-39749570D01*
X50927000Y-40142533D01*
X50927000Y-39285000D01*
X70341537Y-39285000D01*
X70339000Y-39291126D01*
G04 #@! TD*
M02*
