M48
;DRILL file {KiCad 5.0.1-33cea8e~67~ubuntu18.04.1} date Fri 19 Oct 2018 02:08:28 PM CDT
;FORMAT={-:-/ absolute / inch / decimal}
FMAT,2
INCH,TZ
T1C0.0079
T2C0.0157
T3C0.0394
T4C0.0400
T5C0.0591
T6C0.0669
T7C0.1083
%
G90
G05
M72
T1
X3.8039Y-2.6289
X3.8039Y-2.6741
X3.8491Y-2.6289
X3.8491Y-2.6741
T2
X1.995Y-3.001
X2.046Y-2.553
X2.06Y-1.81
X2.106Y-3.295
X2.16Y-1.81
X2.185Y-2.445
X2.195Y-2.31
X2.212Y-1.886
X2.26Y-1.81
X2.281Y-2.56
X2.31Y-1.88
X2.31Y-2.51
X2.31Y-3.41
X2.31Y-3.61
X2.325Y-2.01
X2.377Y-2.755
X2.41Y-1.88
X2.521Y-1.886
X2.528Y-2.111
X2.53Y-2.215
X2.53Y-2.31
X2.53Y-2.41
X2.575Y-2.485
X2.585Y-1.8125
X2.595Y-2.565
X2.601Y-2.793
X2.665Y-1.8126
X2.714Y-1.7529
X2.765Y-2.4
X2.765Y-3.41
X2.77Y-3.61
X2.78Y-2.15
X2.78Y-2.29
X2.79Y-2.195
X2.81Y-1.555
X2.81Y-2.325
X2.81Y-2.686
X2.815Y-2.555
X2.819Y-2.728
X2.823Y-2.638
X2.84Y-2.365
X2.86Y-2.733
X2.865Y-3.13
X2.865Y-3.29
X2.87Y-3.2475
X2.8725Y-2.865
X2.8725Y-2.905
X2.875Y-2.5775
X2.875Y-2.623
X2.8775Y-3.0875
X2.88Y-3.1775
X2.8825Y-2.9475
X2.885Y-2.26
X2.897Y-2.733
X2.9Y-2.11
X2.905Y-1.655
X2.9175Y-2.8
X2.9175Y-2.845
X2.9175Y-3.01
X2.9175Y-3.055
X2.9225Y-3.18
X2.9225Y-3.2325
X2.925Y-2.95
X2.9275Y-2.7575
X2.9325Y-2.57
X2.9475Y-2.98
X2.96Y-1.81
X2.98Y-2.51
X2.98Y-2.5575
X3.009Y-1.784
X3.025Y-3.29
X3.035Y-2.16
X3.0475Y-3.13
X3.06Y-1.81
X3.0625Y-2.5575
X3.063Y-2.519
X3.07Y-2.1175
X3.0725Y-3.2875
X3.0875Y-3.16
X3.0875Y-3.2025
X3.0875Y-3.2475
X3.095Y-2.755
X3.095Y-3.015
X3.095Y-3.0575
X3.095Y-3.1025
X3.099Y-2.57
X3.1Y-2.795
X3.1Y-2.8375
X3.105Y-2.16
X3.125Y-2.733
X3.1375Y-2.855
X3.14Y-2.24
X3.145Y-2.582
X3.145Y-3.0075
X3.15Y-2.625
X3.155Y-2.905
X3.155Y-2.965
X3.16Y-1.81
X3.166Y-2.733
X3.183Y-2.635
X3.185Y-3.405
X3.19Y-3.61
X3.195Y-2.3
X3.205Y-1.81
X3.21Y-2.728
X3.214Y-2.649
X3.214Y-2.686
X3.2376Y-2.773
X3.24Y-2.8145
X3.2525Y-2.3125
X3.2605Y-2.4855
X3.27Y-2.37
X3.278Y-2.8315
X3.3175Y-2.8315
X3.322Y-2.4865
X3.3535Y-2.8455
X3.3615Y-2.888
X3.366Y-2.4855
X3.4075Y-2.889
X3.4105Y-2.4835
X3.4414Y-1.8734
X3.4414Y-1.9434
X3.452Y-2.889
X3.4535Y-2.4835
X3.463Y-2.7685
X3.463Y-2.8095
X3.463Y-2.849
X3.493Y-2.4835
X3.5095Y-2.767
X3.5205Y-2.649
X3.5205Y-2.688
X3.5205Y-2.728
X3.535Y-2.4835
X3.547Y-2.437
X3.5564Y-2.0134
X3.574Y-3.406
X3.574Y-3.606
X3.5775Y-2.6335
X3.591Y-2.4215
X3.592Y-2.5865
X3.6064Y-1.8184
X3.6064Y-2.0284
X3.6375Y-2.5865
X3.6525Y-2.4215
X3.6785Y-2.5865
X3.7025Y-2.652
X3.7025Y-2.8155
X3.7125Y-2.484
X3.713Y-2.8525
X3.713Y-2.892
X3.713Y-2.9315
X3.713Y-2.9705
X3.713Y-3.013
X3.713Y-3.055
X3.713Y-3.0955
X3.713Y-3.135
X3.713Y-3.1755
X3.713Y-3.217
X3.713Y-3.263
X3.713Y-3.3065
X3.7205Y-2.5865
X3.77Y-2.483
X3.8014Y-1.9934
X3.8175Y-3.2555
X3.819Y-3.217
X3.82Y-3.178
X3.825Y-2.9975
X3.825Y-3.0365
X3.825Y-3.0755
X3.831Y-2.4135
X3.8414Y-1.9534
X3.8635Y-3.1725
X3.865Y-3.2615
X3.8685Y-3.0865
X3.869Y-2.9885
X3.874Y-3.308
X3.8825Y-2.8875
X3.8825Y-2.9475
X3.8865Y-3.1265
X3.9415Y-2.6715
X3.9464Y-1.8934
X3.957Y-3.406
X3.957Y-3.606
X4.119Y-2.7045
X4.1305Y-2.499
X4.176Y-2.621
T3
X1.925Y-1.938
X1.925Y-2.038
X1.925Y-2.138
X2.275Y-2.656
X2.375Y-2.656
X2.558Y-2.656
X2.658Y-2.656
X1.99Y-3.104
X1.99Y-3.204
X2.43Y-2.01
X2.43Y-2.11
X2.43Y-2.21
X2.43Y-2.31
X2.43Y-2.41
X2.43Y-2.51
X3.7905Y-2.215
X3.8905Y-2.215
X2.045Y-2.641
X2.045Y-2.741
T4
X2.0579Y-1.6075
X2.0579Y-1.7075
X2.1579Y-1.6075
X2.1579Y-1.7075
X2.2579Y-1.6075
X2.2579Y-1.7075
X2.3579Y-1.6075
X2.3579Y-1.7075
X2.4579Y-1.6075
X2.4579Y-1.7075
X2.5579Y-1.6075
X2.5579Y-1.7075
X2.6579Y-1.6075
X2.6579Y-1.7075
X2.7579Y-1.6075
X2.7579Y-1.7075
X2.8579Y-1.6075
X2.8579Y-1.7075
X2.9579Y-1.6075
X2.9579Y-1.7075
X3.0579Y-1.6075
X3.0579Y-1.7075
X3.1579Y-1.6075
X3.1579Y-1.7075
X3.2579Y-1.6075
X3.2579Y-1.7075
X3.3579Y-1.6075
X3.3579Y-1.7075
X3.4579Y-1.6075
X3.4579Y-1.7075
X3.5579Y-1.6075
X3.5579Y-1.7075
X3.6579Y-1.6075
X3.6579Y-1.7075
X3.7579Y-1.6075
X3.7579Y-1.7075
X3.8579Y-1.6075
X3.8579Y-1.7075
X3.9579Y-1.6075
X3.9579Y-1.7075
T5
X2.545Y-3.51
X2.9775Y-3.5075
X3.766Y-3.506
T6
X2.445Y-3.41
X2.445Y-3.61
X2.645Y-3.41
X2.645Y-3.61
X2.8775Y-3.4075
X2.8775Y-3.6075
X3.0775Y-3.4075
X3.0775Y-3.6075
X3.666Y-3.406
X3.666Y-3.606
X3.866Y-3.406
X3.866Y-3.606
T7
X1.8661Y-3.5866
X4.1496Y-3.5866
X1.8661Y-1.6575
X4.1496Y-1.6575
T0
M30
