G04 #@! TF.GenerationSoftware,KiCad,Pcbnew,5.0.1-33cea8e~67~ubuntu18.04.1*
G04 #@! TF.CreationDate,2018-10-19T14:06:38-05:00*
G04 #@! TF.ProjectId,PiHatAx5043,50694861744178353034332E6B696361,V1.3*
G04 #@! TF.SameCoordinates,Original*
G04 #@! TF.FileFunction,Paste,Top*
G04 #@! TF.FilePolarity,Positive*
%FSLAX46Y46*%
G04 Gerber Fmt 4.6, Leading zero omitted, Abs format (unit mm)*
G04 Created by KiCad (PCBNEW 5.0.1-33cea8e~67~ubuntu18.04.1) date Fri 19 Oct 2018 02:06:38 PM CDT*
%MOMM*%
%LPD*%
G01*
G04 APERTURE LIST*
%ADD10R,0.900000X0.900000*%
%ADD11R,0.800000X0.240000*%
%ADD12R,0.240000X0.800000*%
%ADD13R,0.800000X0.800000*%
%ADD14R,0.920000X1.120000*%
%ADD15R,0.650000X0.350000*%
%ADD16R,0.465000X0.720000*%
%ADD17R,0.800000X0.750000*%
%ADD18R,0.750000X0.800000*%
%ADD19R,0.900000X0.500000*%
%ADD20R,0.500000X0.900000*%
%ADD21C,0.100000*%
%ADD22C,0.875000*%
%ADD23C,0.710000*%
%ADD24C,0.250000*%
%ADD25R,0.800000X1.800000*%
%ADD26R,0.700000X1.800000*%
G04 APERTURE END LIST*
D10*
G04 #@! TO.C,U1*
X75946000Y-59880500D03*
D11*
X74675500Y-61380500D03*
X74675500Y-60880500D03*
X74675500Y-60380500D03*
X74675500Y-59880500D03*
X74675500Y-59380500D03*
X74675500Y-58880500D03*
X74675500Y-58380500D03*
D12*
X75525500Y-57530500D03*
X76025500Y-57530500D03*
X76525500Y-57530500D03*
X77025500Y-57530500D03*
X77525500Y-57530500D03*
X78025500Y-57530500D03*
X78525500Y-57530500D03*
D11*
X79375500Y-58380500D03*
X79375500Y-58880500D03*
X79375500Y-59380500D03*
X79375500Y-59880500D03*
X79375500Y-60380500D03*
X79375500Y-60880500D03*
X79375500Y-61380500D03*
D12*
X78525500Y-62230500D03*
X78025500Y-62230500D03*
X77525500Y-62230500D03*
X77025500Y-62230500D03*
X76525500Y-62230500D03*
X76025500Y-62230500D03*
X75525500Y-62230500D03*
D10*
X75946000Y-60960000D03*
X75946000Y-58801000D03*
X78105000Y-59880500D03*
X78105000Y-60960000D03*
X78105000Y-58801000D03*
X77025500Y-60960000D03*
X77025500Y-58801000D03*
X77025500Y-59880500D03*
G04 #@! TD*
D13*
G04 #@! TO.C,D1*
X55537000Y-49403000D03*
X53937000Y-49403000D03*
G04 #@! TD*
D14*
G04 #@! TO.C,Y1*
X68618000Y-63095000D03*
X68618000Y-60095000D03*
X67018000Y-60095000D03*
X67018000Y-63095000D03*
G04 #@! TD*
D15*
G04 #@! TO.C,U2*
X92211211Y-48132868D03*
X92211211Y-48782868D03*
X92211211Y-49432868D03*
X92211211Y-50082868D03*
X95311211Y-50082868D03*
X95311211Y-49432868D03*
X95311211Y-48782868D03*
X95311211Y-48132868D03*
D16*
X94148711Y-49707868D03*
X94148711Y-48507868D03*
X93373711Y-49707868D03*
X93373711Y-48507868D03*
G04 #@! TD*
D17*
G04 #@! TO.C,C1*
X74116500Y-83629500D03*
X75616500Y-83629500D03*
G04 #@! TD*
D18*
G04 #@! TO.C,C2*
X77152500Y-82347500D03*
X77152500Y-80847500D03*
G04 #@! TD*
D17*
G04 #@! TO.C,C3*
X74116500Y-79565500D03*
X75616500Y-79565500D03*
G04 #@! TD*
D18*
G04 #@! TO.C,C4*
X77406500Y-78283500D03*
X77406500Y-76783500D03*
G04 #@! TD*
D17*
G04 #@! TO.C,C5*
X75603800Y-73710800D03*
X74103800Y-73710800D03*
G04 #@! TD*
G04 #@! TO.C,C6*
X78918500Y-73723500D03*
X77418500Y-73723500D03*
G04 #@! TD*
D18*
G04 #@! TO.C,C7*
X75628500Y-69647500D03*
X75628500Y-68147500D03*
G04 #@! TD*
G04 #@! TO.C,C8*
X77406500Y-69647500D03*
X77406500Y-68147500D03*
G04 #@! TD*
D17*
G04 #@! TO.C,C9*
X72719500Y-63817500D03*
X74219500Y-63817500D03*
G04 #@! TD*
G04 #@! TO.C,C10*
X81090200Y-63474600D03*
X79590200Y-63474600D03*
G04 #@! TD*
D18*
G04 #@! TO.C,C11*
X72263000Y-56400000D03*
X72263000Y-57900000D03*
G04 #@! TD*
D17*
G04 #@! TO.C,C12*
X98829211Y-48091868D03*
X97329211Y-48091868D03*
G04 #@! TD*
D19*
G04 #@! TO.C,L1*
X75628500Y-80847500D03*
X75628500Y-82347500D03*
G04 #@! TD*
G04 #@! TO.C,L2*
X75628500Y-76783500D03*
X75628500Y-78283500D03*
G04 #@! TD*
D20*
G04 #@! TO.C,L3*
X78918500Y-75247500D03*
X77418500Y-75247500D03*
G04 #@! TD*
D19*
G04 #@! TO.C,L4*
X75628500Y-70941500D03*
X75628500Y-72441500D03*
G04 #@! TD*
G04 #@! TO.C,L5*
X77406500Y-70941500D03*
X77406500Y-72441500D03*
G04 #@! TD*
D20*
G04 #@! TO.C,L6*
X78918500Y-66611500D03*
X77418500Y-66611500D03*
G04 #@! TD*
G04 #@! TO.C,L7*
X75616500Y-66611500D03*
X74116500Y-66611500D03*
G04 #@! TD*
D19*
G04 #@! TO.C,L8*
X80975200Y-60667200D03*
X80975200Y-62167200D03*
G04 #@! TD*
D20*
G04 #@! TO.C,R1*
X58662000Y-61214000D03*
X57162000Y-61214000D03*
G04 #@! TD*
G04 #@! TO.C,R2*
X58662000Y-58674000D03*
X57162000Y-58674000D03*
G04 #@! TD*
G04 #@! TO.C,R3*
X88820211Y-47583868D03*
X90320211Y-47583868D03*
G04 #@! TD*
G04 #@! TO.C,R4*
X88820211Y-49361868D03*
X90320211Y-49361868D03*
G04 #@! TD*
G04 #@! TO.C,R5*
X53987000Y-51689000D03*
X55487000Y-51689000D03*
G04 #@! TD*
D21*
G04 #@! TO.C,C13*
G36*
X83767491Y-68600853D02*
X83788726Y-68604003D01*
X83809550Y-68609219D01*
X83829762Y-68616451D01*
X83849168Y-68625630D01*
X83867581Y-68636666D01*
X83884824Y-68649454D01*
X83900730Y-68663870D01*
X83915146Y-68679776D01*
X83927934Y-68697019D01*
X83938970Y-68715432D01*
X83948149Y-68734838D01*
X83955381Y-68755050D01*
X83960597Y-68775874D01*
X83963747Y-68797109D01*
X83964800Y-68818550D01*
X83964800Y-69256050D01*
X83963747Y-69277491D01*
X83960597Y-69298726D01*
X83955381Y-69319550D01*
X83948149Y-69339762D01*
X83938970Y-69359168D01*
X83927934Y-69377581D01*
X83915146Y-69394824D01*
X83900730Y-69410730D01*
X83884824Y-69425146D01*
X83867581Y-69437934D01*
X83849168Y-69448970D01*
X83829762Y-69458149D01*
X83809550Y-69465381D01*
X83788726Y-69470597D01*
X83767491Y-69473747D01*
X83746050Y-69474800D01*
X83233550Y-69474800D01*
X83212109Y-69473747D01*
X83190874Y-69470597D01*
X83170050Y-69465381D01*
X83149838Y-69458149D01*
X83130432Y-69448970D01*
X83112019Y-69437934D01*
X83094776Y-69425146D01*
X83078870Y-69410730D01*
X83064454Y-69394824D01*
X83051666Y-69377581D01*
X83040630Y-69359168D01*
X83031451Y-69339762D01*
X83024219Y-69319550D01*
X83019003Y-69298726D01*
X83015853Y-69277491D01*
X83014800Y-69256050D01*
X83014800Y-68818550D01*
X83015853Y-68797109D01*
X83019003Y-68775874D01*
X83024219Y-68755050D01*
X83031451Y-68734838D01*
X83040630Y-68715432D01*
X83051666Y-68697019D01*
X83064454Y-68679776D01*
X83078870Y-68663870D01*
X83094776Y-68649454D01*
X83112019Y-68636666D01*
X83130432Y-68625630D01*
X83149838Y-68616451D01*
X83170050Y-68609219D01*
X83190874Y-68604003D01*
X83212109Y-68600853D01*
X83233550Y-68599800D01*
X83746050Y-68599800D01*
X83767491Y-68600853D01*
X83767491Y-68600853D01*
G37*
D22*
X83489800Y-69037300D03*
D21*
G36*
X83767491Y-67025853D02*
X83788726Y-67029003D01*
X83809550Y-67034219D01*
X83829762Y-67041451D01*
X83849168Y-67050630D01*
X83867581Y-67061666D01*
X83884824Y-67074454D01*
X83900730Y-67088870D01*
X83915146Y-67104776D01*
X83927934Y-67122019D01*
X83938970Y-67140432D01*
X83948149Y-67159838D01*
X83955381Y-67180050D01*
X83960597Y-67200874D01*
X83963747Y-67222109D01*
X83964800Y-67243550D01*
X83964800Y-67681050D01*
X83963747Y-67702491D01*
X83960597Y-67723726D01*
X83955381Y-67744550D01*
X83948149Y-67764762D01*
X83938970Y-67784168D01*
X83927934Y-67802581D01*
X83915146Y-67819824D01*
X83900730Y-67835730D01*
X83884824Y-67850146D01*
X83867581Y-67862934D01*
X83849168Y-67873970D01*
X83829762Y-67883149D01*
X83809550Y-67890381D01*
X83788726Y-67895597D01*
X83767491Y-67898747D01*
X83746050Y-67899800D01*
X83233550Y-67899800D01*
X83212109Y-67898747D01*
X83190874Y-67895597D01*
X83170050Y-67890381D01*
X83149838Y-67883149D01*
X83130432Y-67873970D01*
X83112019Y-67862934D01*
X83094776Y-67850146D01*
X83078870Y-67835730D01*
X83064454Y-67819824D01*
X83051666Y-67802581D01*
X83040630Y-67784168D01*
X83031451Y-67764762D01*
X83024219Y-67744550D01*
X83019003Y-67723726D01*
X83015853Y-67702491D01*
X83014800Y-67681050D01*
X83014800Y-67243550D01*
X83015853Y-67222109D01*
X83019003Y-67200874D01*
X83024219Y-67180050D01*
X83031451Y-67159838D01*
X83040630Y-67140432D01*
X83051666Y-67122019D01*
X83064454Y-67104776D01*
X83078870Y-67088870D01*
X83094776Y-67074454D01*
X83112019Y-67061666D01*
X83130432Y-67050630D01*
X83149838Y-67041451D01*
X83170050Y-67034219D01*
X83190874Y-67029003D01*
X83212109Y-67025853D01*
X83233550Y-67024800D01*
X83746050Y-67024800D01*
X83767491Y-67025853D01*
X83767491Y-67025853D01*
G37*
D22*
X83489800Y-67462300D03*
G04 #@! TD*
D21*
G04 #@! TO.C,C14*
G36*
X86840891Y-70099353D02*
X86862126Y-70102503D01*
X86882950Y-70107719D01*
X86903162Y-70114951D01*
X86922568Y-70124130D01*
X86940981Y-70135166D01*
X86958224Y-70147954D01*
X86974130Y-70162370D01*
X86988546Y-70178276D01*
X87001334Y-70195519D01*
X87012370Y-70213932D01*
X87021549Y-70233338D01*
X87028781Y-70253550D01*
X87033997Y-70274374D01*
X87037147Y-70295609D01*
X87038200Y-70317050D01*
X87038200Y-70754550D01*
X87037147Y-70775991D01*
X87033997Y-70797226D01*
X87028781Y-70818050D01*
X87021549Y-70838262D01*
X87012370Y-70857668D01*
X87001334Y-70876081D01*
X86988546Y-70893324D01*
X86974130Y-70909230D01*
X86958224Y-70923646D01*
X86940981Y-70936434D01*
X86922568Y-70947470D01*
X86903162Y-70956649D01*
X86882950Y-70963881D01*
X86862126Y-70969097D01*
X86840891Y-70972247D01*
X86819450Y-70973300D01*
X86306950Y-70973300D01*
X86285509Y-70972247D01*
X86264274Y-70969097D01*
X86243450Y-70963881D01*
X86223238Y-70956649D01*
X86203832Y-70947470D01*
X86185419Y-70936434D01*
X86168176Y-70923646D01*
X86152270Y-70909230D01*
X86137854Y-70893324D01*
X86125066Y-70876081D01*
X86114030Y-70857668D01*
X86104851Y-70838262D01*
X86097619Y-70818050D01*
X86092403Y-70797226D01*
X86089253Y-70775991D01*
X86088200Y-70754550D01*
X86088200Y-70317050D01*
X86089253Y-70295609D01*
X86092403Y-70274374D01*
X86097619Y-70253550D01*
X86104851Y-70233338D01*
X86114030Y-70213932D01*
X86125066Y-70195519D01*
X86137854Y-70178276D01*
X86152270Y-70162370D01*
X86168176Y-70147954D01*
X86185419Y-70135166D01*
X86203832Y-70124130D01*
X86223238Y-70114951D01*
X86243450Y-70107719D01*
X86264274Y-70102503D01*
X86285509Y-70099353D01*
X86306950Y-70098300D01*
X86819450Y-70098300D01*
X86840891Y-70099353D01*
X86840891Y-70099353D01*
G37*
D22*
X86563200Y-70535800D03*
D21*
G36*
X86840891Y-71674353D02*
X86862126Y-71677503D01*
X86882950Y-71682719D01*
X86903162Y-71689951D01*
X86922568Y-71699130D01*
X86940981Y-71710166D01*
X86958224Y-71722954D01*
X86974130Y-71737370D01*
X86988546Y-71753276D01*
X87001334Y-71770519D01*
X87012370Y-71788932D01*
X87021549Y-71808338D01*
X87028781Y-71828550D01*
X87033997Y-71849374D01*
X87037147Y-71870609D01*
X87038200Y-71892050D01*
X87038200Y-72329550D01*
X87037147Y-72350991D01*
X87033997Y-72372226D01*
X87028781Y-72393050D01*
X87021549Y-72413262D01*
X87012370Y-72432668D01*
X87001334Y-72451081D01*
X86988546Y-72468324D01*
X86974130Y-72484230D01*
X86958224Y-72498646D01*
X86940981Y-72511434D01*
X86922568Y-72522470D01*
X86903162Y-72531649D01*
X86882950Y-72538881D01*
X86862126Y-72544097D01*
X86840891Y-72547247D01*
X86819450Y-72548300D01*
X86306950Y-72548300D01*
X86285509Y-72547247D01*
X86264274Y-72544097D01*
X86243450Y-72538881D01*
X86223238Y-72531649D01*
X86203832Y-72522470D01*
X86185419Y-72511434D01*
X86168176Y-72498646D01*
X86152270Y-72484230D01*
X86137854Y-72468324D01*
X86125066Y-72451081D01*
X86114030Y-72432668D01*
X86104851Y-72413262D01*
X86097619Y-72393050D01*
X86092403Y-72372226D01*
X86089253Y-72350991D01*
X86088200Y-72329550D01*
X86088200Y-71892050D01*
X86089253Y-71870609D01*
X86092403Y-71849374D01*
X86097619Y-71828550D01*
X86104851Y-71808338D01*
X86114030Y-71788932D01*
X86125066Y-71770519D01*
X86137854Y-71753276D01*
X86152270Y-71737370D01*
X86168176Y-71722954D01*
X86185419Y-71710166D01*
X86203832Y-71699130D01*
X86223238Y-71689951D01*
X86243450Y-71682719D01*
X86264274Y-71677503D01*
X86285509Y-71674353D01*
X86306950Y-71673300D01*
X86819450Y-71673300D01*
X86840891Y-71674353D01*
X86840891Y-71674353D01*
G37*
D22*
X86563200Y-72110800D03*
G04 #@! TD*
D21*
G04 #@! TO.C,C15*
G36*
X83094391Y-63990553D02*
X83115626Y-63993703D01*
X83136450Y-63998919D01*
X83156662Y-64006151D01*
X83176068Y-64015330D01*
X83194481Y-64026366D01*
X83211724Y-64039154D01*
X83227630Y-64053570D01*
X83242046Y-64069476D01*
X83254834Y-64086719D01*
X83265870Y-64105132D01*
X83275049Y-64124538D01*
X83282281Y-64144750D01*
X83287497Y-64165574D01*
X83290647Y-64186809D01*
X83291700Y-64208250D01*
X83291700Y-64645750D01*
X83290647Y-64667191D01*
X83287497Y-64688426D01*
X83282281Y-64709250D01*
X83275049Y-64729462D01*
X83265870Y-64748868D01*
X83254834Y-64767281D01*
X83242046Y-64784524D01*
X83227630Y-64800430D01*
X83211724Y-64814846D01*
X83194481Y-64827634D01*
X83176068Y-64838670D01*
X83156662Y-64847849D01*
X83136450Y-64855081D01*
X83115626Y-64860297D01*
X83094391Y-64863447D01*
X83072950Y-64864500D01*
X82560450Y-64864500D01*
X82539009Y-64863447D01*
X82517774Y-64860297D01*
X82496950Y-64855081D01*
X82476738Y-64847849D01*
X82457332Y-64838670D01*
X82438919Y-64827634D01*
X82421676Y-64814846D01*
X82405770Y-64800430D01*
X82391354Y-64784524D01*
X82378566Y-64767281D01*
X82367530Y-64748868D01*
X82358351Y-64729462D01*
X82351119Y-64709250D01*
X82345903Y-64688426D01*
X82342753Y-64667191D01*
X82341700Y-64645750D01*
X82341700Y-64208250D01*
X82342753Y-64186809D01*
X82345903Y-64165574D01*
X82351119Y-64144750D01*
X82358351Y-64124538D01*
X82367530Y-64105132D01*
X82378566Y-64086719D01*
X82391354Y-64069476D01*
X82405770Y-64053570D01*
X82421676Y-64039154D01*
X82438919Y-64026366D01*
X82457332Y-64015330D01*
X82476738Y-64006151D01*
X82496950Y-63998919D01*
X82517774Y-63993703D01*
X82539009Y-63990553D01*
X82560450Y-63989500D01*
X83072950Y-63989500D01*
X83094391Y-63990553D01*
X83094391Y-63990553D01*
G37*
D22*
X82816700Y-64427000D03*
D21*
G36*
X83094391Y-65565553D02*
X83115626Y-65568703D01*
X83136450Y-65573919D01*
X83156662Y-65581151D01*
X83176068Y-65590330D01*
X83194481Y-65601366D01*
X83211724Y-65614154D01*
X83227630Y-65628570D01*
X83242046Y-65644476D01*
X83254834Y-65661719D01*
X83265870Y-65680132D01*
X83275049Y-65699538D01*
X83282281Y-65719750D01*
X83287497Y-65740574D01*
X83290647Y-65761809D01*
X83291700Y-65783250D01*
X83291700Y-66220750D01*
X83290647Y-66242191D01*
X83287497Y-66263426D01*
X83282281Y-66284250D01*
X83275049Y-66304462D01*
X83265870Y-66323868D01*
X83254834Y-66342281D01*
X83242046Y-66359524D01*
X83227630Y-66375430D01*
X83211724Y-66389846D01*
X83194481Y-66402634D01*
X83176068Y-66413670D01*
X83156662Y-66422849D01*
X83136450Y-66430081D01*
X83115626Y-66435297D01*
X83094391Y-66438447D01*
X83072950Y-66439500D01*
X82560450Y-66439500D01*
X82539009Y-66438447D01*
X82517774Y-66435297D01*
X82496950Y-66430081D01*
X82476738Y-66422849D01*
X82457332Y-66413670D01*
X82438919Y-66402634D01*
X82421676Y-66389846D01*
X82405770Y-66375430D01*
X82391354Y-66359524D01*
X82378566Y-66342281D01*
X82367530Y-66323868D01*
X82358351Y-66304462D01*
X82351119Y-66284250D01*
X82345903Y-66263426D01*
X82342753Y-66242191D01*
X82341700Y-66220750D01*
X82341700Y-65783250D01*
X82342753Y-65761809D01*
X82345903Y-65740574D01*
X82351119Y-65719750D01*
X82358351Y-65699538D01*
X82367530Y-65680132D01*
X82378566Y-65661719D01*
X82391354Y-65644476D01*
X82405770Y-65628570D01*
X82421676Y-65614154D01*
X82438919Y-65601366D01*
X82457332Y-65590330D01*
X82476738Y-65581151D01*
X82496950Y-65573919D01*
X82517774Y-65568703D01*
X82539009Y-65565553D01*
X82560450Y-65564500D01*
X83072950Y-65564500D01*
X83094391Y-65565553D01*
X83094391Y-65565553D01*
G37*
D22*
X82816700Y-66002000D03*
G04 #@! TD*
D21*
G04 #@! TO.C,C16*
G36*
X88378291Y-68563253D02*
X88399526Y-68566403D01*
X88420350Y-68571619D01*
X88440562Y-68578851D01*
X88459968Y-68588030D01*
X88478381Y-68599066D01*
X88495624Y-68611854D01*
X88511530Y-68626270D01*
X88525946Y-68642176D01*
X88538734Y-68659419D01*
X88549770Y-68677832D01*
X88558949Y-68697238D01*
X88566181Y-68717450D01*
X88571397Y-68738274D01*
X88574547Y-68759509D01*
X88575600Y-68780950D01*
X88575600Y-69293450D01*
X88574547Y-69314891D01*
X88571397Y-69336126D01*
X88566181Y-69356950D01*
X88558949Y-69377162D01*
X88549770Y-69396568D01*
X88538734Y-69414981D01*
X88525946Y-69432224D01*
X88511530Y-69448130D01*
X88495624Y-69462546D01*
X88478381Y-69475334D01*
X88459968Y-69486370D01*
X88440562Y-69495549D01*
X88420350Y-69502781D01*
X88399526Y-69507997D01*
X88378291Y-69511147D01*
X88356850Y-69512200D01*
X87919350Y-69512200D01*
X87897909Y-69511147D01*
X87876674Y-69507997D01*
X87855850Y-69502781D01*
X87835638Y-69495549D01*
X87816232Y-69486370D01*
X87797819Y-69475334D01*
X87780576Y-69462546D01*
X87764670Y-69448130D01*
X87750254Y-69432224D01*
X87737466Y-69414981D01*
X87726430Y-69396568D01*
X87717251Y-69377162D01*
X87710019Y-69356950D01*
X87704803Y-69336126D01*
X87701653Y-69314891D01*
X87700600Y-69293450D01*
X87700600Y-68780950D01*
X87701653Y-68759509D01*
X87704803Y-68738274D01*
X87710019Y-68717450D01*
X87717251Y-68697238D01*
X87726430Y-68677832D01*
X87737466Y-68659419D01*
X87750254Y-68642176D01*
X87764670Y-68626270D01*
X87780576Y-68611854D01*
X87797819Y-68599066D01*
X87816232Y-68588030D01*
X87835638Y-68578851D01*
X87855850Y-68571619D01*
X87876674Y-68566403D01*
X87897909Y-68563253D01*
X87919350Y-68562200D01*
X88356850Y-68562200D01*
X88378291Y-68563253D01*
X88378291Y-68563253D01*
G37*
D22*
X88138100Y-69037200D03*
D21*
G36*
X86803291Y-68563253D02*
X86824526Y-68566403D01*
X86845350Y-68571619D01*
X86865562Y-68578851D01*
X86884968Y-68588030D01*
X86903381Y-68599066D01*
X86920624Y-68611854D01*
X86936530Y-68626270D01*
X86950946Y-68642176D01*
X86963734Y-68659419D01*
X86974770Y-68677832D01*
X86983949Y-68697238D01*
X86991181Y-68717450D01*
X86996397Y-68738274D01*
X86999547Y-68759509D01*
X87000600Y-68780950D01*
X87000600Y-69293450D01*
X86999547Y-69314891D01*
X86996397Y-69336126D01*
X86991181Y-69356950D01*
X86983949Y-69377162D01*
X86974770Y-69396568D01*
X86963734Y-69414981D01*
X86950946Y-69432224D01*
X86936530Y-69448130D01*
X86920624Y-69462546D01*
X86903381Y-69475334D01*
X86884968Y-69486370D01*
X86865562Y-69495549D01*
X86845350Y-69502781D01*
X86824526Y-69507997D01*
X86803291Y-69511147D01*
X86781850Y-69512200D01*
X86344350Y-69512200D01*
X86322909Y-69511147D01*
X86301674Y-69507997D01*
X86280850Y-69502781D01*
X86260638Y-69495549D01*
X86241232Y-69486370D01*
X86222819Y-69475334D01*
X86205576Y-69462546D01*
X86189670Y-69448130D01*
X86175254Y-69432224D01*
X86162466Y-69414981D01*
X86151430Y-69396568D01*
X86142251Y-69377162D01*
X86135019Y-69356950D01*
X86129803Y-69336126D01*
X86126653Y-69314891D01*
X86125600Y-69293450D01*
X86125600Y-68780950D01*
X86126653Y-68759509D01*
X86129803Y-68738274D01*
X86135019Y-68717450D01*
X86142251Y-68697238D01*
X86151430Y-68677832D01*
X86162466Y-68659419D01*
X86175254Y-68642176D01*
X86189670Y-68626270D01*
X86205576Y-68611854D01*
X86222819Y-68599066D01*
X86241232Y-68588030D01*
X86260638Y-68578851D01*
X86280850Y-68571619D01*
X86301674Y-68566403D01*
X86322909Y-68563253D01*
X86344350Y-68562200D01*
X86781850Y-68562200D01*
X86803291Y-68563253D01*
X86803291Y-68563253D01*
G37*
D22*
X86563100Y-69037200D03*
G04 #@! TD*
D21*
G04 #@! TO.C,C17*
G36*
X86904391Y-63939753D02*
X86925626Y-63942903D01*
X86946450Y-63948119D01*
X86966662Y-63955351D01*
X86986068Y-63964530D01*
X87004481Y-63975566D01*
X87021724Y-63988354D01*
X87037630Y-64002770D01*
X87052046Y-64018676D01*
X87064834Y-64035919D01*
X87075870Y-64054332D01*
X87085049Y-64073738D01*
X87092281Y-64093950D01*
X87097497Y-64114774D01*
X87100647Y-64136009D01*
X87101700Y-64157450D01*
X87101700Y-64594950D01*
X87100647Y-64616391D01*
X87097497Y-64637626D01*
X87092281Y-64658450D01*
X87085049Y-64678662D01*
X87075870Y-64698068D01*
X87064834Y-64716481D01*
X87052046Y-64733724D01*
X87037630Y-64749630D01*
X87021724Y-64764046D01*
X87004481Y-64776834D01*
X86986068Y-64787870D01*
X86966662Y-64797049D01*
X86946450Y-64804281D01*
X86925626Y-64809497D01*
X86904391Y-64812647D01*
X86882950Y-64813700D01*
X86370450Y-64813700D01*
X86349009Y-64812647D01*
X86327774Y-64809497D01*
X86306950Y-64804281D01*
X86286738Y-64797049D01*
X86267332Y-64787870D01*
X86248919Y-64776834D01*
X86231676Y-64764046D01*
X86215770Y-64749630D01*
X86201354Y-64733724D01*
X86188566Y-64716481D01*
X86177530Y-64698068D01*
X86168351Y-64678662D01*
X86161119Y-64658450D01*
X86155903Y-64637626D01*
X86152753Y-64616391D01*
X86151700Y-64594950D01*
X86151700Y-64157450D01*
X86152753Y-64136009D01*
X86155903Y-64114774D01*
X86161119Y-64093950D01*
X86168351Y-64073738D01*
X86177530Y-64054332D01*
X86188566Y-64035919D01*
X86201354Y-64018676D01*
X86215770Y-64002770D01*
X86231676Y-63988354D01*
X86248919Y-63975566D01*
X86267332Y-63964530D01*
X86286738Y-63955351D01*
X86306950Y-63948119D01*
X86327774Y-63942903D01*
X86349009Y-63939753D01*
X86370450Y-63938700D01*
X86882950Y-63938700D01*
X86904391Y-63939753D01*
X86904391Y-63939753D01*
G37*
D22*
X86626700Y-64376200D03*
D21*
G36*
X86904391Y-65514753D02*
X86925626Y-65517903D01*
X86946450Y-65523119D01*
X86966662Y-65530351D01*
X86986068Y-65539530D01*
X87004481Y-65550566D01*
X87021724Y-65563354D01*
X87037630Y-65577770D01*
X87052046Y-65593676D01*
X87064834Y-65610919D01*
X87075870Y-65629332D01*
X87085049Y-65648738D01*
X87092281Y-65668950D01*
X87097497Y-65689774D01*
X87100647Y-65711009D01*
X87101700Y-65732450D01*
X87101700Y-66169950D01*
X87100647Y-66191391D01*
X87097497Y-66212626D01*
X87092281Y-66233450D01*
X87085049Y-66253662D01*
X87075870Y-66273068D01*
X87064834Y-66291481D01*
X87052046Y-66308724D01*
X87037630Y-66324630D01*
X87021724Y-66339046D01*
X87004481Y-66351834D01*
X86986068Y-66362870D01*
X86966662Y-66372049D01*
X86946450Y-66379281D01*
X86925626Y-66384497D01*
X86904391Y-66387647D01*
X86882950Y-66388700D01*
X86370450Y-66388700D01*
X86349009Y-66387647D01*
X86327774Y-66384497D01*
X86306950Y-66379281D01*
X86286738Y-66372049D01*
X86267332Y-66362870D01*
X86248919Y-66351834D01*
X86231676Y-66339046D01*
X86215770Y-66324630D01*
X86201354Y-66308724D01*
X86188566Y-66291481D01*
X86177530Y-66273068D01*
X86168351Y-66253662D01*
X86161119Y-66233450D01*
X86155903Y-66212626D01*
X86152753Y-66191391D01*
X86151700Y-66169950D01*
X86151700Y-65732450D01*
X86152753Y-65711009D01*
X86155903Y-65689774D01*
X86161119Y-65668950D01*
X86168351Y-65648738D01*
X86177530Y-65629332D01*
X86188566Y-65610919D01*
X86201354Y-65593676D01*
X86215770Y-65577770D01*
X86231676Y-65563354D01*
X86248919Y-65550566D01*
X86267332Y-65539530D01*
X86286738Y-65530351D01*
X86306950Y-65523119D01*
X86327774Y-65517903D01*
X86349009Y-65514753D01*
X86370450Y-65513700D01*
X86882950Y-65513700D01*
X86904391Y-65514753D01*
X86904391Y-65514753D01*
G37*
D22*
X86626700Y-65951200D03*
G04 #@! TD*
D21*
G04 #@! TO.C,C18*
G36*
X89953091Y-65477153D02*
X89974326Y-65480303D01*
X89995150Y-65485519D01*
X90015362Y-65492751D01*
X90034768Y-65501930D01*
X90053181Y-65512966D01*
X90070424Y-65525754D01*
X90086330Y-65540170D01*
X90100746Y-65556076D01*
X90113534Y-65573319D01*
X90124570Y-65591732D01*
X90133749Y-65611138D01*
X90140981Y-65631350D01*
X90146197Y-65652174D01*
X90149347Y-65673409D01*
X90150400Y-65694850D01*
X90150400Y-66207350D01*
X90149347Y-66228791D01*
X90146197Y-66250026D01*
X90140981Y-66270850D01*
X90133749Y-66291062D01*
X90124570Y-66310468D01*
X90113534Y-66328881D01*
X90100746Y-66346124D01*
X90086330Y-66362030D01*
X90070424Y-66376446D01*
X90053181Y-66389234D01*
X90034768Y-66400270D01*
X90015362Y-66409449D01*
X89995150Y-66416681D01*
X89974326Y-66421897D01*
X89953091Y-66425047D01*
X89931650Y-66426100D01*
X89494150Y-66426100D01*
X89472709Y-66425047D01*
X89451474Y-66421897D01*
X89430650Y-66416681D01*
X89410438Y-66409449D01*
X89391032Y-66400270D01*
X89372619Y-66389234D01*
X89355376Y-66376446D01*
X89339470Y-66362030D01*
X89325054Y-66346124D01*
X89312266Y-66328881D01*
X89301230Y-66310468D01*
X89292051Y-66291062D01*
X89284819Y-66270850D01*
X89279603Y-66250026D01*
X89276453Y-66228791D01*
X89275400Y-66207350D01*
X89275400Y-65694850D01*
X89276453Y-65673409D01*
X89279603Y-65652174D01*
X89284819Y-65631350D01*
X89292051Y-65611138D01*
X89301230Y-65591732D01*
X89312266Y-65573319D01*
X89325054Y-65556076D01*
X89339470Y-65540170D01*
X89355376Y-65525754D01*
X89372619Y-65512966D01*
X89391032Y-65501930D01*
X89410438Y-65492751D01*
X89430650Y-65485519D01*
X89451474Y-65480303D01*
X89472709Y-65477153D01*
X89494150Y-65476100D01*
X89931650Y-65476100D01*
X89953091Y-65477153D01*
X89953091Y-65477153D01*
G37*
D22*
X89712900Y-65951100D03*
D21*
G36*
X88378091Y-65477153D02*
X88399326Y-65480303D01*
X88420150Y-65485519D01*
X88440362Y-65492751D01*
X88459768Y-65501930D01*
X88478181Y-65512966D01*
X88495424Y-65525754D01*
X88511330Y-65540170D01*
X88525746Y-65556076D01*
X88538534Y-65573319D01*
X88549570Y-65591732D01*
X88558749Y-65611138D01*
X88565981Y-65631350D01*
X88571197Y-65652174D01*
X88574347Y-65673409D01*
X88575400Y-65694850D01*
X88575400Y-66207350D01*
X88574347Y-66228791D01*
X88571197Y-66250026D01*
X88565981Y-66270850D01*
X88558749Y-66291062D01*
X88549570Y-66310468D01*
X88538534Y-66328881D01*
X88525746Y-66346124D01*
X88511330Y-66362030D01*
X88495424Y-66376446D01*
X88478181Y-66389234D01*
X88459768Y-66400270D01*
X88440362Y-66409449D01*
X88420150Y-66416681D01*
X88399326Y-66421897D01*
X88378091Y-66425047D01*
X88356650Y-66426100D01*
X87919150Y-66426100D01*
X87897709Y-66425047D01*
X87876474Y-66421897D01*
X87855650Y-66416681D01*
X87835438Y-66409449D01*
X87816032Y-66400270D01*
X87797619Y-66389234D01*
X87780376Y-66376446D01*
X87764470Y-66362030D01*
X87750054Y-66346124D01*
X87737266Y-66328881D01*
X87726230Y-66310468D01*
X87717051Y-66291062D01*
X87709819Y-66270850D01*
X87704603Y-66250026D01*
X87701453Y-66228791D01*
X87700400Y-66207350D01*
X87700400Y-65694850D01*
X87701453Y-65673409D01*
X87704603Y-65652174D01*
X87709819Y-65631350D01*
X87717051Y-65611138D01*
X87726230Y-65591732D01*
X87737266Y-65573319D01*
X87750054Y-65556076D01*
X87764470Y-65540170D01*
X87780376Y-65525754D01*
X87797619Y-65512966D01*
X87816032Y-65501930D01*
X87835438Y-65492751D01*
X87855650Y-65485519D01*
X87876474Y-65480303D01*
X87897709Y-65477153D01*
X87919150Y-65476100D01*
X88356650Y-65476100D01*
X88378091Y-65477153D01*
X88378091Y-65477153D01*
G37*
D22*
X88137900Y-65951100D03*
G04 #@! TD*
D21*
G04 #@! TO.C,C19*
G36*
X91501791Y-62415753D02*
X91523026Y-62418903D01*
X91543850Y-62424119D01*
X91564062Y-62431351D01*
X91583468Y-62440530D01*
X91601881Y-62451566D01*
X91619124Y-62464354D01*
X91635030Y-62478770D01*
X91649446Y-62494676D01*
X91662234Y-62511919D01*
X91673270Y-62530332D01*
X91682449Y-62549738D01*
X91689681Y-62569950D01*
X91694897Y-62590774D01*
X91698047Y-62612009D01*
X91699100Y-62633450D01*
X91699100Y-63070950D01*
X91698047Y-63092391D01*
X91694897Y-63113626D01*
X91689681Y-63134450D01*
X91682449Y-63154662D01*
X91673270Y-63174068D01*
X91662234Y-63192481D01*
X91649446Y-63209724D01*
X91635030Y-63225630D01*
X91619124Y-63240046D01*
X91601881Y-63252834D01*
X91583468Y-63263870D01*
X91564062Y-63273049D01*
X91543850Y-63280281D01*
X91523026Y-63285497D01*
X91501791Y-63288647D01*
X91480350Y-63289700D01*
X90967850Y-63289700D01*
X90946409Y-63288647D01*
X90925174Y-63285497D01*
X90904350Y-63280281D01*
X90884138Y-63273049D01*
X90864732Y-63263870D01*
X90846319Y-63252834D01*
X90829076Y-63240046D01*
X90813170Y-63225630D01*
X90798754Y-63209724D01*
X90785966Y-63192481D01*
X90774930Y-63174068D01*
X90765751Y-63154662D01*
X90758519Y-63134450D01*
X90753303Y-63113626D01*
X90750153Y-63092391D01*
X90749100Y-63070950D01*
X90749100Y-62633450D01*
X90750153Y-62612009D01*
X90753303Y-62590774D01*
X90758519Y-62569950D01*
X90765751Y-62549738D01*
X90774930Y-62530332D01*
X90785966Y-62511919D01*
X90798754Y-62494676D01*
X90813170Y-62478770D01*
X90829076Y-62464354D01*
X90846319Y-62451566D01*
X90864732Y-62440530D01*
X90884138Y-62431351D01*
X90904350Y-62424119D01*
X90925174Y-62418903D01*
X90946409Y-62415753D01*
X90967850Y-62414700D01*
X91480350Y-62414700D01*
X91501791Y-62415753D01*
X91501791Y-62415753D01*
G37*
D22*
X91224100Y-62852200D03*
D21*
G36*
X91501791Y-63990753D02*
X91523026Y-63993903D01*
X91543850Y-63999119D01*
X91564062Y-64006351D01*
X91583468Y-64015530D01*
X91601881Y-64026566D01*
X91619124Y-64039354D01*
X91635030Y-64053770D01*
X91649446Y-64069676D01*
X91662234Y-64086919D01*
X91673270Y-64105332D01*
X91682449Y-64124738D01*
X91689681Y-64144950D01*
X91694897Y-64165774D01*
X91698047Y-64187009D01*
X91699100Y-64208450D01*
X91699100Y-64645950D01*
X91698047Y-64667391D01*
X91694897Y-64688626D01*
X91689681Y-64709450D01*
X91682449Y-64729662D01*
X91673270Y-64749068D01*
X91662234Y-64767481D01*
X91649446Y-64784724D01*
X91635030Y-64800630D01*
X91619124Y-64815046D01*
X91601881Y-64827834D01*
X91583468Y-64838870D01*
X91564062Y-64848049D01*
X91543850Y-64855281D01*
X91523026Y-64860497D01*
X91501791Y-64863647D01*
X91480350Y-64864700D01*
X90967850Y-64864700D01*
X90946409Y-64863647D01*
X90925174Y-64860497D01*
X90904350Y-64855281D01*
X90884138Y-64848049D01*
X90864732Y-64838870D01*
X90846319Y-64827834D01*
X90829076Y-64815046D01*
X90813170Y-64800630D01*
X90798754Y-64784724D01*
X90785966Y-64767481D01*
X90774930Y-64749068D01*
X90765751Y-64729662D01*
X90758519Y-64709450D01*
X90753303Y-64688626D01*
X90750153Y-64667391D01*
X90749100Y-64645950D01*
X90749100Y-64208450D01*
X90750153Y-64187009D01*
X90753303Y-64165774D01*
X90758519Y-64144950D01*
X90765751Y-64124738D01*
X90774930Y-64105332D01*
X90785966Y-64086919D01*
X90798754Y-64069676D01*
X90813170Y-64053770D01*
X90829076Y-64039354D01*
X90846319Y-64026566D01*
X90864732Y-64015530D01*
X90884138Y-64006351D01*
X90904350Y-63999119D01*
X90925174Y-63993903D01*
X90946409Y-63990753D01*
X90967850Y-63989700D01*
X91480350Y-63989700D01*
X91501791Y-63990753D01*
X91501791Y-63990753D01*
G37*
D22*
X91224100Y-64427200D03*
G04 #@! TD*
D21*
G04 #@! TO.C,C20*
G36*
X97597791Y-63812953D02*
X97619026Y-63816103D01*
X97639850Y-63821319D01*
X97660062Y-63828551D01*
X97679468Y-63837730D01*
X97697881Y-63848766D01*
X97715124Y-63861554D01*
X97731030Y-63875970D01*
X97745446Y-63891876D01*
X97758234Y-63909119D01*
X97769270Y-63927532D01*
X97778449Y-63946938D01*
X97785681Y-63967150D01*
X97790897Y-63987974D01*
X97794047Y-64009209D01*
X97795100Y-64030650D01*
X97795100Y-64468150D01*
X97794047Y-64489591D01*
X97790897Y-64510826D01*
X97785681Y-64531650D01*
X97778449Y-64551862D01*
X97769270Y-64571268D01*
X97758234Y-64589681D01*
X97745446Y-64606924D01*
X97731030Y-64622830D01*
X97715124Y-64637246D01*
X97697881Y-64650034D01*
X97679468Y-64661070D01*
X97660062Y-64670249D01*
X97639850Y-64677481D01*
X97619026Y-64682697D01*
X97597791Y-64685847D01*
X97576350Y-64686900D01*
X97063850Y-64686900D01*
X97042409Y-64685847D01*
X97021174Y-64682697D01*
X97000350Y-64677481D01*
X96980138Y-64670249D01*
X96960732Y-64661070D01*
X96942319Y-64650034D01*
X96925076Y-64637246D01*
X96909170Y-64622830D01*
X96894754Y-64606924D01*
X96881966Y-64589681D01*
X96870930Y-64571268D01*
X96861751Y-64551862D01*
X96854519Y-64531650D01*
X96849303Y-64510826D01*
X96846153Y-64489591D01*
X96845100Y-64468150D01*
X96845100Y-64030650D01*
X96846153Y-64009209D01*
X96849303Y-63987974D01*
X96854519Y-63967150D01*
X96861751Y-63946938D01*
X96870930Y-63927532D01*
X96881966Y-63909119D01*
X96894754Y-63891876D01*
X96909170Y-63875970D01*
X96925076Y-63861554D01*
X96942319Y-63848766D01*
X96960732Y-63837730D01*
X96980138Y-63828551D01*
X97000350Y-63821319D01*
X97021174Y-63816103D01*
X97042409Y-63812953D01*
X97063850Y-63811900D01*
X97576350Y-63811900D01*
X97597791Y-63812953D01*
X97597791Y-63812953D01*
G37*
D22*
X97320100Y-64249400D03*
D21*
G36*
X97597791Y-62237953D02*
X97619026Y-62241103D01*
X97639850Y-62246319D01*
X97660062Y-62253551D01*
X97679468Y-62262730D01*
X97697881Y-62273766D01*
X97715124Y-62286554D01*
X97731030Y-62300970D01*
X97745446Y-62316876D01*
X97758234Y-62334119D01*
X97769270Y-62352532D01*
X97778449Y-62371938D01*
X97785681Y-62392150D01*
X97790897Y-62412974D01*
X97794047Y-62434209D01*
X97795100Y-62455650D01*
X97795100Y-62893150D01*
X97794047Y-62914591D01*
X97790897Y-62935826D01*
X97785681Y-62956650D01*
X97778449Y-62976862D01*
X97769270Y-62996268D01*
X97758234Y-63014681D01*
X97745446Y-63031924D01*
X97731030Y-63047830D01*
X97715124Y-63062246D01*
X97697881Y-63075034D01*
X97679468Y-63086070D01*
X97660062Y-63095249D01*
X97639850Y-63102481D01*
X97619026Y-63107697D01*
X97597791Y-63110847D01*
X97576350Y-63111900D01*
X97063850Y-63111900D01*
X97042409Y-63110847D01*
X97021174Y-63107697D01*
X97000350Y-63102481D01*
X96980138Y-63095249D01*
X96960732Y-63086070D01*
X96942319Y-63075034D01*
X96925076Y-63062246D01*
X96909170Y-63047830D01*
X96894754Y-63031924D01*
X96881966Y-63014681D01*
X96870930Y-62996268D01*
X96861751Y-62976862D01*
X96854519Y-62956650D01*
X96849303Y-62935826D01*
X96846153Y-62914591D01*
X96845100Y-62893150D01*
X96845100Y-62455650D01*
X96846153Y-62434209D01*
X96849303Y-62412974D01*
X96854519Y-62392150D01*
X96861751Y-62371938D01*
X96870930Y-62352532D01*
X96881966Y-62334119D01*
X96894754Y-62316876D01*
X96909170Y-62300970D01*
X96925076Y-62286554D01*
X96942319Y-62273766D01*
X96960732Y-62262730D01*
X96980138Y-62253551D01*
X97000350Y-62246319D01*
X97021174Y-62241103D01*
X97042409Y-62237953D01*
X97063850Y-62236900D01*
X97576350Y-62236900D01*
X97597791Y-62237953D01*
X97597791Y-62237953D01*
G37*
D22*
X97320100Y-62674400D03*
G04 #@! TD*
D21*
G04 #@! TO.C,C21*
G36*
X103732591Y-63013353D02*
X103753826Y-63016503D01*
X103774650Y-63021719D01*
X103794862Y-63028951D01*
X103814268Y-63038130D01*
X103832681Y-63049166D01*
X103849924Y-63061954D01*
X103865830Y-63076370D01*
X103880246Y-63092276D01*
X103893034Y-63109519D01*
X103904070Y-63127932D01*
X103913249Y-63147338D01*
X103920481Y-63167550D01*
X103925697Y-63188374D01*
X103928847Y-63209609D01*
X103929900Y-63231050D01*
X103929900Y-63743550D01*
X103928847Y-63764991D01*
X103925697Y-63786226D01*
X103920481Y-63807050D01*
X103913249Y-63827262D01*
X103904070Y-63846668D01*
X103893034Y-63865081D01*
X103880246Y-63882324D01*
X103865830Y-63898230D01*
X103849924Y-63912646D01*
X103832681Y-63925434D01*
X103814268Y-63936470D01*
X103794862Y-63945649D01*
X103774650Y-63952881D01*
X103753826Y-63958097D01*
X103732591Y-63961247D01*
X103711150Y-63962300D01*
X103273650Y-63962300D01*
X103252209Y-63961247D01*
X103230974Y-63958097D01*
X103210150Y-63952881D01*
X103189938Y-63945649D01*
X103170532Y-63936470D01*
X103152119Y-63925434D01*
X103134876Y-63912646D01*
X103118970Y-63898230D01*
X103104554Y-63882324D01*
X103091766Y-63865081D01*
X103080730Y-63846668D01*
X103071551Y-63827262D01*
X103064319Y-63807050D01*
X103059103Y-63786226D01*
X103055953Y-63764991D01*
X103054900Y-63743550D01*
X103054900Y-63231050D01*
X103055953Y-63209609D01*
X103059103Y-63188374D01*
X103064319Y-63167550D01*
X103071551Y-63147338D01*
X103080730Y-63127932D01*
X103091766Y-63109519D01*
X103104554Y-63092276D01*
X103118970Y-63076370D01*
X103134876Y-63061954D01*
X103152119Y-63049166D01*
X103170532Y-63038130D01*
X103189938Y-63028951D01*
X103210150Y-63021719D01*
X103230974Y-63016503D01*
X103252209Y-63013353D01*
X103273650Y-63012300D01*
X103711150Y-63012300D01*
X103732591Y-63013353D01*
X103732591Y-63013353D01*
G37*
D22*
X103492400Y-63487300D03*
D21*
G36*
X102157591Y-63013353D02*
X102178826Y-63016503D01*
X102199650Y-63021719D01*
X102219862Y-63028951D01*
X102239268Y-63038130D01*
X102257681Y-63049166D01*
X102274924Y-63061954D01*
X102290830Y-63076370D01*
X102305246Y-63092276D01*
X102318034Y-63109519D01*
X102329070Y-63127932D01*
X102338249Y-63147338D01*
X102345481Y-63167550D01*
X102350697Y-63188374D01*
X102353847Y-63209609D01*
X102354900Y-63231050D01*
X102354900Y-63743550D01*
X102353847Y-63764991D01*
X102350697Y-63786226D01*
X102345481Y-63807050D01*
X102338249Y-63827262D01*
X102329070Y-63846668D01*
X102318034Y-63865081D01*
X102305246Y-63882324D01*
X102290830Y-63898230D01*
X102274924Y-63912646D01*
X102257681Y-63925434D01*
X102239268Y-63936470D01*
X102219862Y-63945649D01*
X102199650Y-63952881D01*
X102178826Y-63958097D01*
X102157591Y-63961247D01*
X102136150Y-63962300D01*
X101698650Y-63962300D01*
X101677209Y-63961247D01*
X101655974Y-63958097D01*
X101635150Y-63952881D01*
X101614938Y-63945649D01*
X101595532Y-63936470D01*
X101577119Y-63925434D01*
X101559876Y-63912646D01*
X101543970Y-63898230D01*
X101529554Y-63882324D01*
X101516766Y-63865081D01*
X101505730Y-63846668D01*
X101496551Y-63827262D01*
X101489319Y-63807050D01*
X101484103Y-63786226D01*
X101480953Y-63764991D01*
X101479900Y-63743550D01*
X101479900Y-63231050D01*
X101480953Y-63209609D01*
X101484103Y-63188374D01*
X101489319Y-63167550D01*
X101496551Y-63147338D01*
X101505730Y-63127932D01*
X101516766Y-63109519D01*
X101529554Y-63092276D01*
X101543970Y-63076370D01*
X101559876Y-63061954D01*
X101577119Y-63049166D01*
X101595532Y-63038130D01*
X101614938Y-63028951D01*
X101635150Y-63021719D01*
X101655974Y-63016503D01*
X101677209Y-63013353D01*
X101698650Y-63012300D01*
X102136150Y-63012300D01*
X102157591Y-63013353D01*
X102157591Y-63013353D01*
G37*
D22*
X101917400Y-63487300D03*
G04 #@! TD*
D21*
G04 #@! TO.C,C22*
G36*
X104926391Y-66099453D02*
X104947626Y-66102603D01*
X104968450Y-66107819D01*
X104988662Y-66115051D01*
X105008068Y-66124230D01*
X105026481Y-66135266D01*
X105043724Y-66148054D01*
X105059630Y-66162470D01*
X105074046Y-66178376D01*
X105086834Y-66195619D01*
X105097870Y-66214032D01*
X105107049Y-66233438D01*
X105114281Y-66253650D01*
X105119497Y-66274474D01*
X105122647Y-66295709D01*
X105123700Y-66317150D01*
X105123700Y-66829650D01*
X105122647Y-66851091D01*
X105119497Y-66872326D01*
X105114281Y-66893150D01*
X105107049Y-66913362D01*
X105097870Y-66932768D01*
X105086834Y-66951181D01*
X105074046Y-66968424D01*
X105059630Y-66984330D01*
X105043724Y-66998746D01*
X105026481Y-67011534D01*
X105008068Y-67022570D01*
X104988662Y-67031749D01*
X104968450Y-67038981D01*
X104947626Y-67044197D01*
X104926391Y-67047347D01*
X104904950Y-67048400D01*
X104467450Y-67048400D01*
X104446009Y-67047347D01*
X104424774Y-67044197D01*
X104403950Y-67038981D01*
X104383738Y-67031749D01*
X104364332Y-67022570D01*
X104345919Y-67011534D01*
X104328676Y-66998746D01*
X104312770Y-66984330D01*
X104298354Y-66968424D01*
X104285566Y-66951181D01*
X104274530Y-66932768D01*
X104265351Y-66913362D01*
X104258119Y-66893150D01*
X104252903Y-66872326D01*
X104249753Y-66851091D01*
X104248700Y-66829650D01*
X104248700Y-66317150D01*
X104249753Y-66295709D01*
X104252903Y-66274474D01*
X104258119Y-66253650D01*
X104265351Y-66233438D01*
X104274530Y-66214032D01*
X104285566Y-66195619D01*
X104298354Y-66178376D01*
X104312770Y-66162470D01*
X104328676Y-66148054D01*
X104345919Y-66135266D01*
X104364332Y-66124230D01*
X104383738Y-66115051D01*
X104403950Y-66107819D01*
X104424774Y-66102603D01*
X104446009Y-66099453D01*
X104467450Y-66098400D01*
X104904950Y-66098400D01*
X104926391Y-66099453D01*
X104926391Y-66099453D01*
G37*
D22*
X104686200Y-66573400D03*
D21*
G36*
X103351391Y-66099453D02*
X103372626Y-66102603D01*
X103393450Y-66107819D01*
X103413662Y-66115051D01*
X103433068Y-66124230D01*
X103451481Y-66135266D01*
X103468724Y-66148054D01*
X103484630Y-66162470D01*
X103499046Y-66178376D01*
X103511834Y-66195619D01*
X103522870Y-66214032D01*
X103532049Y-66233438D01*
X103539281Y-66253650D01*
X103544497Y-66274474D01*
X103547647Y-66295709D01*
X103548700Y-66317150D01*
X103548700Y-66829650D01*
X103547647Y-66851091D01*
X103544497Y-66872326D01*
X103539281Y-66893150D01*
X103532049Y-66913362D01*
X103522870Y-66932768D01*
X103511834Y-66951181D01*
X103499046Y-66968424D01*
X103484630Y-66984330D01*
X103468724Y-66998746D01*
X103451481Y-67011534D01*
X103433068Y-67022570D01*
X103413662Y-67031749D01*
X103393450Y-67038981D01*
X103372626Y-67044197D01*
X103351391Y-67047347D01*
X103329950Y-67048400D01*
X102892450Y-67048400D01*
X102871009Y-67047347D01*
X102849774Y-67044197D01*
X102828950Y-67038981D01*
X102808738Y-67031749D01*
X102789332Y-67022570D01*
X102770919Y-67011534D01*
X102753676Y-66998746D01*
X102737770Y-66984330D01*
X102723354Y-66968424D01*
X102710566Y-66951181D01*
X102699530Y-66932768D01*
X102690351Y-66913362D01*
X102683119Y-66893150D01*
X102677903Y-66872326D01*
X102674753Y-66851091D01*
X102673700Y-66829650D01*
X102673700Y-66317150D01*
X102674753Y-66295709D01*
X102677903Y-66274474D01*
X102683119Y-66253650D01*
X102690351Y-66233438D01*
X102699530Y-66214032D01*
X102710566Y-66195619D01*
X102723354Y-66178376D01*
X102737770Y-66162470D01*
X102753676Y-66148054D01*
X102770919Y-66135266D01*
X102789332Y-66124230D01*
X102808738Y-66115051D01*
X102828950Y-66107819D01*
X102849774Y-66102603D01*
X102871009Y-66099453D01*
X102892450Y-66098400D01*
X103329950Y-66098400D01*
X103351391Y-66099453D01*
X103351391Y-66099453D01*
G37*
D22*
X103111200Y-66573400D03*
G04 #@! TD*
D21*
G04 #@! TO.C,C23*
G36*
X94321191Y-68308553D02*
X94342426Y-68311703D01*
X94363250Y-68316919D01*
X94383462Y-68324151D01*
X94402868Y-68333330D01*
X94421281Y-68344366D01*
X94438524Y-68357154D01*
X94454430Y-68371570D01*
X94468846Y-68387476D01*
X94481634Y-68404719D01*
X94492670Y-68423132D01*
X94501849Y-68442538D01*
X94509081Y-68462750D01*
X94514297Y-68483574D01*
X94517447Y-68504809D01*
X94518500Y-68526250D01*
X94518500Y-68963750D01*
X94517447Y-68985191D01*
X94514297Y-69006426D01*
X94509081Y-69027250D01*
X94501849Y-69047462D01*
X94492670Y-69066868D01*
X94481634Y-69085281D01*
X94468846Y-69102524D01*
X94454430Y-69118430D01*
X94438524Y-69132846D01*
X94421281Y-69145634D01*
X94402868Y-69156670D01*
X94383462Y-69165849D01*
X94363250Y-69173081D01*
X94342426Y-69178297D01*
X94321191Y-69181447D01*
X94299750Y-69182500D01*
X93787250Y-69182500D01*
X93765809Y-69181447D01*
X93744574Y-69178297D01*
X93723750Y-69173081D01*
X93703538Y-69165849D01*
X93684132Y-69156670D01*
X93665719Y-69145634D01*
X93648476Y-69132846D01*
X93632570Y-69118430D01*
X93618154Y-69102524D01*
X93605366Y-69085281D01*
X93594330Y-69066868D01*
X93585151Y-69047462D01*
X93577919Y-69027250D01*
X93572703Y-69006426D01*
X93569553Y-68985191D01*
X93568500Y-68963750D01*
X93568500Y-68526250D01*
X93569553Y-68504809D01*
X93572703Y-68483574D01*
X93577919Y-68462750D01*
X93585151Y-68442538D01*
X93594330Y-68423132D01*
X93605366Y-68404719D01*
X93618154Y-68387476D01*
X93632570Y-68371570D01*
X93648476Y-68357154D01*
X93665719Y-68344366D01*
X93684132Y-68333330D01*
X93703538Y-68324151D01*
X93723750Y-68316919D01*
X93744574Y-68311703D01*
X93765809Y-68308553D01*
X93787250Y-68307500D01*
X94299750Y-68307500D01*
X94321191Y-68308553D01*
X94321191Y-68308553D01*
G37*
D22*
X94043500Y-68745000D03*
D21*
G36*
X94321191Y-69883553D02*
X94342426Y-69886703D01*
X94363250Y-69891919D01*
X94383462Y-69899151D01*
X94402868Y-69908330D01*
X94421281Y-69919366D01*
X94438524Y-69932154D01*
X94454430Y-69946570D01*
X94468846Y-69962476D01*
X94481634Y-69979719D01*
X94492670Y-69998132D01*
X94501849Y-70017538D01*
X94509081Y-70037750D01*
X94514297Y-70058574D01*
X94517447Y-70079809D01*
X94518500Y-70101250D01*
X94518500Y-70538750D01*
X94517447Y-70560191D01*
X94514297Y-70581426D01*
X94509081Y-70602250D01*
X94501849Y-70622462D01*
X94492670Y-70641868D01*
X94481634Y-70660281D01*
X94468846Y-70677524D01*
X94454430Y-70693430D01*
X94438524Y-70707846D01*
X94421281Y-70720634D01*
X94402868Y-70731670D01*
X94383462Y-70740849D01*
X94363250Y-70748081D01*
X94342426Y-70753297D01*
X94321191Y-70756447D01*
X94299750Y-70757500D01*
X93787250Y-70757500D01*
X93765809Y-70756447D01*
X93744574Y-70753297D01*
X93723750Y-70748081D01*
X93703538Y-70740849D01*
X93684132Y-70731670D01*
X93665719Y-70720634D01*
X93648476Y-70707846D01*
X93632570Y-70693430D01*
X93618154Y-70677524D01*
X93605366Y-70660281D01*
X93594330Y-70641868D01*
X93585151Y-70622462D01*
X93577919Y-70602250D01*
X93572703Y-70581426D01*
X93569553Y-70560191D01*
X93568500Y-70538750D01*
X93568500Y-70101250D01*
X93569553Y-70079809D01*
X93572703Y-70058574D01*
X93577919Y-70037750D01*
X93585151Y-70017538D01*
X93594330Y-69998132D01*
X93605366Y-69979719D01*
X93618154Y-69962476D01*
X93632570Y-69946570D01*
X93648476Y-69932154D01*
X93665719Y-69919366D01*
X93684132Y-69908330D01*
X93703538Y-69899151D01*
X93723750Y-69891919D01*
X93744574Y-69886703D01*
X93765809Y-69883553D01*
X93787250Y-69882500D01*
X94299750Y-69882500D01*
X94321191Y-69883553D01*
X94321191Y-69883553D01*
G37*
D22*
X94043500Y-70320000D03*
G04 #@! TD*
D21*
G04 #@! TO.C,C24*
G36*
X101903591Y-68233053D02*
X101924826Y-68236203D01*
X101945650Y-68241419D01*
X101965862Y-68248651D01*
X101985268Y-68257830D01*
X102003681Y-68268866D01*
X102020924Y-68281654D01*
X102036830Y-68296070D01*
X102051246Y-68311976D01*
X102064034Y-68329219D01*
X102075070Y-68347632D01*
X102084249Y-68367038D01*
X102091481Y-68387250D01*
X102096697Y-68408074D01*
X102099847Y-68429309D01*
X102100900Y-68450750D01*
X102100900Y-68963250D01*
X102099847Y-68984691D01*
X102096697Y-69005926D01*
X102091481Y-69026750D01*
X102084249Y-69046962D01*
X102075070Y-69066368D01*
X102064034Y-69084781D01*
X102051246Y-69102024D01*
X102036830Y-69117930D01*
X102020924Y-69132346D01*
X102003681Y-69145134D01*
X101985268Y-69156170D01*
X101965862Y-69165349D01*
X101945650Y-69172581D01*
X101924826Y-69177797D01*
X101903591Y-69180947D01*
X101882150Y-69182000D01*
X101444650Y-69182000D01*
X101423209Y-69180947D01*
X101401974Y-69177797D01*
X101381150Y-69172581D01*
X101360938Y-69165349D01*
X101341532Y-69156170D01*
X101323119Y-69145134D01*
X101305876Y-69132346D01*
X101289970Y-69117930D01*
X101275554Y-69102024D01*
X101262766Y-69084781D01*
X101251730Y-69066368D01*
X101242551Y-69046962D01*
X101235319Y-69026750D01*
X101230103Y-69005926D01*
X101226953Y-68984691D01*
X101225900Y-68963250D01*
X101225900Y-68450750D01*
X101226953Y-68429309D01*
X101230103Y-68408074D01*
X101235319Y-68387250D01*
X101242551Y-68367038D01*
X101251730Y-68347632D01*
X101262766Y-68329219D01*
X101275554Y-68311976D01*
X101289970Y-68296070D01*
X101305876Y-68281654D01*
X101323119Y-68268866D01*
X101341532Y-68257830D01*
X101360938Y-68248651D01*
X101381150Y-68241419D01*
X101401974Y-68236203D01*
X101423209Y-68233053D01*
X101444650Y-68232000D01*
X101882150Y-68232000D01*
X101903591Y-68233053D01*
X101903591Y-68233053D01*
G37*
D22*
X101663400Y-68707000D03*
D21*
G36*
X103478591Y-68233053D02*
X103499826Y-68236203D01*
X103520650Y-68241419D01*
X103540862Y-68248651D01*
X103560268Y-68257830D01*
X103578681Y-68268866D01*
X103595924Y-68281654D01*
X103611830Y-68296070D01*
X103626246Y-68311976D01*
X103639034Y-68329219D01*
X103650070Y-68347632D01*
X103659249Y-68367038D01*
X103666481Y-68387250D01*
X103671697Y-68408074D01*
X103674847Y-68429309D01*
X103675900Y-68450750D01*
X103675900Y-68963250D01*
X103674847Y-68984691D01*
X103671697Y-69005926D01*
X103666481Y-69026750D01*
X103659249Y-69046962D01*
X103650070Y-69066368D01*
X103639034Y-69084781D01*
X103626246Y-69102024D01*
X103611830Y-69117930D01*
X103595924Y-69132346D01*
X103578681Y-69145134D01*
X103560268Y-69156170D01*
X103540862Y-69165349D01*
X103520650Y-69172581D01*
X103499826Y-69177797D01*
X103478591Y-69180947D01*
X103457150Y-69182000D01*
X103019650Y-69182000D01*
X102998209Y-69180947D01*
X102976974Y-69177797D01*
X102956150Y-69172581D01*
X102935938Y-69165349D01*
X102916532Y-69156170D01*
X102898119Y-69145134D01*
X102880876Y-69132346D01*
X102864970Y-69117930D01*
X102850554Y-69102024D01*
X102837766Y-69084781D01*
X102826730Y-69066368D01*
X102817551Y-69046962D01*
X102810319Y-69026750D01*
X102805103Y-69005926D01*
X102801953Y-68984691D01*
X102800900Y-68963250D01*
X102800900Y-68450750D01*
X102801953Y-68429309D01*
X102805103Y-68408074D01*
X102810319Y-68387250D01*
X102817551Y-68367038D01*
X102826730Y-68347632D01*
X102837766Y-68329219D01*
X102850554Y-68311976D01*
X102864970Y-68296070D01*
X102880876Y-68281654D01*
X102898119Y-68268866D01*
X102916532Y-68257830D01*
X102935938Y-68248651D01*
X102956150Y-68241419D01*
X102976974Y-68236203D01*
X102998209Y-68233053D01*
X103019650Y-68232000D01*
X103457150Y-68232000D01*
X103478591Y-68233053D01*
X103478591Y-68233053D01*
G37*
D22*
X103238400Y-68707000D03*
G04 #@! TD*
D21*
G04 #@! TO.C,C25*
G36*
X98893191Y-71369453D02*
X98914426Y-71372603D01*
X98935250Y-71377819D01*
X98955462Y-71385051D01*
X98974868Y-71394230D01*
X98993281Y-71405266D01*
X99010524Y-71418054D01*
X99026430Y-71432470D01*
X99040846Y-71448376D01*
X99053634Y-71465619D01*
X99064670Y-71484032D01*
X99073849Y-71503438D01*
X99081081Y-71523650D01*
X99086297Y-71544474D01*
X99089447Y-71565709D01*
X99090500Y-71587150D01*
X99090500Y-72024650D01*
X99089447Y-72046091D01*
X99086297Y-72067326D01*
X99081081Y-72088150D01*
X99073849Y-72108362D01*
X99064670Y-72127768D01*
X99053634Y-72146181D01*
X99040846Y-72163424D01*
X99026430Y-72179330D01*
X99010524Y-72193746D01*
X98993281Y-72206534D01*
X98974868Y-72217570D01*
X98955462Y-72226749D01*
X98935250Y-72233981D01*
X98914426Y-72239197D01*
X98893191Y-72242347D01*
X98871750Y-72243400D01*
X98359250Y-72243400D01*
X98337809Y-72242347D01*
X98316574Y-72239197D01*
X98295750Y-72233981D01*
X98275538Y-72226749D01*
X98256132Y-72217570D01*
X98237719Y-72206534D01*
X98220476Y-72193746D01*
X98204570Y-72179330D01*
X98190154Y-72163424D01*
X98177366Y-72146181D01*
X98166330Y-72127768D01*
X98157151Y-72108362D01*
X98149919Y-72088150D01*
X98144703Y-72067326D01*
X98141553Y-72046091D01*
X98140500Y-72024650D01*
X98140500Y-71587150D01*
X98141553Y-71565709D01*
X98144703Y-71544474D01*
X98149919Y-71523650D01*
X98157151Y-71503438D01*
X98166330Y-71484032D01*
X98177366Y-71465619D01*
X98190154Y-71448376D01*
X98204570Y-71432470D01*
X98220476Y-71418054D01*
X98237719Y-71405266D01*
X98256132Y-71394230D01*
X98275538Y-71385051D01*
X98295750Y-71377819D01*
X98316574Y-71372603D01*
X98337809Y-71369453D01*
X98359250Y-71368400D01*
X98871750Y-71368400D01*
X98893191Y-71369453D01*
X98893191Y-71369453D01*
G37*
D22*
X98615500Y-71805900D03*
D21*
G36*
X98893191Y-69794453D02*
X98914426Y-69797603D01*
X98935250Y-69802819D01*
X98955462Y-69810051D01*
X98974868Y-69819230D01*
X98993281Y-69830266D01*
X99010524Y-69843054D01*
X99026430Y-69857470D01*
X99040846Y-69873376D01*
X99053634Y-69890619D01*
X99064670Y-69909032D01*
X99073849Y-69928438D01*
X99081081Y-69948650D01*
X99086297Y-69969474D01*
X99089447Y-69990709D01*
X99090500Y-70012150D01*
X99090500Y-70449650D01*
X99089447Y-70471091D01*
X99086297Y-70492326D01*
X99081081Y-70513150D01*
X99073849Y-70533362D01*
X99064670Y-70552768D01*
X99053634Y-70571181D01*
X99040846Y-70588424D01*
X99026430Y-70604330D01*
X99010524Y-70618746D01*
X98993281Y-70631534D01*
X98974868Y-70642570D01*
X98955462Y-70651749D01*
X98935250Y-70658981D01*
X98914426Y-70664197D01*
X98893191Y-70667347D01*
X98871750Y-70668400D01*
X98359250Y-70668400D01*
X98337809Y-70667347D01*
X98316574Y-70664197D01*
X98295750Y-70658981D01*
X98275538Y-70651749D01*
X98256132Y-70642570D01*
X98237719Y-70631534D01*
X98220476Y-70618746D01*
X98204570Y-70604330D01*
X98190154Y-70588424D01*
X98177366Y-70571181D01*
X98166330Y-70552768D01*
X98157151Y-70533362D01*
X98149919Y-70513150D01*
X98144703Y-70492326D01*
X98141553Y-70471091D01*
X98140500Y-70449650D01*
X98140500Y-70012150D01*
X98141553Y-69990709D01*
X98144703Y-69969474D01*
X98149919Y-69948650D01*
X98157151Y-69928438D01*
X98166330Y-69909032D01*
X98177366Y-69890619D01*
X98190154Y-69873376D01*
X98204570Y-69857470D01*
X98220476Y-69843054D01*
X98237719Y-69830266D01*
X98256132Y-69819230D01*
X98275538Y-69810051D01*
X98295750Y-69802819D01*
X98316574Y-69797603D01*
X98337809Y-69794453D01*
X98359250Y-69793400D01*
X98871750Y-69793400D01*
X98893191Y-69794453D01*
X98893191Y-69794453D01*
G37*
D22*
X98615500Y-70230900D03*
G04 #@! TD*
D21*
G04 #@! TO.C,C26*
G36*
X97395291Y-72868553D02*
X97416526Y-72871703D01*
X97437350Y-72876919D01*
X97457562Y-72884151D01*
X97476968Y-72893330D01*
X97495381Y-72904366D01*
X97512624Y-72917154D01*
X97528530Y-72931570D01*
X97542946Y-72947476D01*
X97555734Y-72964719D01*
X97566770Y-72983132D01*
X97575949Y-73002538D01*
X97583181Y-73022750D01*
X97588397Y-73043574D01*
X97591547Y-73064809D01*
X97592600Y-73086250D01*
X97592600Y-73598750D01*
X97591547Y-73620191D01*
X97588397Y-73641426D01*
X97583181Y-73662250D01*
X97575949Y-73682462D01*
X97566770Y-73701868D01*
X97555734Y-73720281D01*
X97542946Y-73737524D01*
X97528530Y-73753430D01*
X97512624Y-73767846D01*
X97495381Y-73780634D01*
X97476968Y-73791670D01*
X97457562Y-73800849D01*
X97437350Y-73808081D01*
X97416526Y-73813297D01*
X97395291Y-73816447D01*
X97373850Y-73817500D01*
X96936350Y-73817500D01*
X96914909Y-73816447D01*
X96893674Y-73813297D01*
X96872850Y-73808081D01*
X96852638Y-73800849D01*
X96833232Y-73791670D01*
X96814819Y-73780634D01*
X96797576Y-73767846D01*
X96781670Y-73753430D01*
X96767254Y-73737524D01*
X96754466Y-73720281D01*
X96743430Y-73701868D01*
X96734251Y-73682462D01*
X96727019Y-73662250D01*
X96721803Y-73641426D01*
X96718653Y-73620191D01*
X96717600Y-73598750D01*
X96717600Y-73086250D01*
X96718653Y-73064809D01*
X96721803Y-73043574D01*
X96727019Y-73022750D01*
X96734251Y-73002538D01*
X96743430Y-72983132D01*
X96754466Y-72964719D01*
X96767254Y-72947476D01*
X96781670Y-72931570D01*
X96797576Y-72917154D01*
X96814819Y-72904366D01*
X96833232Y-72893330D01*
X96852638Y-72884151D01*
X96872850Y-72876919D01*
X96893674Y-72871703D01*
X96914909Y-72868553D01*
X96936350Y-72867500D01*
X97373850Y-72867500D01*
X97395291Y-72868553D01*
X97395291Y-72868553D01*
G37*
D22*
X97155100Y-73342500D03*
D21*
G36*
X95820291Y-72868553D02*
X95841526Y-72871703D01*
X95862350Y-72876919D01*
X95882562Y-72884151D01*
X95901968Y-72893330D01*
X95920381Y-72904366D01*
X95937624Y-72917154D01*
X95953530Y-72931570D01*
X95967946Y-72947476D01*
X95980734Y-72964719D01*
X95991770Y-72983132D01*
X96000949Y-73002538D01*
X96008181Y-73022750D01*
X96013397Y-73043574D01*
X96016547Y-73064809D01*
X96017600Y-73086250D01*
X96017600Y-73598750D01*
X96016547Y-73620191D01*
X96013397Y-73641426D01*
X96008181Y-73662250D01*
X96000949Y-73682462D01*
X95991770Y-73701868D01*
X95980734Y-73720281D01*
X95967946Y-73737524D01*
X95953530Y-73753430D01*
X95937624Y-73767846D01*
X95920381Y-73780634D01*
X95901968Y-73791670D01*
X95882562Y-73800849D01*
X95862350Y-73808081D01*
X95841526Y-73813297D01*
X95820291Y-73816447D01*
X95798850Y-73817500D01*
X95361350Y-73817500D01*
X95339909Y-73816447D01*
X95318674Y-73813297D01*
X95297850Y-73808081D01*
X95277638Y-73800849D01*
X95258232Y-73791670D01*
X95239819Y-73780634D01*
X95222576Y-73767846D01*
X95206670Y-73753430D01*
X95192254Y-73737524D01*
X95179466Y-73720281D01*
X95168430Y-73701868D01*
X95159251Y-73682462D01*
X95152019Y-73662250D01*
X95146803Y-73641426D01*
X95143653Y-73620191D01*
X95142600Y-73598750D01*
X95142600Y-73086250D01*
X95143653Y-73064809D01*
X95146803Y-73043574D01*
X95152019Y-73022750D01*
X95159251Y-73002538D01*
X95168430Y-72983132D01*
X95179466Y-72964719D01*
X95192254Y-72947476D01*
X95206670Y-72931570D01*
X95222576Y-72917154D01*
X95239819Y-72904366D01*
X95258232Y-72893330D01*
X95277638Y-72884151D01*
X95297850Y-72876919D01*
X95318674Y-72871703D01*
X95339909Y-72868553D01*
X95361350Y-72867500D01*
X95798850Y-72867500D01*
X95820291Y-72868553D01*
X95820291Y-72868553D01*
G37*
D22*
X95580100Y-73342500D03*
G04 #@! TD*
D21*
G04 #@! TO.C,C27*
G36*
X97395291Y-74392553D02*
X97416526Y-74395703D01*
X97437350Y-74400919D01*
X97457562Y-74408151D01*
X97476968Y-74417330D01*
X97495381Y-74428366D01*
X97512624Y-74441154D01*
X97528530Y-74455570D01*
X97542946Y-74471476D01*
X97555734Y-74488719D01*
X97566770Y-74507132D01*
X97575949Y-74526538D01*
X97583181Y-74546750D01*
X97588397Y-74567574D01*
X97591547Y-74588809D01*
X97592600Y-74610250D01*
X97592600Y-75122750D01*
X97591547Y-75144191D01*
X97588397Y-75165426D01*
X97583181Y-75186250D01*
X97575949Y-75206462D01*
X97566770Y-75225868D01*
X97555734Y-75244281D01*
X97542946Y-75261524D01*
X97528530Y-75277430D01*
X97512624Y-75291846D01*
X97495381Y-75304634D01*
X97476968Y-75315670D01*
X97457562Y-75324849D01*
X97437350Y-75332081D01*
X97416526Y-75337297D01*
X97395291Y-75340447D01*
X97373850Y-75341500D01*
X96936350Y-75341500D01*
X96914909Y-75340447D01*
X96893674Y-75337297D01*
X96872850Y-75332081D01*
X96852638Y-75324849D01*
X96833232Y-75315670D01*
X96814819Y-75304634D01*
X96797576Y-75291846D01*
X96781670Y-75277430D01*
X96767254Y-75261524D01*
X96754466Y-75244281D01*
X96743430Y-75225868D01*
X96734251Y-75206462D01*
X96727019Y-75186250D01*
X96721803Y-75165426D01*
X96718653Y-75144191D01*
X96717600Y-75122750D01*
X96717600Y-74610250D01*
X96718653Y-74588809D01*
X96721803Y-74567574D01*
X96727019Y-74546750D01*
X96734251Y-74526538D01*
X96743430Y-74507132D01*
X96754466Y-74488719D01*
X96767254Y-74471476D01*
X96781670Y-74455570D01*
X96797576Y-74441154D01*
X96814819Y-74428366D01*
X96833232Y-74417330D01*
X96852638Y-74408151D01*
X96872850Y-74400919D01*
X96893674Y-74395703D01*
X96914909Y-74392553D01*
X96936350Y-74391500D01*
X97373850Y-74391500D01*
X97395291Y-74392553D01*
X97395291Y-74392553D01*
G37*
D22*
X97155100Y-74866500D03*
D21*
G36*
X95820291Y-74392553D02*
X95841526Y-74395703D01*
X95862350Y-74400919D01*
X95882562Y-74408151D01*
X95901968Y-74417330D01*
X95920381Y-74428366D01*
X95937624Y-74441154D01*
X95953530Y-74455570D01*
X95967946Y-74471476D01*
X95980734Y-74488719D01*
X95991770Y-74507132D01*
X96000949Y-74526538D01*
X96008181Y-74546750D01*
X96013397Y-74567574D01*
X96016547Y-74588809D01*
X96017600Y-74610250D01*
X96017600Y-75122750D01*
X96016547Y-75144191D01*
X96013397Y-75165426D01*
X96008181Y-75186250D01*
X96000949Y-75206462D01*
X95991770Y-75225868D01*
X95980734Y-75244281D01*
X95967946Y-75261524D01*
X95953530Y-75277430D01*
X95937624Y-75291846D01*
X95920381Y-75304634D01*
X95901968Y-75315670D01*
X95882562Y-75324849D01*
X95862350Y-75332081D01*
X95841526Y-75337297D01*
X95820291Y-75340447D01*
X95798850Y-75341500D01*
X95361350Y-75341500D01*
X95339909Y-75340447D01*
X95318674Y-75337297D01*
X95297850Y-75332081D01*
X95277638Y-75324849D01*
X95258232Y-75315670D01*
X95239819Y-75304634D01*
X95222576Y-75291846D01*
X95206670Y-75277430D01*
X95192254Y-75261524D01*
X95179466Y-75244281D01*
X95168430Y-75225868D01*
X95159251Y-75206462D01*
X95152019Y-75186250D01*
X95146803Y-75165426D01*
X95143653Y-75144191D01*
X95142600Y-75122750D01*
X95142600Y-74610250D01*
X95143653Y-74588809D01*
X95146803Y-74567574D01*
X95152019Y-74546750D01*
X95159251Y-74526538D01*
X95168430Y-74507132D01*
X95179466Y-74488719D01*
X95192254Y-74471476D01*
X95206670Y-74455570D01*
X95222576Y-74441154D01*
X95239819Y-74428366D01*
X95258232Y-74417330D01*
X95277638Y-74408151D01*
X95297850Y-74400919D01*
X95318674Y-74395703D01*
X95339909Y-74392553D01*
X95361350Y-74391500D01*
X95798850Y-74391500D01*
X95820291Y-74392553D01*
X95820291Y-74392553D01*
G37*
D22*
X95580100Y-74866500D03*
G04 #@! TD*
D21*
G04 #@! TO.C,C28*
G36*
X95845691Y-78951853D02*
X95866926Y-78955003D01*
X95887750Y-78960219D01*
X95907962Y-78967451D01*
X95927368Y-78976630D01*
X95945781Y-78987666D01*
X95963024Y-79000454D01*
X95978930Y-79014870D01*
X95993346Y-79030776D01*
X96006134Y-79048019D01*
X96017170Y-79066432D01*
X96026349Y-79085838D01*
X96033581Y-79106050D01*
X96038797Y-79126874D01*
X96041947Y-79148109D01*
X96043000Y-79169550D01*
X96043000Y-79682050D01*
X96041947Y-79703491D01*
X96038797Y-79724726D01*
X96033581Y-79745550D01*
X96026349Y-79765762D01*
X96017170Y-79785168D01*
X96006134Y-79803581D01*
X95993346Y-79820824D01*
X95978930Y-79836730D01*
X95963024Y-79851146D01*
X95945781Y-79863934D01*
X95927368Y-79874970D01*
X95907962Y-79884149D01*
X95887750Y-79891381D01*
X95866926Y-79896597D01*
X95845691Y-79899747D01*
X95824250Y-79900800D01*
X95386750Y-79900800D01*
X95365309Y-79899747D01*
X95344074Y-79896597D01*
X95323250Y-79891381D01*
X95303038Y-79884149D01*
X95283632Y-79874970D01*
X95265219Y-79863934D01*
X95247976Y-79851146D01*
X95232070Y-79836730D01*
X95217654Y-79820824D01*
X95204866Y-79803581D01*
X95193830Y-79785168D01*
X95184651Y-79765762D01*
X95177419Y-79745550D01*
X95172203Y-79724726D01*
X95169053Y-79703491D01*
X95168000Y-79682050D01*
X95168000Y-79169550D01*
X95169053Y-79148109D01*
X95172203Y-79126874D01*
X95177419Y-79106050D01*
X95184651Y-79085838D01*
X95193830Y-79066432D01*
X95204866Y-79048019D01*
X95217654Y-79030776D01*
X95232070Y-79014870D01*
X95247976Y-79000454D01*
X95265219Y-78987666D01*
X95283632Y-78976630D01*
X95303038Y-78967451D01*
X95323250Y-78960219D01*
X95344074Y-78955003D01*
X95365309Y-78951853D01*
X95386750Y-78950800D01*
X95824250Y-78950800D01*
X95845691Y-78951853D01*
X95845691Y-78951853D01*
G37*
D22*
X95605500Y-79425800D03*
D21*
G36*
X97420691Y-78951853D02*
X97441926Y-78955003D01*
X97462750Y-78960219D01*
X97482962Y-78967451D01*
X97502368Y-78976630D01*
X97520781Y-78987666D01*
X97538024Y-79000454D01*
X97553930Y-79014870D01*
X97568346Y-79030776D01*
X97581134Y-79048019D01*
X97592170Y-79066432D01*
X97601349Y-79085838D01*
X97608581Y-79106050D01*
X97613797Y-79126874D01*
X97616947Y-79148109D01*
X97618000Y-79169550D01*
X97618000Y-79682050D01*
X97616947Y-79703491D01*
X97613797Y-79724726D01*
X97608581Y-79745550D01*
X97601349Y-79765762D01*
X97592170Y-79785168D01*
X97581134Y-79803581D01*
X97568346Y-79820824D01*
X97553930Y-79836730D01*
X97538024Y-79851146D01*
X97520781Y-79863934D01*
X97502368Y-79874970D01*
X97482962Y-79884149D01*
X97462750Y-79891381D01*
X97441926Y-79896597D01*
X97420691Y-79899747D01*
X97399250Y-79900800D01*
X96961750Y-79900800D01*
X96940309Y-79899747D01*
X96919074Y-79896597D01*
X96898250Y-79891381D01*
X96878038Y-79884149D01*
X96858632Y-79874970D01*
X96840219Y-79863934D01*
X96822976Y-79851146D01*
X96807070Y-79836730D01*
X96792654Y-79820824D01*
X96779866Y-79803581D01*
X96768830Y-79785168D01*
X96759651Y-79765762D01*
X96752419Y-79745550D01*
X96747203Y-79724726D01*
X96744053Y-79703491D01*
X96743000Y-79682050D01*
X96743000Y-79169550D01*
X96744053Y-79148109D01*
X96747203Y-79126874D01*
X96752419Y-79106050D01*
X96759651Y-79085838D01*
X96768830Y-79066432D01*
X96779866Y-79048019D01*
X96792654Y-79030776D01*
X96807070Y-79014870D01*
X96822976Y-79000454D01*
X96840219Y-78987666D01*
X96858632Y-78976630D01*
X96878038Y-78967451D01*
X96898250Y-78960219D01*
X96919074Y-78955003D01*
X96940309Y-78951853D01*
X96961750Y-78950800D01*
X97399250Y-78950800D01*
X97420691Y-78951853D01*
X97420691Y-78951853D01*
G37*
D22*
X97180500Y-79425800D03*
G04 #@! TD*
D21*
G04 #@! TO.C,C29*
G36*
X97420691Y-83549253D02*
X97441926Y-83552403D01*
X97462750Y-83557619D01*
X97482962Y-83564851D01*
X97502368Y-83574030D01*
X97520781Y-83585066D01*
X97538024Y-83597854D01*
X97553930Y-83612270D01*
X97568346Y-83628176D01*
X97581134Y-83645419D01*
X97592170Y-83663832D01*
X97601349Y-83683238D01*
X97608581Y-83703450D01*
X97613797Y-83724274D01*
X97616947Y-83745509D01*
X97618000Y-83766950D01*
X97618000Y-84279450D01*
X97616947Y-84300891D01*
X97613797Y-84322126D01*
X97608581Y-84342950D01*
X97601349Y-84363162D01*
X97592170Y-84382568D01*
X97581134Y-84400981D01*
X97568346Y-84418224D01*
X97553930Y-84434130D01*
X97538024Y-84448546D01*
X97520781Y-84461334D01*
X97502368Y-84472370D01*
X97482962Y-84481549D01*
X97462750Y-84488781D01*
X97441926Y-84493997D01*
X97420691Y-84497147D01*
X97399250Y-84498200D01*
X96961750Y-84498200D01*
X96940309Y-84497147D01*
X96919074Y-84493997D01*
X96898250Y-84488781D01*
X96878038Y-84481549D01*
X96858632Y-84472370D01*
X96840219Y-84461334D01*
X96822976Y-84448546D01*
X96807070Y-84434130D01*
X96792654Y-84418224D01*
X96779866Y-84400981D01*
X96768830Y-84382568D01*
X96759651Y-84363162D01*
X96752419Y-84342950D01*
X96747203Y-84322126D01*
X96744053Y-84300891D01*
X96743000Y-84279450D01*
X96743000Y-83766950D01*
X96744053Y-83745509D01*
X96747203Y-83724274D01*
X96752419Y-83703450D01*
X96759651Y-83683238D01*
X96768830Y-83663832D01*
X96779866Y-83645419D01*
X96792654Y-83628176D01*
X96807070Y-83612270D01*
X96822976Y-83597854D01*
X96840219Y-83585066D01*
X96858632Y-83574030D01*
X96878038Y-83564851D01*
X96898250Y-83557619D01*
X96919074Y-83552403D01*
X96940309Y-83549253D01*
X96961750Y-83548200D01*
X97399250Y-83548200D01*
X97420691Y-83549253D01*
X97420691Y-83549253D01*
G37*
D22*
X97180500Y-84023200D03*
D21*
G36*
X95845691Y-83549253D02*
X95866926Y-83552403D01*
X95887750Y-83557619D01*
X95907962Y-83564851D01*
X95927368Y-83574030D01*
X95945781Y-83585066D01*
X95963024Y-83597854D01*
X95978930Y-83612270D01*
X95993346Y-83628176D01*
X96006134Y-83645419D01*
X96017170Y-83663832D01*
X96026349Y-83683238D01*
X96033581Y-83703450D01*
X96038797Y-83724274D01*
X96041947Y-83745509D01*
X96043000Y-83766950D01*
X96043000Y-84279450D01*
X96041947Y-84300891D01*
X96038797Y-84322126D01*
X96033581Y-84342950D01*
X96026349Y-84363162D01*
X96017170Y-84382568D01*
X96006134Y-84400981D01*
X95993346Y-84418224D01*
X95978930Y-84434130D01*
X95963024Y-84448546D01*
X95945781Y-84461334D01*
X95927368Y-84472370D01*
X95907962Y-84481549D01*
X95887750Y-84488781D01*
X95866926Y-84493997D01*
X95845691Y-84497147D01*
X95824250Y-84498200D01*
X95386750Y-84498200D01*
X95365309Y-84497147D01*
X95344074Y-84493997D01*
X95323250Y-84488781D01*
X95303038Y-84481549D01*
X95283632Y-84472370D01*
X95265219Y-84461334D01*
X95247976Y-84448546D01*
X95232070Y-84434130D01*
X95217654Y-84418224D01*
X95204866Y-84400981D01*
X95193830Y-84382568D01*
X95184651Y-84363162D01*
X95177419Y-84342950D01*
X95172203Y-84322126D01*
X95169053Y-84300891D01*
X95168000Y-84279450D01*
X95168000Y-83766950D01*
X95169053Y-83745509D01*
X95172203Y-83724274D01*
X95177419Y-83703450D01*
X95184651Y-83683238D01*
X95193830Y-83663832D01*
X95204866Y-83645419D01*
X95217654Y-83628176D01*
X95232070Y-83612270D01*
X95247976Y-83597854D01*
X95265219Y-83585066D01*
X95283632Y-83574030D01*
X95303038Y-83564851D01*
X95323250Y-83557619D01*
X95344074Y-83552403D01*
X95365309Y-83549253D01*
X95386750Y-83548200D01*
X95824250Y-83548200D01*
X95845691Y-83549253D01*
X95845691Y-83549253D01*
G37*
D22*
X95605500Y-84023200D03*
G04 #@! TD*
D21*
G04 #@! TO.C,C30*
G36*
X53871691Y-88717453D02*
X53892926Y-88720603D01*
X53913750Y-88725819D01*
X53933962Y-88733051D01*
X53953368Y-88742230D01*
X53971781Y-88753266D01*
X53989024Y-88766054D01*
X54004930Y-88780470D01*
X54019346Y-88796376D01*
X54032134Y-88813619D01*
X54043170Y-88832032D01*
X54052349Y-88851438D01*
X54059581Y-88871650D01*
X54064797Y-88892474D01*
X54067947Y-88913709D01*
X54069000Y-88935150D01*
X54069000Y-89372650D01*
X54067947Y-89394091D01*
X54064797Y-89415326D01*
X54059581Y-89436150D01*
X54052349Y-89456362D01*
X54043170Y-89475768D01*
X54032134Y-89494181D01*
X54019346Y-89511424D01*
X54004930Y-89527330D01*
X53989024Y-89541746D01*
X53971781Y-89554534D01*
X53953368Y-89565570D01*
X53933962Y-89574749D01*
X53913750Y-89581981D01*
X53892926Y-89587197D01*
X53871691Y-89590347D01*
X53850250Y-89591400D01*
X53337750Y-89591400D01*
X53316309Y-89590347D01*
X53295074Y-89587197D01*
X53274250Y-89581981D01*
X53254038Y-89574749D01*
X53234632Y-89565570D01*
X53216219Y-89554534D01*
X53198976Y-89541746D01*
X53183070Y-89527330D01*
X53168654Y-89511424D01*
X53155866Y-89494181D01*
X53144830Y-89475768D01*
X53135651Y-89456362D01*
X53128419Y-89436150D01*
X53123203Y-89415326D01*
X53120053Y-89394091D01*
X53119000Y-89372650D01*
X53119000Y-88935150D01*
X53120053Y-88913709D01*
X53123203Y-88892474D01*
X53128419Y-88871650D01*
X53135651Y-88851438D01*
X53144830Y-88832032D01*
X53155866Y-88813619D01*
X53168654Y-88796376D01*
X53183070Y-88780470D01*
X53198976Y-88766054D01*
X53216219Y-88753266D01*
X53234632Y-88742230D01*
X53254038Y-88733051D01*
X53274250Y-88725819D01*
X53295074Y-88720603D01*
X53316309Y-88717453D01*
X53337750Y-88716400D01*
X53850250Y-88716400D01*
X53871691Y-88717453D01*
X53871691Y-88717453D01*
G37*
D22*
X53594000Y-89153900D03*
D21*
G36*
X53871691Y-90292453D02*
X53892926Y-90295603D01*
X53913750Y-90300819D01*
X53933962Y-90308051D01*
X53953368Y-90317230D01*
X53971781Y-90328266D01*
X53989024Y-90341054D01*
X54004930Y-90355470D01*
X54019346Y-90371376D01*
X54032134Y-90388619D01*
X54043170Y-90407032D01*
X54052349Y-90426438D01*
X54059581Y-90446650D01*
X54064797Y-90467474D01*
X54067947Y-90488709D01*
X54069000Y-90510150D01*
X54069000Y-90947650D01*
X54067947Y-90969091D01*
X54064797Y-90990326D01*
X54059581Y-91011150D01*
X54052349Y-91031362D01*
X54043170Y-91050768D01*
X54032134Y-91069181D01*
X54019346Y-91086424D01*
X54004930Y-91102330D01*
X53989024Y-91116746D01*
X53971781Y-91129534D01*
X53953368Y-91140570D01*
X53933962Y-91149749D01*
X53913750Y-91156981D01*
X53892926Y-91162197D01*
X53871691Y-91165347D01*
X53850250Y-91166400D01*
X53337750Y-91166400D01*
X53316309Y-91165347D01*
X53295074Y-91162197D01*
X53274250Y-91156981D01*
X53254038Y-91149749D01*
X53234632Y-91140570D01*
X53216219Y-91129534D01*
X53198976Y-91116746D01*
X53183070Y-91102330D01*
X53168654Y-91086424D01*
X53155866Y-91069181D01*
X53144830Y-91050768D01*
X53135651Y-91031362D01*
X53128419Y-91011150D01*
X53123203Y-90990326D01*
X53120053Y-90969091D01*
X53119000Y-90947650D01*
X53119000Y-90510150D01*
X53120053Y-90488709D01*
X53123203Y-90467474D01*
X53128419Y-90446650D01*
X53135651Y-90426438D01*
X53144830Y-90407032D01*
X53155866Y-90388619D01*
X53168654Y-90371376D01*
X53183070Y-90355470D01*
X53198976Y-90341054D01*
X53216219Y-90328266D01*
X53234632Y-90317230D01*
X53254038Y-90308051D01*
X53274250Y-90300819D01*
X53295074Y-90295603D01*
X53316309Y-90292453D01*
X53337750Y-90291400D01*
X53850250Y-90291400D01*
X53871691Y-90292453D01*
X53871691Y-90292453D01*
G37*
D22*
X53594000Y-90728900D03*
G04 #@! TD*
D21*
G04 #@! TO.C,C31*
G36*
X56259291Y-86406253D02*
X56280526Y-86409403D01*
X56301350Y-86414619D01*
X56321562Y-86421851D01*
X56340968Y-86431030D01*
X56359381Y-86442066D01*
X56376624Y-86454854D01*
X56392530Y-86469270D01*
X56406946Y-86485176D01*
X56419734Y-86502419D01*
X56430770Y-86520832D01*
X56439949Y-86540238D01*
X56447181Y-86560450D01*
X56452397Y-86581274D01*
X56455547Y-86602509D01*
X56456600Y-86623950D01*
X56456600Y-87061450D01*
X56455547Y-87082891D01*
X56452397Y-87104126D01*
X56447181Y-87124950D01*
X56439949Y-87145162D01*
X56430770Y-87164568D01*
X56419734Y-87182981D01*
X56406946Y-87200224D01*
X56392530Y-87216130D01*
X56376624Y-87230546D01*
X56359381Y-87243334D01*
X56340968Y-87254370D01*
X56321562Y-87263549D01*
X56301350Y-87270781D01*
X56280526Y-87275997D01*
X56259291Y-87279147D01*
X56237850Y-87280200D01*
X55725350Y-87280200D01*
X55703909Y-87279147D01*
X55682674Y-87275997D01*
X55661850Y-87270781D01*
X55641638Y-87263549D01*
X55622232Y-87254370D01*
X55603819Y-87243334D01*
X55586576Y-87230546D01*
X55570670Y-87216130D01*
X55556254Y-87200224D01*
X55543466Y-87182981D01*
X55532430Y-87164568D01*
X55523251Y-87145162D01*
X55516019Y-87124950D01*
X55510803Y-87104126D01*
X55507653Y-87082891D01*
X55506600Y-87061450D01*
X55506600Y-86623950D01*
X55507653Y-86602509D01*
X55510803Y-86581274D01*
X55516019Y-86560450D01*
X55523251Y-86540238D01*
X55532430Y-86520832D01*
X55543466Y-86502419D01*
X55556254Y-86485176D01*
X55570670Y-86469270D01*
X55586576Y-86454854D01*
X55603819Y-86442066D01*
X55622232Y-86431030D01*
X55641638Y-86421851D01*
X55661850Y-86414619D01*
X55682674Y-86409403D01*
X55703909Y-86406253D01*
X55725350Y-86405200D01*
X56237850Y-86405200D01*
X56259291Y-86406253D01*
X56259291Y-86406253D01*
G37*
D22*
X55981600Y-86842700D03*
D21*
G36*
X56259291Y-84831253D02*
X56280526Y-84834403D01*
X56301350Y-84839619D01*
X56321562Y-84846851D01*
X56340968Y-84856030D01*
X56359381Y-84867066D01*
X56376624Y-84879854D01*
X56392530Y-84894270D01*
X56406946Y-84910176D01*
X56419734Y-84927419D01*
X56430770Y-84945832D01*
X56439949Y-84965238D01*
X56447181Y-84985450D01*
X56452397Y-85006274D01*
X56455547Y-85027509D01*
X56456600Y-85048950D01*
X56456600Y-85486450D01*
X56455547Y-85507891D01*
X56452397Y-85529126D01*
X56447181Y-85549950D01*
X56439949Y-85570162D01*
X56430770Y-85589568D01*
X56419734Y-85607981D01*
X56406946Y-85625224D01*
X56392530Y-85641130D01*
X56376624Y-85655546D01*
X56359381Y-85668334D01*
X56340968Y-85679370D01*
X56321562Y-85688549D01*
X56301350Y-85695781D01*
X56280526Y-85700997D01*
X56259291Y-85704147D01*
X56237850Y-85705200D01*
X55725350Y-85705200D01*
X55703909Y-85704147D01*
X55682674Y-85700997D01*
X55661850Y-85695781D01*
X55641638Y-85688549D01*
X55622232Y-85679370D01*
X55603819Y-85668334D01*
X55586576Y-85655546D01*
X55570670Y-85641130D01*
X55556254Y-85625224D01*
X55543466Y-85607981D01*
X55532430Y-85589568D01*
X55523251Y-85570162D01*
X55516019Y-85549950D01*
X55510803Y-85529126D01*
X55507653Y-85507891D01*
X55506600Y-85486450D01*
X55506600Y-85048950D01*
X55507653Y-85027509D01*
X55510803Y-85006274D01*
X55516019Y-84985450D01*
X55523251Y-84965238D01*
X55532430Y-84945832D01*
X55543466Y-84927419D01*
X55556254Y-84910176D01*
X55570670Y-84894270D01*
X55586576Y-84879854D01*
X55603819Y-84867066D01*
X55622232Y-84856030D01*
X55641638Y-84846851D01*
X55661850Y-84839619D01*
X55682674Y-84834403D01*
X55703909Y-84831253D01*
X55725350Y-84830200D01*
X56237850Y-84830200D01*
X56259291Y-84831253D01*
X56259291Y-84831253D01*
G37*
D22*
X55981600Y-85267700D03*
G04 #@! TD*
D21*
G04 #@! TO.C,C32*
G36*
X72858691Y-67750453D02*
X72879926Y-67753603D01*
X72900750Y-67758819D01*
X72920962Y-67766051D01*
X72940368Y-67775230D01*
X72958781Y-67786266D01*
X72976024Y-67799054D01*
X72991930Y-67813470D01*
X73006346Y-67829376D01*
X73019134Y-67846619D01*
X73030170Y-67865032D01*
X73039349Y-67884438D01*
X73046581Y-67904650D01*
X73051797Y-67925474D01*
X73054947Y-67946709D01*
X73056000Y-67968150D01*
X73056000Y-68480650D01*
X73054947Y-68502091D01*
X73051797Y-68523326D01*
X73046581Y-68544150D01*
X73039349Y-68564362D01*
X73030170Y-68583768D01*
X73019134Y-68602181D01*
X73006346Y-68619424D01*
X72991930Y-68635330D01*
X72976024Y-68649746D01*
X72958781Y-68662534D01*
X72940368Y-68673570D01*
X72920962Y-68682749D01*
X72900750Y-68689981D01*
X72879926Y-68695197D01*
X72858691Y-68698347D01*
X72837250Y-68699400D01*
X72399750Y-68699400D01*
X72378309Y-68698347D01*
X72357074Y-68695197D01*
X72336250Y-68689981D01*
X72316038Y-68682749D01*
X72296632Y-68673570D01*
X72278219Y-68662534D01*
X72260976Y-68649746D01*
X72245070Y-68635330D01*
X72230654Y-68619424D01*
X72217866Y-68602181D01*
X72206830Y-68583768D01*
X72197651Y-68564362D01*
X72190419Y-68544150D01*
X72185203Y-68523326D01*
X72182053Y-68502091D01*
X72181000Y-68480650D01*
X72181000Y-67968150D01*
X72182053Y-67946709D01*
X72185203Y-67925474D01*
X72190419Y-67904650D01*
X72197651Y-67884438D01*
X72206830Y-67865032D01*
X72217866Y-67846619D01*
X72230654Y-67829376D01*
X72245070Y-67813470D01*
X72260976Y-67799054D01*
X72278219Y-67786266D01*
X72296632Y-67775230D01*
X72316038Y-67766051D01*
X72336250Y-67758819D01*
X72357074Y-67753603D01*
X72378309Y-67750453D01*
X72399750Y-67749400D01*
X72837250Y-67749400D01*
X72858691Y-67750453D01*
X72858691Y-67750453D01*
G37*
D22*
X72618500Y-68224400D03*
D21*
G36*
X74433691Y-67750453D02*
X74454926Y-67753603D01*
X74475750Y-67758819D01*
X74495962Y-67766051D01*
X74515368Y-67775230D01*
X74533781Y-67786266D01*
X74551024Y-67799054D01*
X74566930Y-67813470D01*
X74581346Y-67829376D01*
X74594134Y-67846619D01*
X74605170Y-67865032D01*
X74614349Y-67884438D01*
X74621581Y-67904650D01*
X74626797Y-67925474D01*
X74629947Y-67946709D01*
X74631000Y-67968150D01*
X74631000Y-68480650D01*
X74629947Y-68502091D01*
X74626797Y-68523326D01*
X74621581Y-68544150D01*
X74614349Y-68564362D01*
X74605170Y-68583768D01*
X74594134Y-68602181D01*
X74581346Y-68619424D01*
X74566930Y-68635330D01*
X74551024Y-68649746D01*
X74533781Y-68662534D01*
X74515368Y-68673570D01*
X74495962Y-68682749D01*
X74475750Y-68689981D01*
X74454926Y-68695197D01*
X74433691Y-68698347D01*
X74412250Y-68699400D01*
X73974750Y-68699400D01*
X73953309Y-68698347D01*
X73932074Y-68695197D01*
X73911250Y-68689981D01*
X73891038Y-68682749D01*
X73871632Y-68673570D01*
X73853219Y-68662534D01*
X73835976Y-68649746D01*
X73820070Y-68635330D01*
X73805654Y-68619424D01*
X73792866Y-68602181D01*
X73781830Y-68583768D01*
X73772651Y-68564362D01*
X73765419Y-68544150D01*
X73760203Y-68523326D01*
X73757053Y-68502091D01*
X73756000Y-68480650D01*
X73756000Y-67968150D01*
X73757053Y-67946709D01*
X73760203Y-67925474D01*
X73765419Y-67904650D01*
X73772651Y-67884438D01*
X73781830Y-67865032D01*
X73792866Y-67846619D01*
X73805654Y-67829376D01*
X73820070Y-67813470D01*
X73835976Y-67799054D01*
X73853219Y-67786266D01*
X73871632Y-67775230D01*
X73891038Y-67766051D01*
X73911250Y-67758819D01*
X73932074Y-67753603D01*
X73953309Y-67750453D01*
X73974750Y-67749400D01*
X74412250Y-67749400D01*
X74433691Y-67750453D01*
X74433691Y-67750453D01*
G37*
D22*
X74193500Y-68224400D03*
G04 #@! TD*
D21*
G04 #@! TO.C,C33*
G36*
X80656691Y-67750453D02*
X80677926Y-67753603D01*
X80698750Y-67758819D01*
X80718962Y-67766051D01*
X80738368Y-67775230D01*
X80756781Y-67786266D01*
X80774024Y-67799054D01*
X80789930Y-67813470D01*
X80804346Y-67829376D01*
X80817134Y-67846619D01*
X80828170Y-67865032D01*
X80837349Y-67884438D01*
X80844581Y-67904650D01*
X80849797Y-67925474D01*
X80852947Y-67946709D01*
X80854000Y-67968150D01*
X80854000Y-68480650D01*
X80852947Y-68502091D01*
X80849797Y-68523326D01*
X80844581Y-68544150D01*
X80837349Y-68564362D01*
X80828170Y-68583768D01*
X80817134Y-68602181D01*
X80804346Y-68619424D01*
X80789930Y-68635330D01*
X80774024Y-68649746D01*
X80756781Y-68662534D01*
X80738368Y-68673570D01*
X80718962Y-68682749D01*
X80698750Y-68689981D01*
X80677926Y-68695197D01*
X80656691Y-68698347D01*
X80635250Y-68699400D01*
X80197750Y-68699400D01*
X80176309Y-68698347D01*
X80155074Y-68695197D01*
X80134250Y-68689981D01*
X80114038Y-68682749D01*
X80094632Y-68673570D01*
X80076219Y-68662534D01*
X80058976Y-68649746D01*
X80043070Y-68635330D01*
X80028654Y-68619424D01*
X80015866Y-68602181D01*
X80004830Y-68583768D01*
X79995651Y-68564362D01*
X79988419Y-68544150D01*
X79983203Y-68523326D01*
X79980053Y-68502091D01*
X79979000Y-68480650D01*
X79979000Y-67968150D01*
X79980053Y-67946709D01*
X79983203Y-67925474D01*
X79988419Y-67904650D01*
X79995651Y-67884438D01*
X80004830Y-67865032D01*
X80015866Y-67846619D01*
X80028654Y-67829376D01*
X80043070Y-67813470D01*
X80058976Y-67799054D01*
X80076219Y-67786266D01*
X80094632Y-67775230D01*
X80114038Y-67766051D01*
X80134250Y-67758819D01*
X80155074Y-67753603D01*
X80176309Y-67750453D01*
X80197750Y-67749400D01*
X80635250Y-67749400D01*
X80656691Y-67750453D01*
X80656691Y-67750453D01*
G37*
D22*
X80416500Y-68224400D03*
D21*
G36*
X79081691Y-67750453D02*
X79102926Y-67753603D01*
X79123750Y-67758819D01*
X79143962Y-67766051D01*
X79163368Y-67775230D01*
X79181781Y-67786266D01*
X79199024Y-67799054D01*
X79214930Y-67813470D01*
X79229346Y-67829376D01*
X79242134Y-67846619D01*
X79253170Y-67865032D01*
X79262349Y-67884438D01*
X79269581Y-67904650D01*
X79274797Y-67925474D01*
X79277947Y-67946709D01*
X79279000Y-67968150D01*
X79279000Y-68480650D01*
X79277947Y-68502091D01*
X79274797Y-68523326D01*
X79269581Y-68544150D01*
X79262349Y-68564362D01*
X79253170Y-68583768D01*
X79242134Y-68602181D01*
X79229346Y-68619424D01*
X79214930Y-68635330D01*
X79199024Y-68649746D01*
X79181781Y-68662534D01*
X79163368Y-68673570D01*
X79143962Y-68682749D01*
X79123750Y-68689981D01*
X79102926Y-68695197D01*
X79081691Y-68698347D01*
X79060250Y-68699400D01*
X78622750Y-68699400D01*
X78601309Y-68698347D01*
X78580074Y-68695197D01*
X78559250Y-68689981D01*
X78539038Y-68682749D01*
X78519632Y-68673570D01*
X78501219Y-68662534D01*
X78483976Y-68649746D01*
X78468070Y-68635330D01*
X78453654Y-68619424D01*
X78440866Y-68602181D01*
X78429830Y-68583768D01*
X78420651Y-68564362D01*
X78413419Y-68544150D01*
X78408203Y-68523326D01*
X78405053Y-68502091D01*
X78404000Y-68480650D01*
X78404000Y-67968150D01*
X78405053Y-67946709D01*
X78408203Y-67925474D01*
X78413419Y-67904650D01*
X78420651Y-67884438D01*
X78429830Y-67865032D01*
X78440866Y-67846619D01*
X78453654Y-67829376D01*
X78468070Y-67813470D01*
X78483976Y-67799054D01*
X78501219Y-67786266D01*
X78519632Y-67775230D01*
X78539038Y-67766051D01*
X78559250Y-67758819D01*
X78580074Y-67753603D01*
X78601309Y-67750453D01*
X78622750Y-67749400D01*
X79060250Y-67749400D01*
X79081691Y-67750453D01*
X79081691Y-67750453D01*
G37*
D22*
X78841500Y-68224400D03*
G04 #@! TD*
D21*
G04 #@! TO.C,L9*
G36*
X85304891Y-70061853D02*
X85326126Y-70065003D01*
X85346950Y-70070219D01*
X85367162Y-70077451D01*
X85386568Y-70086630D01*
X85404981Y-70097666D01*
X85422224Y-70110454D01*
X85438130Y-70124870D01*
X85452546Y-70140776D01*
X85465334Y-70158019D01*
X85476370Y-70176432D01*
X85485549Y-70195838D01*
X85492781Y-70216050D01*
X85497997Y-70236874D01*
X85501147Y-70258109D01*
X85502200Y-70279550D01*
X85502200Y-70792050D01*
X85501147Y-70813491D01*
X85497997Y-70834726D01*
X85492781Y-70855550D01*
X85485549Y-70875762D01*
X85476370Y-70895168D01*
X85465334Y-70913581D01*
X85452546Y-70930824D01*
X85438130Y-70946730D01*
X85422224Y-70961146D01*
X85404981Y-70973934D01*
X85386568Y-70984970D01*
X85367162Y-70994149D01*
X85346950Y-71001381D01*
X85326126Y-71006597D01*
X85304891Y-71009747D01*
X85283450Y-71010800D01*
X84845950Y-71010800D01*
X84824509Y-71009747D01*
X84803274Y-71006597D01*
X84782450Y-71001381D01*
X84762238Y-70994149D01*
X84742832Y-70984970D01*
X84724419Y-70973934D01*
X84707176Y-70961146D01*
X84691270Y-70946730D01*
X84676854Y-70930824D01*
X84664066Y-70913581D01*
X84653030Y-70895168D01*
X84643851Y-70875762D01*
X84636619Y-70855550D01*
X84631403Y-70834726D01*
X84628253Y-70813491D01*
X84627200Y-70792050D01*
X84627200Y-70279550D01*
X84628253Y-70258109D01*
X84631403Y-70236874D01*
X84636619Y-70216050D01*
X84643851Y-70195838D01*
X84653030Y-70176432D01*
X84664066Y-70158019D01*
X84676854Y-70140776D01*
X84691270Y-70124870D01*
X84707176Y-70110454D01*
X84724419Y-70097666D01*
X84742832Y-70086630D01*
X84762238Y-70077451D01*
X84782450Y-70070219D01*
X84803274Y-70065003D01*
X84824509Y-70061853D01*
X84845950Y-70060800D01*
X85283450Y-70060800D01*
X85304891Y-70061853D01*
X85304891Y-70061853D01*
G37*
D22*
X85064700Y-70535800D03*
D21*
G36*
X83729891Y-70061853D02*
X83751126Y-70065003D01*
X83771950Y-70070219D01*
X83792162Y-70077451D01*
X83811568Y-70086630D01*
X83829981Y-70097666D01*
X83847224Y-70110454D01*
X83863130Y-70124870D01*
X83877546Y-70140776D01*
X83890334Y-70158019D01*
X83901370Y-70176432D01*
X83910549Y-70195838D01*
X83917781Y-70216050D01*
X83922997Y-70236874D01*
X83926147Y-70258109D01*
X83927200Y-70279550D01*
X83927200Y-70792050D01*
X83926147Y-70813491D01*
X83922997Y-70834726D01*
X83917781Y-70855550D01*
X83910549Y-70875762D01*
X83901370Y-70895168D01*
X83890334Y-70913581D01*
X83877546Y-70930824D01*
X83863130Y-70946730D01*
X83847224Y-70961146D01*
X83829981Y-70973934D01*
X83811568Y-70984970D01*
X83792162Y-70994149D01*
X83771950Y-71001381D01*
X83751126Y-71006597D01*
X83729891Y-71009747D01*
X83708450Y-71010800D01*
X83270950Y-71010800D01*
X83249509Y-71009747D01*
X83228274Y-71006597D01*
X83207450Y-71001381D01*
X83187238Y-70994149D01*
X83167832Y-70984970D01*
X83149419Y-70973934D01*
X83132176Y-70961146D01*
X83116270Y-70946730D01*
X83101854Y-70930824D01*
X83089066Y-70913581D01*
X83078030Y-70895168D01*
X83068851Y-70875762D01*
X83061619Y-70855550D01*
X83056403Y-70834726D01*
X83053253Y-70813491D01*
X83052200Y-70792050D01*
X83052200Y-70279550D01*
X83053253Y-70258109D01*
X83056403Y-70236874D01*
X83061619Y-70216050D01*
X83068851Y-70195838D01*
X83078030Y-70176432D01*
X83089066Y-70158019D01*
X83101854Y-70140776D01*
X83116270Y-70124870D01*
X83132176Y-70110454D01*
X83149419Y-70097666D01*
X83167832Y-70086630D01*
X83187238Y-70077451D01*
X83207450Y-70070219D01*
X83228274Y-70065003D01*
X83249509Y-70061853D01*
X83270950Y-70060800D01*
X83708450Y-70060800D01*
X83729891Y-70061853D01*
X83729891Y-70061853D01*
G37*
D22*
X83489700Y-70535800D03*
G04 #@! TD*
D21*
G04 #@! TO.C,L10*
G36*
X84643791Y-65565553D02*
X84665026Y-65568703D01*
X84685850Y-65573919D01*
X84706062Y-65581151D01*
X84725468Y-65590330D01*
X84743881Y-65601366D01*
X84761124Y-65614154D01*
X84777030Y-65628570D01*
X84791446Y-65644476D01*
X84804234Y-65661719D01*
X84815270Y-65680132D01*
X84824449Y-65699538D01*
X84831681Y-65719750D01*
X84836897Y-65740574D01*
X84840047Y-65761809D01*
X84841100Y-65783250D01*
X84841100Y-66220750D01*
X84840047Y-66242191D01*
X84836897Y-66263426D01*
X84831681Y-66284250D01*
X84824449Y-66304462D01*
X84815270Y-66323868D01*
X84804234Y-66342281D01*
X84791446Y-66359524D01*
X84777030Y-66375430D01*
X84761124Y-66389846D01*
X84743881Y-66402634D01*
X84725468Y-66413670D01*
X84706062Y-66422849D01*
X84685850Y-66430081D01*
X84665026Y-66435297D01*
X84643791Y-66438447D01*
X84622350Y-66439500D01*
X84109850Y-66439500D01*
X84088409Y-66438447D01*
X84067174Y-66435297D01*
X84046350Y-66430081D01*
X84026138Y-66422849D01*
X84006732Y-66413670D01*
X83988319Y-66402634D01*
X83971076Y-66389846D01*
X83955170Y-66375430D01*
X83940754Y-66359524D01*
X83927966Y-66342281D01*
X83916930Y-66323868D01*
X83907751Y-66304462D01*
X83900519Y-66284250D01*
X83895303Y-66263426D01*
X83892153Y-66242191D01*
X83891100Y-66220750D01*
X83891100Y-65783250D01*
X83892153Y-65761809D01*
X83895303Y-65740574D01*
X83900519Y-65719750D01*
X83907751Y-65699538D01*
X83916930Y-65680132D01*
X83927966Y-65661719D01*
X83940754Y-65644476D01*
X83955170Y-65628570D01*
X83971076Y-65614154D01*
X83988319Y-65601366D01*
X84006732Y-65590330D01*
X84026138Y-65581151D01*
X84046350Y-65573919D01*
X84067174Y-65568703D01*
X84088409Y-65565553D01*
X84109850Y-65564500D01*
X84622350Y-65564500D01*
X84643791Y-65565553D01*
X84643791Y-65565553D01*
G37*
D22*
X84366100Y-66002000D03*
D21*
G36*
X84643791Y-63990553D02*
X84665026Y-63993703D01*
X84685850Y-63998919D01*
X84706062Y-64006151D01*
X84725468Y-64015330D01*
X84743881Y-64026366D01*
X84761124Y-64039154D01*
X84777030Y-64053570D01*
X84791446Y-64069476D01*
X84804234Y-64086719D01*
X84815270Y-64105132D01*
X84824449Y-64124538D01*
X84831681Y-64144750D01*
X84836897Y-64165574D01*
X84840047Y-64186809D01*
X84841100Y-64208250D01*
X84841100Y-64645750D01*
X84840047Y-64667191D01*
X84836897Y-64688426D01*
X84831681Y-64709250D01*
X84824449Y-64729462D01*
X84815270Y-64748868D01*
X84804234Y-64767281D01*
X84791446Y-64784524D01*
X84777030Y-64800430D01*
X84761124Y-64814846D01*
X84743881Y-64827634D01*
X84725468Y-64838670D01*
X84706062Y-64847849D01*
X84685850Y-64855081D01*
X84665026Y-64860297D01*
X84643791Y-64863447D01*
X84622350Y-64864500D01*
X84109850Y-64864500D01*
X84088409Y-64863447D01*
X84067174Y-64860297D01*
X84046350Y-64855081D01*
X84026138Y-64847849D01*
X84006732Y-64838670D01*
X83988319Y-64827634D01*
X83971076Y-64814846D01*
X83955170Y-64800430D01*
X83940754Y-64784524D01*
X83927966Y-64767281D01*
X83916930Y-64748868D01*
X83907751Y-64729462D01*
X83900519Y-64709250D01*
X83895303Y-64688426D01*
X83892153Y-64667191D01*
X83891100Y-64645750D01*
X83891100Y-64208250D01*
X83892153Y-64186809D01*
X83895303Y-64165574D01*
X83900519Y-64144750D01*
X83907751Y-64124538D01*
X83916930Y-64105132D01*
X83927966Y-64086719D01*
X83940754Y-64069476D01*
X83955170Y-64053570D01*
X83971076Y-64039154D01*
X83988319Y-64026366D01*
X84006732Y-64015330D01*
X84026138Y-64006151D01*
X84046350Y-63998919D01*
X84067174Y-63993703D01*
X84088409Y-63990553D01*
X84109850Y-63989500D01*
X84622350Y-63989500D01*
X84643791Y-63990553D01*
X84643791Y-63990553D01*
G37*
D22*
X84366100Y-64427000D03*
G04 #@! TD*
D21*
G04 #@! TO.C,L11*
G36*
X88378291Y-67026553D02*
X88399526Y-67029703D01*
X88420350Y-67034919D01*
X88440562Y-67042151D01*
X88459968Y-67051330D01*
X88478381Y-67062366D01*
X88495624Y-67075154D01*
X88511530Y-67089570D01*
X88525946Y-67105476D01*
X88538734Y-67122719D01*
X88549770Y-67141132D01*
X88558949Y-67160538D01*
X88566181Y-67180750D01*
X88571397Y-67201574D01*
X88574547Y-67222809D01*
X88575600Y-67244250D01*
X88575600Y-67756750D01*
X88574547Y-67778191D01*
X88571397Y-67799426D01*
X88566181Y-67820250D01*
X88558949Y-67840462D01*
X88549770Y-67859868D01*
X88538734Y-67878281D01*
X88525946Y-67895524D01*
X88511530Y-67911430D01*
X88495624Y-67925846D01*
X88478381Y-67938634D01*
X88459968Y-67949670D01*
X88440562Y-67958849D01*
X88420350Y-67966081D01*
X88399526Y-67971297D01*
X88378291Y-67974447D01*
X88356850Y-67975500D01*
X87919350Y-67975500D01*
X87897909Y-67974447D01*
X87876674Y-67971297D01*
X87855850Y-67966081D01*
X87835638Y-67958849D01*
X87816232Y-67949670D01*
X87797819Y-67938634D01*
X87780576Y-67925846D01*
X87764670Y-67911430D01*
X87750254Y-67895524D01*
X87737466Y-67878281D01*
X87726430Y-67859868D01*
X87717251Y-67840462D01*
X87710019Y-67820250D01*
X87704803Y-67799426D01*
X87701653Y-67778191D01*
X87700600Y-67756750D01*
X87700600Y-67244250D01*
X87701653Y-67222809D01*
X87704803Y-67201574D01*
X87710019Y-67180750D01*
X87717251Y-67160538D01*
X87726430Y-67141132D01*
X87737466Y-67122719D01*
X87750254Y-67105476D01*
X87764670Y-67089570D01*
X87780576Y-67075154D01*
X87797819Y-67062366D01*
X87816232Y-67051330D01*
X87835638Y-67042151D01*
X87855850Y-67034919D01*
X87876674Y-67029703D01*
X87897909Y-67026553D01*
X87919350Y-67025500D01*
X88356850Y-67025500D01*
X88378291Y-67026553D01*
X88378291Y-67026553D01*
G37*
D22*
X88138100Y-67500500D03*
D21*
G36*
X86803291Y-67026553D02*
X86824526Y-67029703D01*
X86845350Y-67034919D01*
X86865562Y-67042151D01*
X86884968Y-67051330D01*
X86903381Y-67062366D01*
X86920624Y-67075154D01*
X86936530Y-67089570D01*
X86950946Y-67105476D01*
X86963734Y-67122719D01*
X86974770Y-67141132D01*
X86983949Y-67160538D01*
X86991181Y-67180750D01*
X86996397Y-67201574D01*
X86999547Y-67222809D01*
X87000600Y-67244250D01*
X87000600Y-67756750D01*
X86999547Y-67778191D01*
X86996397Y-67799426D01*
X86991181Y-67820250D01*
X86983949Y-67840462D01*
X86974770Y-67859868D01*
X86963734Y-67878281D01*
X86950946Y-67895524D01*
X86936530Y-67911430D01*
X86920624Y-67925846D01*
X86903381Y-67938634D01*
X86884968Y-67949670D01*
X86865562Y-67958849D01*
X86845350Y-67966081D01*
X86824526Y-67971297D01*
X86803291Y-67974447D01*
X86781850Y-67975500D01*
X86344350Y-67975500D01*
X86322909Y-67974447D01*
X86301674Y-67971297D01*
X86280850Y-67966081D01*
X86260638Y-67958849D01*
X86241232Y-67949670D01*
X86222819Y-67938634D01*
X86205576Y-67925846D01*
X86189670Y-67911430D01*
X86175254Y-67895524D01*
X86162466Y-67878281D01*
X86151430Y-67859868D01*
X86142251Y-67840462D01*
X86135019Y-67820250D01*
X86129803Y-67799426D01*
X86126653Y-67778191D01*
X86125600Y-67756750D01*
X86125600Y-67244250D01*
X86126653Y-67222809D01*
X86129803Y-67201574D01*
X86135019Y-67180750D01*
X86142251Y-67160538D01*
X86151430Y-67141132D01*
X86162466Y-67122719D01*
X86175254Y-67105476D01*
X86189670Y-67089570D01*
X86205576Y-67075154D01*
X86222819Y-67062366D01*
X86241232Y-67051330D01*
X86260638Y-67042151D01*
X86280850Y-67034919D01*
X86301674Y-67029703D01*
X86322909Y-67026553D01*
X86344350Y-67025500D01*
X86781850Y-67025500D01*
X86803291Y-67026553D01*
X86803291Y-67026553D01*
G37*
D22*
X86563100Y-67500500D03*
G04 #@! TD*
D21*
G04 #@! TO.C,L12*
G36*
X89965791Y-63953153D02*
X89987026Y-63956303D01*
X90007850Y-63961519D01*
X90028062Y-63968751D01*
X90047468Y-63977930D01*
X90065881Y-63988966D01*
X90083124Y-64001754D01*
X90099030Y-64016170D01*
X90113446Y-64032076D01*
X90126234Y-64049319D01*
X90137270Y-64067732D01*
X90146449Y-64087138D01*
X90153681Y-64107350D01*
X90158897Y-64128174D01*
X90162047Y-64149409D01*
X90163100Y-64170850D01*
X90163100Y-64683350D01*
X90162047Y-64704791D01*
X90158897Y-64726026D01*
X90153681Y-64746850D01*
X90146449Y-64767062D01*
X90137270Y-64786468D01*
X90126234Y-64804881D01*
X90113446Y-64822124D01*
X90099030Y-64838030D01*
X90083124Y-64852446D01*
X90065881Y-64865234D01*
X90047468Y-64876270D01*
X90028062Y-64885449D01*
X90007850Y-64892681D01*
X89987026Y-64897897D01*
X89965791Y-64901047D01*
X89944350Y-64902100D01*
X89506850Y-64902100D01*
X89485409Y-64901047D01*
X89464174Y-64897897D01*
X89443350Y-64892681D01*
X89423138Y-64885449D01*
X89403732Y-64876270D01*
X89385319Y-64865234D01*
X89368076Y-64852446D01*
X89352170Y-64838030D01*
X89337754Y-64822124D01*
X89324966Y-64804881D01*
X89313930Y-64786468D01*
X89304751Y-64767062D01*
X89297519Y-64746850D01*
X89292303Y-64726026D01*
X89289153Y-64704791D01*
X89288100Y-64683350D01*
X89288100Y-64170850D01*
X89289153Y-64149409D01*
X89292303Y-64128174D01*
X89297519Y-64107350D01*
X89304751Y-64087138D01*
X89313930Y-64067732D01*
X89324966Y-64049319D01*
X89337754Y-64032076D01*
X89352170Y-64016170D01*
X89368076Y-64001754D01*
X89385319Y-63988966D01*
X89403732Y-63977930D01*
X89423138Y-63968751D01*
X89443350Y-63961519D01*
X89464174Y-63956303D01*
X89485409Y-63953153D01*
X89506850Y-63952100D01*
X89944350Y-63952100D01*
X89965791Y-63953153D01*
X89965791Y-63953153D01*
G37*
D22*
X89725600Y-64427100D03*
D21*
G36*
X88390791Y-63953153D02*
X88412026Y-63956303D01*
X88432850Y-63961519D01*
X88453062Y-63968751D01*
X88472468Y-63977930D01*
X88490881Y-63988966D01*
X88508124Y-64001754D01*
X88524030Y-64016170D01*
X88538446Y-64032076D01*
X88551234Y-64049319D01*
X88562270Y-64067732D01*
X88571449Y-64087138D01*
X88578681Y-64107350D01*
X88583897Y-64128174D01*
X88587047Y-64149409D01*
X88588100Y-64170850D01*
X88588100Y-64683350D01*
X88587047Y-64704791D01*
X88583897Y-64726026D01*
X88578681Y-64746850D01*
X88571449Y-64767062D01*
X88562270Y-64786468D01*
X88551234Y-64804881D01*
X88538446Y-64822124D01*
X88524030Y-64838030D01*
X88508124Y-64852446D01*
X88490881Y-64865234D01*
X88472468Y-64876270D01*
X88453062Y-64885449D01*
X88432850Y-64892681D01*
X88412026Y-64897897D01*
X88390791Y-64901047D01*
X88369350Y-64902100D01*
X87931850Y-64902100D01*
X87910409Y-64901047D01*
X87889174Y-64897897D01*
X87868350Y-64892681D01*
X87848138Y-64885449D01*
X87828732Y-64876270D01*
X87810319Y-64865234D01*
X87793076Y-64852446D01*
X87777170Y-64838030D01*
X87762754Y-64822124D01*
X87749966Y-64804881D01*
X87738930Y-64786468D01*
X87729751Y-64767062D01*
X87722519Y-64746850D01*
X87717303Y-64726026D01*
X87714153Y-64704791D01*
X87713100Y-64683350D01*
X87713100Y-64170850D01*
X87714153Y-64149409D01*
X87717303Y-64128174D01*
X87722519Y-64107350D01*
X87729751Y-64087138D01*
X87738930Y-64067732D01*
X87749966Y-64049319D01*
X87762754Y-64032076D01*
X87777170Y-64016170D01*
X87793076Y-64001754D01*
X87810319Y-63988966D01*
X87828732Y-63977930D01*
X87848138Y-63968751D01*
X87868350Y-63961519D01*
X87889174Y-63956303D01*
X87910409Y-63953153D01*
X87931850Y-63952100D01*
X88369350Y-63952100D01*
X88390791Y-63953153D01*
X88390791Y-63953153D01*
G37*
D22*
X88150600Y-64427100D03*
G04 #@! TD*
D21*
G04 #@! TO.C,L13*
G36*
X93051191Y-62415753D02*
X93072426Y-62418903D01*
X93093250Y-62424119D01*
X93113462Y-62431351D01*
X93132868Y-62440530D01*
X93151281Y-62451566D01*
X93168524Y-62464354D01*
X93184430Y-62478770D01*
X93198846Y-62494676D01*
X93211634Y-62511919D01*
X93222670Y-62530332D01*
X93231849Y-62549738D01*
X93239081Y-62569950D01*
X93244297Y-62590774D01*
X93247447Y-62612009D01*
X93248500Y-62633450D01*
X93248500Y-63070950D01*
X93247447Y-63092391D01*
X93244297Y-63113626D01*
X93239081Y-63134450D01*
X93231849Y-63154662D01*
X93222670Y-63174068D01*
X93211634Y-63192481D01*
X93198846Y-63209724D01*
X93184430Y-63225630D01*
X93168524Y-63240046D01*
X93151281Y-63252834D01*
X93132868Y-63263870D01*
X93113462Y-63273049D01*
X93093250Y-63280281D01*
X93072426Y-63285497D01*
X93051191Y-63288647D01*
X93029750Y-63289700D01*
X92517250Y-63289700D01*
X92495809Y-63288647D01*
X92474574Y-63285497D01*
X92453750Y-63280281D01*
X92433538Y-63273049D01*
X92414132Y-63263870D01*
X92395719Y-63252834D01*
X92378476Y-63240046D01*
X92362570Y-63225630D01*
X92348154Y-63209724D01*
X92335366Y-63192481D01*
X92324330Y-63174068D01*
X92315151Y-63154662D01*
X92307919Y-63134450D01*
X92302703Y-63113626D01*
X92299553Y-63092391D01*
X92298500Y-63070950D01*
X92298500Y-62633450D01*
X92299553Y-62612009D01*
X92302703Y-62590774D01*
X92307919Y-62569950D01*
X92315151Y-62549738D01*
X92324330Y-62530332D01*
X92335366Y-62511919D01*
X92348154Y-62494676D01*
X92362570Y-62478770D01*
X92378476Y-62464354D01*
X92395719Y-62451566D01*
X92414132Y-62440530D01*
X92433538Y-62431351D01*
X92453750Y-62424119D01*
X92474574Y-62418903D01*
X92495809Y-62415753D01*
X92517250Y-62414700D01*
X93029750Y-62414700D01*
X93051191Y-62415753D01*
X93051191Y-62415753D01*
G37*
D22*
X92773500Y-62852200D03*
D21*
G36*
X93051191Y-63990753D02*
X93072426Y-63993903D01*
X93093250Y-63999119D01*
X93113462Y-64006351D01*
X93132868Y-64015530D01*
X93151281Y-64026566D01*
X93168524Y-64039354D01*
X93184430Y-64053770D01*
X93198846Y-64069676D01*
X93211634Y-64086919D01*
X93222670Y-64105332D01*
X93231849Y-64124738D01*
X93239081Y-64144950D01*
X93244297Y-64165774D01*
X93247447Y-64187009D01*
X93248500Y-64208450D01*
X93248500Y-64645950D01*
X93247447Y-64667391D01*
X93244297Y-64688626D01*
X93239081Y-64709450D01*
X93231849Y-64729662D01*
X93222670Y-64749068D01*
X93211634Y-64767481D01*
X93198846Y-64784724D01*
X93184430Y-64800630D01*
X93168524Y-64815046D01*
X93151281Y-64827834D01*
X93132868Y-64838870D01*
X93113462Y-64848049D01*
X93093250Y-64855281D01*
X93072426Y-64860497D01*
X93051191Y-64863647D01*
X93029750Y-64864700D01*
X92517250Y-64864700D01*
X92495809Y-64863647D01*
X92474574Y-64860497D01*
X92453750Y-64855281D01*
X92433538Y-64848049D01*
X92414132Y-64838870D01*
X92395719Y-64827834D01*
X92378476Y-64815046D01*
X92362570Y-64800630D01*
X92348154Y-64784724D01*
X92335366Y-64767481D01*
X92324330Y-64749068D01*
X92315151Y-64729662D01*
X92307919Y-64709450D01*
X92302703Y-64688626D01*
X92299553Y-64667391D01*
X92298500Y-64645950D01*
X92298500Y-64208450D01*
X92299553Y-64187009D01*
X92302703Y-64165774D01*
X92307919Y-64144950D01*
X92315151Y-64124738D01*
X92324330Y-64105332D01*
X92335366Y-64086919D01*
X92348154Y-64069676D01*
X92362570Y-64053770D01*
X92378476Y-64039354D01*
X92395719Y-64026566D01*
X92414132Y-64015530D01*
X92433538Y-64006351D01*
X92453750Y-63999119D01*
X92474574Y-63993903D01*
X92495809Y-63990753D01*
X92517250Y-63989700D01*
X93029750Y-63989700D01*
X93051191Y-63990753D01*
X93051191Y-63990753D01*
G37*
D22*
X92773500Y-64427200D03*
G04 #@! TD*
D21*
G04 #@! TO.C,L14*
G36*
X94499491Y-63940453D02*
X94520726Y-63943603D01*
X94541550Y-63948819D01*
X94561762Y-63956051D01*
X94581168Y-63965230D01*
X94599581Y-63976266D01*
X94616824Y-63989054D01*
X94632730Y-64003470D01*
X94647146Y-64019376D01*
X94659934Y-64036619D01*
X94670970Y-64055032D01*
X94680149Y-64074438D01*
X94687381Y-64094650D01*
X94692597Y-64115474D01*
X94695747Y-64136709D01*
X94696800Y-64158150D01*
X94696800Y-64670650D01*
X94695747Y-64692091D01*
X94692597Y-64713326D01*
X94687381Y-64734150D01*
X94680149Y-64754362D01*
X94670970Y-64773768D01*
X94659934Y-64792181D01*
X94647146Y-64809424D01*
X94632730Y-64825330D01*
X94616824Y-64839746D01*
X94599581Y-64852534D01*
X94581168Y-64863570D01*
X94561762Y-64872749D01*
X94541550Y-64879981D01*
X94520726Y-64885197D01*
X94499491Y-64888347D01*
X94478050Y-64889400D01*
X94040550Y-64889400D01*
X94019109Y-64888347D01*
X93997874Y-64885197D01*
X93977050Y-64879981D01*
X93956838Y-64872749D01*
X93937432Y-64863570D01*
X93919019Y-64852534D01*
X93901776Y-64839746D01*
X93885870Y-64825330D01*
X93871454Y-64809424D01*
X93858666Y-64792181D01*
X93847630Y-64773768D01*
X93838451Y-64754362D01*
X93831219Y-64734150D01*
X93826003Y-64713326D01*
X93822853Y-64692091D01*
X93821800Y-64670650D01*
X93821800Y-64158150D01*
X93822853Y-64136709D01*
X93826003Y-64115474D01*
X93831219Y-64094650D01*
X93838451Y-64074438D01*
X93847630Y-64055032D01*
X93858666Y-64036619D01*
X93871454Y-64019376D01*
X93885870Y-64003470D01*
X93901776Y-63989054D01*
X93919019Y-63976266D01*
X93937432Y-63965230D01*
X93956838Y-63956051D01*
X93977050Y-63948819D01*
X93997874Y-63943603D01*
X94019109Y-63940453D01*
X94040550Y-63939400D01*
X94478050Y-63939400D01*
X94499491Y-63940453D01*
X94499491Y-63940453D01*
G37*
D22*
X94259300Y-64414400D03*
D21*
G36*
X96074491Y-63940453D02*
X96095726Y-63943603D01*
X96116550Y-63948819D01*
X96136762Y-63956051D01*
X96156168Y-63965230D01*
X96174581Y-63976266D01*
X96191824Y-63989054D01*
X96207730Y-64003470D01*
X96222146Y-64019376D01*
X96234934Y-64036619D01*
X96245970Y-64055032D01*
X96255149Y-64074438D01*
X96262381Y-64094650D01*
X96267597Y-64115474D01*
X96270747Y-64136709D01*
X96271800Y-64158150D01*
X96271800Y-64670650D01*
X96270747Y-64692091D01*
X96267597Y-64713326D01*
X96262381Y-64734150D01*
X96255149Y-64754362D01*
X96245970Y-64773768D01*
X96234934Y-64792181D01*
X96222146Y-64809424D01*
X96207730Y-64825330D01*
X96191824Y-64839746D01*
X96174581Y-64852534D01*
X96156168Y-64863570D01*
X96136762Y-64872749D01*
X96116550Y-64879981D01*
X96095726Y-64885197D01*
X96074491Y-64888347D01*
X96053050Y-64889400D01*
X95615550Y-64889400D01*
X95594109Y-64888347D01*
X95572874Y-64885197D01*
X95552050Y-64879981D01*
X95531838Y-64872749D01*
X95512432Y-64863570D01*
X95494019Y-64852534D01*
X95476776Y-64839746D01*
X95460870Y-64825330D01*
X95446454Y-64809424D01*
X95433666Y-64792181D01*
X95422630Y-64773768D01*
X95413451Y-64754362D01*
X95406219Y-64734150D01*
X95401003Y-64713326D01*
X95397853Y-64692091D01*
X95396800Y-64670650D01*
X95396800Y-64158150D01*
X95397853Y-64136709D01*
X95401003Y-64115474D01*
X95406219Y-64094650D01*
X95413451Y-64074438D01*
X95422630Y-64055032D01*
X95433666Y-64036619D01*
X95446454Y-64019376D01*
X95460870Y-64003470D01*
X95476776Y-63989054D01*
X95494019Y-63976266D01*
X95512432Y-63965230D01*
X95531838Y-63956051D01*
X95552050Y-63948819D01*
X95572874Y-63943603D01*
X95594109Y-63940453D01*
X95615550Y-63939400D01*
X96053050Y-63939400D01*
X96074491Y-63940453D01*
X96074491Y-63940453D01*
G37*
D22*
X95834300Y-64414400D03*
G04 #@! TD*
D21*
G04 #@! TO.C,L15*
G36*
X101891091Y-66099453D02*
X101912326Y-66102603D01*
X101933150Y-66107819D01*
X101953362Y-66115051D01*
X101972768Y-66124230D01*
X101991181Y-66135266D01*
X102008424Y-66148054D01*
X102024330Y-66162470D01*
X102038746Y-66178376D01*
X102051534Y-66195619D01*
X102062570Y-66214032D01*
X102071749Y-66233438D01*
X102078981Y-66253650D01*
X102084197Y-66274474D01*
X102087347Y-66295709D01*
X102088400Y-66317150D01*
X102088400Y-66829650D01*
X102087347Y-66851091D01*
X102084197Y-66872326D01*
X102078981Y-66893150D01*
X102071749Y-66913362D01*
X102062570Y-66932768D01*
X102051534Y-66951181D01*
X102038746Y-66968424D01*
X102024330Y-66984330D01*
X102008424Y-66998746D01*
X101991181Y-67011534D01*
X101972768Y-67022570D01*
X101953362Y-67031749D01*
X101933150Y-67038981D01*
X101912326Y-67044197D01*
X101891091Y-67047347D01*
X101869650Y-67048400D01*
X101432150Y-67048400D01*
X101410709Y-67047347D01*
X101389474Y-67044197D01*
X101368650Y-67038981D01*
X101348438Y-67031749D01*
X101329032Y-67022570D01*
X101310619Y-67011534D01*
X101293376Y-66998746D01*
X101277470Y-66984330D01*
X101263054Y-66968424D01*
X101250266Y-66951181D01*
X101239230Y-66932768D01*
X101230051Y-66913362D01*
X101222819Y-66893150D01*
X101217603Y-66872326D01*
X101214453Y-66851091D01*
X101213400Y-66829650D01*
X101213400Y-66317150D01*
X101214453Y-66295709D01*
X101217603Y-66274474D01*
X101222819Y-66253650D01*
X101230051Y-66233438D01*
X101239230Y-66214032D01*
X101250266Y-66195619D01*
X101263054Y-66178376D01*
X101277470Y-66162470D01*
X101293376Y-66148054D01*
X101310619Y-66135266D01*
X101329032Y-66124230D01*
X101348438Y-66115051D01*
X101368650Y-66107819D01*
X101389474Y-66102603D01*
X101410709Y-66099453D01*
X101432150Y-66098400D01*
X101869650Y-66098400D01*
X101891091Y-66099453D01*
X101891091Y-66099453D01*
G37*
D22*
X101650900Y-66573400D03*
D21*
G36*
X100316091Y-66099453D02*
X100337326Y-66102603D01*
X100358150Y-66107819D01*
X100378362Y-66115051D01*
X100397768Y-66124230D01*
X100416181Y-66135266D01*
X100433424Y-66148054D01*
X100449330Y-66162470D01*
X100463746Y-66178376D01*
X100476534Y-66195619D01*
X100487570Y-66214032D01*
X100496749Y-66233438D01*
X100503981Y-66253650D01*
X100509197Y-66274474D01*
X100512347Y-66295709D01*
X100513400Y-66317150D01*
X100513400Y-66829650D01*
X100512347Y-66851091D01*
X100509197Y-66872326D01*
X100503981Y-66893150D01*
X100496749Y-66913362D01*
X100487570Y-66932768D01*
X100476534Y-66951181D01*
X100463746Y-66968424D01*
X100449330Y-66984330D01*
X100433424Y-66998746D01*
X100416181Y-67011534D01*
X100397768Y-67022570D01*
X100378362Y-67031749D01*
X100358150Y-67038981D01*
X100337326Y-67044197D01*
X100316091Y-67047347D01*
X100294650Y-67048400D01*
X99857150Y-67048400D01*
X99835709Y-67047347D01*
X99814474Y-67044197D01*
X99793650Y-67038981D01*
X99773438Y-67031749D01*
X99754032Y-67022570D01*
X99735619Y-67011534D01*
X99718376Y-66998746D01*
X99702470Y-66984330D01*
X99688054Y-66968424D01*
X99675266Y-66951181D01*
X99664230Y-66932768D01*
X99655051Y-66913362D01*
X99647819Y-66893150D01*
X99642603Y-66872326D01*
X99639453Y-66851091D01*
X99638400Y-66829650D01*
X99638400Y-66317150D01*
X99639453Y-66295709D01*
X99642603Y-66274474D01*
X99647819Y-66253650D01*
X99655051Y-66233438D01*
X99664230Y-66214032D01*
X99675266Y-66195619D01*
X99688054Y-66178376D01*
X99702470Y-66162470D01*
X99718376Y-66148054D01*
X99735619Y-66135266D01*
X99754032Y-66124230D01*
X99773438Y-66115051D01*
X99793650Y-66107819D01*
X99814474Y-66102603D01*
X99835709Y-66099453D01*
X99857150Y-66098400D01*
X100294650Y-66098400D01*
X100316091Y-66099453D01*
X100316091Y-66099453D01*
G37*
D22*
X100075900Y-66573400D03*
G04 #@! TD*
D21*
G04 #@! TO.C,L16*
G36*
X101916491Y-69757053D02*
X101937726Y-69760203D01*
X101958550Y-69765419D01*
X101978762Y-69772651D01*
X101998168Y-69781830D01*
X102016581Y-69792866D01*
X102033824Y-69805654D01*
X102049730Y-69820070D01*
X102064146Y-69835976D01*
X102076934Y-69853219D01*
X102087970Y-69871632D01*
X102097149Y-69891038D01*
X102104381Y-69911250D01*
X102109597Y-69932074D01*
X102112747Y-69953309D01*
X102113800Y-69974750D01*
X102113800Y-70487250D01*
X102112747Y-70508691D01*
X102109597Y-70529926D01*
X102104381Y-70550750D01*
X102097149Y-70570962D01*
X102087970Y-70590368D01*
X102076934Y-70608781D01*
X102064146Y-70626024D01*
X102049730Y-70641930D01*
X102033824Y-70656346D01*
X102016581Y-70669134D01*
X101998168Y-70680170D01*
X101978762Y-70689349D01*
X101958550Y-70696581D01*
X101937726Y-70701797D01*
X101916491Y-70704947D01*
X101895050Y-70706000D01*
X101457550Y-70706000D01*
X101436109Y-70704947D01*
X101414874Y-70701797D01*
X101394050Y-70696581D01*
X101373838Y-70689349D01*
X101354432Y-70680170D01*
X101336019Y-70669134D01*
X101318776Y-70656346D01*
X101302870Y-70641930D01*
X101288454Y-70626024D01*
X101275666Y-70608781D01*
X101264630Y-70590368D01*
X101255451Y-70570962D01*
X101248219Y-70550750D01*
X101243003Y-70529926D01*
X101239853Y-70508691D01*
X101238800Y-70487250D01*
X101238800Y-69974750D01*
X101239853Y-69953309D01*
X101243003Y-69932074D01*
X101248219Y-69911250D01*
X101255451Y-69891038D01*
X101264630Y-69871632D01*
X101275666Y-69853219D01*
X101288454Y-69835976D01*
X101302870Y-69820070D01*
X101318776Y-69805654D01*
X101336019Y-69792866D01*
X101354432Y-69781830D01*
X101373838Y-69772651D01*
X101394050Y-69765419D01*
X101414874Y-69760203D01*
X101436109Y-69757053D01*
X101457550Y-69756000D01*
X101895050Y-69756000D01*
X101916491Y-69757053D01*
X101916491Y-69757053D01*
G37*
D22*
X101676300Y-70231000D03*
D21*
G36*
X100341491Y-69757053D02*
X100362726Y-69760203D01*
X100383550Y-69765419D01*
X100403762Y-69772651D01*
X100423168Y-69781830D01*
X100441581Y-69792866D01*
X100458824Y-69805654D01*
X100474730Y-69820070D01*
X100489146Y-69835976D01*
X100501934Y-69853219D01*
X100512970Y-69871632D01*
X100522149Y-69891038D01*
X100529381Y-69911250D01*
X100534597Y-69932074D01*
X100537747Y-69953309D01*
X100538800Y-69974750D01*
X100538800Y-70487250D01*
X100537747Y-70508691D01*
X100534597Y-70529926D01*
X100529381Y-70550750D01*
X100522149Y-70570962D01*
X100512970Y-70590368D01*
X100501934Y-70608781D01*
X100489146Y-70626024D01*
X100474730Y-70641930D01*
X100458824Y-70656346D01*
X100441581Y-70669134D01*
X100423168Y-70680170D01*
X100403762Y-70689349D01*
X100383550Y-70696581D01*
X100362726Y-70701797D01*
X100341491Y-70704947D01*
X100320050Y-70706000D01*
X99882550Y-70706000D01*
X99861109Y-70704947D01*
X99839874Y-70701797D01*
X99819050Y-70696581D01*
X99798838Y-70689349D01*
X99779432Y-70680170D01*
X99761019Y-70669134D01*
X99743776Y-70656346D01*
X99727870Y-70641930D01*
X99713454Y-70626024D01*
X99700666Y-70608781D01*
X99689630Y-70590368D01*
X99680451Y-70570962D01*
X99673219Y-70550750D01*
X99668003Y-70529926D01*
X99664853Y-70508691D01*
X99663800Y-70487250D01*
X99663800Y-69974750D01*
X99664853Y-69953309D01*
X99668003Y-69932074D01*
X99673219Y-69911250D01*
X99680451Y-69891038D01*
X99689630Y-69871632D01*
X99700666Y-69853219D01*
X99713454Y-69835976D01*
X99727870Y-69820070D01*
X99743776Y-69805654D01*
X99761019Y-69792866D01*
X99779432Y-69781830D01*
X99798838Y-69772651D01*
X99819050Y-69765419D01*
X99839874Y-69760203D01*
X99861109Y-69757053D01*
X99882550Y-69756000D01*
X100320050Y-69756000D01*
X100341491Y-69757053D01*
X100341491Y-69757053D01*
G37*
D22*
X100101300Y-70231000D03*
G04 #@! TD*
D21*
G04 #@! TO.C,L17*
G36*
X95857891Y-69832553D02*
X95879126Y-69835703D01*
X95899950Y-69840919D01*
X95920162Y-69848151D01*
X95939568Y-69857330D01*
X95957981Y-69868366D01*
X95975224Y-69881154D01*
X95991130Y-69895570D01*
X96005546Y-69911476D01*
X96018334Y-69928719D01*
X96029370Y-69947132D01*
X96038549Y-69966538D01*
X96045781Y-69986750D01*
X96050997Y-70007574D01*
X96054147Y-70028809D01*
X96055200Y-70050250D01*
X96055200Y-70487750D01*
X96054147Y-70509191D01*
X96050997Y-70530426D01*
X96045781Y-70551250D01*
X96038549Y-70571462D01*
X96029370Y-70590868D01*
X96018334Y-70609281D01*
X96005546Y-70626524D01*
X95991130Y-70642430D01*
X95975224Y-70656846D01*
X95957981Y-70669634D01*
X95939568Y-70680670D01*
X95920162Y-70689849D01*
X95899950Y-70697081D01*
X95879126Y-70702297D01*
X95857891Y-70705447D01*
X95836450Y-70706500D01*
X95323950Y-70706500D01*
X95302509Y-70705447D01*
X95281274Y-70702297D01*
X95260450Y-70697081D01*
X95240238Y-70689849D01*
X95220832Y-70680670D01*
X95202419Y-70669634D01*
X95185176Y-70656846D01*
X95169270Y-70642430D01*
X95154854Y-70626524D01*
X95142066Y-70609281D01*
X95131030Y-70590868D01*
X95121851Y-70571462D01*
X95114619Y-70551250D01*
X95109403Y-70530426D01*
X95106253Y-70509191D01*
X95105200Y-70487750D01*
X95105200Y-70050250D01*
X95106253Y-70028809D01*
X95109403Y-70007574D01*
X95114619Y-69986750D01*
X95121851Y-69966538D01*
X95131030Y-69947132D01*
X95142066Y-69928719D01*
X95154854Y-69911476D01*
X95169270Y-69895570D01*
X95185176Y-69881154D01*
X95202419Y-69868366D01*
X95220832Y-69857330D01*
X95240238Y-69848151D01*
X95260450Y-69840919D01*
X95281274Y-69835703D01*
X95302509Y-69832553D01*
X95323950Y-69831500D01*
X95836450Y-69831500D01*
X95857891Y-69832553D01*
X95857891Y-69832553D01*
G37*
D22*
X95580200Y-70269000D03*
D21*
G36*
X95857891Y-71407553D02*
X95879126Y-71410703D01*
X95899950Y-71415919D01*
X95920162Y-71423151D01*
X95939568Y-71432330D01*
X95957981Y-71443366D01*
X95975224Y-71456154D01*
X95991130Y-71470570D01*
X96005546Y-71486476D01*
X96018334Y-71503719D01*
X96029370Y-71522132D01*
X96038549Y-71541538D01*
X96045781Y-71561750D01*
X96050997Y-71582574D01*
X96054147Y-71603809D01*
X96055200Y-71625250D01*
X96055200Y-72062750D01*
X96054147Y-72084191D01*
X96050997Y-72105426D01*
X96045781Y-72126250D01*
X96038549Y-72146462D01*
X96029370Y-72165868D01*
X96018334Y-72184281D01*
X96005546Y-72201524D01*
X95991130Y-72217430D01*
X95975224Y-72231846D01*
X95957981Y-72244634D01*
X95939568Y-72255670D01*
X95920162Y-72264849D01*
X95899950Y-72272081D01*
X95879126Y-72277297D01*
X95857891Y-72280447D01*
X95836450Y-72281500D01*
X95323950Y-72281500D01*
X95302509Y-72280447D01*
X95281274Y-72277297D01*
X95260450Y-72272081D01*
X95240238Y-72264849D01*
X95220832Y-72255670D01*
X95202419Y-72244634D01*
X95185176Y-72231846D01*
X95169270Y-72217430D01*
X95154854Y-72201524D01*
X95142066Y-72184281D01*
X95131030Y-72165868D01*
X95121851Y-72146462D01*
X95114619Y-72126250D01*
X95109403Y-72105426D01*
X95106253Y-72084191D01*
X95105200Y-72062750D01*
X95105200Y-71625250D01*
X95106253Y-71603809D01*
X95109403Y-71582574D01*
X95114619Y-71561750D01*
X95121851Y-71541538D01*
X95131030Y-71522132D01*
X95142066Y-71503719D01*
X95154854Y-71486476D01*
X95169270Y-71470570D01*
X95185176Y-71456154D01*
X95202419Y-71443366D01*
X95220832Y-71432330D01*
X95240238Y-71423151D01*
X95260450Y-71415919D01*
X95281274Y-71410703D01*
X95302509Y-71407553D01*
X95323950Y-71406500D01*
X95836450Y-71406500D01*
X95857891Y-71407553D01*
X95857891Y-71407553D01*
G37*
D22*
X95580200Y-71844000D03*
G04 #@! TD*
D21*
G04 #@! TO.C,L18*
G36*
X95857891Y-77490853D02*
X95879126Y-77494003D01*
X95899950Y-77499219D01*
X95920162Y-77506451D01*
X95939568Y-77515630D01*
X95957981Y-77526666D01*
X95975224Y-77539454D01*
X95991130Y-77553870D01*
X96005546Y-77569776D01*
X96018334Y-77587019D01*
X96029370Y-77605432D01*
X96038549Y-77624838D01*
X96045781Y-77645050D01*
X96050997Y-77665874D01*
X96054147Y-77687109D01*
X96055200Y-77708550D01*
X96055200Y-78146050D01*
X96054147Y-78167491D01*
X96050997Y-78188726D01*
X96045781Y-78209550D01*
X96038549Y-78229762D01*
X96029370Y-78249168D01*
X96018334Y-78267581D01*
X96005546Y-78284824D01*
X95991130Y-78300730D01*
X95975224Y-78315146D01*
X95957981Y-78327934D01*
X95939568Y-78338970D01*
X95920162Y-78348149D01*
X95899950Y-78355381D01*
X95879126Y-78360597D01*
X95857891Y-78363747D01*
X95836450Y-78364800D01*
X95323950Y-78364800D01*
X95302509Y-78363747D01*
X95281274Y-78360597D01*
X95260450Y-78355381D01*
X95240238Y-78348149D01*
X95220832Y-78338970D01*
X95202419Y-78327934D01*
X95185176Y-78315146D01*
X95169270Y-78300730D01*
X95154854Y-78284824D01*
X95142066Y-78267581D01*
X95131030Y-78249168D01*
X95121851Y-78229762D01*
X95114619Y-78209550D01*
X95109403Y-78188726D01*
X95106253Y-78167491D01*
X95105200Y-78146050D01*
X95105200Y-77708550D01*
X95106253Y-77687109D01*
X95109403Y-77665874D01*
X95114619Y-77645050D01*
X95121851Y-77624838D01*
X95131030Y-77605432D01*
X95142066Y-77587019D01*
X95154854Y-77569776D01*
X95169270Y-77553870D01*
X95185176Y-77539454D01*
X95202419Y-77526666D01*
X95220832Y-77515630D01*
X95240238Y-77506451D01*
X95260450Y-77499219D01*
X95281274Y-77494003D01*
X95302509Y-77490853D01*
X95323950Y-77489800D01*
X95836450Y-77489800D01*
X95857891Y-77490853D01*
X95857891Y-77490853D01*
G37*
D22*
X95580200Y-77927300D03*
D21*
G36*
X95857891Y-75915853D02*
X95879126Y-75919003D01*
X95899950Y-75924219D01*
X95920162Y-75931451D01*
X95939568Y-75940630D01*
X95957981Y-75951666D01*
X95975224Y-75964454D01*
X95991130Y-75978870D01*
X96005546Y-75994776D01*
X96018334Y-76012019D01*
X96029370Y-76030432D01*
X96038549Y-76049838D01*
X96045781Y-76070050D01*
X96050997Y-76090874D01*
X96054147Y-76112109D01*
X96055200Y-76133550D01*
X96055200Y-76571050D01*
X96054147Y-76592491D01*
X96050997Y-76613726D01*
X96045781Y-76634550D01*
X96038549Y-76654762D01*
X96029370Y-76674168D01*
X96018334Y-76692581D01*
X96005546Y-76709824D01*
X95991130Y-76725730D01*
X95975224Y-76740146D01*
X95957981Y-76752934D01*
X95939568Y-76763970D01*
X95920162Y-76773149D01*
X95899950Y-76780381D01*
X95879126Y-76785597D01*
X95857891Y-76788747D01*
X95836450Y-76789800D01*
X95323950Y-76789800D01*
X95302509Y-76788747D01*
X95281274Y-76785597D01*
X95260450Y-76780381D01*
X95240238Y-76773149D01*
X95220832Y-76763970D01*
X95202419Y-76752934D01*
X95185176Y-76740146D01*
X95169270Y-76725730D01*
X95154854Y-76709824D01*
X95142066Y-76692581D01*
X95131030Y-76674168D01*
X95121851Y-76654762D01*
X95114619Y-76634550D01*
X95109403Y-76613726D01*
X95106253Y-76592491D01*
X95105200Y-76571050D01*
X95105200Y-76133550D01*
X95106253Y-76112109D01*
X95109403Y-76090874D01*
X95114619Y-76070050D01*
X95121851Y-76049838D01*
X95131030Y-76030432D01*
X95142066Y-76012019D01*
X95154854Y-75994776D01*
X95169270Y-75978870D01*
X95185176Y-75964454D01*
X95202419Y-75951666D01*
X95220832Y-75940630D01*
X95240238Y-75931451D01*
X95260450Y-75924219D01*
X95281274Y-75919003D01*
X95302509Y-75915853D01*
X95323950Y-75914800D01*
X95836450Y-75914800D01*
X95857891Y-75915853D01*
X95857891Y-75915853D01*
G37*
D22*
X95580200Y-76352300D03*
G04 #@! TD*
D21*
G04 #@! TO.C,L19*
G36*
X95908691Y-80487853D02*
X95929926Y-80491003D01*
X95950750Y-80496219D01*
X95970962Y-80503451D01*
X95990368Y-80512630D01*
X96008781Y-80523666D01*
X96026024Y-80536454D01*
X96041930Y-80550870D01*
X96056346Y-80566776D01*
X96069134Y-80584019D01*
X96080170Y-80602432D01*
X96089349Y-80621838D01*
X96096581Y-80642050D01*
X96101797Y-80662874D01*
X96104947Y-80684109D01*
X96106000Y-80705550D01*
X96106000Y-81143050D01*
X96104947Y-81164491D01*
X96101797Y-81185726D01*
X96096581Y-81206550D01*
X96089349Y-81226762D01*
X96080170Y-81246168D01*
X96069134Y-81264581D01*
X96056346Y-81281824D01*
X96041930Y-81297730D01*
X96026024Y-81312146D01*
X96008781Y-81324934D01*
X95990368Y-81335970D01*
X95970962Y-81345149D01*
X95950750Y-81352381D01*
X95929926Y-81357597D01*
X95908691Y-81360747D01*
X95887250Y-81361800D01*
X95374750Y-81361800D01*
X95353309Y-81360747D01*
X95332074Y-81357597D01*
X95311250Y-81352381D01*
X95291038Y-81345149D01*
X95271632Y-81335970D01*
X95253219Y-81324934D01*
X95235976Y-81312146D01*
X95220070Y-81297730D01*
X95205654Y-81281824D01*
X95192866Y-81264581D01*
X95181830Y-81246168D01*
X95172651Y-81226762D01*
X95165419Y-81206550D01*
X95160203Y-81185726D01*
X95157053Y-81164491D01*
X95156000Y-81143050D01*
X95156000Y-80705550D01*
X95157053Y-80684109D01*
X95160203Y-80662874D01*
X95165419Y-80642050D01*
X95172651Y-80621838D01*
X95181830Y-80602432D01*
X95192866Y-80584019D01*
X95205654Y-80566776D01*
X95220070Y-80550870D01*
X95235976Y-80536454D01*
X95253219Y-80523666D01*
X95271632Y-80512630D01*
X95291038Y-80503451D01*
X95311250Y-80496219D01*
X95332074Y-80491003D01*
X95353309Y-80487853D01*
X95374750Y-80486800D01*
X95887250Y-80486800D01*
X95908691Y-80487853D01*
X95908691Y-80487853D01*
G37*
D22*
X95631000Y-80924300D03*
D21*
G36*
X95908691Y-82062853D02*
X95929926Y-82066003D01*
X95950750Y-82071219D01*
X95970962Y-82078451D01*
X95990368Y-82087630D01*
X96008781Y-82098666D01*
X96026024Y-82111454D01*
X96041930Y-82125870D01*
X96056346Y-82141776D01*
X96069134Y-82159019D01*
X96080170Y-82177432D01*
X96089349Y-82196838D01*
X96096581Y-82217050D01*
X96101797Y-82237874D01*
X96104947Y-82259109D01*
X96106000Y-82280550D01*
X96106000Y-82718050D01*
X96104947Y-82739491D01*
X96101797Y-82760726D01*
X96096581Y-82781550D01*
X96089349Y-82801762D01*
X96080170Y-82821168D01*
X96069134Y-82839581D01*
X96056346Y-82856824D01*
X96041930Y-82872730D01*
X96026024Y-82887146D01*
X96008781Y-82899934D01*
X95990368Y-82910970D01*
X95970962Y-82920149D01*
X95950750Y-82927381D01*
X95929926Y-82932597D01*
X95908691Y-82935747D01*
X95887250Y-82936800D01*
X95374750Y-82936800D01*
X95353309Y-82935747D01*
X95332074Y-82932597D01*
X95311250Y-82927381D01*
X95291038Y-82920149D01*
X95271632Y-82910970D01*
X95253219Y-82899934D01*
X95235976Y-82887146D01*
X95220070Y-82872730D01*
X95205654Y-82856824D01*
X95192866Y-82839581D01*
X95181830Y-82821168D01*
X95172651Y-82801762D01*
X95165419Y-82781550D01*
X95160203Y-82760726D01*
X95157053Y-82739491D01*
X95156000Y-82718050D01*
X95156000Y-82280550D01*
X95157053Y-82259109D01*
X95160203Y-82237874D01*
X95165419Y-82217050D01*
X95172651Y-82196838D01*
X95181830Y-82177432D01*
X95192866Y-82159019D01*
X95205654Y-82141776D01*
X95220070Y-82125870D01*
X95235976Y-82111454D01*
X95253219Y-82098666D01*
X95271632Y-82087630D01*
X95291038Y-82078451D01*
X95311250Y-82071219D01*
X95332074Y-82066003D01*
X95353309Y-82062853D01*
X95374750Y-82061800D01*
X95887250Y-82061800D01*
X95908691Y-82062853D01*
X95908691Y-82062853D01*
G37*
D22*
X95631000Y-82499300D03*
G04 #@! TD*
D21*
G04 #@! TO.C,L20*
G36*
X56856691Y-88680053D02*
X56877926Y-88683203D01*
X56898750Y-88688419D01*
X56918962Y-88695651D01*
X56938368Y-88704830D01*
X56956781Y-88715866D01*
X56974024Y-88728654D01*
X56989930Y-88743070D01*
X57004346Y-88758976D01*
X57017134Y-88776219D01*
X57028170Y-88794632D01*
X57037349Y-88814038D01*
X57044581Y-88834250D01*
X57049797Y-88855074D01*
X57052947Y-88876309D01*
X57054000Y-88897750D01*
X57054000Y-89410250D01*
X57052947Y-89431691D01*
X57049797Y-89452926D01*
X57044581Y-89473750D01*
X57037349Y-89493962D01*
X57028170Y-89513368D01*
X57017134Y-89531781D01*
X57004346Y-89549024D01*
X56989930Y-89564930D01*
X56974024Y-89579346D01*
X56956781Y-89592134D01*
X56938368Y-89603170D01*
X56918962Y-89612349D01*
X56898750Y-89619581D01*
X56877926Y-89624797D01*
X56856691Y-89627947D01*
X56835250Y-89629000D01*
X56397750Y-89629000D01*
X56376309Y-89627947D01*
X56355074Y-89624797D01*
X56334250Y-89619581D01*
X56314038Y-89612349D01*
X56294632Y-89603170D01*
X56276219Y-89592134D01*
X56258976Y-89579346D01*
X56243070Y-89564930D01*
X56228654Y-89549024D01*
X56215866Y-89531781D01*
X56204830Y-89513368D01*
X56195651Y-89493962D01*
X56188419Y-89473750D01*
X56183203Y-89452926D01*
X56180053Y-89431691D01*
X56179000Y-89410250D01*
X56179000Y-88897750D01*
X56180053Y-88876309D01*
X56183203Y-88855074D01*
X56188419Y-88834250D01*
X56195651Y-88814038D01*
X56204830Y-88794632D01*
X56215866Y-88776219D01*
X56228654Y-88758976D01*
X56243070Y-88743070D01*
X56258976Y-88728654D01*
X56276219Y-88715866D01*
X56294632Y-88704830D01*
X56314038Y-88695651D01*
X56334250Y-88688419D01*
X56355074Y-88683203D01*
X56376309Y-88680053D01*
X56397750Y-88679000D01*
X56835250Y-88679000D01*
X56856691Y-88680053D01*
X56856691Y-88680053D01*
G37*
D22*
X56616500Y-89154000D03*
D21*
G36*
X58431691Y-88680053D02*
X58452926Y-88683203D01*
X58473750Y-88688419D01*
X58493962Y-88695651D01*
X58513368Y-88704830D01*
X58531781Y-88715866D01*
X58549024Y-88728654D01*
X58564930Y-88743070D01*
X58579346Y-88758976D01*
X58592134Y-88776219D01*
X58603170Y-88794632D01*
X58612349Y-88814038D01*
X58619581Y-88834250D01*
X58624797Y-88855074D01*
X58627947Y-88876309D01*
X58629000Y-88897750D01*
X58629000Y-89410250D01*
X58627947Y-89431691D01*
X58624797Y-89452926D01*
X58619581Y-89473750D01*
X58612349Y-89493962D01*
X58603170Y-89513368D01*
X58592134Y-89531781D01*
X58579346Y-89549024D01*
X58564930Y-89564930D01*
X58549024Y-89579346D01*
X58531781Y-89592134D01*
X58513368Y-89603170D01*
X58493962Y-89612349D01*
X58473750Y-89619581D01*
X58452926Y-89624797D01*
X58431691Y-89627947D01*
X58410250Y-89629000D01*
X57972750Y-89629000D01*
X57951309Y-89627947D01*
X57930074Y-89624797D01*
X57909250Y-89619581D01*
X57889038Y-89612349D01*
X57869632Y-89603170D01*
X57851219Y-89592134D01*
X57833976Y-89579346D01*
X57818070Y-89564930D01*
X57803654Y-89549024D01*
X57790866Y-89531781D01*
X57779830Y-89513368D01*
X57770651Y-89493962D01*
X57763419Y-89473750D01*
X57758203Y-89452926D01*
X57755053Y-89431691D01*
X57754000Y-89410250D01*
X57754000Y-88897750D01*
X57755053Y-88876309D01*
X57758203Y-88855074D01*
X57763419Y-88834250D01*
X57770651Y-88814038D01*
X57779830Y-88794632D01*
X57790866Y-88776219D01*
X57803654Y-88758976D01*
X57818070Y-88743070D01*
X57833976Y-88728654D01*
X57851219Y-88715866D01*
X57869632Y-88704830D01*
X57889038Y-88695651D01*
X57909250Y-88688419D01*
X57930074Y-88683203D01*
X57951309Y-88680053D01*
X57972750Y-88679000D01*
X58410250Y-88679000D01*
X58431691Y-88680053D01*
X58431691Y-88680053D01*
G37*
D22*
X58191500Y-89154000D03*
G04 #@! TD*
D21*
G04 #@! TO.C,R6*
G36*
X99147191Y-62250553D02*
X99168426Y-62253703D01*
X99189250Y-62258919D01*
X99209462Y-62266151D01*
X99228868Y-62275330D01*
X99247281Y-62286366D01*
X99264524Y-62299154D01*
X99280430Y-62313570D01*
X99294846Y-62329476D01*
X99307634Y-62346719D01*
X99318670Y-62365132D01*
X99327849Y-62384538D01*
X99335081Y-62404750D01*
X99340297Y-62425574D01*
X99343447Y-62446809D01*
X99344500Y-62468250D01*
X99344500Y-62905750D01*
X99343447Y-62927191D01*
X99340297Y-62948426D01*
X99335081Y-62969250D01*
X99327849Y-62989462D01*
X99318670Y-63008868D01*
X99307634Y-63027281D01*
X99294846Y-63044524D01*
X99280430Y-63060430D01*
X99264524Y-63074846D01*
X99247281Y-63087634D01*
X99228868Y-63098670D01*
X99209462Y-63107849D01*
X99189250Y-63115081D01*
X99168426Y-63120297D01*
X99147191Y-63123447D01*
X99125750Y-63124500D01*
X98613250Y-63124500D01*
X98591809Y-63123447D01*
X98570574Y-63120297D01*
X98549750Y-63115081D01*
X98529538Y-63107849D01*
X98510132Y-63098670D01*
X98491719Y-63087634D01*
X98474476Y-63074846D01*
X98458570Y-63060430D01*
X98444154Y-63044524D01*
X98431366Y-63027281D01*
X98420330Y-63008868D01*
X98411151Y-62989462D01*
X98403919Y-62969250D01*
X98398703Y-62948426D01*
X98395553Y-62927191D01*
X98394500Y-62905750D01*
X98394500Y-62468250D01*
X98395553Y-62446809D01*
X98398703Y-62425574D01*
X98403919Y-62404750D01*
X98411151Y-62384538D01*
X98420330Y-62365132D01*
X98431366Y-62346719D01*
X98444154Y-62329476D01*
X98458570Y-62313570D01*
X98474476Y-62299154D01*
X98491719Y-62286366D01*
X98510132Y-62275330D01*
X98529538Y-62266151D01*
X98549750Y-62258919D01*
X98570574Y-62253703D01*
X98591809Y-62250553D01*
X98613250Y-62249500D01*
X99125750Y-62249500D01*
X99147191Y-62250553D01*
X99147191Y-62250553D01*
G37*
D22*
X98869500Y-62687000D03*
D21*
G36*
X99147191Y-63825553D02*
X99168426Y-63828703D01*
X99189250Y-63833919D01*
X99209462Y-63841151D01*
X99228868Y-63850330D01*
X99247281Y-63861366D01*
X99264524Y-63874154D01*
X99280430Y-63888570D01*
X99294846Y-63904476D01*
X99307634Y-63921719D01*
X99318670Y-63940132D01*
X99327849Y-63959538D01*
X99335081Y-63979750D01*
X99340297Y-64000574D01*
X99343447Y-64021809D01*
X99344500Y-64043250D01*
X99344500Y-64480750D01*
X99343447Y-64502191D01*
X99340297Y-64523426D01*
X99335081Y-64544250D01*
X99327849Y-64564462D01*
X99318670Y-64583868D01*
X99307634Y-64602281D01*
X99294846Y-64619524D01*
X99280430Y-64635430D01*
X99264524Y-64649846D01*
X99247281Y-64662634D01*
X99228868Y-64673670D01*
X99209462Y-64682849D01*
X99189250Y-64690081D01*
X99168426Y-64695297D01*
X99147191Y-64698447D01*
X99125750Y-64699500D01*
X98613250Y-64699500D01*
X98591809Y-64698447D01*
X98570574Y-64695297D01*
X98549750Y-64690081D01*
X98529538Y-64682849D01*
X98510132Y-64673670D01*
X98491719Y-64662634D01*
X98474476Y-64649846D01*
X98458570Y-64635430D01*
X98444154Y-64619524D01*
X98431366Y-64602281D01*
X98420330Y-64583868D01*
X98411151Y-64564462D01*
X98403919Y-64544250D01*
X98398703Y-64523426D01*
X98395553Y-64502191D01*
X98394500Y-64480750D01*
X98394500Y-64043250D01*
X98395553Y-64021809D01*
X98398703Y-64000574D01*
X98403919Y-63979750D01*
X98411151Y-63959538D01*
X98420330Y-63940132D01*
X98431366Y-63921719D01*
X98444154Y-63904476D01*
X98458570Y-63888570D01*
X98474476Y-63874154D01*
X98491719Y-63861366D01*
X98510132Y-63850330D01*
X98529538Y-63841151D01*
X98549750Y-63833919D01*
X98570574Y-63828703D01*
X98591809Y-63825553D01*
X98613250Y-63824500D01*
X99125750Y-63824500D01*
X99147191Y-63825553D01*
X99147191Y-63825553D01*
G37*
D22*
X98869500Y-64262000D03*
G04 #@! TD*
D21*
G04 #@! TO.C,R7*
G36*
X100696591Y-64613053D02*
X100717826Y-64616203D01*
X100738650Y-64621419D01*
X100758862Y-64628651D01*
X100778268Y-64637830D01*
X100796681Y-64648866D01*
X100813924Y-64661654D01*
X100829830Y-64676070D01*
X100844246Y-64691976D01*
X100857034Y-64709219D01*
X100868070Y-64727632D01*
X100877249Y-64747038D01*
X100884481Y-64767250D01*
X100889697Y-64788074D01*
X100892847Y-64809309D01*
X100893900Y-64830750D01*
X100893900Y-65268250D01*
X100892847Y-65289691D01*
X100889697Y-65310926D01*
X100884481Y-65331750D01*
X100877249Y-65351962D01*
X100868070Y-65371368D01*
X100857034Y-65389781D01*
X100844246Y-65407024D01*
X100829830Y-65422930D01*
X100813924Y-65437346D01*
X100796681Y-65450134D01*
X100778268Y-65461170D01*
X100758862Y-65470349D01*
X100738650Y-65477581D01*
X100717826Y-65482797D01*
X100696591Y-65485947D01*
X100675150Y-65487000D01*
X100162650Y-65487000D01*
X100141209Y-65485947D01*
X100119974Y-65482797D01*
X100099150Y-65477581D01*
X100078938Y-65470349D01*
X100059532Y-65461170D01*
X100041119Y-65450134D01*
X100023876Y-65437346D01*
X100007970Y-65422930D01*
X99993554Y-65407024D01*
X99980766Y-65389781D01*
X99969730Y-65371368D01*
X99960551Y-65351962D01*
X99953319Y-65331750D01*
X99948103Y-65310926D01*
X99944953Y-65289691D01*
X99943900Y-65268250D01*
X99943900Y-64830750D01*
X99944953Y-64809309D01*
X99948103Y-64788074D01*
X99953319Y-64767250D01*
X99960551Y-64747038D01*
X99969730Y-64727632D01*
X99980766Y-64709219D01*
X99993554Y-64691976D01*
X100007970Y-64676070D01*
X100023876Y-64661654D01*
X100041119Y-64648866D01*
X100059532Y-64637830D01*
X100078938Y-64628651D01*
X100099150Y-64621419D01*
X100119974Y-64616203D01*
X100141209Y-64613053D01*
X100162650Y-64612000D01*
X100675150Y-64612000D01*
X100696591Y-64613053D01*
X100696591Y-64613053D01*
G37*
D22*
X100418900Y-65049500D03*
D21*
G36*
X100696591Y-63038053D02*
X100717826Y-63041203D01*
X100738650Y-63046419D01*
X100758862Y-63053651D01*
X100778268Y-63062830D01*
X100796681Y-63073866D01*
X100813924Y-63086654D01*
X100829830Y-63101070D01*
X100844246Y-63116976D01*
X100857034Y-63134219D01*
X100868070Y-63152632D01*
X100877249Y-63172038D01*
X100884481Y-63192250D01*
X100889697Y-63213074D01*
X100892847Y-63234309D01*
X100893900Y-63255750D01*
X100893900Y-63693250D01*
X100892847Y-63714691D01*
X100889697Y-63735926D01*
X100884481Y-63756750D01*
X100877249Y-63776962D01*
X100868070Y-63796368D01*
X100857034Y-63814781D01*
X100844246Y-63832024D01*
X100829830Y-63847930D01*
X100813924Y-63862346D01*
X100796681Y-63875134D01*
X100778268Y-63886170D01*
X100758862Y-63895349D01*
X100738650Y-63902581D01*
X100717826Y-63907797D01*
X100696591Y-63910947D01*
X100675150Y-63912000D01*
X100162650Y-63912000D01*
X100141209Y-63910947D01*
X100119974Y-63907797D01*
X100099150Y-63902581D01*
X100078938Y-63895349D01*
X100059532Y-63886170D01*
X100041119Y-63875134D01*
X100023876Y-63862346D01*
X100007970Y-63847930D01*
X99993554Y-63832024D01*
X99980766Y-63814781D01*
X99969730Y-63796368D01*
X99960551Y-63776962D01*
X99953319Y-63756750D01*
X99948103Y-63735926D01*
X99944953Y-63714691D01*
X99943900Y-63693250D01*
X99943900Y-63255750D01*
X99944953Y-63234309D01*
X99948103Y-63213074D01*
X99953319Y-63192250D01*
X99960551Y-63172038D01*
X99969730Y-63152632D01*
X99980766Y-63134219D01*
X99993554Y-63116976D01*
X100007970Y-63101070D01*
X100023876Y-63086654D01*
X100041119Y-63073866D01*
X100059532Y-63062830D01*
X100078938Y-63053651D01*
X100099150Y-63046419D01*
X100119974Y-63041203D01*
X100141209Y-63038053D01*
X100162650Y-63037000D01*
X100675150Y-63037000D01*
X100696591Y-63038053D01*
X100696591Y-63038053D01*
G37*
D22*
X100418900Y-63474500D03*
G04 #@! TD*
D21*
G04 #@! TO.C,R8*
G36*
X53834291Y-85708253D02*
X53855526Y-85711403D01*
X53876350Y-85716619D01*
X53896562Y-85723851D01*
X53915968Y-85733030D01*
X53934381Y-85744066D01*
X53951624Y-85756854D01*
X53967530Y-85771270D01*
X53981946Y-85787176D01*
X53994734Y-85804419D01*
X54005770Y-85822832D01*
X54014949Y-85842238D01*
X54022181Y-85862450D01*
X54027397Y-85883274D01*
X54030547Y-85904509D01*
X54031600Y-85925950D01*
X54031600Y-86438450D01*
X54030547Y-86459891D01*
X54027397Y-86481126D01*
X54022181Y-86501950D01*
X54014949Y-86522162D01*
X54005770Y-86541568D01*
X53994734Y-86559981D01*
X53981946Y-86577224D01*
X53967530Y-86593130D01*
X53951624Y-86607546D01*
X53934381Y-86620334D01*
X53915968Y-86631370D01*
X53896562Y-86640549D01*
X53876350Y-86647781D01*
X53855526Y-86652997D01*
X53834291Y-86656147D01*
X53812850Y-86657200D01*
X53375350Y-86657200D01*
X53353909Y-86656147D01*
X53332674Y-86652997D01*
X53311850Y-86647781D01*
X53291638Y-86640549D01*
X53272232Y-86631370D01*
X53253819Y-86620334D01*
X53236576Y-86607546D01*
X53220670Y-86593130D01*
X53206254Y-86577224D01*
X53193466Y-86559981D01*
X53182430Y-86541568D01*
X53173251Y-86522162D01*
X53166019Y-86501950D01*
X53160803Y-86481126D01*
X53157653Y-86459891D01*
X53156600Y-86438450D01*
X53156600Y-85925950D01*
X53157653Y-85904509D01*
X53160803Y-85883274D01*
X53166019Y-85862450D01*
X53173251Y-85842238D01*
X53182430Y-85822832D01*
X53193466Y-85804419D01*
X53206254Y-85787176D01*
X53220670Y-85771270D01*
X53236576Y-85756854D01*
X53253819Y-85744066D01*
X53272232Y-85733030D01*
X53291638Y-85723851D01*
X53311850Y-85716619D01*
X53332674Y-85711403D01*
X53353909Y-85708253D01*
X53375350Y-85707200D01*
X53812850Y-85707200D01*
X53834291Y-85708253D01*
X53834291Y-85708253D01*
G37*
D22*
X53594100Y-86182200D03*
D21*
G36*
X52259291Y-85708253D02*
X52280526Y-85711403D01*
X52301350Y-85716619D01*
X52321562Y-85723851D01*
X52340968Y-85733030D01*
X52359381Y-85744066D01*
X52376624Y-85756854D01*
X52392530Y-85771270D01*
X52406946Y-85787176D01*
X52419734Y-85804419D01*
X52430770Y-85822832D01*
X52439949Y-85842238D01*
X52447181Y-85862450D01*
X52452397Y-85883274D01*
X52455547Y-85904509D01*
X52456600Y-85925950D01*
X52456600Y-86438450D01*
X52455547Y-86459891D01*
X52452397Y-86481126D01*
X52447181Y-86501950D01*
X52439949Y-86522162D01*
X52430770Y-86541568D01*
X52419734Y-86559981D01*
X52406946Y-86577224D01*
X52392530Y-86593130D01*
X52376624Y-86607546D01*
X52359381Y-86620334D01*
X52340968Y-86631370D01*
X52321562Y-86640549D01*
X52301350Y-86647781D01*
X52280526Y-86652997D01*
X52259291Y-86656147D01*
X52237850Y-86657200D01*
X51800350Y-86657200D01*
X51778909Y-86656147D01*
X51757674Y-86652997D01*
X51736850Y-86647781D01*
X51716638Y-86640549D01*
X51697232Y-86631370D01*
X51678819Y-86620334D01*
X51661576Y-86607546D01*
X51645670Y-86593130D01*
X51631254Y-86577224D01*
X51618466Y-86559981D01*
X51607430Y-86541568D01*
X51598251Y-86522162D01*
X51591019Y-86501950D01*
X51585803Y-86481126D01*
X51582653Y-86459891D01*
X51581600Y-86438450D01*
X51581600Y-85925950D01*
X51582653Y-85904509D01*
X51585803Y-85883274D01*
X51591019Y-85862450D01*
X51598251Y-85842238D01*
X51607430Y-85822832D01*
X51618466Y-85804419D01*
X51631254Y-85787176D01*
X51645670Y-85771270D01*
X51661576Y-85756854D01*
X51678819Y-85744066D01*
X51697232Y-85733030D01*
X51716638Y-85723851D01*
X51736850Y-85716619D01*
X51757674Y-85711403D01*
X51778909Y-85708253D01*
X51800350Y-85707200D01*
X52237850Y-85707200D01*
X52259291Y-85708253D01*
X52259291Y-85708253D01*
G37*
D22*
X52019100Y-86182200D03*
G04 #@! TD*
D21*
G04 #@! TO.C,U3*
G36*
X97797998Y-66583955D02*
X97815229Y-66586511D01*
X97832126Y-66590743D01*
X97848526Y-66596611D01*
X97864273Y-66604059D01*
X97879214Y-66613014D01*
X97893205Y-66623391D01*
X97906111Y-66635089D01*
X97917809Y-66647995D01*
X97928186Y-66661986D01*
X97937141Y-66676927D01*
X97944589Y-66692674D01*
X97950457Y-66709074D01*
X97954689Y-66725971D01*
X97957245Y-66743202D01*
X97958100Y-66760600D01*
X97958100Y-67115600D01*
X97957245Y-67132998D01*
X97954689Y-67150229D01*
X97950457Y-67167126D01*
X97944589Y-67183526D01*
X97937141Y-67199273D01*
X97928186Y-67214214D01*
X97917809Y-67228205D01*
X97906111Y-67241111D01*
X97893205Y-67252809D01*
X97879214Y-67263186D01*
X97864273Y-67272141D01*
X97848526Y-67279589D01*
X97832126Y-67285457D01*
X97815229Y-67289689D01*
X97797998Y-67292245D01*
X97780600Y-67293100D01*
X97425600Y-67293100D01*
X97408202Y-67292245D01*
X97390971Y-67289689D01*
X97374074Y-67285457D01*
X97357674Y-67279589D01*
X97341927Y-67272141D01*
X97326986Y-67263186D01*
X97312995Y-67252809D01*
X97300089Y-67241111D01*
X97288391Y-67228205D01*
X97278014Y-67214214D01*
X97269059Y-67199273D01*
X97261611Y-67183526D01*
X97255743Y-67167126D01*
X97251511Y-67150229D01*
X97248955Y-67132998D01*
X97248100Y-67115600D01*
X97248100Y-66760600D01*
X97248955Y-66743202D01*
X97251511Y-66725971D01*
X97255743Y-66709074D01*
X97261611Y-66692674D01*
X97269059Y-66676927D01*
X97278014Y-66661986D01*
X97288391Y-66647995D01*
X97300089Y-66635089D01*
X97312995Y-66623391D01*
X97326986Y-66613014D01*
X97341927Y-66604059D01*
X97357674Y-66596611D01*
X97374074Y-66590743D01*
X97390971Y-66586511D01*
X97408202Y-66583955D01*
X97425600Y-66583100D01*
X97780600Y-66583100D01*
X97797998Y-66583955D01*
X97797998Y-66583955D01*
G37*
D23*
X97603100Y-66938100D03*
D21*
G36*
X96977998Y-66583955D02*
X96995229Y-66586511D01*
X97012126Y-66590743D01*
X97028526Y-66596611D01*
X97044273Y-66604059D01*
X97059214Y-66613014D01*
X97073205Y-66623391D01*
X97086111Y-66635089D01*
X97097809Y-66647995D01*
X97108186Y-66661986D01*
X97117141Y-66676927D01*
X97124589Y-66692674D01*
X97130457Y-66709074D01*
X97134689Y-66725971D01*
X97137245Y-66743202D01*
X97138100Y-66760600D01*
X97138100Y-67115600D01*
X97137245Y-67132998D01*
X97134689Y-67150229D01*
X97130457Y-67167126D01*
X97124589Y-67183526D01*
X97117141Y-67199273D01*
X97108186Y-67214214D01*
X97097809Y-67228205D01*
X97086111Y-67241111D01*
X97073205Y-67252809D01*
X97059214Y-67263186D01*
X97044273Y-67272141D01*
X97028526Y-67279589D01*
X97012126Y-67285457D01*
X96995229Y-67289689D01*
X96977998Y-67292245D01*
X96960600Y-67293100D01*
X96605600Y-67293100D01*
X96588202Y-67292245D01*
X96570971Y-67289689D01*
X96554074Y-67285457D01*
X96537674Y-67279589D01*
X96521927Y-67272141D01*
X96506986Y-67263186D01*
X96492995Y-67252809D01*
X96480089Y-67241111D01*
X96468391Y-67228205D01*
X96458014Y-67214214D01*
X96449059Y-67199273D01*
X96441611Y-67183526D01*
X96435743Y-67167126D01*
X96431511Y-67150229D01*
X96428955Y-67132998D01*
X96428100Y-67115600D01*
X96428100Y-66760600D01*
X96428955Y-66743202D01*
X96431511Y-66725971D01*
X96435743Y-66709074D01*
X96441611Y-66692674D01*
X96449059Y-66676927D01*
X96458014Y-66661986D01*
X96468391Y-66647995D01*
X96480089Y-66635089D01*
X96492995Y-66623391D01*
X96506986Y-66613014D01*
X96521927Y-66604059D01*
X96537674Y-66596611D01*
X96554074Y-66590743D01*
X96570971Y-66586511D01*
X96588202Y-66583955D01*
X96605600Y-66583100D01*
X96960600Y-66583100D01*
X96977998Y-66583955D01*
X96977998Y-66583955D01*
G37*
D23*
X96783100Y-66938100D03*
D21*
G36*
X97797998Y-67403955D02*
X97815229Y-67406511D01*
X97832126Y-67410743D01*
X97848526Y-67416611D01*
X97864273Y-67424059D01*
X97879214Y-67433014D01*
X97893205Y-67443391D01*
X97906111Y-67455089D01*
X97917809Y-67467995D01*
X97928186Y-67481986D01*
X97937141Y-67496927D01*
X97944589Y-67512674D01*
X97950457Y-67529074D01*
X97954689Y-67545971D01*
X97957245Y-67563202D01*
X97958100Y-67580600D01*
X97958100Y-67935600D01*
X97957245Y-67952998D01*
X97954689Y-67970229D01*
X97950457Y-67987126D01*
X97944589Y-68003526D01*
X97937141Y-68019273D01*
X97928186Y-68034214D01*
X97917809Y-68048205D01*
X97906111Y-68061111D01*
X97893205Y-68072809D01*
X97879214Y-68083186D01*
X97864273Y-68092141D01*
X97848526Y-68099589D01*
X97832126Y-68105457D01*
X97815229Y-68109689D01*
X97797998Y-68112245D01*
X97780600Y-68113100D01*
X97425600Y-68113100D01*
X97408202Y-68112245D01*
X97390971Y-68109689D01*
X97374074Y-68105457D01*
X97357674Y-68099589D01*
X97341927Y-68092141D01*
X97326986Y-68083186D01*
X97312995Y-68072809D01*
X97300089Y-68061111D01*
X97288391Y-68048205D01*
X97278014Y-68034214D01*
X97269059Y-68019273D01*
X97261611Y-68003526D01*
X97255743Y-67987126D01*
X97251511Y-67970229D01*
X97248955Y-67952998D01*
X97248100Y-67935600D01*
X97248100Y-67580600D01*
X97248955Y-67563202D01*
X97251511Y-67545971D01*
X97255743Y-67529074D01*
X97261611Y-67512674D01*
X97269059Y-67496927D01*
X97278014Y-67481986D01*
X97288391Y-67467995D01*
X97300089Y-67455089D01*
X97312995Y-67443391D01*
X97326986Y-67433014D01*
X97341927Y-67424059D01*
X97357674Y-67416611D01*
X97374074Y-67410743D01*
X97390971Y-67406511D01*
X97408202Y-67403955D01*
X97425600Y-67403100D01*
X97780600Y-67403100D01*
X97797998Y-67403955D01*
X97797998Y-67403955D01*
G37*
D23*
X97603100Y-67758100D03*
D21*
G36*
X96977998Y-67403955D02*
X96995229Y-67406511D01*
X97012126Y-67410743D01*
X97028526Y-67416611D01*
X97044273Y-67424059D01*
X97059214Y-67433014D01*
X97073205Y-67443391D01*
X97086111Y-67455089D01*
X97097809Y-67467995D01*
X97108186Y-67481986D01*
X97117141Y-67496927D01*
X97124589Y-67512674D01*
X97130457Y-67529074D01*
X97134689Y-67545971D01*
X97137245Y-67563202D01*
X97138100Y-67580600D01*
X97138100Y-67935600D01*
X97137245Y-67952998D01*
X97134689Y-67970229D01*
X97130457Y-67987126D01*
X97124589Y-68003526D01*
X97117141Y-68019273D01*
X97108186Y-68034214D01*
X97097809Y-68048205D01*
X97086111Y-68061111D01*
X97073205Y-68072809D01*
X97059214Y-68083186D01*
X97044273Y-68092141D01*
X97028526Y-68099589D01*
X97012126Y-68105457D01*
X96995229Y-68109689D01*
X96977998Y-68112245D01*
X96960600Y-68113100D01*
X96605600Y-68113100D01*
X96588202Y-68112245D01*
X96570971Y-68109689D01*
X96554074Y-68105457D01*
X96537674Y-68099589D01*
X96521927Y-68092141D01*
X96506986Y-68083186D01*
X96492995Y-68072809D01*
X96480089Y-68061111D01*
X96468391Y-68048205D01*
X96458014Y-68034214D01*
X96449059Y-68019273D01*
X96441611Y-68003526D01*
X96435743Y-67987126D01*
X96431511Y-67970229D01*
X96428955Y-67952998D01*
X96428100Y-67935600D01*
X96428100Y-67580600D01*
X96428955Y-67563202D01*
X96431511Y-67545971D01*
X96435743Y-67529074D01*
X96441611Y-67512674D01*
X96449059Y-67496927D01*
X96458014Y-67481986D01*
X96468391Y-67467995D01*
X96480089Y-67455089D01*
X96492995Y-67443391D01*
X96506986Y-67433014D01*
X96521927Y-67424059D01*
X96537674Y-67416611D01*
X96554074Y-67410743D01*
X96570971Y-67406511D01*
X96588202Y-67403955D01*
X96605600Y-67403100D01*
X96960600Y-67403100D01*
X96977998Y-67403955D01*
X96977998Y-67403955D01*
G37*
D23*
X96783100Y-67758100D03*
D21*
G36*
X97761726Y-65473401D02*
X97767793Y-65474301D01*
X97773743Y-65475791D01*
X97779518Y-65477858D01*
X97785062Y-65480480D01*
X97790323Y-65483633D01*
X97795250Y-65487287D01*
X97799794Y-65491406D01*
X97803913Y-65495950D01*
X97807567Y-65500877D01*
X97810720Y-65506138D01*
X97813342Y-65511682D01*
X97815409Y-65517457D01*
X97816899Y-65523407D01*
X97817799Y-65529474D01*
X97818100Y-65535600D01*
X97818100Y-66235600D01*
X97817799Y-66241726D01*
X97816899Y-66247793D01*
X97815409Y-66253743D01*
X97813342Y-66259518D01*
X97810720Y-66265062D01*
X97807567Y-66270323D01*
X97803913Y-66275250D01*
X97799794Y-66279794D01*
X97795250Y-66283913D01*
X97790323Y-66287567D01*
X97785062Y-66290720D01*
X97779518Y-66293342D01*
X97773743Y-66295409D01*
X97767793Y-66296899D01*
X97761726Y-66297799D01*
X97755600Y-66298100D01*
X97630600Y-66298100D01*
X97624474Y-66297799D01*
X97618407Y-66296899D01*
X97612457Y-66295409D01*
X97606682Y-66293342D01*
X97601138Y-66290720D01*
X97595877Y-66287567D01*
X97590950Y-66283913D01*
X97586406Y-66279794D01*
X97582287Y-66275250D01*
X97578633Y-66270323D01*
X97575480Y-66265062D01*
X97572858Y-66259518D01*
X97570791Y-66253743D01*
X97569301Y-66247793D01*
X97568401Y-66241726D01*
X97568100Y-66235600D01*
X97568100Y-65535600D01*
X97568401Y-65529474D01*
X97569301Y-65523407D01*
X97570791Y-65517457D01*
X97572858Y-65511682D01*
X97575480Y-65506138D01*
X97578633Y-65500877D01*
X97582287Y-65495950D01*
X97586406Y-65491406D01*
X97590950Y-65487287D01*
X97595877Y-65483633D01*
X97601138Y-65480480D01*
X97606682Y-65477858D01*
X97612457Y-65475791D01*
X97618407Y-65474301D01*
X97624474Y-65473401D01*
X97630600Y-65473100D01*
X97755600Y-65473100D01*
X97761726Y-65473401D01*
X97761726Y-65473401D01*
G37*
D24*
X97693100Y-65885600D03*
D21*
G36*
X97261726Y-65473401D02*
X97267793Y-65474301D01*
X97273743Y-65475791D01*
X97279518Y-65477858D01*
X97285062Y-65480480D01*
X97290323Y-65483633D01*
X97295250Y-65487287D01*
X97299794Y-65491406D01*
X97303913Y-65495950D01*
X97307567Y-65500877D01*
X97310720Y-65506138D01*
X97313342Y-65511682D01*
X97315409Y-65517457D01*
X97316899Y-65523407D01*
X97317799Y-65529474D01*
X97318100Y-65535600D01*
X97318100Y-66235600D01*
X97317799Y-66241726D01*
X97316899Y-66247793D01*
X97315409Y-66253743D01*
X97313342Y-66259518D01*
X97310720Y-66265062D01*
X97307567Y-66270323D01*
X97303913Y-66275250D01*
X97299794Y-66279794D01*
X97295250Y-66283913D01*
X97290323Y-66287567D01*
X97285062Y-66290720D01*
X97279518Y-66293342D01*
X97273743Y-66295409D01*
X97267793Y-66296899D01*
X97261726Y-66297799D01*
X97255600Y-66298100D01*
X97130600Y-66298100D01*
X97124474Y-66297799D01*
X97118407Y-66296899D01*
X97112457Y-66295409D01*
X97106682Y-66293342D01*
X97101138Y-66290720D01*
X97095877Y-66287567D01*
X97090950Y-66283913D01*
X97086406Y-66279794D01*
X97082287Y-66275250D01*
X97078633Y-66270323D01*
X97075480Y-66265062D01*
X97072858Y-66259518D01*
X97070791Y-66253743D01*
X97069301Y-66247793D01*
X97068401Y-66241726D01*
X97068100Y-66235600D01*
X97068100Y-65535600D01*
X97068401Y-65529474D01*
X97069301Y-65523407D01*
X97070791Y-65517457D01*
X97072858Y-65511682D01*
X97075480Y-65506138D01*
X97078633Y-65500877D01*
X97082287Y-65495950D01*
X97086406Y-65491406D01*
X97090950Y-65487287D01*
X97095877Y-65483633D01*
X97101138Y-65480480D01*
X97106682Y-65477858D01*
X97112457Y-65475791D01*
X97118407Y-65474301D01*
X97124474Y-65473401D01*
X97130600Y-65473100D01*
X97255600Y-65473100D01*
X97261726Y-65473401D01*
X97261726Y-65473401D01*
G37*
D24*
X97193100Y-65885600D03*
D21*
G36*
X96761726Y-65473401D02*
X96767793Y-65474301D01*
X96773743Y-65475791D01*
X96779518Y-65477858D01*
X96785062Y-65480480D01*
X96790323Y-65483633D01*
X96795250Y-65487287D01*
X96799794Y-65491406D01*
X96803913Y-65495950D01*
X96807567Y-65500877D01*
X96810720Y-65506138D01*
X96813342Y-65511682D01*
X96815409Y-65517457D01*
X96816899Y-65523407D01*
X96817799Y-65529474D01*
X96818100Y-65535600D01*
X96818100Y-66235600D01*
X96817799Y-66241726D01*
X96816899Y-66247793D01*
X96815409Y-66253743D01*
X96813342Y-66259518D01*
X96810720Y-66265062D01*
X96807567Y-66270323D01*
X96803913Y-66275250D01*
X96799794Y-66279794D01*
X96795250Y-66283913D01*
X96790323Y-66287567D01*
X96785062Y-66290720D01*
X96779518Y-66293342D01*
X96773743Y-66295409D01*
X96767793Y-66296899D01*
X96761726Y-66297799D01*
X96755600Y-66298100D01*
X96630600Y-66298100D01*
X96624474Y-66297799D01*
X96618407Y-66296899D01*
X96612457Y-66295409D01*
X96606682Y-66293342D01*
X96601138Y-66290720D01*
X96595877Y-66287567D01*
X96590950Y-66283913D01*
X96586406Y-66279794D01*
X96582287Y-66275250D01*
X96578633Y-66270323D01*
X96575480Y-66265062D01*
X96572858Y-66259518D01*
X96570791Y-66253743D01*
X96569301Y-66247793D01*
X96568401Y-66241726D01*
X96568100Y-66235600D01*
X96568100Y-65535600D01*
X96568401Y-65529474D01*
X96569301Y-65523407D01*
X96570791Y-65517457D01*
X96572858Y-65511682D01*
X96575480Y-65506138D01*
X96578633Y-65500877D01*
X96582287Y-65495950D01*
X96586406Y-65491406D01*
X96590950Y-65487287D01*
X96595877Y-65483633D01*
X96601138Y-65480480D01*
X96606682Y-65477858D01*
X96612457Y-65475791D01*
X96618407Y-65474301D01*
X96624474Y-65473401D01*
X96630600Y-65473100D01*
X96755600Y-65473100D01*
X96761726Y-65473401D01*
X96761726Y-65473401D01*
G37*
D24*
X96693100Y-65885600D03*
D21*
G36*
X96086726Y-66723401D02*
X96092793Y-66724301D01*
X96098743Y-66725791D01*
X96104518Y-66727858D01*
X96110062Y-66730480D01*
X96115323Y-66733633D01*
X96120250Y-66737287D01*
X96124794Y-66741406D01*
X96128913Y-66745950D01*
X96132567Y-66750877D01*
X96135720Y-66756138D01*
X96138342Y-66761682D01*
X96140409Y-66767457D01*
X96141899Y-66773407D01*
X96142799Y-66779474D01*
X96143100Y-66785600D01*
X96143100Y-66910600D01*
X96142799Y-66916726D01*
X96141899Y-66922793D01*
X96140409Y-66928743D01*
X96138342Y-66934518D01*
X96135720Y-66940062D01*
X96132567Y-66945323D01*
X96128913Y-66950250D01*
X96124794Y-66954794D01*
X96120250Y-66958913D01*
X96115323Y-66962567D01*
X96110062Y-66965720D01*
X96104518Y-66968342D01*
X96098743Y-66970409D01*
X96092793Y-66971899D01*
X96086726Y-66972799D01*
X96080600Y-66973100D01*
X95380600Y-66973100D01*
X95374474Y-66972799D01*
X95368407Y-66971899D01*
X95362457Y-66970409D01*
X95356682Y-66968342D01*
X95351138Y-66965720D01*
X95345877Y-66962567D01*
X95340950Y-66958913D01*
X95336406Y-66954794D01*
X95332287Y-66950250D01*
X95328633Y-66945323D01*
X95325480Y-66940062D01*
X95322858Y-66934518D01*
X95320791Y-66928743D01*
X95319301Y-66922793D01*
X95318401Y-66916726D01*
X95318100Y-66910600D01*
X95318100Y-66785600D01*
X95318401Y-66779474D01*
X95319301Y-66773407D01*
X95320791Y-66767457D01*
X95322858Y-66761682D01*
X95325480Y-66756138D01*
X95328633Y-66750877D01*
X95332287Y-66745950D01*
X95336406Y-66741406D01*
X95340950Y-66737287D01*
X95345877Y-66733633D01*
X95351138Y-66730480D01*
X95356682Y-66727858D01*
X95362457Y-66725791D01*
X95368407Y-66724301D01*
X95374474Y-66723401D01*
X95380600Y-66723100D01*
X96080600Y-66723100D01*
X96086726Y-66723401D01*
X96086726Y-66723401D01*
G37*
D24*
X95730600Y-66848100D03*
D21*
G36*
X96086726Y-67223401D02*
X96092793Y-67224301D01*
X96098743Y-67225791D01*
X96104518Y-67227858D01*
X96110062Y-67230480D01*
X96115323Y-67233633D01*
X96120250Y-67237287D01*
X96124794Y-67241406D01*
X96128913Y-67245950D01*
X96132567Y-67250877D01*
X96135720Y-67256138D01*
X96138342Y-67261682D01*
X96140409Y-67267457D01*
X96141899Y-67273407D01*
X96142799Y-67279474D01*
X96143100Y-67285600D01*
X96143100Y-67410600D01*
X96142799Y-67416726D01*
X96141899Y-67422793D01*
X96140409Y-67428743D01*
X96138342Y-67434518D01*
X96135720Y-67440062D01*
X96132567Y-67445323D01*
X96128913Y-67450250D01*
X96124794Y-67454794D01*
X96120250Y-67458913D01*
X96115323Y-67462567D01*
X96110062Y-67465720D01*
X96104518Y-67468342D01*
X96098743Y-67470409D01*
X96092793Y-67471899D01*
X96086726Y-67472799D01*
X96080600Y-67473100D01*
X95380600Y-67473100D01*
X95374474Y-67472799D01*
X95368407Y-67471899D01*
X95362457Y-67470409D01*
X95356682Y-67468342D01*
X95351138Y-67465720D01*
X95345877Y-67462567D01*
X95340950Y-67458913D01*
X95336406Y-67454794D01*
X95332287Y-67450250D01*
X95328633Y-67445323D01*
X95325480Y-67440062D01*
X95322858Y-67434518D01*
X95320791Y-67428743D01*
X95319301Y-67422793D01*
X95318401Y-67416726D01*
X95318100Y-67410600D01*
X95318100Y-67285600D01*
X95318401Y-67279474D01*
X95319301Y-67273407D01*
X95320791Y-67267457D01*
X95322858Y-67261682D01*
X95325480Y-67256138D01*
X95328633Y-67250877D01*
X95332287Y-67245950D01*
X95336406Y-67241406D01*
X95340950Y-67237287D01*
X95345877Y-67233633D01*
X95351138Y-67230480D01*
X95356682Y-67227858D01*
X95362457Y-67225791D01*
X95368407Y-67224301D01*
X95374474Y-67223401D01*
X95380600Y-67223100D01*
X96080600Y-67223100D01*
X96086726Y-67223401D01*
X96086726Y-67223401D01*
G37*
D24*
X95730600Y-67348100D03*
D21*
G36*
X96086726Y-67723401D02*
X96092793Y-67724301D01*
X96098743Y-67725791D01*
X96104518Y-67727858D01*
X96110062Y-67730480D01*
X96115323Y-67733633D01*
X96120250Y-67737287D01*
X96124794Y-67741406D01*
X96128913Y-67745950D01*
X96132567Y-67750877D01*
X96135720Y-67756138D01*
X96138342Y-67761682D01*
X96140409Y-67767457D01*
X96141899Y-67773407D01*
X96142799Y-67779474D01*
X96143100Y-67785600D01*
X96143100Y-67910600D01*
X96142799Y-67916726D01*
X96141899Y-67922793D01*
X96140409Y-67928743D01*
X96138342Y-67934518D01*
X96135720Y-67940062D01*
X96132567Y-67945323D01*
X96128913Y-67950250D01*
X96124794Y-67954794D01*
X96120250Y-67958913D01*
X96115323Y-67962567D01*
X96110062Y-67965720D01*
X96104518Y-67968342D01*
X96098743Y-67970409D01*
X96092793Y-67971899D01*
X96086726Y-67972799D01*
X96080600Y-67973100D01*
X95380600Y-67973100D01*
X95374474Y-67972799D01*
X95368407Y-67971899D01*
X95362457Y-67970409D01*
X95356682Y-67968342D01*
X95351138Y-67965720D01*
X95345877Y-67962567D01*
X95340950Y-67958913D01*
X95336406Y-67954794D01*
X95332287Y-67950250D01*
X95328633Y-67945323D01*
X95325480Y-67940062D01*
X95322858Y-67934518D01*
X95320791Y-67928743D01*
X95319301Y-67922793D01*
X95318401Y-67916726D01*
X95318100Y-67910600D01*
X95318100Y-67785600D01*
X95318401Y-67779474D01*
X95319301Y-67773407D01*
X95320791Y-67767457D01*
X95322858Y-67761682D01*
X95325480Y-67756138D01*
X95328633Y-67750877D01*
X95332287Y-67745950D01*
X95336406Y-67741406D01*
X95340950Y-67737287D01*
X95345877Y-67733633D01*
X95351138Y-67730480D01*
X95356682Y-67727858D01*
X95362457Y-67725791D01*
X95368407Y-67724301D01*
X95374474Y-67723401D01*
X95380600Y-67723100D01*
X96080600Y-67723100D01*
X96086726Y-67723401D01*
X96086726Y-67723401D01*
G37*
D24*
X95730600Y-67848100D03*
D21*
G36*
X96761726Y-68398401D02*
X96767793Y-68399301D01*
X96773743Y-68400791D01*
X96779518Y-68402858D01*
X96785062Y-68405480D01*
X96790323Y-68408633D01*
X96795250Y-68412287D01*
X96799794Y-68416406D01*
X96803913Y-68420950D01*
X96807567Y-68425877D01*
X96810720Y-68431138D01*
X96813342Y-68436682D01*
X96815409Y-68442457D01*
X96816899Y-68448407D01*
X96817799Y-68454474D01*
X96818100Y-68460600D01*
X96818100Y-69160600D01*
X96817799Y-69166726D01*
X96816899Y-69172793D01*
X96815409Y-69178743D01*
X96813342Y-69184518D01*
X96810720Y-69190062D01*
X96807567Y-69195323D01*
X96803913Y-69200250D01*
X96799794Y-69204794D01*
X96795250Y-69208913D01*
X96790323Y-69212567D01*
X96785062Y-69215720D01*
X96779518Y-69218342D01*
X96773743Y-69220409D01*
X96767793Y-69221899D01*
X96761726Y-69222799D01*
X96755600Y-69223100D01*
X96630600Y-69223100D01*
X96624474Y-69222799D01*
X96618407Y-69221899D01*
X96612457Y-69220409D01*
X96606682Y-69218342D01*
X96601138Y-69215720D01*
X96595877Y-69212567D01*
X96590950Y-69208913D01*
X96586406Y-69204794D01*
X96582287Y-69200250D01*
X96578633Y-69195323D01*
X96575480Y-69190062D01*
X96572858Y-69184518D01*
X96570791Y-69178743D01*
X96569301Y-69172793D01*
X96568401Y-69166726D01*
X96568100Y-69160600D01*
X96568100Y-68460600D01*
X96568401Y-68454474D01*
X96569301Y-68448407D01*
X96570791Y-68442457D01*
X96572858Y-68436682D01*
X96575480Y-68431138D01*
X96578633Y-68425877D01*
X96582287Y-68420950D01*
X96586406Y-68416406D01*
X96590950Y-68412287D01*
X96595877Y-68408633D01*
X96601138Y-68405480D01*
X96606682Y-68402858D01*
X96612457Y-68400791D01*
X96618407Y-68399301D01*
X96624474Y-68398401D01*
X96630600Y-68398100D01*
X96755600Y-68398100D01*
X96761726Y-68398401D01*
X96761726Y-68398401D01*
G37*
D24*
X96693100Y-68810600D03*
D21*
G36*
X97261726Y-68398401D02*
X97267793Y-68399301D01*
X97273743Y-68400791D01*
X97279518Y-68402858D01*
X97285062Y-68405480D01*
X97290323Y-68408633D01*
X97295250Y-68412287D01*
X97299794Y-68416406D01*
X97303913Y-68420950D01*
X97307567Y-68425877D01*
X97310720Y-68431138D01*
X97313342Y-68436682D01*
X97315409Y-68442457D01*
X97316899Y-68448407D01*
X97317799Y-68454474D01*
X97318100Y-68460600D01*
X97318100Y-69160600D01*
X97317799Y-69166726D01*
X97316899Y-69172793D01*
X97315409Y-69178743D01*
X97313342Y-69184518D01*
X97310720Y-69190062D01*
X97307567Y-69195323D01*
X97303913Y-69200250D01*
X97299794Y-69204794D01*
X97295250Y-69208913D01*
X97290323Y-69212567D01*
X97285062Y-69215720D01*
X97279518Y-69218342D01*
X97273743Y-69220409D01*
X97267793Y-69221899D01*
X97261726Y-69222799D01*
X97255600Y-69223100D01*
X97130600Y-69223100D01*
X97124474Y-69222799D01*
X97118407Y-69221899D01*
X97112457Y-69220409D01*
X97106682Y-69218342D01*
X97101138Y-69215720D01*
X97095877Y-69212567D01*
X97090950Y-69208913D01*
X97086406Y-69204794D01*
X97082287Y-69200250D01*
X97078633Y-69195323D01*
X97075480Y-69190062D01*
X97072858Y-69184518D01*
X97070791Y-69178743D01*
X97069301Y-69172793D01*
X97068401Y-69166726D01*
X97068100Y-69160600D01*
X97068100Y-68460600D01*
X97068401Y-68454474D01*
X97069301Y-68448407D01*
X97070791Y-68442457D01*
X97072858Y-68436682D01*
X97075480Y-68431138D01*
X97078633Y-68425877D01*
X97082287Y-68420950D01*
X97086406Y-68416406D01*
X97090950Y-68412287D01*
X97095877Y-68408633D01*
X97101138Y-68405480D01*
X97106682Y-68402858D01*
X97112457Y-68400791D01*
X97118407Y-68399301D01*
X97124474Y-68398401D01*
X97130600Y-68398100D01*
X97255600Y-68398100D01*
X97261726Y-68398401D01*
X97261726Y-68398401D01*
G37*
D24*
X97193100Y-68810600D03*
D21*
G36*
X97761726Y-68398401D02*
X97767793Y-68399301D01*
X97773743Y-68400791D01*
X97779518Y-68402858D01*
X97785062Y-68405480D01*
X97790323Y-68408633D01*
X97795250Y-68412287D01*
X97799794Y-68416406D01*
X97803913Y-68420950D01*
X97807567Y-68425877D01*
X97810720Y-68431138D01*
X97813342Y-68436682D01*
X97815409Y-68442457D01*
X97816899Y-68448407D01*
X97817799Y-68454474D01*
X97818100Y-68460600D01*
X97818100Y-69160600D01*
X97817799Y-69166726D01*
X97816899Y-69172793D01*
X97815409Y-69178743D01*
X97813342Y-69184518D01*
X97810720Y-69190062D01*
X97807567Y-69195323D01*
X97803913Y-69200250D01*
X97799794Y-69204794D01*
X97795250Y-69208913D01*
X97790323Y-69212567D01*
X97785062Y-69215720D01*
X97779518Y-69218342D01*
X97773743Y-69220409D01*
X97767793Y-69221899D01*
X97761726Y-69222799D01*
X97755600Y-69223100D01*
X97630600Y-69223100D01*
X97624474Y-69222799D01*
X97618407Y-69221899D01*
X97612457Y-69220409D01*
X97606682Y-69218342D01*
X97601138Y-69215720D01*
X97595877Y-69212567D01*
X97590950Y-69208913D01*
X97586406Y-69204794D01*
X97582287Y-69200250D01*
X97578633Y-69195323D01*
X97575480Y-69190062D01*
X97572858Y-69184518D01*
X97570791Y-69178743D01*
X97569301Y-69172793D01*
X97568401Y-69166726D01*
X97568100Y-69160600D01*
X97568100Y-68460600D01*
X97568401Y-68454474D01*
X97569301Y-68448407D01*
X97570791Y-68442457D01*
X97572858Y-68436682D01*
X97575480Y-68431138D01*
X97578633Y-68425877D01*
X97582287Y-68420950D01*
X97586406Y-68416406D01*
X97590950Y-68412287D01*
X97595877Y-68408633D01*
X97601138Y-68405480D01*
X97606682Y-68402858D01*
X97612457Y-68400791D01*
X97618407Y-68399301D01*
X97624474Y-68398401D01*
X97630600Y-68398100D01*
X97755600Y-68398100D01*
X97761726Y-68398401D01*
X97761726Y-68398401D01*
G37*
D24*
X97693100Y-68810600D03*
D21*
G36*
X99011726Y-67723401D02*
X99017793Y-67724301D01*
X99023743Y-67725791D01*
X99029518Y-67727858D01*
X99035062Y-67730480D01*
X99040323Y-67733633D01*
X99045250Y-67737287D01*
X99049794Y-67741406D01*
X99053913Y-67745950D01*
X99057567Y-67750877D01*
X99060720Y-67756138D01*
X99063342Y-67761682D01*
X99065409Y-67767457D01*
X99066899Y-67773407D01*
X99067799Y-67779474D01*
X99068100Y-67785600D01*
X99068100Y-67910600D01*
X99067799Y-67916726D01*
X99066899Y-67922793D01*
X99065409Y-67928743D01*
X99063342Y-67934518D01*
X99060720Y-67940062D01*
X99057567Y-67945323D01*
X99053913Y-67950250D01*
X99049794Y-67954794D01*
X99045250Y-67958913D01*
X99040323Y-67962567D01*
X99035062Y-67965720D01*
X99029518Y-67968342D01*
X99023743Y-67970409D01*
X99017793Y-67971899D01*
X99011726Y-67972799D01*
X99005600Y-67973100D01*
X98305600Y-67973100D01*
X98299474Y-67972799D01*
X98293407Y-67971899D01*
X98287457Y-67970409D01*
X98281682Y-67968342D01*
X98276138Y-67965720D01*
X98270877Y-67962567D01*
X98265950Y-67958913D01*
X98261406Y-67954794D01*
X98257287Y-67950250D01*
X98253633Y-67945323D01*
X98250480Y-67940062D01*
X98247858Y-67934518D01*
X98245791Y-67928743D01*
X98244301Y-67922793D01*
X98243401Y-67916726D01*
X98243100Y-67910600D01*
X98243100Y-67785600D01*
X98243401Y-67779474D01*
X98244301Y-67773407D01*
X98245791Y-67767457D01*
X98247858Y-67761682D01*
X98250480Y-67756138D01*
X98253633Y-67750877D01*
X98257287Y-67745950D01*
X98261406Y-67741406D01*
X98265950Y-67737287D01*
X98270877Y-67733633D01*
X98276138Y-67730480D01*
X98281682Y-67727858D01*
X98287457Y-67725791D01*
X98293407Y-67724301D01*
X98299474Y-67723401D01*
X98305600Y-67723100D01*
X99005600Y-67723100D01*
X99011726Y-67723401D01*
X99011726Y-67723401D01*
G37*
D24*
X98655600Y-67848100D03*
D21*
G36*
X99011726Y-67223401D02*
X99017793Y-67224301D01*
X99023743Y-67225791D01*
X99029518Y-67227858D01*
X99035062Y-67230480D01*
X99040323Y-67233633D01*
X99045250Y-67237287D01*
X99049794Y-67241406D01*
X99053913Y-67245950D01*
X99057567Y-67250877D01*
X99060720Y-67256138D01*
X99063342Y-67261682D01*
X99065409Y-67267457D01*
X99066899Y-67273407D01*
X99067799Y-67279474D01*
X99068100Y-67285600D01*
X99068100Y-67410600D01*
X99067799Y-67416726D01*
X99066899Y-67422793D01*
X99065409Y-67428743D01*
X99063342Y-67434518D01*
X99060720Y-67440062D01*
X99057567Y-67445323D01*
X99053913Y-67450250D01*
X99049794Y-67454794D01*
X99045250Y-67458913D01*
X99040323Y-67462567D01*
X99035062Y-67465720D01*
X99029518Y-67468342D01*
X99023743Y-67470409D01*
X99017793Y-67471899D01*
X99011726Y-67472799D01*
X99005600Y-67473100D01*
X98305600Y-67473100D01*
X98299474Y-67472799D01*
X98293407Y-67471899D01*
X98287457Y-67470409D01*
X98281682Y-67468342D01*
X98276138Y-67465720D01*
X98270877Y-67462567D01*
X98265950Y-67458913D01*
X98261406Y-67454794D01*
X98257287Y-67450250D01*
X98253633Y-67445323D01*
X98250480Y-67440062D01*
X98247858Y-67434518D01*
X98245791Y-67428743D01*
X98244301Y-67422793D01*
X98243401Y-67416726D01*
X98243100Y-67410600D01*
X98243100Y-67285600D01*
X98243401Y-67279474D01*
X98244301Y-67273407D01*
X98245791Y-67267457D01*
X98247858Y-67261682D01*
X98250480Y-67256138D01*
X98253633Y-67250877D01*
X98257287Y-67245950D01*
X98261406Y-67241406D01*
X98265950Y-67237287D01*
X98270877Y-67233633D01*
X98276138Y-67230480D01*
X98281682Y-67227858D01*
X98287457Y-67225791D01*
X98293407Y-67224301D01*
X98299474Y-67223401D01*
X98305600Y-67223100D01*
X99005600Y-67223100D01*
X99011726Y-67223401D01*
X99011726Y-67223401D01*
G37*
D24*
X98655600Y-67348100D03*
D21*
G36*
X99011726Y-66723401D02*
X99017793Y-66724301D01*
X99023743Y-66725791D01*
X99029518Y-66727858D01*
X99035062Y-66730480D01*
X99040323Y-66733633D01*
X99045250Y-66737287D01*
X99049794Y-66741406D01*
X99053913Y-66745950D01*
X99057567Y-66750877D01*
X99060720Y-66756138D01*
X99063342Y-66761682D01*
X99065409Y-66767457D01*
X99066899Y-66773407D01*
X99067799Y-66779474D01*
X99068100Y-66785600D01*
X99068100Y-66910600D01*
X99067799Y-66916726D01*
X99066899Y-66922793D01*
X99065409Y-66928743D01*
X99063342Y-66934518D01*
X99060720Y-66940062D01*
X99057567Y-66945323D01*
X99053913Y-66950250D01*
X99049794Y-66954794D01*
X99045250Y-66958913D01*
X99040323Y-66962567D01*
X99035062Y-66965720D01*
X99029518Y-66968342D01*
X99023743Y-66970409D01*
X99017793Y-66971899D01*
X99011726Y-66972799D01*
X99005600Y-66973100D01*
X98305600Y-66973100D01*
X98299474Y-66972799D01*
X98293407Y-66971899D01*
X98287457Y-66970409D01*
X98281682Y-66968342D01*
X98276138Y-66965720D01*
X98270877Y-66962567D01*
X98265950Y-66958913D01*
X98261406Y-66954794D01*
X98257287Y-66950250D01*
X98253633Y-66945323D01*
X98250480Y-66940062D01*
X98247858Y-66934518D01*
X98245791Y-66928743D01*
X98244301Y-66922793D01*
X98243401Y-66916726D01*
X98243100Y-66910600D01*
X98243100Y-66785600D01*
X98243401Y-66779474D01*
X98244301Y-66773407D01*
X98245791Y-66767457D01*
X98247858Y-66761682D01*
X98250480Y-66756138D01*
X98253633Y-66750877D01*
X98257287Y-66745950D01*
X98261406Y-66741406D01*
X98265950Y-66737287D01*
X98270877Y-66733633D01*
X98276138Y-66730480D01*
X98281682Y-66727858D01*
X98287457Y-66725791D01*
X98293407Y-66724301D01*
X98299474Y-66723401D01*
X98305600Y-66723100D01*
X99005600Y-66723100D01*
X99011726Y-66723401D01*
X99011726Y-66723401D01*
G37*
D24*
X98655600Y-66848100D03*
G04 #@! TD*
D25*
G04 #@! TO.C,U4*
X55982800Y-81156400D03*
X57082800Y-81156400D03*
X58182800Y-81156400D03*
X59282800Y-81156400D03*
X60382800Y-81156400D03*
X61482800Y-81156400D03*
X62582800Y-81156400D03*
D26*
X63632800Y-81156400D03*
X54932800Y-81156400D03*
D25*
X55982800Y-71656400D03*
X57082800Y-71656400D03*
X58182800Y-71656400D03*
X59282800Y-71656400D03*
X60382800Y-71656400D03*
X61482800Y-71656400D03*
X62582800Y-71656400D03*
D26*
X63632800Y-71656400D03*
X54932800Y-71656400D03*
G04 #@! TD*
M02*
