G04 #@! TF.GenerationSoftware,KiCad,Pcbnew,5.0.1-33cea8e~67~ubuntu18.04.1*
G04 #@! TF.CreationDate,2018-10-19T14:06:38-05:00*
G04 #@! TF.ProjectId,PiHatAx5043,50694861744178353034332E6B696361,V1.3*
G04 #@! TF.SameCoordinates,Original*
G04 #@! TF.FileFunction,Soldermask,Top*
G04 #@! TF.FilePolarity,Negative*
%FSLAX46Y46*%
G04 Gerber Fmt 4.6, Leading zero omitted, Abs format (unit mm)*
G04 Created by KiCad (PCBNEW 5.0.1-33cea8e~67~ubuntu18.04.1) date Fri 19 Oct 2018 02:06:38 PM CDT*
%MOMM*%
%LPD*%
G01*
G04 APERTURE LIST*
%ADD10C,0.100000*%
G04 APERTURE END LIST*
D10*
G36*
X106041100Y-88066790D02*
X106304237Y-88119131D01*
X106868401Y-88352815D01*
X107376135Y-88692072D01*
X107807928Y-89123865D01*
X108147185Y-89631599D01*
X108380869Y-90195763D01*
X108380869Y-90195764D01*
X108500000Y-90794675D01*
X108500000Y-91405325D01*
X108476760Y-91522158D01*
X108380869Y-92004237D01*
X108147185Y-92568401D01*
X107807928Y-93076135D01*
X107376135Y-93507928D01*
X106868401Y-93847185D01*
X106304237Y-94080869D01*
X106104599Y-94120579D01*
X105705325Y-94200000D01*
X105094675Y-94200000D01*
X104695401Y-94120579D01*
X104495763Y-94080869D01*
X103931599Y-93847185D01*
X103423865Y-93507928D01*
X102992072Y-93076135D01*
X102652815Y-92568401D01*
X102419131Y-92004237D01*
X102323240Y-91522158D01*
X102300000Y-91405325D01*
X102300000Y-90794675D01*
X102419131Y-90195764D01*
X102419131Y-90195763D01*
X102652815Y-89631599D01*
X102992072Y-89123865D01*
X103423865Y-88692072D01*
X103931599Y-88352815D01*
X104495763Y-88119131D01*
X104758900Y-88066790D01*
X105094675Y-88000000D01*
X105705325Y-88000000D01*
X106041100Y-88066790D01*
X106041100Y-88066790D01*
G37*
G36*
X48041100Y-88066790D02*
X48304237Y-88119131D01*
X48868401Y-88352815D01*
X49376135Y-88692072D01*
X49807928Y-89123865D01*
X50147185Y-89631599D01*
X50380869Y-90195763D01*
X50380869Y-90195764D01*
X50500000Y-90794675D01*
X50500000Y-91405325D01*
X50476760Y-91522158D01*
X50380869Y-92004237D01*
X50147185Y-92568401D01*
X49807928Y-93076135D01*
X49376135Y-93507928D01*
X48868401Y-93847185D01*
X48304237Y-94080869D01*
X48104599Y-94120579D01*
X47705325Y-94200000D01*
X47094675Y-94200000D01*
X46695401Y-94120579D01*
X46495763Y-94080869D01*
X45931599Y-93847185D01*
X45423865Y-93507928D01*
X44992072Y-93076135D01*
X44652815Y-92568401D01*
X44419131Y-92004237D01*
X44323240Y-91522158D01*
X44300000Y-91405325D01*
X44300000Y-90794675D01*
X44419131Y-90195764D01*
X44419131Y-90195763D01*
X44652815Y-89631599D01*
X44992072Y-89123865D01*
X45423865Y-88692072D01*
X45931599Y-88352815D01*
X46495763Y-88119131D01*
X46758900Y-88066790D01*
X47094675Y-88000000D01*
X47705325Y-88000000D01*
X48041100Y-88066790D01*
X48041100Y-88066790D01*
G37*
G36*
X67348140Y-90579808D02*
X67511150Y-90612233D01*
X67715887Y-90697038D01*
X67834178Y-90776078D01*
X67900148Y-90820158D01*
X68056842Y-90976852D01*
X68056844Y-90976855D01*
X68179962Y-91161113D01*
X68264767Y-91365850D01*
X68308000Y-91583197D01*
X68308000Y-91804803D01*
X68264767Y-92022150D01*
X68179962Y-92226887D01*
X68179961Y-92226888D01*
X68056842Y-92411148D01*
X67900148Y-92567842D01*
X67900145Y-92567844D01*
X67715887Y-92690962D01*
X67511150Y-92775767D01*
X67348140Y-92808192D01*
X67293804Y-92819000D01*
X67072196Y-92819000D01*
X67017860Y-92808192D01*
X66854850Y-92775767D01*
X66650113Y-92690962D01*
X66465855Y-92567844D01*
X66465852Y-92567842D01*
X66309158Y-92411148D01*
X66186039Y-92226888D01*
X66186038Y-92226887D01*
X66101233Y-92022150D01*
X66058000Y-91804803D01*
X66058000Y-91583197D01*
X66101233Y-91365850D01*
X66186038Y-91161113D01*
X66309156Y-90976855D01*
X66309158Y-90976852D01*
X66465852Y-90820158D01*
X66531822Y-90776078D01*
X66650113Y-90697038D01*
X66854850Y-90612233D01*
X67017860Y-90579808D01*
X67072196Y-90569000D01*
X67293804Y-90569000D01*
X67348140Y-90579808D01*
X67348140Y-90579808D01*
G37*
G36*
X62268140Y-90579808D02*
X62431150Y-90612233D01*
X62635887Y-90697038D01*
X62754178Y-90776078D01*
X62820148Y-90820158D01*
X62976842Y-90976852D01*
X62976844Y-90976855D01*
X63099962Y-91161113D01*
X63184767Y-91365850D01*
X63228000Y-91583197D01*
X63228000Y-91804803D01*
X63184767Y-92022150D01*
X63099962Y-92226887D01*
X63099961Y-92226888D01*
X62976842Y-92411148D01*
X62820148Y-92567842D01*
X62820145Y-92567844D01*
X62635887Y-92690962D01*
X62431150Y-92775767D01*
X62268140Y-92808192D01*
X62213804Y-92819000D01*
X61992196Y-92819000D01*
X61937860Y-92808192D01*
X61774850Y-92775767D01*
X61570113Y-92690962D01*
X61385855Y-92567844D01*
X61385852Y-92567842D01*
X61229158Y-92411148D01*
X61106039Y-92226888D01*
X61106038Y-92226887D01*
X61021233Y-92022150D01*
X60978000Y-91804803D01*
X60978000Y-91583197D01*
X61021233Y-91365850D01*
X61106038Y-91161113D01*
X61229156Y-90976855D01*
X61229158Y-90976852D01*
X61385852Y-90820158D01*
X61451822Y-90776078D01*
X61570113Y-90697038D01*
X61774850Y-90612233D01*
X61937860Y-90579808D01*
X61992196Y-90569000D01*
X62213804Y-90569000D01*
X62268140Y-90579808D01*
X62268140Y-90579808D01*
G37*
G36*
X78489357Y-90572772D02*
X78689542Y-90655691D01*
X78689545Y-90655693D01*
X78751424Y-90697039D01*
X78869713Y-90776078D01*
X79022922Y-90929287D01*
X79143309Y-91109458D01*
X79226228Y-91309643D01*
X79268500Y-91522158D01*
X79268500Y-91738842D01*
X79226228Y-91951357D01*
X79143309Y-92151542D01*
X79143307Y-92151545D01*
X79037733Y-92309548D01*
X79022922Y-92331713D01*
X78869713Y-92484922D01*
X78869710Y-92484924D01*
X78869709Y-92484925D01*
X78713410Y-92589361D01*
X78689542Y-92605309D01*
X78489357Y-92688228D01*
X78276842Y-92730500D01*
X78060158Y-92730500D01*
X77847643Y-92688228D01*
X77647458Y-92605309D01*
X77623590Y-92589361D01*
X77467291Y-92484925D01*
X77467290Y-92484924D01*
X77467287Y-92484922D01*
X77314078Y-92331713D01*
X77299268Y-92309548D01*
X77193693Y-92151545D01*
X77193691Y-92151542D01*
X77110772Y-91951357D01*
X77068500Y-91738842D01*
X77068500Y-91522158D01*
X77110772Y-91309643D01*
X77193691Y-91109458D01*
X77314078Y-90929287D01*
X77467287Y-90776078D01*
X77585577Y-90697039D01*
X77647455Y-90655693D01*
X77647458Y-90655691D01*
X77847643Y-90572772D01*
X78060158Y-90530500D01*
X78276842Y-90530500D01*
X78489357Y-90572772D01*
X78489357Y-90572772D01*
G37*
G36*
X73409357Y-90572772D02*
X73609542Y-90655691D01*
X73609545Y-90655693D01*
X73671424Y-90697039D01*
X73789713Y-90776078D01*
X73942922Y-90929287D01*
X74063309Y-91109458D01*
X74146228Y-91309643D01*
X74188500Y-91522158D01*
X74188500Y-91738842D01*
X74146228Y-91951357D01*
X74063309Y-92151542D01*
X74063307Y-92151545D01*
X73957733Y-92309548D01*
X73942922Y-92331713D01*
X73789713Y-92484922D01*
X73789710Y-92484924D01*
X73789709Y-92484925D01*
X73633410Y-92589361D01*
X73609542Y-92605309D01*
X73409357Y-92688228D01*
X73196842Y-92730500D01*
X72980158Y-92730500D01*
X72767643Y-92688228D01*
X72567458Y-92605309D01*
X72543590Y-92589361D01*
X72387291Y-92484925D01*
X72387290Y-92484924D01*
X72387287Y-92484922D01*
X72234078Y-92331713D01*
X72219268Y-92309548D01*
X72113693Y-92151545D01*
X72113691Y-92151542D01*
X72030772Y-91951357D01*
X71988500Y-91738842D01*
X71988500Y-91522158D01*
X72030772Y-91309643D01*
X72113691Y-91109458D01*
X72234078Y-90929287D01*
X72387287Y-90776078D01*
X72505577Y-90697039D01*
X72567455Y-90655693D01*
X72567458Y-90655691D01*
X72767643Y-90572772D01*
X72980158Y-90530500D01*
X73196842Y-90530500D01*
X73409357Y-90572772D01*
X73409357Y-90572772D01*
G37*
G36*
X93281540Y-90478208D02*
X93444550Y-90510633D01*
X93649287Y-90595438D01*
X93649288Y-90595439D01*
X93833548Y-90718558D01*
X93990242Y-90875252D01*
X93990244Y-90875255D01*
X94113362Y-91059513D01*
X94198167Y-91264250D01*
X94241400Y-91481597D01*
X94241400Y-91703203D01*
X94198167Y-91920550D01*
X94113362Y-92125287D01*
X94045474Y-92226888D01*
X93990242Y-92309548D01*
X93833548Y-92466242D01*
X93833545Y-92466244D01*
X93649287Y-92589362D01*
X93444550Y-92674167D01*
X93281540Y-92706592D01*
X93227204Y-92717400D01*
X93005596Y-92717400D01*
X92951260Y-92706592D01*
X92788250Y-92674167D01*
X92583513Y-92589362D01*
X92399255Y-92466244D01*
X92399252Y-92466242D01*
X92242558Y-92309548D01*
X92187326Y-92226888D01*
X92119438Y-92125287D01*
X92034633Y-91920550D01*
X91991400Y-91703203D01*
X91991400Y-91481597D01*
X92034633Y-91264250D01*
X92119438Y-91059513D01*
X92242556Y-90875255D01*
X92242558Y-90875252D01*
X92399252Y-90718558D01*
X92583512Y-90595439D01*
X92583513Y-90595438D01*
X92788250Y-90510633D01*
X92951260Y-90478208D01*
X93005596Y-90467400D01*
X93227204Y-90467400D01*
X93281540Y-90478208D01*
X93281540Y-90478208D01*
G37*
G36*
X98361540Y-90478208D02*
X98524550Y-90510633D01*
X98729287Y-90595438D01*
X98729288Y-90595439D01*
X98913548Y-90718558D01*
X99070242Y-90875252D01*
X99070244Y-90875255D01*
X99193362Y-91059513D01*
X99278167Y-91264250D01*
X99321400Y-91481597D01*
X99321400Y-91703203D01*
X99278167Y-91920550D01*
X99193362Y-92125287D01*
X99125474Y-92226888D01*
X99070242Y-92309548D01*
X98913548Y-92466242D01*
X98913545Y-92466244D01*
X98729287Y-92589362D01*
X98524550Y-92674167D01*
X98361540Y-92706592D01*
X98307204Y-92717400D01*
X98085596Y-92717400D01*
X98031260Y-92706592D01*
X97868250Y-92674167D01*
X97663513Y-92589362D01*
X97479255Y-92466244D01*
X97479252Y-92466242D01*
X97322558Y-92309548D01*
X97267326Y-92226888D01*
X97199438Y-92125287D01*
X97114633Y-91920550D01*
X97071400Y-91703203D01*
X97071400Y-91481597D01*
X97114633Y-91264250D01*
X97199438Y-91059513D01*
X97322556Y-90875255D01*
X97322558Y-90875252D01*
X97479252Y-90718558D01*
X97663512Y-90595439D01*
X97663513Y-90595438D01*
X97868250Y-90510633D01*
X98031260Y-90478208D01*
X98085596Y-90467400D01*
X98307204Y-90467400D01*
X98361540Y-90478208D01*
X98361540Y-90478208D01*
G37*
G36*
X53943116Y-90294995D02*
X53972313Y-90303852D01*
X53999218Y-90318233D01*
X54022808Y-90337592D01*
X54042167Y-90361182D01*
X54056548Y-90388087D01*
X54065405Y-90417284D01*
X54069000Y-90453790D01*
X54069000Y-91004010D01*
X54065405Y-91040516D01*
X54056548Y-91069713D01*
X54042167Y-91096618D01*
X54022808Y-91120208D01*
X53999218Y-91139567D01*
X53972313Y-91153948D01*
X53943116Y-91162805D01*
X53906610Y-91166400D01*
X53281390Y-91166400D01*
X53244884Y-91162805D01*
X53215687Y-91153948D01*
X53188782Y-91139567D01*
X53165192Y-91120208D01*
X53145833Y-91096618D01*
X53131452Y-91069713D01*
X53122595Y-91040516D01*
X53119000Y-91004010D01*
X53119000Y-90453790D01*
X53122595Y-90417284D01*
X53131452Y-90388087D01*
X53145833Y-90361182D01*
X53165192Y-90337592D01*
X53188782Y-90318233D01*
X53215687Y-90303852D01*
X53244884Y-90294995D01*
X53281390Y-90291400D01*
X53906610Y-90291400D01*
X53943116Y-90294995D01*
X53943116Y-90294995D01*
G37*
G36*
X64793461Y-88138848D02*
X64941982Y-88168390D01*
X65128520Y-88245656D01*
X65296400Y-88357830D01*
X65439170Y-88500600D01*
X65551344Y-88668480D01*
X65628610Y-88855018D01*
X65668000Y-89053046D01*
X65668000Y-89254954D01*
X65628610Y-89452982D01*
X65551344Y-89639520D01*
X65439170Y-89807400D01*
X65296400Y-89950170D01*
X65128520Y-90062344D01*
X64941982Y-90139610D01*
X64793461Y-90169153D01*
X64743955Y-90179000D01*
X64542045Y-90179000D01*
X64492539Y-90169153D01*
X64344018Y-90139610D01*
X64157480Y-90062344D01*
X63989600Y-89950170D01*
X63846830Y-89807400D01*
X63734656Y-89639520D01*
X63657390Y-89452982D01*
X63618000Y-89254954D01*
X63618000Y-89053046D01*
X63657390Y-88855018D01*
X63734656Y-88668480D01*
X63846830Y-88500600D01*
X63989600Y-88357830D01*
X64157480Y-88245656D01*
X64344018Y-88168390D01*
X64492539Y-88138848D01*
X64542045Y-88129000D01*
X64743955Y-88129000D01*
X64793461Y-88138848D01*
X64793461Y-88138848D01*
G37*
G36*
X75804270Y-88105872D02*
X75920189Y-88128929D01*
X76102178Y-88204311D01*
X76265963Y-88313749D01*
X76405251Y-88453037D01*
X76514689Y-88616822D01*
X76590071Y-88798811D01*
X76609751Y-88897750D01*
X76620432Y-88951445D01*
X76628500Y-88992009D01*
X76628500Y-89188991D01*
X76590071Y-89382189D01*
X76514689Y-89564178D01*
X76405251Y-89727963D01*
X76265963Y-89867251D01*
X76102178Y-89976689D01*
X75920189Y-90052071D01*
X75804270Y-90075128D01*
X75726993Y-90090500D01*
X75530007Y-90090500D01*
X75452730Y-90075128D01*
X75336811Y-90052071D01*
X75154822Y-89976689D01*
X74991037Y-89867251D01*
X74851749Y-89727963D01*
X74742311Y-89564178D01*
X74666929Y-89382189D01*
X74628500Y-89188991D01*
X74628500Y-88992009D01*
X74636569Y-88951445D01*
X74647249Y-88897750D01*
X74666929Y-88798811D01*
X74742311Y-88616822D01*
X74851749Y-88453037D01*
X74991037Y-88313749D01*
X75154822Y-88204311D01*
X75336811Y-88128929D01*
X75452730Y-88105872D01*
X75530007Y-88090500D01*
X75726993Y-88090500D01*
X75804270Y-88105872D01*
X75804270Y-88105872D01*
G37*
G36*
X95806861Y-88037248D02*
X95955382Y-88066790D01*
X96141920Y-88144056D01*
X96309800Y-88256230D01*
X96452570Y-88399000D01*
X96564744Y-88566880D01*
X96642010Y-88753418D01*
X96681400Y-88951446D01*
X96681400Y-89153354D01*
X96642010Y-89351382D01*
X96564744Y-89537920D01*
X96452570Y-89705800D01*
X96309800Y-89848570D01*
X96141920Y-89960744D01*
X95955382Y-90038010D01*
X95833056Y-90062342D01*
X95757355Y-90077400D01*
X95555445Y-90077400D01*
X95479744Y-90062342D01*
X95357418Y-90038010D01*
X95170880Y-89960744D01*
X95003000Y-89848570D01*
X94860230Y-89705800D01*
X94748056Y-89537920D01*
X94670790Y-89351382D01*
X94631400Y-89153354D01*
X94631400Y-88951446D01*
X94670790Y-88753418D01*
X94748056Y-88566880D01*
X94860230Y-88399000D01*
X95003000Y-88256230D01*
X95170880Y-88144056D01*
X95357418Y-88066790D01*
X95505939Y-88037247D01*
X95555445Y-88027400D01*
X95757355Y-88027400D01*
X95806861Y-88037248D01*
X95806861Y-88037248D01*
G37*
G36*
X58503116Y-88682595D02*
X58532313Y-88691452D01*
X58559218Y-88705833D01*
X58582808Y-88725192D01*
X58602167Y-88748782D01*
X58616548Y-88775687D01*
X58625405Y-88804884D01*
X58629000Y-88841390D01*
X58629000Y-89466610D01*
X58625405Y-89503116D01*
X58616548Y-89532313D01*
X58602167Y-89559218D01*
X58582808Y-89582808D01*
X58559218Y-89602167D01*
X58532313Y-89616548D01*
X58503116Y-89625405D01*
X58466610Y-89629000D01*
X57916390Y-89629000D01*
X57879884Y-89625405D01*
X57850687Y-89616548D01*
X57823782Y-89602167D01*
X57800192Y-89582808D01*
X57780833Y-89559218D01*
X57766452Y-89532313D01*
X57757595Y-89503116D01*
X57754000Y-89466610D01*
X57754000Y-88841390D01*
X57757595Y-88804884D01*
X57766452Y-88775687D01*
X57780833Y-88748782D01*
X57800192Y-88725192D01*
X57823782Y-88705833D01*
X57850687Y-88691452D01*
X57879884Y-88682595D01*
X57916390Y-88679000D01*
X58466610Y-88679000D01*
X58503116Y-88682595D01*
X58503116Y-88682595D01*
G37*
G36*
X56928116Y-88682595D02*
X56957313Y-88691452D01*
X56984218Y-88705833D01*
X57007808Y-88725192D01*
X57027167Y-88748782D01*
X57041548Y-88775687D01*
X57050405Y-88804884D01*
X57054000Y-88841390D01*
X57054000Y-89466610D01*
X57050405Y-89503116D01*
X57041548Y-89532313D01*
X57027167Y-89559218D01*
X57007808Y-89582808D01*
X56984218Y-89602167D01*
X56957313Y-89616548D01*
X56928116Y-89625405D01*
X56891610Y-89629000D01*
X56341390Y-89629000D01*
X56304884Y-89625405D01*
X56275687Y-89616548D01*
X56248782Y-89602167D01*
X56225192Y-89582808D01*
X56205833Y-89559218D01*
X56191452Y-89532313D01*
X56182595Y-89503116D01*
X56179000Y-89466610D01*
X56179000Y-88841390D01*
X56182595Y-88804884D01*
X56191452Y-88775687D01*
X56205833Y-88748782D01*
X56225192Y-88725192D01*
X56248782Y-88705833D01*
X56275687Y-88691452D01*
X56304884Y-88682595D01*
X56341390Y-88679000D01*
X56891610Y-88679000D01*
X56928116Y-88682595D01*
X56928116Y-88682595D01*
G37*
G36*
X53943116Y-88719995D02*
X53972313Y-88728852D01*
X53999218Y-88743233D01*
X54022808Y-88762592D01*
X54042167Y-88786182D01*
X54056548Y-88813087D01*
X54065405Y-88842284D01*
X54069000Y-88878790D01*
X54069000Y-89429010D01*
X54065405Y-89465516D01*
X54056548Y-89494713D01*
X54042167Y-89521618D01*
X54022808Y-89545208D01*
X53999218Y-89564567D01*
X53972313Y-89578948D01*
X53943116Y-89587805D01*
X53906610Y-89591400D01*
X53281390Y-89591400D01*
X53244884Y-89587805D01*
X53215687Y-89578948D01*
X53188782Y-89564567D01*
X53165192Y-89545208D01*
X53145833Y-89521618D01*
X53131452Y-89494713D01*
X53122595Y-89465516D01*
X53119000Y-89429010D01*
X53119000Y-88878790D01*
X53122595Y-88842284D01*
X53131452Y-88813087D01*
X53145833Y-88786182D01*
X53165192Y-88762592D01*
X53188782Y-88743233D01*
X53215687Y-88728852D01*
X53244884Y-88719995D01*
X53281390Y-88716400D01*
X53906610Y-88716400D01*
X53943116Y-88719995D01*
X53943116Y-88719995D01*
G37*
G36*
X67348140Y-85499808D02*
X67511150Y-85532233D01*
X67715887Y-85617038D01*
X67834178Y-85696078D01*
X67900148Y-85740158D01*
X68056842Y-85896852D01*
X68056844Y-85896855D01*
X68179962Y-86081113D01*
X68264767Y-86285850D01*
X68288507Y-86405200D01*
X68307740Y-86501887D01*
X68308000Y-86503197D01*
X68308000Y-86724803D01*
X68264767Y-86942150D01*
X68179962Y-87146887D01*
X68058507Y-87328657D01*
X68056842Y-87331148D01*
X67900148Y-87487842D01*
X67900145Y-87487844D01*
X67715887Y-87610962D01*
X67511150Y-87695767D01*
X67348140Y-87728192D01*
X67293804Y-87739000D01*
X67072196Y-87739000D01*
X67017860Y-87728192D01*
X66854850Y-87695767D01*
X66650113Y-87610962D01*
X66465855Y-87487844D01*
X66465852Y-87487842D01*
X66309158Y-87331148D01*
X66307493Y-87328657D01*
X66186038Y-87146887D01*
X66101233Y-86942150D01*
X66058000Y-86724803D01*
X66058000Y-86503197D01*
X66058261Y-86501887D01*
X66077493Y-86405200D01*
X66101233Y-86285850D01*
X66186038Y-86081113D01*
X66309156Y-85896855D01*
X66309158Y-85896852D01*
X66465852Y-85740158D01*
X66531822Y-85696078D01*
X66650113Y-85617038D01*
X66854850Y-85532233D01*
X67017860Y-85499808D01*
X67072196Y-85489000D01*
X67293804Y-85489000D01*
X67348140Y-85499808D01*
X67348140Y-85499808D01*
G37*
G36*
X62268140Y-85499808D02*
X62431150Y-85532233D01*
X62635887Y-85617038D01*
X62754178Y-85696078D01*
X62820148Y-85740158D01*
X62976842Y-85896852D01*
X62976844Y-85896855D01*
X63099962Y-86081113D01*
X63184767Y-86285850D01*
X63208507Y-86405200D01*
X63227740Y-86501887D01*
X63228000Y-86503197D01*
X63228000Y-86724803D01*
X63184767Y-86942150D01*
X63099962Y-87146887D01*
X62978507Y-87328657D01*
X62976842Y-87331148D01*
X62820148Y-87487842D01*
X62820145Y-87487844D01*
X62635887Y-87610962D01*
X62431150Y-87695767D01*
X62268140Y-87728192D01*
X62213804Y-87739000D01*
X61992196Y-87739000D01*
X61937860Y-87728192D01*
X61774850Y-87695767D01*
X61570113Y-87610962D01*
X61385855Y-87487844D01*
X61385852Y-87487842D01*
X61229158Y-87331148D01*
X61227493Y-87328657D01*
X61106038Y-87146887D01*
X61021233Y-86942150D01*
X60978000Y-86724803D01*
X60978000Y-86503197D01*
X60978261Y-86501887D01*
X60997493Y-86405200D01*
X61021233Y-86285850D01*
X61106038Y-86081113D01*
X61229156Y-85896855D01*
X61229158Y-85896852D01*
X61385852Y-85740158D01*
X61451822Y-85696078D01*
X61570113Y-85617038D01*
X61774850Y-85532233D01*
X61937860Y-85499808D01*
X61992196Y-85489000D01*
X62213804Y-85489000D01*
X62268140Y-85499808D01*
X62268140Y-85499808D01*
G37*
G36*
X73409357Y-85492772D02*
X73609542Y-85575691D01*
X73609545Y-85575693D01*
X73784730Y-85692748D01*
X73789713Y-85696078D01*
X73942922Y-85849287D01*
X73942924Y-85849290D01*
X73942925Y-85849291D01*
X73974704Y-85896852D01*
X74063309Y-86029458D01*
X74146228Y-86229643D01*
X74188500Y-86442158D01*
X74188500Y-86658842D01*
X74146228Y-86871357D01*
X74063309Y-87071542D01*
X74063307Y-87071545D01*
X73957733Y-87229548D01*
X73942922Y-87251713D01*
X73789713Y-87404922D01*
X73609542Y-87525309D01*
X73409357Y-87608228D01*
X73196842Y-87650500D01*
X72980158Y-87650500D01*
X72767643Y-87608228D01*
X72567458Y-87525309D01*
X72387287Y-87404922D01*
X72234078Y-87251713D01*
X72219268Y-87229548D01*
X72113693Y-87071545D01*
X72113691Y-87071542D01*
X72030772Y-86871357D01*
X71988500Y-86658842D01*
X71988500Y-86442158D01*
X72030772Y-86229643D01*
X72113691Y-86029458D01*
X72202296Y-85896852D01*
X72234075Y-85849291D01*
X72234076Y-85849290D01*
X72234078Y-85849287D01*
X72387287Y-85696078D01*
X72392271Y-85692748D01*
X72567455Y-85575693D01*
X72567458Y-85575691D01*
X72767643Y-85492772D01*
X72980158Y-85450500D01*
X73196842Y-85450500D01*
X73409357Y-85492772D01*
X73409357Y-85492772D01*
G37*
G36*
X78489357Y-85492772D02*
X78689542Y-85575691D01*
X78689545Y-85575693D01*
X78864730Y-85692748D01*
X78869713Y-85696078D01*
X79022922Y-85849287D01*
X79022924Y-85849290D01*
X79022925Y-85849291D01*
X79054704Y-85896852D01*
X79143309Y-86029458D01*
X79226228Y-86229643D01*
X79268500Y-86442158D01*
X79268500Y-86658842D01*
X79226228Y-86871357D01*
X79143309Y-87071542D01*
X79143307Y-87071545D01*
X79037733Y-87229548D01*
X79022922Y-87251713D01*
X78869713Y-87404922D01*
X78689542Y-87525309D01*
X78489357Y-87608228D01*
X78276842Y-87650500D01*
X78060158Y-87650500D01*
X77847643Y-87608228D01*
X77647458Y-87525309D01*
X77467287Y-87404922D01*
X77314078Y-87251713D01*
X77299268Y-87229548D01*
X77193693Y-87071545D01*
X77193691Y-87071542D01*
X77110772Y-86871357D01*
X77068500Y-86658842D01*
X77068500Y-86442158D01*
X77110772Y-86229643D01*
X77193691Y-86029458D01*
X77282296Y-85896852D01*
X77314075Y-85849291D01*
X77314076Y-85849290D01*
X77314078Y-85849287D01*
X77467287Y-85696078D01*
X77472271Y-85692748D01*
X77647455Y-85575693D01*
X77647458Y-85575691D01*
X77847643Y-85492772D01*
X78060158Y-85450500D01*
X78276842Y-85450500D01*
X78489357Y-85492772D01*
X78489357Y-85492772D01*
G37*
G36*
X93281540Y-85398208D02*
X93444550Y-85430633D01*
X93649287Y-85515438D01*
X93788583Y-85608513D01*
X93833548Y-85638558D01*
X93990242Y-85795252D01*
X93990244Y-85795255D01*
X94113362Y-85979513D01*
X94198167Y-86184250D01*
X94207196Y-86229642D01*
X94241400Y-86401596D01*
X94241400Y-86623204D01*
X94235474Y-86652997D01*
X94198167Y-86840550D01*
X94113362Y-87045287D01*
X94045474Y-87146888D01*
X93990242Y-87229548D01*
X93833548Y-87386242D01*
X93833545Y-87386244D01*
X93649287Y-87509362D01*
X93444550Y-87594167D01*
X93281540Y-87626592D01*
X93227204Y-87637400D01*
X93005596Y-87637400D01*
X92951260Y-87626592D01*
X92788250Y-87594167D01*
X92583513Y-87509362D01*
X92399255Y-87386244D01*
X92399252Y-87386242D01*
X92242558Y-87229548D01*
X92187326Y-87146888D01*
X92119438Y-87045287D01*
X92034633Y-86840550D01*
X91997326Y-86652997D01*
X91991400Y-86623204D01*
X91991400Y-86401596D01*
X92025604Y-86229642D01*
X92034633Y-86184250D01*
X92119438Y-85979513D01*
X92242556Y-85795255D01*
X92242558Y-85795252D01*
X92399252Y-85638558D01*
X92444217Y-85608513D01*
X92583513Y-85515438D01*
X92788250Y-85430633D01*
X92951260Y-85398208D01*
X93005596Y-85387400D01*
X93227204Y-85387400D01*
X93281540Y-85398208D01*
X93281540Y-85398208D01*
G37*
G36*
X98361540Y-85398208D02*
X98524550Y-85430633D01*
X98729287Y-85515438D01*
X98868583Y-85608513D01*
X98913548Y-85638558D01*
X99070242Y-85795252D01*
X99070244Y-85795255D01*
X99193362Y-85979513D01*
X99278167Y-86184250D01*
X99287196Y-86229642D01*
X99321400Y-86401596D01*
X99321400Y-86623204D01*
X99315474Y-86652997D01*
X99278167Y-86840550D01*
X99193362Y-87045287D01*
X99125474Y-87146888D01*
X99070242Y-87229548D01*
X98913548Y-87386242D01*
X98913545Y-87386244D01*
X98729287Y-87509362D01*
X98524550Y-87594167D01*
X98361540Y-87626592D01*
X98307204Y-87637400D01*
X98085596Y-87637400D01*
X98031260Y-87626592D01*
X97868250Y-87594167D01*
X97663513Y-87509362D01*
X97479255Y-87386244D01*
X97479252Y-87386242D01*
X97322558Y-87229548D01*
X97267326Y-87146888D01*
X97199438Y-87045287D01*
X97114633Y-86840550D01*
X97077326Y-86652997D01*
X97071400Y-86623204D01*
X97071400Y-86401596D01*
X97105604Y-86229642D01*
X97114633Y-86184250D01*
X97199438Y-85979513D01*
X97322556Y-85795255D01*
X97322558Y-85795252D01*
X97479252Y-85638558D01*
X97524217Y-85608513D01*
X97663513Y-85515438D01*
X97868250Y-85430633D01*
X98031260Y-85398208D01*
X98085596Y-85387400D01*
X98307204Y-85387400D01*
X98361540Y-85398208D01*
X98361540Y-85398208D01*
G37*
G36*
X56330716Y-86408795D02*
X56359913Y-86417652D01*
X56386818Y-86432033D01*
X56410408Y-86451392D01*
X56429767Y-86474982D01*
X56444148Y-86501887D01*
X56453005Y-86531084D01*
X56456600Y-86567590D01*
X56456600Y-87117810D01*
X56453005Y-87154316D01*
X56444148Y-87183513D01*
X56429767Y-87210418D01*
X56410408Y-87234008D01*
X56386818Y-87253367D01*
X56359913Y-87267748D01*
X56330716Y-87276605D01*
X56294210Y-87280200D01*
X55668990Y-87280200D01*
X55632484Y-87276605D01*
X55603287Y-87267748D01*
X55576382Y-87253367D01*
X55552792Y-87234008D01*
X55533433Y-87210418D01*
X55519052Y-87183513D01*
X55510195Y-87154316D01*
X55506600Y-87117810D01*
X55506600Y-86567590D01*
X55510195Y-86531084D01*
X55519052Y-86501887D01*
X55533433Y-86474982D01*
X55552792Y-86451392D01*
X55576382Y-86432033D01*
X55603287Y-86417652D01*
X55632484Y-86408795D01*
X55668990Y-86405200D01*
X56294210Y-86405200D01*
X56330716Y-86408795D01*
X56330716Y-86408795D01*
G37*
G36*
X52330716Y-85710795D02*
X52359913Y-85719652D01*
X52386818Y-85734033D01*
X52410408Y-85753392D01*
X52429767Y-85776982D01*
X52444148Y-85803887D01*
X52453005Y-85833084D01*
X52456600Y-85869590D01*
X52456600Y-86494810D01*
X52453005Y-86531316D01*
X52444148Y-86560513D01*
X52429767Y-86587418D01*
X52410408Y-86611008D01*
X52386818Y-86630367D01*
X52359913Y-86644748D01*
X52330716Y-86653605D01*
X52294210Y-86657200D01*
X51743990Y-86657200D01*
X51707484Y-86653605D01*
X51678287Y-86644748D01*
X51651382Y-86630367D01*
X51627792Y-86611008D01*
X51608433Y-86587418D01*
X51594052Y-86560513D01*
X51585195Y-86531316D01*
X51581600Y-86494810D01*
X51581600Y-85869590D01*
X51585195Y-85833084D01*
X51594052Y-85803887D01*
X51608433Y-85776982D01*
X51627792Y-85753392D01*
X51651382Y-85734033D01*
X51678287Y-85719652D01*
X51707484Y-85710795D01*
X51743990Y-85707200D01*
X52294210Y-85707200D01*
X52330716Y-85710795D01*
X52330716Y-85710795D01*
G37*
G36*
X53905716Y-85710795D02*
X53934913Y-85719652D01*
X53961818Y-85734033D01*
X53985408Y-85753392D01*
X54004767Y-85776982D01*
X54019148Y-85803887D01*
X54028005Y-85833084D01*
X54031600Y-85869590D01*
X54031600Y-86494810D01*
X54028005Y-86531316D01*
X54019148Y-86560513D01*
X54004767Y-86587418D01*
X53985408Y-86611008D01*
X53961818Y-86630367D01*
X53934913Y-86644748D01*
X53905716Y-86653605D01*
X53869210Y-86657200D01*
X53318990Y-86657200D01*
X53282484Y-86653605D01*
X53253287Y-86644748D01*
X53226382Y-86630367D01*
X53202792Y-86611008D01*
X53183433Y-86587418D01*
X53169052Y-86560513D01*
X53160195Y-86531316D01*
X53156600Y-86494810D01*
X53156600Y-85869590D01*
X53160195Y-85833084D01*
X53169052Y-85803887D01*
X53183433Y-85776982D01*
X53202792Y-85753392D01*
X53226382Y-85734033D01*
X53253287Y-85719652D01*
X53282484Y-85710795D01*
X53318990Y-85707200D01*
X53869210Y-85707200D01*
X53905716Y-85710795D01*
X53905716Y-85710795D01*
G37*
G36*
X56330716Y-84833795D02*
X56359913Y-84842652D01*
X56386818Y-84857033D01*
X56410408Y-84876392D01*
X56429767Y-84899982D01*
X56444148Y-84926887D01*
X56453005Y-84956084D01*
X56456600Y-84992590D01*
X56456600Y-85542810D01*
X56453005Y-85579316D01*
X56444148Y-85608513D01*
X56429767Y-85635418D01*
X56410408Y-85659008D01*
X56386818Y-85678367D01*
X56359913Y-85692748D01*
X56330716Y-85701605D01*
X56294210Y-85705200D01*
X55668990Y-85705200D01*
X55632484Y-85701605D01*
X55603287Y-85692748D01*
X55576382Y-85678367D01*
X55552792Y-85659008D01*
X55533433Y-85635418D01*
X55519052Y-85608513D01*
X55510195Y-85579316D01*
X55506600Y-85542810D01*
X55506600Y-84992590D01*
X55510195Y-84956084D01*
X55519052Y-84926887D01*
X55533433Y-84899982D01*
X55552792Y-84876392D01*
X55576382Y-84857033D01*
X55603287Y-84842652D01*
X55632484Y-84833795D01*
X55668990Y-84830200D01*
X56294210Y-84830200D01*
X56330716Y-84833795D01*
X56330716Y-84833795D01*
G37*
G36*
X97492116Y-83551795D02*
X97521313Y-83560652D01*
X97548218Y-83575033D01*
X97571808Y-83594392D01*
X97591167Y-83617982D01*
X97605548Y-83644887D01*
X97614405Y-83674084D01*
X97618000Y-83710590D01*
X97618000Y-84335810D01*
X97614405Y-84372316D01*
X97605548Y-84401513D01*
X97591167Y-84428418D01*
X97571808Y-84452008D01*
X97548218Y-84471367D01*
X97521313Y-84485748D01*
X97492116Y-84494605D01*
X97455610Y-84498200D01*
X96905390Y-84498200D01*
X96868884Y-84494605D01*
X96839687Y-84485748D01*
X96812782Y-84471367D01*
X96789192Y-84452008D01*
X96769833Y-84428418D01*
X96755452Y-84401513D01*
X96746595Y-84372316D01*
X96743000Y-84335810D01*
X96743000Y-83710590D01*
X96746595Y-83674084D01*
X96755452Y-83644887D01*
X96769833Y-83617982D01*
X96789192Y-83594392D01*
X96812782Y-83575033D01*
X96839687Y-83560652D01*
X96868884Y-83551795D01*
X96905390Y-83548200D01*
X97455610Y-83548200D01*
X97492116Y-83551795D01*
X97492116Y-83551795D01*
G37*
G36*
X95917116Y-83551795D02*
X95946313Y-83560652D01*
X95973218Y-83575033D01*
X95996808Y-83594392D01*
X96016167Y-83617982D01*
X96030548Y-83644887D01*
X96039405Y-83674084D01*
X96043000Y-83710590D01*
X96043000Y-84335810D01*
X96039405Y-84372316D01*
X96030548Y-84401513D01*
X96016167Y-84428418D01*
X95996808Y-84452008D01*
X95973218Y-84471367D01*
X95946313Y-84485748D01*
X95917116Y-84494605D01*
X95880610Y-84498200D01*
X95330390Y-84498200D01*
X95293884Y-84494605D01*
X95264687Y-84485748D01*
X95237782Y-84471367D01*
X95214192Y-84452008D01*
X95194833Y-84428418D01*
X95180452Y-84401513D01*
X95171595Y-84372316D01*
X95168000Y-84335810D01*
X95168000Y-83710590D01*
X95171595Y-83674084D01*
X95180452Y-83644887D01*
X95194833Y-83617982D01*
X95214192Y-83594392D01*
X95237782Y-83575033D01*
X95264687Y-83560652D01*
X95293884Y-83551795D01*
X95330390Y-83548200D01*
X95880610Y-83548200D01*
X95917116Y-83551795D01*
X95917116Y-83551795D01*
G37*
G36*
X74516500Y-84004500D02*
X73716500Y-84004500D01*
X73716500Y-83254500D01*
X74516500Y-83254500D01*
X74516500Y-84004500D01*
X74516500Y-84004500D01*
G37*
G36*
X76016500Y-84004500D02*
X75216500Y-84004500D01*
X75216500Y-83254500D01*
X76016500Y-83254500D01*
X76016500Y-84004500D01*
X76016500Y-84004500D01*
G37*
G36*
X95980116Y-82065395D02*
X96009313Y-82074252D01*
X96036218Y-82088633D01*
X96059808Y-82107992D01*
X96079167Y-82131582D01*
X96093548Y-82158487D01*
X96102405Y-82187684D01*
X96106000Y-82224190D01*
X96106000Y-82774410D01*
X96102405Y-82810916D01*
X96093548Y-82840113D01*
X96079167Y-82867018D01*
X96059808Y-82890608D01*
X96036218Y-82909967D01*
X96009313Y-82924348D01*
X95980116Y-82933205D01*
X95943610Y-82936800D01*
X95318390Y-82936800D01*
X95281884Y-82933205D01*
X95252687Y-82924348D01*
X95225782Y-82909967D01*
X95202192Y-82890608D01*
X95182833Y-82867018D01*
X95168452Y-82840113D01*
X95159595Y-82810916D01*
X95156000Y-82774410D01*
X95156000Y-82224190D01*
X95159595Y-82187684D01*
X95168452Y-82158487D01*
X95182833Y-82131582D01*
X95202192Y-82107992D01*
X95225782Y-82088633D01*
X95252687Y-82074252D01*
X95281884Y-82065395D01*
X95318390Y-82061800D01*
X95943610Y-82061800D01*
X95980116Y-82065395D01*
X95980116Y-82065395D01*
G37*
G36*
X77527500Y-82747500D02*
X76777500Y-82747500D01*
X76777500Y-81947500D01*
X77527500Y-81947500D01*
X77527500Y-82747500D01*
X77527500Y-82747500D01*
G37*
G36*
X76078500Y-82597500D02*
X75178500Y-82597500D01*
X75178500Y-82097500D01*
X76078500Y-82097500D01*
X76078500Y-82597500D01*
X76078500Y-82597500D01*
G37*
G36*
X51396000Y-82231600D02*
X49696000Y-82231600D01*
X49696000Y-80531600D01*
X51396000Y-80531600D01*
X51396000Y-82231600D01*
X51396000Y-82231600D01*
G37*
G36*
X56382800Y-82056400D02*
X55582800Y-82056400D01*
X55582800Y-80256400D01*
X56382800Y-80256400D01*
X56382800Y-82056400D01*
X56382800Y-82056400D01*
G37*
G36*
X57482800Y-82056400D02*
X56682800Y-82056400D01*
X56682800Y-80256400D01*
X57482800Y-80256400D01*
X57482800Y-82056400D01*
X57482800Y-82056400D01*
G37*
G36*
X58582800Y-82056400D02*
X57782800Y-82056400D01*
X57782800Y-80256400D01*
X58582800Y-80256400D01*
X58582800Y-82056400D01*
X58582800Y-82056400D01*
G37*
G36*
X59682800Y-82056400D02*
X58882800Y-82056400D01*
X58882800Y-80256400D01*
X59682800Y-80256400D01*
X59682800Y-82056400D01*
X59682800Y-82056400D01*
G37*
G36*
X60782800Y-82056400D02*
X59982800Y-82056400D01*
X59982800Y-80256400D01*
X60782800Y-80256400D01*
X60782800Y-82056400D01*
X60782800Y-82056400D01*
G37*
G36*
X61882800Y-82056400D02*
X61082800Y-82056400D01*
X61082800Y-80256400D01*
X61882800Y-80256400D01*
X61882800Y-82056400D01*
X61882800Y-82056400D01*
G37*
G36*
X62982800Y-82056400D02*
X62182800Y-82056400D01*
X62182800Y-80256400D01*
X62982800Y-80256400D01*
X62982800Y-82056400D01*
X62982800Y-82056400D01*
G37*
G36*
X63982800Y-82056400D02*
X63282800Y-82056400D01*
X63282800Y-80256400D01*
X63982800Y-80256400D01*
X63982800Y-82056400D01*
X63982800Y-82056400D01*
G37*
G36*
X55282800Y-82056400D02*
X54582800Y-82056400D01*
X54582800Y-80256400D01*
X55282800Y-80256400D01*
X55282800Y-82056400D01*
X55282800Y-82056400D01*
G37*
G36*
X95980116Y-80490395D02*
X96009313Y-80499252D01*
X96036218Y-80513633D01*
X96059808Y-80532992D01*
X96079167Y-80556582D01*
X96093548Y-80583487D01*
X96102405Y-80612684D01*
X96106000Y-80649190D01*
X96106000Y-81199410D01*
X96102405Y-81235916D01*
X96093548Y-81265113D01*
X96079167Y-81292018D01*
X96059808Y-81315608D01*
X96036218Y-81334967D01*
X96009313Y-81349348D01*
X95980116Y-81358205D01*
X95943610Y-81361800D01*
X95318390Y-81361800D01*
X95281884Y-81358205D01*
X95252687Y-81349348D01*
X95225782Y-81334967D01*
X95202192Y-81315608D01*
X95182833Y-81292018D01*
X95168452Y-81265113D01*
X95159595Y-81235916D01*
X95156000Y-81199410D01*
X95156000Y-80649190D01*
X95159595Y-80612684D01*
X95168452Y-80583487D01*
X95182833Y-80556582D01*
X95202192Y-80532992D01*
X95225782Y-80513633D01*
X95252687Y-80499252D01*
X95281884Y-80490395D01*
X95318390Y-80486800D01*
X95943610Y-80486800D01*
X95980116Y-80490395D01*
X95980116Y-80490395D01*
G37*
G36*
X77527500Y-81247500D02*
X76777500Y-81247500D01*
X76777500Y-80447500D01*
X77527500Y-80447500D01*
X77527500Y-81247500D01*
X77527500Y-81247500D01*
G37*
G36*
X76078500Y-81097500D02*
X75178500Y-81097500D01*
X75178500Y-80597500D01*
X76078500Y-80597500D01*
X76078500Y-81097500D01*
X76078500Y-81097500D01*
G37*
G36*
X74516500Y-79940500D02*
X73716500Y-79940500D01*
X73716500Y-79190500D01*
X74516500Y-79190500D01*
X74516500Y-79940500D01*
X74516500Y-79940500D01*
G37*
G36*
X76016500Y-79940500D02*
X75216500Y-79940500D01*
X75216500Y-79190500D01*
X76016500Y-79190500D01*
X76016500Y-79940500D01*
X76016500Y-79940500D01*
G37*
G36*
X97492116Y-78954395D02*
X97521313Y-78963252D01*
X97548218Y-78977633D01*
X97571808Y-78996992D01*
X97591167Y-79020582D01*
X97605548Y-79047487D01*
X97614405Y-79076684D01*
X97618000Y-79113190D01*
X97618000Y-79738410D01*
X97614405Y-79774916D01*
X97605548Y-79804113D01*
X97591167Y-79831018D01*
X97571808Y-79854608D01*
X97548218Y-79873967D01*
X97521313Y-79888348D01*
X97492116Y-79897205D01*
X97455610Y-79900800D01*
X96905390Y-79900800D01*
X96868884Y-79897205D01*
X96839687Y-79888348D01*
X96812782Y-79873967D01*
X96789192Y-79854608D01*
X96769833Y-79831018D01*
X96755452Y-79804113D01*
X96746595Y-79774916D01*
X96743000Y-79738410D01*
X96743000Y-79113190D01*
X96746595Y-79076684D01*
X96755452Y-79047487D01*
X96769833Y-79020582D01*
X96789192Y-78996992D01*
X96812782Y-78977633D01*
X96839687Y-78963252D01*
X96868884Y-78954395D01*
X96905390Y-78950800D01*
X97455610Y-78950800D01*
X97492116Y-78954395D01*
X97492116Y-78954395D01*
G37*
G36*
X95917116Y-78954395D02*
X95946313Y-78963252D01*
X95973218Y-78977633D01*
X95996808Y-78996992D01*
X96016167Y-79020582D01*
X96030548Y-79047487D01*
X96039405Y-79076684D01*
X96043000Y-79113190D01*
X96043000Y-79738410D01*
X96039405Y-79774916D01*
X96030548Y-79804113D01*
X96016167Y-79831018D01*
X95996808Y-79854608D01*
X95973218Y-79873967D01*
X95946313Y-79888348D01*
X95917116Y-79897205D01*
X95880610Y-79900800D01*
X95330390Y-79900800D01*
X95293884Y-79897205D01*
X95264687Y-79888348D01*
X95237782Y-79873967D01*
X95214192Y-79854608D01*
X95194833Y-79831018D01*
X95180452Y-79804113D01*
X95171595Y-79774916D01*
X95168000Y-79738410D01*
X95168000Y-79113190D01*
X95171595Y-79076684D01*
X95180452Y-79047487D01*
X95194833Y-79020582D01*
X95214192Y-78996992D01*
X95237782Y-78977633D01*
X95264687Y-78963252D01*
X95293884Y-78954395D01*
X95330390Y-78950800D01*
X95880610Y-78950800D01*
X95917116Y-78954395D01*
X95917116Y-78954395D01*
G37*
G36*
X50712630Y-78003899D02*
X50872855Y-78052503D01*
X51020520Y-78131431D01*
X51149949Y-78237651D01*
X51256169Y-78367080D01*
X51335097Y-78514745D01*
X51383701Y-78674970D01*
X51400112Y-78841600D01*
X51383701Y-79008230D01*
X51335097Y-79168455D01*
X51256169Y-79316120D01*
X51149949Y-79445549D01*
X51020520Y-79551769D01*
X50872855Y-79630697D01*
X50712630Y-79679301D01*
X50587752Y-79691600D01*
X50504248Y-79691600D01*
X50379370Y-79679301D01*
X50219145Y-79630697D01*
X50071480Y-79551769D01*
X49942051Y-79445549D01*
X49835831Y-79316120D01*
X49756903Y-79168455D01*
X49708299Y-79008230D01*
X49691888Y-78841600D01*
X49708299Y-78674970D01*
X49756903Y-78514745D01*
X49835831Y-78367080D01*
X49942051Y-78237651D01*
X50071480Y-78131431D01*
X50219145Y-78052503D01*
X50379370Y-78003899D01*
X50504248Y-77991600D01*
X50587752Y-77991600D01*
X50712630Y-78003899D01*
X50712630Y-78003899D01*
G37*
G36*
X77781500Y-78683500D02*
X77031500Y-78683500D01*
X77031500Y-77883500D01*
X77781500Y-77883500D01*
X77781500Y-78683500D01*
X77781500Y-78683500D01*
G37*
G36*
X76078500Y-78533500D02*
X75178500Y-78533500D01*
X75178500Y-78033500D01*
X76078500Y-78033500D01*
X76078500Y-78533500D01*
X76078500Y-78533500D01*
G37*
G36*
X95929316Y-77493395D02*
X95958513Y-77502252D01*
X95985418Y-77516633D01*
X96009008Y-77535992D01*
X96028367Y-77559582D01*
X96042748Y-77586487D01*
X96051605Y-77615684D01*
X96055200Y-77652190D01*
X96055200Y-78202410D01*
X96051605Y-78238916D01*
X96042748Y-78268113D01*
X96028367Y-78295018D01*
X96009008Y-78318608D01*
X95985418Y-78337967D01*
X95958513Y-78352348D01*
X95929316Y-78361205D01*
X95892810Y-78364800D01*
X95267590Y-78364800D01*
X95231084Y-78361205D01*
X95201887Y-78352348D01*
X95174982Y-78337967D01*
X95151392Y-78318608D01*
X95132033Y-78295018D01*
X95117652Y-78268113D01*
X95108795Y-78238916D01*
X95105200Y-78202410D01*
X95105200Y-77652190D01*
X95108795Y-77615684D01*
X95117652Y-77586487D01*
X95132033Y-77559582D01*
X95151392Y-77535992D01*
X95174982Y-77516633D01*
X95201887Y-77502252D01*
X95231084Y-77493395D01*
X95267590Y-77489800D01*
X95892810Y-77489800D01*
X95929316Y-77493395D01*
X95929316Y-77493395D01*
G37*
G36*
X77781500Y-77183500D02*
X77031500Y-77183500D01*
X77031500Y-76383500D01*
X77781500Y-76383500D01*
X77781500Y-77183500D01*
X77781500Y-77183500D01*
G37*
G36*
X76078500Y-77033500D02*
X75178500Y-77033500D01*
X75178500Y-76533500D01*
X76078500Y-76533500D01*
X76078500Y-77033500D01*
X76078500Y-77033500D01*
G37*
G36*
X95929316Y-75918395D02*
X95958513Y-75927252D01*
X95985418Y-75941633D01*
X96009008Y-75960992D01*
X96028367Y-75984582D01*
X96042748Y-76011487D01*
X96051605Y-76040684D01*
X96055200Y-76077190D01*
X96055200Y-76627410D01*
X96051605Y-76663916D01*
X96042748Y-76693113D01*
X96028367Y-76720018D01*
X96009008Y-76743608D01*
X95985418Y-76762967D01*
X95958513Y-76777348D01*
X95929316Y-76786205D01*
X95892810Y-76789800D01*
X95267590Y-76789800D01*
X95231084Y-76786205D01*
X95201887Y-76777348D01*
X95174982Y-76762967D01*
X95151392Y-76743608D01*
X95132033Y-76720018D01*
X95117652Y-76693113D01*
X95108795Y-76663916D01*
X95105200Y-76627410D01*
X95105200Y-76077190D01*
X95108795Y-76040684D01*
X95117652Y-76011487D01*
X95132033Y-75984582D01*
X95151392Y-75960992D01*
X95174982Y-75941633D01*
X95201887Y-75927252D01*
X95231084Y-75918395D01*
X95267590Y-75914800D01*
X95892810Y-75914800D01*
X95929316Y-75918395D01*
X95929316Y-75918395D01*
G37*
G36*
X79168500Y-75697500D02*
X78668500Y-75697500D01*
X78668500Y-74797500D01*
X79168500Y-74797500D01*
X79168500Y-75697500D01*
X79168500Y-75697500D01*
G37*
G36*
X77668500Y-75697500D02*
X77168500Y-75697500D01*
X77168500Y-74797500D01*
X77668500Y-74797500D01*
X77668500Y-75697500D01*
X77668500Y-75697500D01*
G37*
G36*
X97466716Y-74395095D02*
X97495913Y-74403952D01*
X97522818Y-74418333D01*
X97546408Y-74437692D01*
X97565767Y-74461282D01*
X97580148Y-74488187D01*
X97589005Y-74517384D01*
X97592600Y-74553890D01*
X97592600Y-75179110D01*
X97589005Y-75215616D01*
X97580148Y-75244813D01*
X97565767Y-75271718D01*
X97546408Y-75295308D01*
X97522818Y-75314667D01*
X97495913Y-75329048D01*
X97466716Y-75337905D01*
X97430210Y-75341500D01*
X96879990Y-75341500D01*
X96843484Y-75337905D01*
X96814287Y-75329048D01*
X96787382Y-75314667D01*
X96763792Y-75295308D01*
X96744433Y-75271718D01*
X96730052Y-75244813D01*
X96721195Y-75215616D01*
X96717600Y-75179110D01*
X96717600Y-74553890D01*
X96721195Y-74517384D01*
X96730052Y-74488187D01*
X96744433Y-74461282D01*
X96763792Y-74437692D01*
X96787382Y-74418333D01*
X96814287Y-74403952D01*
X96843484Y-74395095D01*
X96879990Y-74391500D01*
X97430210Y-74391500D01*
X97466716Y-74395095D01*
X97466716Y-74395095D01*
G37*
G36*
X95891716Y-74395095D02*
X95920913Y-74403952D01*
X95947818Y-74418333D01*
X95971408Y-74437692D01*
X95990767Y-74461282D01*
X96005148Y-74488187D01*
X96014005Y-74517384D01*
X96017600Y-74553890D01*
X96017600Y-75179110D01*
X96014005Y-75215616D01*
X96005148Y-75244813D01*
X95990767Y-75271718D01*
X95971408Y-75295308D01*
X95947818Y-75314667D01*
X95920913Y-75329048D01*
X95891716Y-75337905D01*
X95855210Y-75341500D01*
X95304990Y-75341500D01*
X95268484Y-75337905D01*
X95239287Y-75329048D01*
X95212382Y-75314667D01*
X95188792Y-75295308D01*
X95169433Y-75271718D01*
X95155052Y-75244813D01*
X95146195Y-75215616D01*
X95142600Y-75179110D01*
X95142600Y-74553890D01*
X95146195Y-74517384D01*
X95155052Y-74488187D01*
X95169433Y-74461282D01*
X95188792Y-74437692D01*
X95212382Y-74418333D01*
X95239287Y-74403952D01*
X95268484Y-74395095D01*
X95304990Y-74391500D01*
X95855210Y-74391500D01*
X95891716Y-74395095D01*
X95891716Y-74395095D01*
G37*
G36*
X77818500Y-74098500D02*
X77018500Y-74098500D01*
X77018500Y-73348500D01*
X77818500Y-73348500D01*
X77818500Y-74098500D01*
X77818500Y-74098500D01*
G37*
G36*
X79318500Y-74098500D02*
X78518500Y-74098500D01*
X78518500Y-73348500D01*
X79318500Y-73348500D01*
X79318500Y-74098500D01*
X79318500Y-74098500D01*
G37*
G36*
X74503800Y-74085800D02*
X73703800Y-74085800D01*
X73703800Y-73335800D01*
X74503800Y-73335800D01*
X74503800Y-74085800D01*
X74503800Y-74085800D01*
G37*
G36*
X76003800Y-74085800D02*
X75203800Y-74085800D01*
X75203800Y-73335800D01*
X76003800Y-73335800D01*
X76003800Y-74085800D01*
X76003800Y-74085800D01*
G37*
G36*
X95891716Y-72871095D02*
X95920913Y-72879952D01*
X95947818Y-72894333D01*
X95971408Y-72913692D01*
X95990767Y-72937282D01*
X96005148Y-72964187D01*
X96014005Y-72993384D01*
X96017600Y-73029890D01*
X96017600Y-73655110D01*
X96014005Y-73691616D01*
X96005148Y-73720813D01*
X95990767Y-73747718D01*
X95971408Y-73771308D01*
X95947818Y-73790667D01*
X95920913Y-73805048D01*
X95891716Y-73813905D01*
X95855210Y-73817500D01*
X95304990Y-73817500D01*
X95268484Y-73813905D01*
X95239287Y-73805048D01*
X95212382Y-73790667D01*
X95188792Y-73771308D01*
X95169433Y-73747718D01*
X95155052Y-73720813D01*
X95146195Y-73691616D01*
X95142600Y-73655110D01*
X95142600Y-73029890D01*
X95146195Y-72993384D01*
X95155052Y-72964187D01*
X95169433Y-72937282D01*
X95188792Y-72913692D01*
X95212382Y-72894333D01*
X95239287Y-72879952D01*
X95268484Y-72871095D01*
X95304990Y-72867500D01*
X95855210Y-72867500D01*
X95891716Y-72871095D01*
X95891716Y-72871095D01*
G37*
G36*
X97466716Y-72871095D02*
X97495913Y-72879952D01*
X97522818Y-72894333D01*
X97546408Y-72913692D01*
X97565767Y-72937282D01*
X97580148Y-72964187D01*
X97589005Y-72993384D01*
X97592600Y-73029890D01*
X97592600Y-73655110D01*
X97589005Y-73691616D01*
X97580148Y-73720813D01*
X97565767Y-73747718D01*
X97546408Y-73771308D01*
X97522818Y-73790667D01*
X97495913Y-73805048D01*
X97466716Y-73813905D01*
X97430210Y-73817500D01*
X96879990Y-73817500D01*
X96843484Y-73813905D01*
X96814287Y-73805048D01*
X96787382Y-73790667D01*
X96763792Y-73771308D01*
X96744433Y-73747718D01*
X96730052Y-73720813D01*
X96721195Y-73691616D01*
X96717600Y-73655110D01*
X96717600Y-73029890D01*
X96721195Y-72993384D01*
X96730052Y-72964187D01*
X96744433Y-72937282D01*
X96763792Y-72913692D01*
X96787382Y-72894333D01*
X96814287Y-72879952D01*
X96843484Y-72871095D01*
X96879990Y-72867500D01*
X97430210Y-72867500D01*
X97466716Y-72871095D01*
X97466716Y-72871095D01*
G37*
G36*
X76078500Y-72691500D02*
X75178500Y-72691500D01*
X75178500Y-72191500D01*
X76078500Y-72191500D01*
X76078500Y-72691500D01*
X76078500Y-72691500D01*
G37*
G36*
X77856500Y-72691500D02*
X76956500Y-72691500D01*
X76956500Y-72191500D01*
X77856500Y-72191500D01*
X77856500Y-72691500D01*
X77856500Y-72691500D01*
G37*
G36*
X59682800Y-72556400D02*
X58882800Y-72556400D01*
X58882800Y-70756400D01*
X59682800Y-70756400D01*
X59682800Y-72556400D01*
X59682800Y-72556400D01*
G37*
G36*
X63982800Y-72556400D02*
X63282800Y-72556400D01*
X63282800Y-70756400D01*
X63982800Y-70756400D01*
X63982800Y-72556400D01*
X63982800Y-72556400D01*
G37*
G36*
X62982800Y-72556400D02*
X62182800Y-72556400D01*
X62182800Y-70756400D01*
X62982800Y-70756400D01*
X62982800Y-72556400D01*
X62982800Y-72556400D01*
G37*
G36*
X61882800Y-72556400D02*
X61082800Y-72556400D01*
X61082800Y-70756400D01*
X61882800Y-70756400D01*
X61882800Y-72556400D01*
X61882800Y-72556400D01*
G37*
G36*
X60782800Y-72556400D02*
X59982800Y-72556400D01*
X59982800Y-70756400D01*
X60782800Y-70756400D01*
X60782800Y-72556400D01*
X60782800Y-72556400D01*
G37*
G36*
X58582800Y-72556400D02*
X57782800Y-72556400D01*
X57782800Y-70756400D01*
X58582800Y-70756400D01*
X58582800Y-72556400D01*
X58582800Y-72556400D01*
G37*
G36*
X57482800Y-72556400D02*
X56682800Y-72556400D01*
X56682800Y-70756400D01*
X57482800Y-70756400D01*
X57482800Y-72556400D01*
X57482800Y-72556400D01*
G37*
G36*
X56382800Y-72556400D02*
X55582800Y-72556400D01*
X55582800Y-70756400D01*
X56382800Y-70756400D01*
X56382800Y-72556400D01*
X56382800Y-72556400D01*
G37*
G36*
X55282800Y-72556400D02*
X54582800Y-72556400D01*
X54582800Y-70756400D01*
X55282800Y-70756400D01*
X55282800Y-72556400D01*
X55282800Y-72556400D01*
G37*
G36*
X86912316Y-71676895D02*
X86941513Y-71685752D01*
X86968418Y-71700133D01*
X86992008Y-71719492D01*
X87011367Y-71743082D01*
X87025748Y-71769987D01*
X87034605Y-71799184D01*
X87038200Y-71835690D01*
X87038200Y-72385910D01*
X87034605Y-72422416D01*
X87025748Y-72451613D01*
X87011367Y-72478518D01*
X86992008Y-72502108D01*
X86968418Y-72521467D01*
X86941513Y-72535848D01*
X86912316Y-72544705D01*
X86875810Y-72548300D01*
X86250590Y-72548300D01*
X86214084Y-72544705D01*
X86184887Y-72535848D01*
X86157982Y-72521467D01*
X86134392Y-72502108D01*
X86115033Y-72478518D01*
X86100652Y-72451613D01*
X86091795Y-72422416D01*
X86088200Y-72385910D01*
X86088200Y-71835690D01*
X86091795Y-71799184D01*
X86100652Y-71769987D01*
X86115033Y-71743082D01*
X86134392Y-71719492D01*
X86157982Y-71700133D01*
X86184887Y-71685752D01*
X86214084Y-71676895D01*
X86250590Y-71673300D01*
X86875810Y-71673300D01*
X86912316Y-71676895D01*
X86912316Y-71676895D01*
G37*
G36*
X95929316Y-71410095D02*
X95958513Y-71418952D01*
X95985418Y-71433333D01*
X96009008Y-71452692D01*
X96028367Y-71476282D01*
X96042748Y-71503187D01*
X96051605Y-71532384D01*
X96055200Y-71568890D01*
X96055200Y-72119110D01*
X96051605Y-72155616D01*
X96042748Y-72184813D01*
X96028367Y-72211718D01*
X96009008Y-72235308D01*
X95985418Y-72254667D01*
X95958513Y-72269048D01*
X95929316Y-72277905D01*
X95892810Y-72281500D01*
X95267590Y-72281500D01*
X95231084Y-72277905D01*
X95201887Y-72269048D01*
X95174982Y-72254667D01*
X95151392Y-72235308D01*
X95132033Y-72211718D01*
X95117652Y-72184813D01*
X95108795Y-72155616D01*
X95105200Y-72119110D01*
X95105200Y-71568890D01*
X95108795Y-71532384D01*
X95117652Y-71503187D01*
X95132033Y-71476282D01*
X95151392Y-71452692D01*
X95174982Y-71433333D01*
X95201887Y-71418952D01*
X95231084Y-71410095D01*
X95267590Y-71406500D01*
X95892810Y-71406500D01*
X95929316Y-71410095D01*
X95929316Y-71410095D01*
G37*
G36*
X98964616Y-71371995D02*
X98993813Y-71380852D01*
X99020718Y-71395233D01*
X99044308Y-71414592D01*
X99063667Y-71438182D01*
X99078048Y-71465087D01*
X99086905Y-71494284D01*
X99090500Y-71530790D01*
X99090500Y-72081010D01*
X99086905Y-72117516D01*
X99078048Y-72146713D01*
X99063667Y-72173618D01*
X99044308Y-72197208D01*
X99020718Y-72216567D01*
X98993813Y-72230948D01*
X98964616Y-72239805D01*
X98928110Y-72243400D01*
X98302890Y-72243400D01*
X98266384Y-72239805D01*
X98237187Y-72230948D01*
X98210282Y-72216567D01*
X98186692Y-72197208D01*
X98167333Y-72173618D01*
X98152952Y-72146713D01*
X98144095Y-72117516D01*
X98140500Y-72081010D01*
X98140500Y-71530790D01*
X98144095Y-71494284D01*
X98152952Y-71465087D01*
X98167333Y-71438182D01*
X98186692Y-71414592D01*
X98210282Y-71395233D01*
X98237187Y-71380852D01*
X98266384Y-71371995D01*
X98302890Y-71368400D01*
X98928110Y-71368400D01*
X98964616Y-71371995D01*
X98964616Y-71371995D01*
G37*
G36*
X77856500Y-71191500D02*
X76956500Y-71191500D01*
X76956500Y-70691500D01*
X77856500Y-70691500D01*
X77856500Y-71191500D01*
X77856500Y-71191500D01*
G37*
G36*
X76078500Y-71191500D02*
X75178500Y-71191500D01*
X75178500Y-70691500D01*
X76078500Y-70691500D01*
X76078500Y-71191500D01*
X76078500Y-71191500D01*
G37*
G36*
X85376316Y-70064395D02*
X85405513Y-70073252D01*
X85432418Y-70087633D01*
X85456008Y-70106992D01*
X85475367Y-70130582D01*
X85489748Y-70157487D01*
X85498605Y-70186684D01*
X85502200Y-70223190D01*
X85502200Y-70848410D01*
X85498605Y-70884916D01*
X85489748Y-70914113D01*
X85475367Y-70941018D01*
X85456008Y-70964608D01*
X85432418Y-70983967D01*
X85405513Y-70998348D01*
X85376316Y-71007205D01*
X85339810Y-71010800D01*
X84789590Y-71010800D01*
X84753084Y-71007205D01*
X84723887Y-70998348D01*
X84696982Y-70983967D01*
X84673392Y-70964608D01*
X84654033Y-70941018D01*
X84639652Y-70914113D01*
X84630795Y-70884916D01*
X84627200Y-70848410D01*
X84627200Y-70223190D01*
X84630795Y-70186684D01*
X84639652Y-70157487D01*
X84654033Y-70130582D01*
X84673392Y-70106992D01*
X84696982Y-70087633D01*
X84723887Y-70073252D01*
X84753084Y-70064395D01*
X84789590Y-70060800D01*
X85339810Y-70060800D01*
X85376316Y-70064395D01*
X85376316Y-70064395D01*
G37*
G36*
X83801316Y-70064395D02*
X83830513Y-70073252D01*
X83857418Y-70087633D01*
X83881008Y-70106992D01*
X83900367Y-70130582D01*
X83914748Y-70157487D01*
X83923605Y-70186684D01*
X83927200Y-70223190D01*
X83927200Y-70848410D01*
X83923605Y-70884916D01*
X83914748Y-70914113D01*
X83900367Y-70941018D01*
X83881008Y-70964608D01*
X83857418Y-70983967D01*
X83830513Y-70998348D01*
X83801316Y-71007205D01*
X83764810Y-71010800D01*
X83214590Y-71010800D01*
X83178084Y-71007205D01*
X83148887Y-70998348D01*
X83121982Y-70983967D01*
X83098392Y-70964608D01*
X83079033Y-70941018D01*
X83064652Y-70914113D01*
X83055795Y-70884916D01*
X83052200Y-70848410D01*
X83052200Y-70223190D01*
X83055795Y-70186684D01*
X83064652Y-70157487D01*
X83079033Y-70130582D01*
X83098392Y-70106992D01*
X83121982Y-70087633D01*
X83148887Y-70073252D01*
X83178084Y-70064395D01*
X83214590Y-70060800D01*
X83764810Y-70060800D01*
X83801316Y-70064395D01*
X83801316Y-70064395D01*
G37*
G36*
X86912316Y-70101895D02*
X86941513Y-70110752D01*
X86968418Y-70125133D01*
X86992008Y-70144492D01*
X87011367Y-70168082D01*
X87025748Y-70194987D01*
X87034605Y-70224184D01*
X87038200Y-70260690D01*
X87038200Y-70810910D01*
X87034605Y-70847416D01*
X87025748Y-70876613D01*
X87011367Y-70903518D01*
X86992008Y-70927108D01*
X86968418Y-70946467D01*
X86941513Y-70960848D01*
X86912316Y-70969705D01*
X86875810Y-70973300D01*
X86250590Y-70973300D01*
X86214084Y-70969705D01*
X86184887Y-70960848D01*
X86157982Y-70946467D01*
X86134392Y-70927108D01*
X86115033Y-70903518D01*
X86100652Y-70876613D01*
X86091795Y-70847416D01*
X86088200Y-70810910D01*
X86088200Y-70260690D01*
X86091795Y-70224184D01*
X86100652Y-70194987D01*
X86115033Y-70168082D01*
X86134392Y-70144492D01*
X86157982Y-70125133D01*
X86184887Y-70110752D01*
X86214084Y-70101895D01*
X86250590Y-70098300D01*
X86875810Y-70098300D01*
X86912316Y-70101895D01*
X86912316Y-70101895D01*
G37*
G36*
X94392616Y-69886095D02*
X94421813Y-69894952D01*
X94448718Y-69909333D01*
X94472308Y-69928692D01*
X94491667Y-69952282D01*
X94506048Y-69979187D01*
X94514905Y-70008384D01*
X94518500Y-70044890D01*
X94518500Y-70595110D01*
X94514905Y-70631616D01*
X94506048Y-70660813D01*
X94491667Y-70687718D01*
X94472308Y-70711308D01*
X94448718Y-70730667D01*
X94421813Y-70745048D01*
X94392616Y-70753905D01*
X94356110Y-70757500D01*
X93730890Y-70757500D01*
X93694384Y-70753905D01*
X93665187Y-70745048D01*
X93638282Y-70730667D01*
X93614692Y-70711308D01*
X93595333Y-70687718D01*
X93580952Y-70660813D01*
X93572095Y-70631616D01*
X93568500Y-70595110D01*
X93568500Y-70044890D01*
X93572095Y-70008384D01*
X93580952Y-69979187D01*
X93595333Y-69952282D01*
X93614692Y-69928692D01*
X93638282Y-69909333D01*
X93665187Y-69894952D01*
X93694384Y-69886095D01*
X93730890Y-69882500D01*
X94356110Y-69882500D01*
X94392616Y-69886095D01*
X94392616Y-69886095D01*
G37*
G36*
X95929316Y-69835095D02*
X95958513Y-69843952D01*
X95985418Y-69858333D01*
X96009008Y-69877692D01*
X96028367Y-69901282D01*
X96042748Y-69928187D01*
X96051605Y-69957384D01*
X96055200Y-69993890D01*
X96055200Y-70544110D01*
X96051605Y-70580616D01*
X96042748Y-70609813D01*
X96028367Y-70636718D01*
X96009008Y-70660308D01*
X95985418Y-70679667D01*
X95958513Y-70694048D01*
X95929316Y-70702905D01*
X95892810Y-70706500D01*
X95267590Y-70706500D01*
X95231084Y-70702905D01*
X95201887Y-70694048D01*
X95174982Y-70679667D01*
X95151392Y-70660308D01*
X95132033Y-70636718D01*
X95117652Y-70609813D01*
X95108795Y-70580616D01*
X95105200Y-70544110D01*
X95105200Y-69993890D01*
X95108795Y-69957384D01*
X95117652Y-69928187D01*
X95132033Y-69901282D01*
X95151392Y-69877692D01*
X95174982Y-69858333D01*
X95201887Y-69843952D01*
X95231084Y-69835095D01*
X95267590Y-69831500D01*
X95892810Y-69831500D01*
X95929316Y-69835095D01*
X95929316Y-69835095D01*
G37*
G36*
X101987916Y-69759595D02*
X102017113Y-69768452D01*
X102044018Y-69782833D01*
X102067608Y-69802192D01*
X102086967Y-69825782D01*
X102101348Y-69852687D01*
X102110205Y-69881884D01*
X102113800Y-69918390D01*
X102113800Y-70543610D01*
X102110205Y-70580116D01*
X102101348Y-70609313D01*
X102086967Y-70636218D01*
X102067608Y-70659808D01*
X102044018Y-70679167D01*
X102017113Y-70693548D01*
X101987916Y-70702405D01*
X101951410Y-70706000D01*
X101401190Y-70706000D01*
X101364684Y-70702405D01*
X101335487Y-70693548D01*
X101308582Y-70679167D01*
X101284992Y-70659808D01*
X101265633Y-70636218D01*
X101251252Y-70609313D01*
X101242395Y-70580116D01*
X101238800Y-70543610D01*
X101238800Y-69918390D01*
X101242395Y-69881884D01*
X101251252Y-69852687D01*
X101265633Y-69825782D01*
X101284992Y-69802192D01*
X101308582Y-69782833D01*
X101335487Y-69768452D01*
X101364684Y-69759595D01*
X101401190Y-69756000D01*
X101951410Y-69756000D01*
X101987916Y-69759595D01*
X101987916Y-69759595D01*
G37*
G36*
X100412916Y-69759595D02*
X100442113Y-69768452D01*
X100469018Y-69782833D01*
X100492608Y-69802192D01*
X100511967Y-69825782D01*
X100526348Y-69852687D01*
X100535205Y-69881884D01*
X100538800Y-69918390D01*
X100538800Y-70543610D01*
X100535205Y-70580116D01*
X100526348Y-70609313D01*
X100511967Y-70636218D01*
X100492608Y-70659808D01*
X100469018Y-70679167D01*
X100442113Y-70693548D01*
X100412916Y-70702405D01*
X100376410Y-70706000D01*
X99826190Y-70706000D01*
X99789684Y-70702405D01*
X99760487Y-70693548D01*
X99733582Y-70679167D01*
X99709992Y-70659808D01*
X99690633Y-70636218D01*
X99676252Y-70609313D01*
X99667395Y-70580116D01*
X99663800Y-70543610D01*
X99663800Y-69918390D01*
X99667395Y-69881884D01*
X99676252Y-69852687D01*
X99690633Y-69825782D01*
X99709992Y-69802192D01*
X99733582Y-69782833D01*
X99760487Y-69768452D01*
X99789684Y-69759595D01*
X99826190Y-69756000D01*
X100376410Y-69756000D01*
X100412916Y-69759595D01*
X100412916Y-69759595D01*
G37*
G36*
X98964616Y-69796995D02*
X98993813Y-69805852D01*
X99020718Y-69820233D01*
X99044308Y-69839592D01*
X99063667Y-69863182D01*
X99078048Y-69890087D01*
X99086905Y-69919284D01*
X99090500Y-69955790D01*
X99090500Y-70506010D01*
X99086905Y-70542516D01*
X99078048Y-70571713D01*
X99063667Y-70598618D01*
X99044308Y-70622208D01*
X99020718Y-70641567D01*
X98993813Y-70655948D01*
X98964616Y-70664805D01*
X98928110Y-70668400D01*
X98302890Y-70668400D01*
X98266384Y-70664805D01*
X98237187Y-70655948D01*
X98210282Y-70641567D01*
X98186692Y-70622208D01*
X98167333Y-70598618D01*
X98152952Y-70571713D01*
X98144095Y-70542516D01*
X98140500Y-70506010D01*
X98140500Y-69955790D01*
X98144095Y-69919284D01*
X98152952Y-69890087D01*
X98167333Y-69863182D01*
X98186692Y-69839592D01*
X98210282Y-69820233D01*
X98237187Y-69805852D01*
X98266384Y-69796995D01*
X98302890Y-69793400D01*
X98928110Y-69793400D01*
X98964616Y-69796995D01*
X98964616Y-69796995D01*
G37*
G36*
X52793000Y-70471400D02*
X51093000Y-70471400D01*
X51093000Y-68771400D01*
X52793000Y-68771400D01*
X52793000Y-70471400D01*
X52793000Y-70471400D01*
G37*
G36*
X77781500Y-70047500D02*
X77031500Y-70047500D01*
X77031500Y-69247500D01*
X77781500Y-69247500D01*
X77781500Y-70047500D01*
X77781500Y-70047500D01*
G37*
G36*
X76003500Y-70047500D02*
X75253500Y-70047500D01*
X75253500Y-69247500D01*
X76003500Y-69247500D01*
X76003500Y-70047500D01*
X76003500Y-70047500D01*
G37*
G36*
X88449716Y-68565795D02*
X88478913Y-68574652D01*
X88505818Y-68589033D01*
X88529408Y-68608392D01*
X88548767Y-68631982D01*
X88563148Y-68658887D01*
X88572005Y-68688084D01*
X88575600Y-68724590D01*
X88575600Y-69349810D01*
X88572005Y-69386316D01*
X88563148Y-69415513D01*
X88548767Y-69442418D01*
X88529408Y-69466008D01*
X88505818Y-69485367D01*
X88478913Y-69499748D01*
X88449716Y-69508605D01*
X88413210Y-69512200D01*
X87862990Y-69512200D01*
X87826484Y-69508605D01*
X87797287Y-69499748D01*
X87770382Y-69485367D01*
X87746792Y-69466008D01*
X87727433Y-69442418D01*
X87713052Y-69415513D01*
X87704195Y-69386316D01*
X87700600Y-69349810D01*
X87700600Y-68724590D01*
X87704195Y-68688084D01*
X87713052Y-68658887D01*
X87727433Y-68631982D01*
X87746792Y-68608392D01*
X87770382Y-68589033D01*
X87797287Y-68574652D01*
X87826484Y-68565795D01*
X87862990Y-68562200D01*
X88413210Y-68562200D01*
X88449716Y-68565795D01*
X88449716Y-68565795D01*
G37*
G36*
X86874716Y-68565795D02*
X86903913Y-68574652D01*
X86930818Y-68589033D01*
X86954408Y-68608392D01*
X86973767Y-68631982D01*
X86988148Y-68658887D01*
X86997005Y-68688084D01*
X87000600Y-68724590D01*
X87000600Y-69349810D01*
X86997005Y-69386316D01*
X86988148Y-69415513D01*
X86973767Y-69442418D01*
X86954408Y-69466008D01*
X86930818Y-69485367D01*
X86903913Y-69499748D01*
X86874716Y-69508605D01*
X86838210Y-69512200D01*
X86287990Y-69512200D01*
X86251484Y-69508605D01*
X86222287Y-69499748D01*
X86195382Y-69485367D01*
X86171792Y-69466008D01*
X86152433Y-69442418D01*
X86138052Y-69415513D01*
X86129195Y-69386316D01*
X86125600Y-69349810D01*
X86125600Y-68724590D01*
X86129195Y-68688084D01*
X86138052Y-68658887D01*
X86152433Y-68631982D01*
X86171792Y-68608392D01*
X86195382Y-68589033D01*
X86222287Y-68574652D01*
X86251484Y-68565795D01*
X86287990Y-68562200D01*
X86838210Y-68562200D01*
X86874716Y-68565795D01*
X86874716Y-68565795D01*
G37*
G36*
X83838916Y-68603395D02*
X83868113Y-68612252D01*
X83895018Y-68626633D01*
X83918608Y-68645992D01*
X83937967Y-68669582D01*
X83952348Y-68696487D01*
X83961205Y-68725684D01*
X83964800Y-68762190D01*
X83964800Y-69312410D01*
X83961205Y-69348916D01*
X83952348Y-69378113D01*
X83937967Y-69405018D01*
X83918608Y-69428608D01*
X83895018Y-69447967D01*
X83868113Y-69462348D01*
X83838916Y-69471205D01*
X83802410Y-69474800D01*
X83177190Y-69474800D01*
X83140684Y-69471205D01*
X83111487Y-69462348D01*
X83084582Y-69447967D01*
X83060992Y-69428608D01*
X83041633Y-69405018D01*
X83027252Y-69378113D01*
X83018395Y-69348916D01*
X83014800Y-69312410D01*
X83014800Y-68762190D01*
X83018395Y-68725684D01*
X83027252Y-68696487D01*
X83041633Y-68669582D01*
X83060992Y-68645992D01*
X83084582Y-68626633D01*
X83111487Y-68612252D01*
X83140684Y-68603395D01*
X83177190Y-68599800D01*
X83802410Y-68599800D01*
X83838916Y-68603395D01*
X83838916Y-68603395D01*
G37*
G36*
X96817549Y-65473651D02*
X96818702Y-65485353D01*
X96823483Y-65509387D01*
X96832860Y-65532025D01*
X96846474Y-65552400D01*
X96863802Y-65569727D01*
X96884176Y-65583341D01*
X96906815Y-65592718D01*
X96930849Y-65597498D01*
X96955353Y-65597498D01*
X96979387Y-65592717D01*
X97002025Y-65583340D01*
X97022400Y-65569726D01*
X97039727Y-65552398D01*
X97053341Y-65532024D01*
X97062718Y-65509385D01*
X97067498Y-65485353D01*
X97068651Y-65473651D01*
X97074241Y-65473100D01*
X97311959Y-65473100D01*
X97317549Y-65473651D01*
X97318702Y-65485353D01*
X97323483Y-65509387D01*
X97332860Y-65532025D01*
X97346474Y-65552400D01*
X97363802Y-65569727D01*
X97384176Y-65583341D01*
X97406815Y-65592718D01*
X97430849Y-65597498D01*
X97455353Y-65597498D01*
X97479387Y-65592717D01*
X97502025Y-65583340D01*
X97522400Y-65569726D01*
X97539727Y-65552398D01*
X97553341Y-65532024D01*
X97562718Y-65509385D01*
X97567498Y-65485353D01*
X97568651Y-65473651D01*
X97574241Y-65473100D01*
X97811959Y-65473100D01*
X97817549Y-65473651D01*
X97818100Y-65479241D01*
X97818100Y-66291959D01*
X97817525Y-66297793D01*
X97808962Y-66304821D01*
X97791635Y-66322149D01*
X97778022Y-66342524D01*
X97768645Y-66365163D01*
X97763866Y-66389197D01*
X97763866Y-66413701D01*
X97768648Y-66437734D01*
X97778026Y-66460373D01*
X97791640Y-66480747D01*
X97808968Y-66498074D01*
X97829343Y-66511687D01*
X97851982Y-66521064D01*
X97876012Y-66525843D01*
X97886137Y-66526840D01*
X97916753Y-66536128D01*
X97944963Y-66551206D01*
X97969696Y-66571504D01*
X97989994Y-66596237D01*
X98005072Y-66624447D01*
X98014360Y-66655063D01*
X98015357Y-66665188D01*
X98020137Y-66689221D01*
X98029515Y-66711860D01*
X98043129Y-66732235D01*
X98060456Y-66749562D01*
X98080830Y-66763176D01*
X98103469Y-66772553D01*
X98127503Y-66777334D01*
X98152007Y-66777334D01*
X98176040Y-66772554D01*
X98198679Y-66763176D01*
X98219054Y-66749562D01*
X98236379Y-66732238D01*
X98243407Y-66723675D01*
X98249241Y-66723100D01*
X99061959Y-66723100D01*
X99067549Y-66723651D01*
X99068100Y-66729241D01*
X99068100Y-66966959D01*
X99067549Y-66972549D01*
X99055847Y-66973702D01*
X99031813Y-66978483D01*
X99009175Y-66987860D01*
X98988800Y-67001474D01*
X98971473Y-67018802D01*
X98957859Y-67039176D01*
X98948482Y-67061815D01*
X98943702Y-67085849D01*
X98943702Y-67110353D01*
X98948483Y-67134387D01*
X98957860Y-67157025D01*
X98971474Y-67177400D01*
X98988802Y-67194727D01*
X99009176Y-67208341D01*
X99031815Y-67217718D01*
X99055847Y-67222498D01*
X99067549Y-67223651D01*
X99068100Y-67229241D01*
X99068100Y-67466959D01*
X99067549Y-67472549D01*
X99055847Y-67473702D01*
X99031813Y-67478483D01*
X99009175Y-67487860D01*
X98988800Y-67501474D01*
X98971473Y-67518802D01*
X98957859Y-67539176D01*
X98948482Y-67561815D01*
X98943702Y-67585849D01*
X98943702Y-67610353D01*
X98948483Y-67634387D01*
X98957860Y-67657025D01*
X98971474Y-67677400D01*
X98988802Y-67694727D01*
X99009176Y-67708341D01*
X99031815Y-67717718D01*
X99055847Y-67722498D01*
X99067549Y-67723651D01*
X99068100Y-67729241D01*
X99068100Y-67966959D01*
X99067549Y-67972549D01*
X99061959Y-67973100D01*
X98249241Y-67973100D01*
X98243407Y-67972525D01*
X98236379Y-67963962D01*
X98219051Y-67946635D01*
X98198676Y-67933022D01*
X98176037Y-67923645D01*
X98152003Y-67918866D01*
X98127499Y-67918866D01*
X98103466Y-67923648D01*
X98080827Y-67933026D01*
X98060453Y-67946640D01*
X98043126Y-67963968D01*
X98029513Y-67984343D01*
X98020136Y-68006982D01*
X98015357Y-68031012D01*
X98014360Y-68041137D01*
X98005072Y-68071753D01*
X97989994Y-68099963D01*
X97969696Y-68124696D01*
X97944963Y-68144994D01*
X97916753Y-68160072D01*
X97886137Y-68169360D01*
X97876012Y-68170357D01*
X97851979Y-68175137D01*
X97829340Y-68184515D01*
X97808965Y-68198129D01*
X97791638Y-68215456D01*
X97778024Y-68235830D01*
X97768647Y-68258469D01*
X97763866Y-68282503D01*
X97763866Y-68307007D01*
X97768646Y-68331040D01*
X97778024Y-68353679D01*
X97791638Y-68374054D01*
X97808962Y-68391379D01*
X97817525Y-68398407D01*
X97818100Y-68404241D01*
X97818100Y-69216959D01*
X97817549Y-69222549D01*
X97811959Y-69223100D01*
X97574241Y-69223100D01*
X97568651Y-69222549D01*
X97567498Y-69210847D01*
X97562717Y-69186813D01*
X97553340Y-69164175D01*
X97539726Y-69143800D01*
X97522398Y-69126473D01*
X97502024Y-69112859D01*
X97479385Y-69103482D01*
X97455351Y-69098702D01*
X97430847Y-69098702D01*
X97406813Y-69103483D01*
X97384175Y-69112860D01*
X97363800Y-69126474D01*
X97346473Y-69143802D01*
X97332859Y-69164176D01*
X97323482Y-69186815D01*
X97318702Y-69210847D01*
X97317549Y-69222549D01*
X97311959Y-69223100D01*
X97074241Y-69223100D01*
X97068651Y-69222549D01*
X97067498Y-69210847D01*
X97062717Y-69186813D01*
X97053340Y-69164175D01*
X97039726Y-69143800D01*
X97022398Y-69126473D01*
X97002024Y-69112859D01*
X96979385Y-69103482D01*
X96955351Y-69098702D01*
X96930847Y-69098702D01*
X96906813Y-69103483D01*
X96884175Y-69112860D01*
X96863800Y-69126474D01*
X96846473Y-69143802D01*
X96832859Y-69164176D01*
X96823482Y-69186815D01*
X96818702Y-69210847D01*
X96817549Y-69222549D01*
X96811959Y-69223100D01*
X96574241Y-69223100D01*
X96568651Y-69222549D01*
X96568100Y-69216959D01*
X96568100Y-68404241D01*
X96568675Y-68398407D01*
X96577238Y-68391379D01*
X96594565Y-68374051D01*
X96608178Y-68353676D01*
X96617555Y-68331037D01*
X96622334Y-68307003D01*
X96622334Y-68298100D01*
X96767339Y-68298100D01*
X96769741Y-68322486D01*
X96776854Y-68345935D01*
X96788405Y-68367546D01*
X96813039Y-68394726D01*
X96817525Y-68398408D01*
X96818702Y-68410353D01*
X96823483Y-68434387D01*
X96832860Y-68457025D01*
X96846474Y-68477400D01*
X96863802Y-68494727D01*
X96884176Y-68508341D01*
X96906815Y-68517718D01*
X96930849Y-68522498D01*
X96955353Y-68522498D01*
X96979387Y-68517717D01*
X97002025Y-68508340D01*
X97022400Y-68494726D01*
X97039727Y-68477398D01*
X97053341Y-68457024D01*
X97062718Y-68434385D01*
X97067498Y-68410353D01*
X97068675Y-68398408D01*
X97073161Y-68394726D01*
X97090488Y-68377398D01*
X97104102Y-68357024D01*
X97113479Y-68334384D01*
X97118259Y-68310351D01*
X97118259Y-68298100D01*
X97267339Y-68298100D01*
X97269741Y-68322486D01*
X97276854Y-68345935D01*
X97288405Y-68367546D01*
X97313039Y-68394726D01*
X97317525Y-68398408D01*
X97318702Y-68410353D01*
X97323483Y-68434387D01*
X97332860Y-68457025D01*
X97346474Y-68477400D01*
X97363802Y-68494727D01*
X97384176Y-68508341D01*
X97406815Y-68517718D01*
X97430849Y-68522498D01*
X97455353Y-68522498D01*
X97479387Y-68517717D01*
X97502025Y-68508340D01*
X97522400Y-68494726D01*
X97539727Y-68477398D01*
X97553341Y-68457024D01*
X97562718Y-68434385D01*
X97567498Y-68410353D01*
X97568675Y-68398408D01*
X97573161Y-68394726D01*
X97590488Y-68377398D01*
X97604102Y-68357024D01*
X97613479Y-68334384D01*
X97618259Y-68310351D01*
X97618259Y-68285847D01*
X97613478Y-68261813D01*
X97604101Y-68239174D01*
X97590487Y-68218800D01*
X97573159Y-68201473D01*
X97552785Y-68187859D01*
X97530145Y-68178482D01*
X97493861Y-68173100D01*
X97392339Y-68173100D01*
X97367953Y-68175502D01*
X97344504Y-68182615D01*
X97322893Y-68194166D01*
X97303951Y-68209712D01*
X97288405Y-68228654D01*
X97276854Y-68250265D01*
X97269741Y-68273714D01*
X97267339Y-68298100D01*
X97118259Y-68298100D01*
X97118259Y-68285847D01*
X97113478Y-68261813D01*
X97104101Y-68239174D01*
X97090487Y-68218800D01*
X97073159Y-68201473D01*
X97052785Y-68187859D01*
X97030145Y-68178482D01*
X96993861Y-68173100D01*
X96892339Y-68173100D01*
X96867953Y-68175502D01*
X96844504Y-68182615D01*
X96822893Y-68194166D01*
X96803951Y-68209712D01*
X96788405Y-68228654D01*
X96776854Y-68250265D01*
X96769741Y-68273714D01*
X96767339Y-68298100D01*
X96622334Y-68298100D01*
X96622334Y-68282499D01*
X96617552Y-68258466D01*
X96608174Y-68235827D01*
X96594560Y-68215453D01*
X96577232Y-68198126D01*
X96556857Y-68184513D01*
X96534218Y-68175136D01*
X96510188Y-68170357D01*
X96500063Y-68169360D01*
X96469447Y-68160072D01*
X96441237Y-68144994D01*
X96416504Y-68124696D01*
X96396206Y-68099963D01*
X96381128Y-68071753D01*
X96371840Y-68041137D01*
X96370843Y-68031012D01*
X96366063Y-68006979D01*
X96356685Y-67984340D01*
X96343071Y-67963965D01*
X96325744Y-67946638D01*
X96305370Y-67933024D01*
X96282731Y-67923647D01*
X96258697Y-67918866D01*
X96234193Y-67918866D01*
X96210160Y-67923646D01*
X96187521Y-67933024D01*
X96167146Y-67946638D01*
X96149821Y-67963962D01*
X96142793Y-67972525D01*
X96136959Y-67973100D01*
X95324241Y-67973100D01*
X95318651Y-67972549D01*
X95318100Y-67966959D01*
X95318100Y-67729241D01*
X95318651Y-67723651D01*
X95330353Y-67722498D01*
X95354387Y-67717717D01*
X95377025Y-67708340D01*
X95397400Y-67694726D01*
X95414727Y-67677398D01*
X95428341Y-67657024D01*
X95437718Y-67634385D01*
X95442498Y-67610351D01*
X95442498Y-67585849D01*
X96018702Y-67585849D01*
X96018702Y-67610353D01*
X96023483Y-67634387D01*
X96032860Y-67657025D01*
X96046474Y-67677400D01*
X96063802Y-67694727D01*
X96084176Y-67708341D01*
X96106815Y-67717718D01*
X96130847Y-67722498D01*
X96142792Y-67723675D01*
X96146474Y-67728161D01*
X96163802Y-67745488D01*
X96184176Y-67759102D01*
X96206816Y-67768479D01*
X96230849Y-67773259D01*
X96255353Y-67773259D01*
X96279387Y-67768478D01*
X96302026Y-67759101D01*
X96322400Y-67745487D01*
X96339727Y-67728159D01*
X96353341Y-67707785D01*
X96362718Y-67685145D01*
X96368100Y-67648861D01*
X96368100Y-67547339D01*
X98018100Y-67547339D01*
X98018100Y-67648861D01*
X98020502Y-67673247D01*
X98027615Y-67696696D01*
X98039166Y-67718307D01*
X98054712Y-67737249D01*
X98073654Y-67752795D01*
X98095265Y-67764346D01*
X98118714Y-67771459D01*
X98143100Y-67773861D01*
X98167486Y-67771459D01*
X98190935Y-67764346D01*
X98212546Y-67752795D01*
X98239726Y-67728161D01*
X98243408Y-67723675D01*
X98255353Y-67722498D01*
X98279387Y-67717717D01*
X98302025Y-67708340D01*
X98322400Y-67694726D01*
X98339727Y-67677398D01*
X98353341Y-67657024D01*
X98362718Y-67634385D01*
X98367498Y-67610351D01*
X98367498Y-67585847D01*
X98362717Y-67561813D01*
X98353340Y-67539175D01*
X98339726Y-67518800D01*
X98322398Y-67501473D01*
X98302024Y-67487859D01*
X98279385Y-67478482D01*
X98255353Y-67473702D01*
X98243408Y-67472525D01*
X98239726Y-67468039D01*
X98222398Y-67450712D01*
X98202024Y-67437098D01*
X98179384Y-67427721D01*
X98155351Y-67422941D01*
X98130847Y-67422941D01*
X98106813Y-67427722D01*
X98084174Y-67437099D01*
X98063800Y-67450713D01*
X98046473Y-67468041D01*
X98032859Y-67488415D01*
X98023482Y-67511055D01*
X98018100Y-67547339D01*
X96368100Y-67547339D01*
X96365698Y-67522953D01*
X96358585Y-67499504D01*
X96347034Y-67477893D01*
X96331488Y-67458951D01*
X96312546Y-67443405D01*
X96290935Y-67431854D01*
X96267486Y-67424741D01*
X96243100Y-67422339D01*
X96218714Y-67424741D01*
X96195265Y-67431854D01*
X96173654Y-67443405D01*
X96146474Y-67468039D01*
X96142792Y-67472525D01*
X96130847Y-67473702D01*
X96106813Y-67478483D01*
X96084175Y-67487860D01*
X96063800Y-67501474D01*
X96046473Y-67518802D01*
X96032859Y-67539176D01*
X96023482Y-67561815D01*
X96018702Y-67585849D01*
X95442498Y-67585849D01*
X95442498Y-67585847D01*
X95437717Y-67561813D01*
X95428340Y-67539175D01*
X95414726Y-67518800D01*
X95397398Y-67501473D01*
X95377024Y-67487859D01*
X95354385Y-67478482D01*
X95330353Y-67473702D01*
X95318651Y-67472549D01*
X95318100Y-67466959D01*
X95318100Y-67229241D01*
X95318651Y-67223651D01*
X95330353Y-67222498D01*
X95354387Y-67217717D01*
X95377025Y-67208340D01*
X95397400Y-67194726D01*
X95414727Y-67177398D01*
X95428341Y-67157024D01*
X95437718Y-67134385D01*
X95442498Y-67110351D01*
X95442498Y-67085849D01*
X96018702Y-67085849D01*
X96018702Y-67110353D01*
X96023483Y-67134387D01*
X96032860Y-67157025D01*
X96046474Y-67177400D01*
X96063802Y-67194727D01*
X96084176Y-67208341D01*
X96106815Y-67217718D01*
X96130847Y-67222498D01*
X96142792Y-67223675D01*
X96146474Y-67228161D01*
X96163802Y-67245488D01*
X96184176Y-67259102D01*
X96206816Y-67268479D01*
X96230849Y-67273259D01*
X96255353Y-67273259D01*
X96279387Y-67268478D01*
X96302026Y-67259101D01*
X96322400Y-67245487D01*
X96339727Y-67228159D01*
X96353341Y-67207785D01*
X96362718Y-67185145D01*
X96368100Y-67148861D01*
X96368100Y-67047339D01*
X98018100Y-67047339D01*
X98018100Y-67148861D01*
X98020502Y-67173247D01*
X98027615Y-67196696D01*
X98039166Y-67218307D01*
X98054712Y-67237249D01*
X98073654Y-67252795D01*
X98095265Y-67264346D01*
X98118714Y-67271459D01*
X98143100Y-67273861D01*
X98167486Y-67271459D01*
X98190935Y-67264346D01*
X98212546Y-67252795D01*
X98239726Y-67228161D01*
X98243408Y-67223675D01*
X98255353Y-67222498D01*
X98279387Y-67217717D01*
X98302025Y-67208340D01*
X98322400Y-67194726D01*
X98339727Y-67177398D01*
X98353341Y-67157024D01*
X98362718Y-67134385D01*
X98367498Y-67110351D01*
X98367498Y-67085847D01*
X98362717Y-67061813D01*
X98353340Y-67039175D01*
X98339726Y-67018800D01*
X98322398Y-67001473D01*
X98302024Y-66987859D01*
X98279385Y-66978482D01*
X98255353Y-66973702D01*
X98243408Y-66972525D01*
X98239726Y-66968039D01*
X98222398Y-66950712D01*
X98202024Y-66937098D01*
X98179384Y-66927721D01*
X98155351Y-66922941D01*
X98130847Y-66922941D01*
X98106813Y-66927722D01*
X98084174Y-66937099D01*
X98063800Y-66950713D01*
X98046473Y-66968041D01*
X98032859Y-66988415D01*
X98023482Y-67011055D01*
X98018100Y-67047339D01*
X96368100Y-67047339D01*
X96365698Y-67022953D01*
X96358585Y-66999504D01*
X96347034Y-66977893D01*
X96331488Y-66958951D01*
X96312546Y-66943405D01*
X96290935Y-66931854D01*
X96267486Y-66924741D01*
X96243100Y-66922339D01*
X96218714Y-66924741D01*
X96195265Y-66931854D01*
X96173654Y-66943405D01*
X96146474Y-66968039D01*
X96142792Y-66972525D01*
X96130847Y-66973702D01*
X96106813Y-66978483D01*
X96084175Y-66987860D01*
X96063800Y-67001474D01*
X96046473Y-67018802D01*
X96032859Y-67039176D01*
X96023482Y-67061815D01*
X96018702Y-67085849D01*
X95442498Y-67085849D01*
X95442498Y-67085847D01*
X95437717Y-67061813D01*
X95428340Y-67039175D01*
X95414726Y-67018800D01*
X95397398Y-67001473D01*
X95377024Y-66987859D01*
X95354385Y-66978482D01*
X95330353Y-66973702D01*
X95318651Y-66972549D01*
X95318100Y-66966959D01*
X95318100Y-66729241D01*
X95318651Y-66723651D01*
X95324241Y-66723100D01*
X96136959Y-66723100D01*
X96142793Y-66723675D01*
X96149821Y-66732238D01*
X96167149Y-66749565D01*
X96187524Y-66763178D01*
X96210163Y-66772555D01*
X96234197Y-66777334D01*
X96258701Y-66777334D01*
X96282734Y-66772552D01*
X96305373Y-66763174D01*
X96325747Y-66749560D01*
X96343074Y-66732232D01*
X96356687Y-66711857D01*
X96366064Y-66689218D01*
X96370843Y-66665188D01*
X96371840Y-66655063D01*
X96381128Y-66624447D01*
X96396206Y-66596237D01*
X96416504Y-66571504D01*
X96441237Y-66551206D01*
X96469447Y-66536128D01*
X96500063Y-66526840D01*
X96510188Y-66525843D01*
X96534221Y-66521063D01*
X96556860Y-66511685D01*
X96577235Y-66498071D01*
X96594562Y-66480744D01*
X96608176Y-66460370D01*
X96617553Y-66437731D01*
X96622334Y-66413697D01*
X96622334Y-66389193D01*
X96621669Y-66385849D01*
X96767941Y-66385849D01*
X96767941Y-66410353D01*
X96772722Y-66434387D01*
X96782099Y-66457026D01*
X96795713Y-66477400D01*
X96813041Y-66494727D01*
X96833415Y-66508341D01*
X96856055Y-66517718D01*
X96892339Y-66523100D01*
X96993861Y-66523100D01*
X97018247Y-66520698D01*
X97041696Y-66513585D01*
X97063307Y-66502034D01*
X97082249Y-66486488D01*
X97097795Y-66467546D01*
X97109346Y-66445935D01*
X97116459Y-66422486D01*
X97118861Y-66398100D01*
X97117655Y-66385849D01*
X97267941Y-66385849D01*
X97267941Y-66410353D01*
X97272722Y-66434387D01*
X97282099Y-66457026D01*
X97295713Y-66477400D01*
X97313041Y-66494727D01*
X97333415Y-66508341D01*
X97356055Y-66517718D01*
X97392339Y-66523100D01*
X97493861Y-66523100D01*
X97518247Y-66520698D01*
X97541696Y-66513585D01*
X97563307Y-66502034D01*
X97582249Y-66486488D01*
X97597795Y-66467546D01*
X97609346Y-66445935D01*
X97616459Y-66422486D01*
X97618861Y-66398100D01*
X97616459Y-66373714D01*
X97609346Y-66350265D01*
X97597795Y-66328654D01*
X97573161Y-66301474D01*
X97568675Y-66297792D01*
X97567498Y-66285847D01*
X97562717Y-66261813D01*
X97553340Y-66239175D01*
X97539726Y-66218800D01*
X97522398Y-66201473D01*
X97502024Y-66187859D01*
X97479385Y-66178482D01*
X97455351Y-66173702D01*
X97430847Y-66173702D01*
X97406813Y-66178483D01*
X97384175Y-66187860D01*
X97363800Y-66201474D01*
X97346473Y-66218802D01*
X97332859Y-66239176D01*
X97323482Y-66261815D01*
X97318702Y-66285847D01*
X97317525Y-66297792D01*
X97313039Y-66301474D01*
X97295712Y-66318802D01*
X97282098Y-66339176D01*
X97272721Y-66361816D01*
X97267941Y-66385849D01*
X97117655Y-66385849D01*
X97116459Y-66373714D01*
X97109346Y-66350265D01*
X97097795Y-66328654D01*
X97073161Y-66301474D01*
X97068675Y-66297792D01*
X97067498Y-66285847D01*
X97062717Y-66261813D01*
X97053340Y-66239175D01*
X97039726Y-66218800D01*
X97022398Y-66201473D01*
X97002024Y-66187859D01*
X96979385Y-66178482D01*
X96955351Y-66173702D01*
X96930847Y-66173702D01*
X96906813Y-66178483D01*
X96884175Y-66187860D01*
X96863800Y-66201474D01*
X96846473Y-66218802D01*
X96832859Y-66239176D01*
X96823482Y-66261815D01*
X96818702Y-66285847D01*
X96817525Y-66297792D01*
X96813039Y-66301474D01*
X96795712Y-66318802D01*
X96782098Y-66339176D01*
X96772721Y-66361816D01*
X96767941Y-66385849D01*
X96621669Y-66385849D01*
X96617554Y-66365160D01*
X96608176Y-66342521D01*
X96594562Y-66322146D01*
X96577238Y-66304821D01*
X96568675Y-66297793D01*
X96568100Y-66291959D01*
X96568100Y-65479241D01*
X96568651Y-65473651D01*
X96574241Y-65473100D01*
X96811959Y-65473100D01*
X96817549Y-65473651D01*
X96817549Y-65473651D01*
G37*
G36*
X94392616Y-68311095D02*
X94421813Y-68319952D01*
X94448718Y-68334333D01*
X94472308Y-68353692D01*
X94491667Y-68377282D01*
X94506048Y-68404187D01*
X94514905Y-68433384D01*
X94518500Y-68469890D01*
X94518500Y-69020110D01*
X94514905Y-69056616D01*
X94506048Y-69085813D01*
X94491667Y-69112718D01*
X94472308Y-69136308D01*
X94448718Y-69155667D01*
X94421813Y-69170048D01*
X94392616Y-69178905D01*
X94356110Y-69182500D01*
X93730890Y-69182500D01*
X93694384Y-69178905D01*
X93665187Y-69170048D01*
X93638282Y-69155667D01*
X93614692Y-69136308D01*
X93595333Y-69112718D01*
X93580952Y-69085813D01*
X93572095Y-69056616D01*
X93568500Y-69020110D01*
X93568500Y-68469890D01*
X93572095Y-68433384D01*
X93580952Y-68404187D01*
X93595333Y-68377282D01*
X93614692Y-68353692D01*
X93638282Y-68334333D01*
X93665187Y-68319952D01*
X93694384Y-68311095D01*
X93730890Y-68307500D01*
X94356110Y-68307500D01*
X94392616Y-68311095D01*
X94392616Y-68311095D01*
G37*
G36*
X103550016Y-68235595D02*
X103579213Y-68244452D01*
X103606118Y-68258833D01*
X103629708Y-68278192D01*
X103649067Y-68301782D01*
X103663448Y-68328687D01*
X103672305Y-68357884D01*
X103675900Y-68394390D01*
X103675900Y-69019610D01*
X103672305Y-69056116D01*
X103663448Y-69085313D01*
X103649067Y-69112218D01*
X103629708Y-69135808D01*
X103606118Y-69155167D01*
X103579213Y-69169548D01*
X103550016Y-69178405D01*
X103513510Y-69182000D01*
X102963290Y-69182000D01*
X102926784Y-69178405D01*
X102897587Y-69169548D01*
X102870682Y-69155167D01*
X102847092Y-69135808D01*
X102827733Y-69112218D01*
X102813352Y-69085313D01*
X102804495Y-69056116D01*
X102800900Y-69019610D01*
X102800900Y-68394390D01*
X102804495Y-68357884D01*
X102813352Y-68328687D01*
X102827733Y-68301782D01*
X102847092Y-68278192D01*
X102870682Y-68258833D01*
X102897587Y-68244452D01*
X102926784Y-68235595D01*
X102963290Y-68232000D01*
X103513510Y-68232000D01*
X103550016Y-68235595D01*
X103550016Y-68235595D01*
G37*
G36*
X101975016Y-68235595D02*
X102004213Y-68244452D01*
X102031118Y-68258833D01*
X102054708Y-68278192D01*
X102074067Y-68301782D01*
X102088448Y-68328687D01*
X102097305Y-68357884D01*
X102100900Y-68394390D01*
X102100900Y-69019610D01*
X102097305Y-69056116D01*
X102088448Y-69085313D01*
X102074067Y-69112218D01*
X102054708Y-69135808D01*
X102031118Y-69155167D01*
X102004213Y-69169548D01*
X101975016Y-69178405D01*
X101938510Y-69182000D01*
X101388290Y-69182000D01*
X101351784Y-69178405D01*
X101322587Y-69169548D01*
X101295682Y-69155167D01*
X101272092Y-69135808D01*
X101252733Y-69112218D01*
X101238352Y-69085313D01*
X101229495Y-69056116D01*
X101225900Y-69019610D01*
X101225900Y-68394390D01*
X101229495Y-68357884D01*
X101238352Y-68328687D01*
X101252733Y-68301782D01*
X101272092Y-68278192D01*
X101295682Y-68258833D01*
X101322587Y-68244452D01*
X101351784Y-68235595D01*
X101388290Y-68232000D01*
X101938510Y-68232000D01*
X101975016Y-68235595D01*
X101975016Y-68235595D01*
G37*
G36*
X79153116Y-67752995D02*
X79182313Y-67761852D01*
X79209218Y-67776233D01*
X79232808Y-67795592D01*
X79252167Y-67819182D01*
X79266548Y-67846087D01*
X79275405Y-67875284D01*
X79279000Y-67911790D01*
X79279000Y-68537010D01*
X79275405Y-68573516D01*
X79266548Y-68602713D01*
X79252167Y-68629618D01*
X79232808Y-68653208D01*
X79209218Y-68672567D01*
X79182313Y-68686948D01*
X79153116Y-68695805D01*
X79116610Y-68699400D01*
X78566390Y-68699400D01*
X78529884Y-68695805D01*
X78500687Y-68686948D01*
X78473782Y-68672567D01*
X78450192Y-68653208D01*
X78430833Y-68629618D01*
X78416452Y-68602713D01*
X78407595Y-68573516D01*
X78404000Y-68537010D01*
X78404000Y-67911790D01*
X78407595Y-67875284D01*
X78416452Y-67846087D01*
X78430833Y-67819182D01*
X78450192Y-67795592D01*
X78473782Y-67776233D01*
X78500687Y-67761852D01*
X78529884Y-67752995D01*
X78566390Y-67749400D01*
X79116610Y-67749400D01*
X79153116Y-67752995D01*
X79153116Y-67752995D01*
G37*
G36*
X80728116Y-67752995D02*
X80757313Y-67761852D01*
X80784218Y-67776233D01*
X80807808Y-67795592D01*
X80827167Y-67819182D01*
X80841548Y-67846087D01*
X80850405Y-67875284D01*
X80854000Y-67911790D01*
X80854000Y-68537010D01*
X80850405Y-68573516D01*
X80841548Y-68602713D01*
X80827167Y-68629618D01*
X80807808Y-68653208D01*
X80784218Y-68672567D01*
X80757313Y-68686948D01*
X80728116Y-68695805D01*
X80691610Y-68699400D01*
X80141390Y-68699400D01*
X80104884Y-68695805D01*
X80075687Y-68686948D01*
X80048782Y-68672567D01*
X80025192Y-68653208D01*
X80005833Y-68629618D01*
X79991452Y-68602713D01*
X79982595Y-68573516D01*
X79979000Y-68537010D01*
X79979000Y-67911790D01*
X79982595Y-67875284D01*
X79991452Y-67846087D01*
X80005833Y-67819182D01*
X80025192Y-67795592D01*
X80048782Y-67776233D01*
X80075687Y-67761852D01*
X80104884Y-67752995D01*
X80141390Y-67749400D01*
X80691610Y-67749400D01*
X80728116Y-67752995D01*
X80728116Y-67752995D01*
G37*
G36*
X72930116Y-67752995D02*
X72959313Y-67761852D01*
X72986218Y-67776233D01*
X73009808Y-67795592D01*
X73029167Y-67819182D01*
X73043548Y-67846087D01*
X73052405Y-67875284D01*
X73056000Y-67911790D01*
X73056000Y-68537010D01*
X73052405Y-68573516D01*
X73043548Y-68602713D01*
X73029167Y-68629618D01*
X73009808Y-68653208D01*
X72986218Y-68672567D01*
X72959313Y-68686948D01*
X72930116Y-68695805D01*
X72893610Y-68699400D01*
X72343390Y-68699400D01*
X72306884Y-68695805D01*
X72277687Y-68686948D01*
X72250782Y-68672567D01*
X72227192Y-68653208D01*
X72207833Y-68629618D01*
X72193452Y-68602713D01*
X72184595Y-68573516D01*
X72181000Y-68537010D01*
X72181000Y-67911790D01*
X72184595Y-67875284D01*
X72193452Y-67846087D01*
X72207833Y-67819182D01*
X72227192Y-67795592D01*
X72250782Y-67776233D01*
X72277687Y-67761852D01*
X72306884Y-67752995D01*
X72343390Y-67749400D01*
X72893610Y-67749400D01*
X72930116Y-67752995D01*
X72930116Y-67752995D01*
G37*
G36*
X74505116Y-67752995D02*
X74534313Y-67761852D01*
X74561218Y-67776233D01*
X74584808Y-67795592D01*
X74604167Y-67819182D01*
X74618548Y-67846087D01*
X74627405Y-67875284D01*
X74631000Y-67911790D01*
X74631000Y-68537010D01*
X74627405Y-68573516D01*
X74618548Y-68602713D01*
X74604167Y-68629618D01*
X74584808Y-68653208D01*
X74561218Y-68672567D01*
X74534313Y-68686948D01*
X74505116Y-68695805D01*
X74468610Y-68699400D01*
X73918390Y-68699400D01*
X73881884Y-68695805D01*
X73852687Y-68686948D01*
X73825782Y-68672567D01*
X73802192Y-68653208D01*
X73782833Y-68629618D01*
X73768452Y-68602713D01*
X73759595Y-68573516D01*
X73756000Y-68537010D01*
X73756000Y-67911790D01*
X73759595Y-67875284D01*
X73768452Y-67846087D01*
X73782833Y-67819182D01*
X73802192Y-67795592D01*
X73825782Y-67776233D01*
X73852687Y-67761852D01*
X73881884Y-67752995D01*
X73918390Y-67749400D01*
X74468610Y-67749400D01*
X74505116Y-67752995D01*
X74505116Y-67752995D01*
G37*
G36*
X76003500Y-68547500D02*
X75253500Y-68547500D01*
X75253500Y-67747500D01*
X76003500Y-67747500D01*
X76003500Y-68547500D01*
X76003500Y-68547500D01*
G37*
G36*
X77781500Y-68547500D02*
X77031500Y-68547500D01*
X77031500Y-67747500D01*
X77781500Y-67747500D01*
X77781500Y-68547500D01*
X77781500Y-68547500D01*
G37*
G36*
X60491630Y-66624699D02*
X60651855Y-66673303D01*
X60799520Y-66752231D01*
X60928949Y-66858451D01*
X61035169Y-66987880D01*
X61114097Y-67135545D01*
X61162701Y-67295770D01*
X61179112Y-67462400D01*
X61162701Y-67629030D01*
X61114097Y-67789255D01*
X61035169Y-67936920D01*
X60928949Y-68066349D01*
X60799520Y-68172569D01*
X60651855Y-68251497D01*
X60491630Y-68300101D01*
X60366752Y-68312400D01*
X60283248Y-68312400D01*
X60158370Y-68300101D01*
X59998145Y-68251497D01*
X59850480Y-68172569D01*
X59721051Y-68066349D01*
X59614831Y-67936920D01*
X59535903Y-67789255D01*
X59487299Y-67629030D01*
X59470888Y-67462400D01*
X59487299Y-67295770D01*
X59535903Y-67135545D01*
X59614831Y-66987880D01*
X59721051Y-66858451D01*
X59850480Y-66752231D01*
X59998145Y-66673303D01*
X60158370Y-66624699D01*
X60283248Y-66612400D01*
X60366752Y-66612400D01*
X60491630Y-66624699D01*
X60491630Y-66624699D01*
G37*
G36*
X67679830Y-66624699D02*
X67840055Y-66673303D01*
X67987720Y-66752231D01*
X68117149Y-66858451D01*
X68223369Y-66987880D01*
X68302297Y-67135545D01*
X68350901Y-67295770D01*
X68367312Y-67462400D01*
X68350901Y-67629030D01*
X68302297Y-67789255D01*
X68223369Y-67936920D01*
X68117149Y-68066349D01*
X67987720Y-68172569D01*
X67840055Y-68251497D01*
X67679830Y-68300101D01*
X67554952Y-68312400D01*
X67471448Y-68312400D01*
X67346570Y-68300101D01*
X67186345Y-68251497D01*
X67038680Y-68172569D01*
X66909251Y-68066349D01*
X66803031Y-67936920D01*
X66724103Y-67789255D01*
X66675499Y-67629030D01*
X66659088Y-67462400D01*
X66675499Y-67295770D01*
X66724103Y-67135545D01*
X66803031Y-66987880D01*
X66909251Y-66858451D01*
X67038680Y-66752231D01*
X67186345Y-66673303D01*
X67346570Y-66624699D01*
X67471448Y-66612400D01*
X67554952Y-66612400D01*
X67679830Y-66624699D01*
X67679830Y-66624699D01*
G37*
G36*
X65823200Y-68312400D02*
X64123200Y-68312400D01*
X64123200Y-66612400D01*
X65823200Y-66612400D01*
X65823200Y-68312400D01*
X65823200Y-68312400D01*
G37*
G36*
X58635000Y-68312400D02*
X56935000Y-68312400D01*
X56935000Y-66612400D01*
X58635000Y-66612400D01*
X58635000Y-68312400D01*
X58635000Y-68312400D01*
G37*
G36*
X88449716Y-67029095D02*
X88478913Y-67037952D01*
X88505818Y-67052333D01*
X88529408Y-67071692D01*
X88548767Y-67095282D01*
X88563148Y-67122187D01*
X88572005Y-67151384D01*
X88575600Y-67187890D01*
X88575600Y-67813110D01*
X88572005Y-67849616D01*
X88563148Y-67878813D01*
X88548767Y-67905718D01*
X88529408Y-67929308D01*
X88505818Y-67948667D01*
X88478913Y-67963048D01*
X88449716Y-67971905D01*
X88413210Y-67975500D01*
X87862990Y-67975500D01*
X87826484Y-67971905D01*
X87797287Y-67963048D01*
X87770382Y-67948667D01*
X87746792Y-67929308D01*
X87727433Y-67905718D01*
X87713052Y-67878813D01*
X87704195Y-67849616D01*
X87700600Y-67813110D01*
X87700600Y-67187890D01*
X87704195Y-67151384D01*
X87713052Y-67122187D01*
X87727433Y-67095282D01*
X87746792Y-67071692D01*
X87770382Y-67052333D01*
X87797287Y-67037952D01*
X87826484Y-67029095D01*
X87862990Y-67025500D01*
X88413210Y-67025500D01*
X88449716Y-67029095D01*
X88449716Y-67029095D01*
G37*
G36*
X86874716Y-67029095D02*
X86903913Y-67037952D01*
X86930818Y-67052333D01*
X86954408Y-67071692D01*
X86973767Y-67095282D01*
X86988148Y-67122187D01*
X86997005Y-67151384D01*
X87000600Y-67187890D01*
X87000600Y-67813110D01*
X86997005Y-67849616D01*
X86988148Y-67878813D01*
X86973767Y-67905718D01*
X86954408Y-67929308D01*
X86930818Y-67948667D01*
X86903913Y-67963048D01*
X86874716Y-67971905D01*
X86838210Y-67975500D01*
X86287990Y-67975500D01*
X86251484Y-67971905D01*
X86222287Y-67963048D01*
X86195382Y-67948667D01*
X86171792Y-67929308D01*
X86152433Y-67905718D01*
X86138052Y-67878813D01*
X86129195Y-67849616D01*
X86125600Y-67813110D01*
X86125600Y-67187890D01*
X86129195Y-67151384D01*
X86138052Y-67122187D01*
X86152433Y-67095282D01*
X86171792Y-67071692D01*
X86195382Y-67052333D01*
X86222287Y-67037952D01*
X86251484Y-67029095D01*
X86287990Y-67025500D01*
X86838210Y-67025500D01*
X86874716Y-67029095D01*
X86874716Y-67029095D01*
G37*
G36*
X52109630Y-66243699D02*
X52269855Y-66292303D01*
X52417520Y-66371231D01*
X52546949Y-66477451D01*
X52653169Y-66606880D01*
X52732097Y-66754545D01*
X52780701Y-66914770D01*
X52797112Y-67081400D01*
X52780701Y-67248030D01*
X52732097Y-67408255D01*
X52653169Y-67555920D01*
X52546949Y-67685349D01*
X52417520Y-67791569D01*
X52269855Y-67870497D01*
X52109630Y-67919101D01*
X51984752Y-67931400D01*
X51901248Y-67931400D01*
X51776370Y-67919101D01*
X51616145Y-67870497D01*
X51468480Y-67791569D01*
X51339051Y-67685349D01*
X51232831Y-67555920D01*
X51153903Y-67408255D01*
X51105299Y-67248030D01*
X51088888Y-67081400D01*
X51105299Y-66914770D01*
X51153903Y-66754545D01*
X51232831Y-66606880D01*
X51339051Y-66477451D01*
X51468480Y-66371231D01*
X51616145Y-66292303D01*
X51776370Y-66243699D01*
X51901248Y-66231400D01*
X51984752Y-66231400D01*
X52109630Y-66243699D01*
X52109630Y-66243699D01*
G37*
G36*
X83838916Y-67028395D02*
X83868113Y-67037252D01*
X83895018Y-67051633D01*
X83918608Y-67070992D01*
X83937967Y-67094582D01*
X83952348Y-67121487D01*
X83961205Y-67150684D01*
X83964800Y-67187190D01*
X83964800Y-67737410D01*
X83961205Y-67773916D01*
X83952348Y-67803113D01*
X83937967Y-67830018D01*
X83918608Y-67853608D01*
X83895018Y-67872967D01*
X83868113Y-67887348D01*
X83838916Y-67896205D01*
X83802410Y-67899800D01*
X83177190Y-67899800D01*
X83140684Y-67896205D01*
X83111487Y-67887348D01*
X83084582Y-67872967D01*
X83060992Y-67853608D01*
X83041633Y-67830018D01*
X83027252Y-67803113D01*
X83018395Y-67773916D01*
X83014800Y-67737410D01*
X83014800Y-67187190D01*
X83018395Y-67150684D01*
X83027252Y-67121487D01*
X83041633Y-67094582D01*
X83060992Y-67070992D01*
X83084582Y-67051633D01*
X83111487Y-67037252D01*
X83140684Y-67028395D01*
X83177190Y-67024800D01*
X83802410Y-67024800D01*
X83838916Y-67028395D01*
X83838916Y-67028395D01*
G37*
G36*
X79168500Y-67061500D02*
X78668500Y-67061500D01*
X78668500Y-66161500D01*
X79168500Y-66161500D01*
X79168500Y-67061500D01*
X79168500Y-67061500D01*
G37*
G36*
X75866500Y-67061500D02*
X75366500Y-67061500D01*
X75366500Y-66161500D01*
X75866500Y-66161500D01*
X75866500Y-67061500D01*
X75866500Y-67061500D01*
G37*
G36*
X77668500Y-67061500D02*
X77168500Y-67061500D01*
X77168500Y-66161500D01*
X77668500Y-66161500D01*
X77668500Y-67061500D01*
X77668500Y-67061500D01*
G37*
G36*
X74366500Y-67061500D02*
X73866500Y-67061500D01*
X73866500Y-66161500D01*
X74366500Y-66161500D01*
X74366500Y-67061500D01*
X74366500Y-67061500D01*
G37*
G36*
X101962516Y-66101995D02*
X101991713Y-66110852D01*
X102018618Y-66125233D01*
X102042208Y-66144592D01*
X102061567Y-66168182D01*
X102075948Y-66195087D01*
X102084805Y-66224284D01*
X102088400Y-66260790D01*
X102088400Y-66886010D01*
X102084805Y-66922516D01*
X102075948Y-66951713D01*
X102061567Y-66978618D01*
X102042208Y-67002208D01*
X102018618Y-67021567D01*
X101991713Y-67035948D01*
X101962516Y-67044805D01*
X101926010Y-67048400D01*
X101375790Y-67048400D01*
X101339284Y-67044805D01*
X101310087Y-67035948D01*
X101283182Y-67021567D01*
X101259592Y-67002208D01*
X101240233Y-66978618D01*
X101225852Y-66951713D01*
X101216995Y-66922516D01*
X101213400Y-66886010D01*
X101213400Y-66260790D01*
X101216995Y-66224284D01*
X101225852Y-66195087D01*
X101240233Y-66168182D01*
X101259592Y-66144592D01*
X101283182Y-66125233D01*
X101310087Y-66110852D01*
X101339284Y-66101995D01*
X101375790Y-66098400D01*
X101926010Y-66098400D01*
X101962516Y-66101995D01*
X101962516Y-66101995D01*
G37*
G36*
X100387516Y-66101995D02*
X100416713Y-66110852D01*
X100443618Y-66125233D01*
X100467208Y-66144592D01*
X100486567Y-66168182D01*
X100500948Y-66195087D01*
X100509805Y-66224284D01*
X100513400Y-66260790D01*
X100513400Y-66886010D01*
X100509805Y-66922516D01*
X100500948Y-66951713D01*
X100486567Y-66978618D01*
X100467208Y-67002208D01*
X100443618Y-67021567D01*
X100416713Y-67035948D01*
X100387516Y-67044805D01*
X100351010Y-67048400D01*
X99800790Y-67048400D01*
X99764284Y-67044805D01*
X99735087Y-67035948D01*
X99708182Y-67021567D01*
X99684592Y-67002208D01*
X99665233Y-66978618D01*
X99650852Y-66951713D01*
X99641995Y-66922516D01*
X99638400Y-66886010D01*
X99638400Y-66260790D01*
X99641995Y-66224284D01*
X99650852Y-66195087D01*
X99665233Y-66168182D01*
X99684592Y-66144592D01*
X99708182Y-66125233D01*
X99735087Y-66110852D01*
X99764284Y-66101995D01*
X99800790Y-66098400D01*
X100351010Y-66098400D01*
X100387516Y-66101995D01*
X100387516Y-66101995D01*
G37*
G36*
X103422816Y-66101995D02*
X103452013Y-66110852D01*
X103478918Y-66125233D01*
X103502508Y-66144592D01*
X103521867Y-66168182D01*
X103536248Y-66195087D01*
X103545105Y-66224284D01*
X103548700Y-66260790D01*
X103548700Y-66886010D01*
X103545105Y-66922516D01*
X103536248Y-66951713D01*
X103521867Y-66978618D01*
X103502508Y-67002208D01*
X103478918Y-67021567D01*
X103452013Y-67035948D01*
X103422816Y-67044805D01*
X103386310Y-67048400D01*
X102836090Y-67048400D01*
X102799584Y-67044805D01*
X102770387Y-67035948D01*
X102743482Y-67021567D01*
X102719892Y-67002208D01*
X102700533Y-66978618D01*
X102686152Y-66951713D01*
X102677295Y-66922516D01*
X102673700Y-66886010D01*
X102673700Y-66260790D01*
X102677295Y-66224284D01*
X102686152Y-66195087D01*
X102700533Y-66168182D01*
X102719892Y-66144592D01*
X102743482Y-66125233D01*
X102770387Y-66110852D01*
X102799584Y-66101995D01*
X102836090Y-66098400D01*
X103386310Y-66098400D01*
X103422816Y-66101995D01*
X103422816Y-66101995D01*
G37*
G36*
X104997816Y-66101995D02*
X105027013Y-66110852D01*
X105053918Y-66125233D01*
X105077508Y-66144592D01*
X105096867Y-66168182D01*
X105111248Y-66195087D01*
X105120105Y-66224284D01*
X105123700Y-66260790D01*
X105123700Y-66886010D01*
X105120105Y-66922516D01*
X105111248Y-66951713D01*
X105096867Y-66978618D01*
X105077508Y-67002208D01*
X105053918Y-67021567D01*
X105027013Y-67035948D01*
X104997816Y-67044805D01*
X104961310Y-67048400D01*
X104411090Y-67048400D01*
X104374584Y-67044805D01*
X104345387Y-67035948D01*
X104318482Y-67021567D01*
X104294892Y-67002208D01*
X104275533Y-66978618D01*
X104261152Y-66951713D01*
X104252295Y-66922516D01*
X104248700Y-66886010D01*
X104248700Y-66260790D01*
X104252295Y-66224284D01*
X104261152Y-66195087D01*
X104275533Y-66168182D01*
X104294892Y-66144592D01*
X104318482Y-66125233D01*
X104345387Y-66110852D01*
X104374584Y-66101995D01*
X104411090Y-66098400D01*
X104961310Y-66098400D01*
X104997816Y-66101995D01*
X104997816Y-66101995D01*
G37*
G36*
X84715216Y-65568095D02*
X84744413Y-65576952D01*
X84771318Y-65591333D01*
X84794908Y-65610692D01*
X84814267Y-65634282D01*
X84828648Y-65661187D01*
X84837505Y-65690384D01*
X84841100Y-65726890D01*
X84841100Y-66277110D01*
X84837505Y-66313616D01*
X84828648Y-66342813D01*
X84814267Y-66369718D01*
X84794908Y-66393308D01*
X84771318Y-66412667D01*
X84744413Y-66427048D01*
X84715216Y-66435905D01*
X84678710Y-66439500D01*
X84053490Y-66439500D01*
X84016984Y-66435905D01*
X83987787Y-66427048D01*
X83960882Y-66412667D01*
X83937292Y-66393308D01*
X83917933Y-66369718D01*
X83903552Y-66342813D01*
X83894695Y-66313616D01*
X83891100Y-66277110D01*
X83891100Y-65726890D01*
X83894695Y-65690384D01*
X83903552Y-65661187D01*
X83917933Y-65634282D01*
X83937292Y-65610692D01*
X83960882Y-65591333D01*
X83987787Y-65576952D01*
X84016984Y-65568095D01*
X84053490Y-65564500D01*
X84678710Y-65564500D01*
X84715216Y-65568095D01*
X84715216Y-65568095D01*
G37*
G36*
X83165816Y-65568095D02*
X83195013Y-65576952D01*
X83221918Y-65591333D01*
X83245508Y-65610692D01*
X83264867Y-65634282D01*
X83279248Y-65661187D01*
X83288105Y-65690384D01*
X83291700Y-65726890D01*
X83291700Y-66277110D01*
X83288105Y-66313616D01*
X83279248Y-66342813D01*
X83264867Y-66369718D01*
X83245508Y-66393308D01*
X83221918Y-66412667D01*
X83195013Y-66427048D01*
X83165816Y-66435905D01*
X83129310Y-66439500D01*
X82504090Y-66439500D01*
X82467584Y-66435905D01*
X82438387Y-66427048D01*
X82411482Y-66412667D01*
X82387892Y-66393308D01*
X82368533Y-66369718D01*
X82354152Y-66342813D01*
X82345295Y-66313616D01*
X82341700Y-66277110D01*
X82341700Y-65726890D01*
X82345295Y-65690384D01*
X82354152Y-65661187D01*
X82368533Y-65634282D01*
X82387892Y-65610692D01*
X82411482Y-65591333D01*
X82438387Y-65576952D01*
X82467584Y-65568095D01*
X82504090Y-65564500D01*
X83129310Y-65564500D01*
X83165816Y-65568095D01*
X83165816Y-65568095D01*
G37*
G36*
X90024516Y-65479695D02*
X90053713Y-65488552D01*
X90080618Y-65502933D01*
X90104208Y-65522292D01*
X90123567Y-65545882D01*
X90137948Y-65572787D01*
X90146805Y-65601984D01*
X90150400Y-65638490D01*
X90150400Y-66263710D01*
X90146805Y-66300216D01*
X90137948Y-66329413D01*
X90123567Y-66356318D01*
X90104208Y-66379908D01*
X90080618Y-66399267D01*
X90053713Y-66413648D01*
X90024516Y-66422505D01*
X89988010Y-66426100D01*
X89437790Y-66426100D01*
X89401284Y-66422505D01*
X89372087Y-66413648D01*
X89345182Y-66399267D01*
X89321592Y-66379908D01*
X89302233Y-66356318D01*
X89287852Y-66329413D01*
X89278995Y-66300216D01*
X89275400Y-66263710D01*
X89275400Y-65638490D01*
X89278995Y-65601984D01*
X89287852Y-65572787D01*
X89302233Y-65545882D01*
X89321592Y-65522292D01*
X89345182Y-65502933D01*
X89372087Y-65488552D01*
X89401284Y-65479695D01*
X89437790Y-65476100D01*
X89988010Y-65476100D01*
X90024516Y-65479695D01*
X90024516Y-65479695D01*
G37*
G36*
X88449516Y-65479695D02*
X88478713Y-65488552D01*
X88505618Y-65502933D01*
X88529208Y-65522292D01*
X88548567Y-65545882D01*
X88562948Y-65572787D01*
X88571805Y-65601984D01*
X88575400Y-65638490D01*
X88575400Y-66263710D01*
X88571805Y-66300216D01*
X88562948Y-66329413D01*
X88548567Y-66356318D01*
X88529208Y-66379908D01*
X88505618Y-66399267D01*
X88478713Y-66413648D01*
X88449516Y-66422505D01*
X88413010Y-66426100D01*
X87862790Y-66426100D01*
X87826284Y-66422505D01*
X87797087Y-66413648D01*
X87770182Y-66399267D01*
X87746592Y-66379908D01*
X87727233Y-66356318D01*
X87712852Y-66329413D01*
X87703995Y-66300216D01*
X87700400Y-66263710D01*
X87700400Y-65638490D01*
X87703995Y-65601984D01*
X87712852Y-65572787D01*
X87727233Y-65545882D01*
X87746592Y-65522292D01*
X87770182Y-65502933D01*
X87797087Y-65488552D01*
X87826284Y-65479695D01*
X87862790Y-65476100D01*
X88413010Y-65476100D01*
X88449516Y-65479695D01*
X88449516Y-65479695D01*
G37*
G36*
X86975816Y-65517295D02*
X87005013Y-65526152D01*
X87031918Y-65540533D01*
X87055508Y-65559892D01*
X87074867Y-65583482D01*
X87089248Y-65610387D01*
X87098105Y-65639584D01*
X87101700Y-65676090D01*
X87101700Y-66226310D01*
X87098105Y-66262816D01*
X87089248Y-66292013D01*
X87074867Y-66318918D01*
X87055508Y-66342508D01*
X87031918Y-66361867D01*
X87005013Y-66376248D01*
X86975816Y-66385105D01*
X86939310Y-66388700D01*
X86314090Y-66388700D01*
X86277584Y-66385105D01*
X86248387Y-66376248D01*
X86221482Y-66361867D01*
X86197892Y-66342508D01*
X86178533Y-66318918D01*
X86164152Y-66292013D01*
X86155295Y-66262816D01*
X86151700Y-66226310D01*
X86151700Y-65676090D01*
X86155295Y-65639584D01*
X86164152Y-65610387D01*
X86178533Y-65583482D01*
X86197892Y-65559892D01*
X86221482Y-65540533D01*
X86248387Y-65526152D01*
X86277584Y-65517295D01*
X86314090Y-65513700D01*
X86939310Y-65513700D01*
X86975816Y-65517295D01*
X86975816Y-65517295D01*
G37*
G36*
X100768016Y-64615595D02*
X100797213Y-64624452D01*
X100824118Y-64638833D01*
X100847708Y-64658192D01*
X100867067Y-64681782D01*
X100881448Y-64708687D01*
X100890305Y-64737884D01*
X100893900Y-64774390D01*
X100893900Y-65324610D01*
X100890305Y-65361116D01*
X100881448Y-65390313D01*
X100867067Y-65417218D01*
X100847708Y-65440808D01*
X100824118Y-65460167D01*
X100797213Y-65474548D01*
X100768016Y-65483405D01*
X100731510Y-65487000D01*
X100106290Y-65487000D01*
X100069784Y-65483405D01*
X100040587Y-65474548D01*
X100013682Y-65460167D01*
X99990092Y-65440808D01*
X99970733Y-65417218D01*
X99956352Y-65390313D01*
X99947495Y-65361116D01*
X99943900Y-65324610D01*
X99943900Y-64774390D01*
X99947495Y-64737884D01*
X99956352Y-64708687D01*
X99970733Y-64681782D01*
X99990092Y-64658192D01*
X100013682Y-64638833D01*
X100040587Y-64624452D01*
X100069784Y-64615595D01*
X100106290Y-64612000D01*
X100731510Y-64612000D01*
X100768016Y-64615595D01*
X100768016Y-64615595D01*
G37*
G36*
X90037216Y-63955695D02*
X90066413Y-63964552D01*
X90093318Y-63978933D01*
X90116908Y-63998292D01*
X90136267Y-64021882D01*
X90150648Y-64048787D01*
X90159505Y-64077984D01*
X90163100Y-64114490D01*
X90163100Y-64739710D01*
X90159505Y-64776216D01*
X90150648Y-64805413D01*
X90136267Y-64832318D01*
X90116908Y-64855908D01*
X90093318Y-64875267D01*
X90066413Y-64889648D01*
X90037216Y-64898505D01*
X90000710Y-64902100D01*
X89450490Y-64902100D01*
X89413984Y-64898505D01*
X89384787Y-64889648D01*
X89357882Y-64875267D01*
X89334292Y-64855908D01*
X89314933Y-64832318D01*
X89300552Y-64805413D01*
X89291695Y-64776216D01*
X89288100Y-64739710D01*
X89288100Y-64114490D01*
X89291695Y-64077984D01*
X89300552Y-64048787D01*
X89314933Y-64021882D01*
X89334292Y-63998292D01*
X89357882Y-63978933D01*
X89384787Y-63964552D01*
X89413984Y-63955695D01*
X89450490Y-63952100D01*
X90000710Y-63952100D01*
X90037216Y-63955695D01*
X90037216Y-63955695D01*
G37*
G36*
X88462216Y-63955695D02*
X88491413Y-63964552D01*
X88518318Y-63978933D01*
X88541908Y-63998292D01*
X88561267Y-64021882D01*
X88575648Y-64048787D01*
X88584505Y-64077984D01*
X88588100Y-64114490D01*
X88588100Y-64739710D01*
X88584505Y-64776216D01*
X88575648Y-64805413D01*
X88561267Y-64832318D01*
X88541908Y-64855908D01*
X88518318Y-64875267D01*
X88491413Y-64889648D01*
X88462216Y-64898505D01*
X88425710Y-64902100D01*
X87875490Y-64902100D01*
X87838984Y-64898505D01*
X87809787Y-64889648D01*
X87782882Y-64875267D01*
X87759292Y-64855908D01*
X87739933Y-64832318D01*
X87725552Y-64805413D01*
X87716695Y-64776216D01*
X87713100Y-64739710D01*
X87713100Y-64114490D01*
X87716695Y-64077984D01*
X87725552Y-64048787D01*
X87739933Y-64021882D01*
X87759292Y-63998292D01*
X87782882Y-63978933D01*
X87809787Y-63964552D01*
X87838984Y-63955695D01*
X87875490Y-63952100D01*
X88425710Y-63952100D01*
X88462216Y-63955695D01*
X88462216Y-63955695D01*
G37*
G36*
X94570916Y-63942995D02*
X94600113Y-63951852D01*
X94627018Y-63966233D01*
X94650608Y-63985592D01*
X94669967Y-64009182D01*
X94684348Y-64036087D01*
X94693205Y-64065284D01*
X94696800Y-64101790D01*
X94696800Y-64727010D01*
X94693205Y-64763516D01*
X94684348Y-64792713D01*
X94669967Y-64819618D01*
X94650608Y-64843208D01*
X94627018Y-64862567D01*
X94600113Y-64876948D01*
X94570916Y-64885805D01*
X94534410Y-64889400D01*
X93984190Y-64889400D01*
X93947684Y-64885805D01*
X93918487Y-64876948D01*
X93891582Y-64862567D01*
X93867992Y-64843208D01*
X93848633Y-64819618D01*
X93834252Y-64792713D01*
X93825395Y-64763516D01*
X93821800Y-64727010D01*
X93821800Y-64101790D01*
X93825395Y-64065284D01*
X93834252Y-64036087D01*
X93848633Y-64009182D01*
X93867992Y-63985592D01*
X93891582Y-63966233D01*
X93918487Y-63951852D01*
X93947684Y-63942995D01*
X93984190Y-63939400D01*
X94534410Y-63939400D01*
X94570916Y-63942995D01*
X94570916Y-63942995D01*
G37*
G36*
X96145916Y-63942995D02*
X96175113Y-63951852D01*
X96202018Y-63966233D01*
X96225608Y-63985592D01*
X96244967Y-64009182D01*
X96259348Y-64036087D01*
X96268205Y-64065284D01*
X96271800Y-64101790D01*
X96271800Y-64727010D01*
X96268205Y-64763516D01*
X96259348Y-64792713D01*
X96244967Y-64819618D01*
X96225608Y-64843208D01*
X96202018Y-64862567D01*
X96175113Y-64876948D01*
X96145916Y-64885805D01*
X96109410Y-64889400D01*
X95559190Y-64889400D01*
X95522684Y-64885805D01*
X95493487Y-64876948D01*
X95466582Y-64862567D01*
X95442992Y-64843208D01*
X95423633Y-64819618D01*
X95409252Y-64792713D01*
X95400395Y-64763516D01*
X95396800Y-64727010D01*
X95396800Y-64101790D01*
X95400395Y-64065284D01*
X95409252Y-64036087D01*
X95423633Y-64009182D01*
X95442992Y-63985592D01*
X95466582Y-63966233D01*
X95493487Y-63951852D01*
X95522684Y-63942995D01*
X95559190Y-63939400D01*
X96109410Y-63939400D01*
X96145916Y-63942995D01*
X96145916Y-63942995D01*
G37*
G36*
X91573216Y-63993295D02*
X91602413Y-64002152D01*
X91629318Y-64016533D01*
X91652908Y-64035892D01*
X91672267Y-64059482D01*
X91686648Y-64086387D01*
X91695505Y-64115584D01*
X91699100Y-64152090D01*
X91699100Y-64702310D01*
X91695505Y-64738816D01*
X91686648Y-64768013D01*
X91672267Y-64794918D01*
X91652908Y-64818508D01*
X91629318Y-64837867D01*
X91602413Y-64852248D01*
X91573216Y-64861105D01*
X91536710Y-64864700D01*
X90911490Y-64864700D01*
X90874984Y-64861105D01*
X90845787Y-64852248D01*
X90818882Y-64837867D01*
X90795292Y-64818508D01*
X90775933Y-64794918D01*
X90761552Y-64768013D01*
X90752695Y-64738816D01*
X90749100Y-64702310D01*
X90749100Y-64152090D01*
X90752695Y-64115584D01*
X90761552Y-64086387D01*
X90775933Y-64059482D01*
X90795292Y-64035892D01*
X90818882Y-64016533D01*
X90845787Y-64002152D01*
X90874984Y-63993295D01*
X90911490Y-63989700D01*
X91536710Y-63989700D01*
X91573216Y-63993295D01*
X91573216Y-63993295D01*
G37*
G36*
X93122616Y-63993295D02*
X93151813Y-64002152D01*
X93178718Y-64016533D01*
X93202308Y-64035892D01*
X93221667Y-64059482D01*
X93236048Y-64086387D01*
X93244905Y-64115584D01*
X93248500Y-64152090D01*
X93248500Y-64702310D01*
X93244905Y-64738816D01*
X93236048Y-64768013D01*
X93221667Y-64794918D01*
X93202308Y-64818508D01*
X93178718Y-64837867D01*
X93151813Y-64852248D01*
X93122616Y-64861105D01*
X93086110Y-64864700D01*
X92460890Y-64864700D01*
X92424384Y-64861105D01*
X92395187Y-64852248D01*
X92368282Y-64837867D01*
X92344692Y-64818508D01*
X92325333Y-64794918D01*
X92310952Y-64768013D01*
X92302095Y-64738816D01*
X92298500Y-64702310D01*
X92298500Y-64152090D01*
X92302095Y-64115584D01*
X92310952Y-64086387D01*
X92325333Y-64059482D01*
X92344692Y-64035892D01*
X92368282Y-64016533D01*
X92395187Y-64002152D01*
X92424384Y-63993295D01*
X92460890Y-63989700D01*
X93086110Y-63989700D01*
X93122616Y-63993295D01*
X93122616Y-63993295D01*
G37*
G36*
X84715216Y-63993095D02*
X84744413Y-64001952D01*
X84771318Y-64016333D01*
X84794908Y-64035692D01*
X84814267Y-64059282D01*
X84828648Y-64086187D01*
X84837505Y-64115384D01*
X84841100Y-64151890D01*
X84841100Y-64702110D01*
X84837505Y-64738616D01*
X84828648Y-64767813D01*
X84814267Y-64794718D01*
X84794908Y-64818308D01*
X84771318Y-64837667D01*
X84744413Y-64852048D01*
X84715216Y-64860905D01*
X84678710Y-64864500D01*
X84053490Y-64864500D01*
X84016984Y-64860905D01*
X83987787Y-64852048D01*
X83960882Y-64837667D01*
X83937292Y-64818308D01*
X83917933Y-64794718D01*
X83903552Y-64767813D01*
X83894695Y-64738616D01*
X83891100Y-64702110D01*
X83891100Y-64151890D01*
X83894695Y-64115384D01*
X83903552Y-64086187D01*
X83917933Y-64059282D01*
X83937292Y-64035692D01*
X83960882Y-64016333D01*
X83987787Y-64001952D01*
X84016984Y-63993095D01*
X84053490Y-63989500D01*
X84678710Y-63989500D01*
X84715216Y-63993095D01*
X84715216Y-63993095D01*
G37*
G36*
X83165816Y-63993095D02*
X83195013Y-64001952D01*
X83221918Y-64016333D01*
X83245508Y-64035692D01*
X83264867Y-64059282D01*
X83279248Y-64086187D01*
X83288105Y-64115384D01*
X83291700Y-64151890D01*
X83291700Y-64702110D01*
X83288105Y-64738616D01*
X83279248Y-64767813D01*
X83264867Y-64794718D01*
X83245508Y-64818308D01*
X83221918Y-64837667D01*
X83195013Y-64852048D01*
X83165816Y-64860905D01*
X83129310Y-64864500D01*
X82504090Y-64864500D01*
X82467584Y-64860905D01*
X82438387Y-64852048D01*
X82411482Y-64837667D01*
X82387892Y-64818308D01*
X82368533Y-64794718D01*
X82354152Y-64767813D01*
X82345295Y-64738616D01*
X82341700Y-64702110D01*
X82341700Y-64151890D01*
X82345295Y-64115384D01*
X82354152Y-64086187D01*
X82368533Y-64059282D01*
X82387892Y-64035692D01*
X82411482Y-64016333D01*
X82438387Y-64001952D01*
X82467584Y-63993095D01*
X82504090Y-63989500D01*
X83129310Y-63989500D01*
X83165816Y-63993095D01*
X83165816Y-63993095D01*
G37*
G36*
X86975816Y-63942295D02*
X87005013Y-63951152D01*
X87031918Y-63965533D01*
X87055508Y-63984892D01*
X87074867Y-64008482D01*
X87089248Y-64035387D01*
X87098105Y-64064584D01*
X87101700Y-64101090D01*
X87101700Y-64651310D01*
X87098105Y-64687816D01*
X87089248Y-64717013D01*
X87074867Y-64743918D01*
X87055508Y-64767508D01*
X87031918Y-64786867D01*
X87005013Y-64801248D01*
X86975816Y-64810105D01*
X86939310Y-64813700D01*
X86314090Y-64813700D01*
X86277584Y-64810105D01*
X86248387Y-64801248D01*
X86221482Y-64786867D01*
X86197892Y-64767508D01*
X86178533Y-64743918D01*
X86164152Y-64717013D01*
X86155295Y-64687816D01*
X86151700Y-64651310D01*
X86151700Y-64101090D01*
X86155295Y-64064584D01*
X86164152Y-64035387D01*
X86178533Y-64008482D01*
X86197892Y-63984892D01*
X86221482Y-63965533D01*
X86248387Y-63951152D01*
X86277584Y-63942295D01*
X86314090Y-63938700D01*
X86939310Y-63938700D01*
X86975816Y-63942295D01*
X86975816Y-63942295D01*
G37*
G36*
X99218616Y-63828095D02*
X99247813Y-63836952D01*
X99274718Y-63851333D01*
X99298308Y-63870692D01*
X99317667Y-63894282D01*
X99332048Y-63921187D01*
X99340905Y-63950384D01*
X99344500Y-63986890D01*
X99344500Y-64537110D01*
X99340905Y-64573616D01*
X99332048Y-64602813D01*
X99317667Y-64629718D01*
X99298308Y-64653308D01*
X99274718Y-64672667D01*
X99247813Y-64687048D01*
X99218616Y-64695905D01*
X99182110Y-64699500D01*
X98556890Y-64699500D01*
X98520384Y-64695905D01*
X98491187Y-64687048D01*
X98464282Y-64672667D01*
X98440692Y-64653308D01*
X98421333Y-64629718D01*
X98406952Y-64602813D01*
X98398095Y-64573616D01*
X98394500Y-64537110D01*
X98394500Y-63986890D01*
X98398095Y-63950384D01*
X98406952Y-63921187D01*
X98421333Y-63894282D01*
X98440692Y-63870692D01*
X98464282Y-63851333D01*
X98491187Y-63836952D01*
X98520384Y-63828095D01*
X98556890Y-63824500D01*
X99182110Y-63824500D01*
X99218616Y-63828095D01*
X99218616Y-63828095D01*
G37*
G36*
X97669216Y-63815495D02*
X97698413Y-63824352D01*
X97725318Y-63838733D01*
X97748908Y-63858092D01*
X97768267Y-63881682D01*
X97782648Y-63908587D01*
X97791505Y-63937784D01*
X97795100Y-63974290D01*
X97795100Y-64524510D01*
X97791505Y-64561016D01*
X97782648Y-64590213D01*
X97768267Y-64617118D01*
X97748908Y-64640708D01*
X97725318Y-64660067D01*
X97698413Y-64674448D01*
X97669216Y-64683305D01*
X97632710Y-64686900D01*
X97007490Y-64686900D01*
X96970984Y-64683305D01*
X96941787Y-64674448D01*
X96914882Y-64660067D01*
X96891292Y-64640708D01*
X96871933Y-64617118D01*
X96857552Y-64590213D01*
X96848695Y-64561016D01*
X96845100Y-64524510D01*
X96845100Y-63974290D01*
X96848695Y-63937784D01*
X96857552Y-63908587D01*
X96871933Y-63881682D01*
X96891292Y-63858092D01*
X96914882Y-63838733D01*
X96941787Y-63824352D01*
X96970984Y-63815495D01*
X97007490Y-63811900D01*
X97632710Y-63811900D01*
X97669216Y-63815495D01*
X97669216Y-63815495D01*
G37*
G36*
X62572000Y-64604000D02*
X60872000Y-64604000D01*
X60872000Y-62904000D01*
X62572000Y-62904000D01*
X62572000Y-64604000D01*
X62572000Y-64604000D01*
G37*
G36*
X74619500Y-64192500D02*
X73819500Y-64192500D01*
X73819500Y-63442500D01*
X74619500Y-63442500D01*
X74619500Y-64192500D01*
X74619500Y-64192500D01*
G37*
G36*
X73119500Y-64192500D02*
X72319500Y-64192500D01*
X72319500Y-63442500D01*
X73119500Y-63442500D01*
X73119500Y-64192500D01*
X73119500Y-64192500D01*
G37*
G36*
X103804016Y-63015895D02*
X103833213Y-63024752D01*
X103860118Y-63039133D01*
X103883708Y-63058492D01*
X103903067Y-63082082D01*
X103917448Y-63108987D01*
X103926305Y-63138184D01*
X103929900Y-63174690D01*
X103929900Y-63799910D01*
X103926305Y-63836416D01*
X103917448Y-63865613D01*
X103903067Y-63892518D01*
X103883708Y-63916108D01*
X103860118Y-63935467D01*
X103833213Y-63949848D01*
X103804016Y-63958705D01*
X103767510Y-63962300D01*
X103217290Y-63962300D01*
X103180784Y-63958705D01*
X103151587Y-63949848D01*
X103124682Y-63935467D01*
X103101092Y-63916108D01*
X103081733Y-63892518D01*
X103067352Y-63865613D01*
X103058495Y-63836416D01*
X103054900Y-63799910D01*
X103054900Y-63174690D01*
X103058495Y-63138184D01*
X103067352Y-63108987D01*
X103081733Y-63082082D01*
X103101092Y-63058492D01*
X103124682Y-63039133D01*
X103151587Y-63024752D01*
X103180784Y-63015895D01*
X103217290Y-63012300D01*
X103767510Y-63012300D01*
X103804016Y-63015895D01*
X103804016Y-63015895D01*
G37*
G36*
X102229016Y-63015895D02*
X102258213Y-63024752D01*
X102285118Y-63039133D01*
X102308708Y-63058492D01*
X102328067Y-63082082D01*
X102342448Y-63108987D01*
X102351305Y-63138184D01*
X102354900Y-63174690D01*
X102354900Y-63799910D01*
X102351305Y-63836416D01*
X102342448Y-63865613D01*
X102328067Y-63892518D01*
X102308708Y-63916108D01*
X102285118Y-63935467D01*
X102258213Y-63949848D01*
X102229016Y-63958705D01*
X102192510Y-63962300D01*
X101642290Y-63962300D01*
X101605784Y-63958705D01*
X101576587Y-63949848D01*
X101549682Y-63935467D01*
X101526092Y-63916108D01*
X101506733Y-63892518D01*
X101492352Y-63865613D01*
X101483495Y-63836416D01*
X101479900Y-63799910D01*
X101479900Y-63174690D01*
X101483495Y-63138184D01*
X101492352Y-63108987D01*
X101506733Y-63082082D01*
X101526092Y-63058492D01*
X101549682Y-63039133D01*
X101576587Y-63024752D01*
X101605784Y-63015895D01*
X101642290Y-63012300D01*
X102192510Y-63012300D01*
X102229016Y-63015895D01*
X102229016Y-63015895D01*
G37*
G36*
X100768016Y-63040595D02*
X100797213Y-63049452D01*
X100824118Y-63063833D01*
X100847708Y-63083192D01*
X100867067Y-63106782D01*
X100881448Y-63133687D01*
X100890305Y-63162884D01*
X100893900Y-63199390D01*
X100893900Y-63749610D01*
X100890305Y-63786116D01*
X100881448Y-63815313D01*
X100867067Y-63842218D01*
X100847708Y-63865808D01*
X100824118Y-63885167D01*
X100797213Y-63899548D01*
X100768016Y-63908405D01*
X100731510Y-63912000D01*
X100106290Y-63912000D01*
X100069784Y-63908405D01*
X100040587Y-63899548D01*
X100013682Y-63885167D01*
X99990092Y-63865808D01*
X99970733Y-63842218D01*
X99956352Y-63815313D01*
X99947495Y-63786116D01*
X99943900Y-63749610D01*
X99943900Y-63199390D01*
X99947495Y-63162884D01*
X99956352Y-63133687D01*
X99970733Y-63106782D01*
X99990092Y-63083192D01*
X100013682Y-63063833D01*
X100040587Y-63049452D01*
X100069784Y-63040595D01*
X100106290Y-63037000D01*
X100731510Y-63037000D01*
X100768016Y-63040595D01*
X100768016Y-63040595D01*
G37*
G36*
X79990200Y-63849600D02*
X79190200Y-63849600D01*
X79190200Y-63099600D01*
X79990200Y-63099600D01*
X79990200Y-63849600D01*
X79990200Y-63849600D01*
G37*
G36*
X81490200Y-63849600D02*
X80690200Y-63849600D01*
X80690200Y-63099600D01*
X81490200Y-63099600D01*
X81490200Y-63849600D01*
X81490200Y-63849600D01*
G37*
G36*
X67593000Y-63795000D02*
X66443000Y-63795000D01*
X66443000Y-62395000D01*
X67593000Y-62395000D01*
X67593000Y-63795000D01*
X67593000Y-63795000D01*
G37*
G36*
X69193000Y-63795000D02*
X68043000Y-63795000D01*
X68043000Y-62395000D01*
X69193000Y-62395000D01*
X69193000Y-63795000D01*
X69193000Y-63795000D01*
G37*
G36*
X93122616Y-62418295D02*
X93151813Y-62427152D01*
X93178718Y-62441533D01*
X93202308Y-62460892D01*
X93221667Y-62484482D01*
X93236048Y-62511387D01*
X93244905Y-62540584D01*
X93248500Y-62577090D01*
X93248500Y-63127310D01*
X93244905Y-63163816D01*
X93236048Y-63193013D01*
X93221667Y-63219918D01*
X93202308Y-63243508D01*
X93178718Y-63262867D01*
X93151813Y-63277248D01*
X93122616Y-63286105D01*
X93086110Y-63289700D01*
X92460890Y-63289700D01*
X92424384Y-63286105D01*
X92395187Y-63277248D01*
X92368282Y-63262867D01*
X92344692Y-63243508D01*
X92325333Y-63219918D01*
X92310952Y-63193013D01*
X92302095Y-63163816D01*
X92298500Y-63127310D01*
X92298500Y-62577090D01*
X92302095Y-62540584D01*
X92310952Y-62511387D01*
X92325333Y-62484482D01*
X92344692Y-62460892D01*
X92368282Y-62441533D01*
X92395187Y-62427152D01*
X92424384Y-62418295D01*
X92460890Y-62414700D01*
X93086110Y-62414700D01*
X93122616Y-62418295D01*
X93122616Y-62418295D01*
G37*
G36*
X91573216Y-62418295D02*
X91602413Y-62427152D01*
X91629318Y-62441533D01*
X91652908Y-62460892D01*
X91672267Y-62484482D01*
X91686648Y-62511387D01*
X91695505Y-62540584D01*
X91699100Y-62577090D01*
X91699100Y-63127310D01*
X91695505Y-63163816D01*
X91686648Y-63193013D01*
X91672267Y-63219918D01*
X91652908Y-63243508D01*
X91629318Y-63262867D01*
X91602413Y-63277248D01*
X91573216Y-63286105D01*
X91536710Y-63289700D01*
X90911490Y-63289700D01*
X90874984Y-63286105D01*
X90845787Y-63277248D01*
X90818882Y-63262867D01*
X90795292Y-63243508D01*
X90775933Y-63219918D01*
X90761552Y-63193013D01*
X90752695Y-63163816D01*
X90749100Y-63127310D01*
X90749100Y-62577090D01*
X90752695Y-62540584D01*
X90761552Y-62511387D01*
X90775933Y-62484482D01*
X90795292Y-62460892D01*
X90818882Y-62441533D01*
X90845787Y-62427152D01*
X90874984Y-62418295D01*
X90911490Y-62414700D01*
X91536710Y-62414700D01*
X91573216Y-62418295D01*
X91573216Y-62418295D01*
G37*
G36*
X99218616Y-62253095D02*
X99247813Y-62261952D01*
X99274718Y-62276333D01*
X99298308Y-62295692D01*
X99317667Y-62319282D01*
X99332048Y-62346187D01*
X99340905Y-62375384D01*
X99344500Y-62411890D01*
X99344500Y-62962110D01*
X99340905Y-62998616D01*
X99332048Y-63027813D01*
X99317667Y-63054718D01*
X99298308Y-63078308D01*
X99274718Y-63097667D01*
X99247813Y-63112048D01*
X99218616Y-63120905D01*
X99182110Y-63124500D01*
X98556890Y-63124500D01*
X98520384Y-63120905D01*
X98491187Y-63112048D01*
X98464282Y-63097667D01*
X98440692Y-63078308D01*
X98421333Y-63054718D01*
X98406952Y-63027813D01*
X98398095Y-62998616D01*
X98394500Y-62962110D01*
X98394500Y-62411890D01*
X98398095Y-62375384D01*
X98406952Y-62346187D01*
X98421333Y-62319282D01*
X98440692Y-62295692D01*
X98464282Y-62276333D01*
X98491187Y-62261952D01*
X98520384Y-62253095D01*
X98556890Y-62249500D01*
X99182110Y-62249500D01*
X99218616Y-62253095D01*
X99218616Y-62253095D01*
G37*
G36*
X97669216Y-62240495D02*
X97698413Y-62249352D01*
X97725318Y-62263733D01*
X97748908Y-62283092D01*
X97768267Y-62306682D01*
X97782648Y-62333587D01*
X97791505Y-62362784D01*
X97795100Y-62399290D01*
X97795100Y-62949510D01*
X97791505Y-62986016D01*
X97782648Y-63015213D01*
X97768267Y-63042118D01*
X97748908Y-63065708D01*
X97725318Y-63085067D01*
X97698413Y-63099448D01*
X97669216Y-63108305D01*
X97632710Y-63111900D01*
X97007490Y-63111900D01*
X96970984Y-63108305D01*
X96941787Y-63099448D01*
X96914882Y-63085067D01*
X96891292Y-63065708D01*
X96871933Y-63042118D01*
X96857552Y-63015213D01*
X96848695Y-62986016D01*
X96845100Y-62949510D01*
X96845100Y-62399290D01*
X96848695Y-62362784D01*
X96857552Y-62333587D01*
X96871933Y-62306682D01*
X96891292Y-62283092D01*
X96914882Y-62263733D01*
X96941787Y-62249352D01*
X96970984Y-62240495D01*
X97007490Y-62236900D01*
X97632710Y-62236900D01*
X97669216Y-62240495D01*
X97669216Y-62240495D01*
G37*
G36*
X78675500Y-58105500D02*
X78677902Y-58129886D01*
X78685015Y-58153335D01*
X78696566Y-58174946D01*
X78712112Y-58193888D01*
X78731054Y-58209434D01*
X78752665Y-58220985D01*
X78776114Y-58228098D01*
X78800500Y-58230500D01*
X79875500Y-58230500D01*
X79875500Y-61530500D01*
X78800500Y-61530500D01*
X78776114Y-61532902D01*
X78752665Y-61540015D01*
X78731054Y-61551566D01*
X78712112Y-61567112D01*
X78696566Y-61586054D01*
X78685015Y-61607665D01*
X78677902Y-61631114D01*
X78675500Y-61655500D01*
X78675500Y-62730500D01*
X75375500Y-62730500D01*
X75375500Y-61655500D01*
X75373098Y-61631114D01*
X75365985Y-61607665D01*
X75354434Y-61586054D01*
X75338888Y-61567112D01*
X75319946Y-61551566D01*
X75298335Y-61540015D01*
X75274886Y-61532902D01*
X75250500Y-61530500D01*
X74175500Y-61530500D01*
X74175500Y-58230500D01*
X75250500Y-58230500D01*
X75274886Y-58228098D01*
X75298335Y-58220985D01*
X75319946Y-58209434D01*
X75338888Y-58193888D01*
X75354434Y-58174946D01*
X75365985Y-58153335D01*
X75373098Y-58129886D01*
X75375500Y-58105500D01*
X75375500Y-57030500D01*
X78675500Y-57030500D01*
X78675500Y-58105500D01*
X78675500Y-58105500D01*
G37*
G36*
X81425200Y-62417200D02*
X80525200Y-62417200D01*
X80525200Y-61917200D01*
X81425200Y-61917200D01*
X81425200Y-62417200D01*
X81425200Y-62417200D01*
G37*
G36*
X61888630Y-60376299D02*
X62048855Y-60424903D01*
X62196520Y-60503831D01*
X62325949Y-60610051D01*
X62432169Y-60739480D01*
X62511097Y-60887145D01*
X62559701Y-61047370D01*
X62576112Y-61214000D01*
X62559701Y-61380630D01*
X62511097Y-61540855D01*
X62432169Y-61688520D01*
X62325949Y-61817949D01*
X62196520Y-61924169D01*
X62048855Y-62003097D01*
X61888630Y-62051701D01*
X61763752Y-62064000D01*
X61680248Y-62064000D01*
X61555370Y-62051701D01*
X61395145Y-62003097D01*
X61247480Y-61924169D01*
X61118051Y-61817949D01*
X61011831Y-61688520D01*
X60932903Y-61540855D01*
X60884299Y-61380630D01*
X60867888Y-61214000D01*
X60884299Y-61047370D01*
X60932903Y-60887145D01*
X61011831Y-60739480D01*
X61118051Y-60610051D01*
X61247480Y-60503831D01*
X61395145Y-60424903D01*
X61555370Y-60376299D01*
X61680248Y-60364000D01*
X61763752Y-60364000D01*
X61888630Y-60376299D01*
X61888630Y-60376299D01*
G37*
G36*
X57412000Y-61664000D02*
X56912000Y-61664000D01*
X56912000Y-60764000D01*
X57412000Y-60764000D01*
X57412000Y-61664000D01*
X57412000Y-61664000D01*
G37*
G36*
X58912000Y-61664000D02*
X58412000Y-61664000D01*
X58412000Y-60764000D01*
X58912000Y-60764000D01*
X58912000Y-61664000D01*
X58912000Y-61664000D01*
G37*
G36*
X81425200Y-60917200D02*
X80525200Y-60917200D01*
X80525200Y-60417200D01*
X81425200Y-60417200D01*
X81425200Y-60917200D01*
X81425200Y-60917200D01*
G37*
G36*
X67593000Y-60795000D02*
X66443000Y-60795000D01*
X66443000Y-59395000D01*
X67593000Y-59395000D01*
X67593000Y-60795000D01*
X67593000Y-60795000D01*
G37*
G36*
X69193000Y-60795000D02*
X68043000Y-60795000D01*
X68043000Y-59395000D01*
X69193000Y-59395000D01*
X69193000Y-60795000D01*
X69193000Y-60795000D01*
G37*
G36*
X61888630Y-57836299D02*
X62048855Y-57884903D01*
X62196520Y-57963831D01*
X62325949Y-58070051D01*
X62432169Y-58199480D01*
X62511097Y-58347145D01*
X62559701Y-58507370D01*
X62576112Y-58674000D01*
X62559701Y-58840630D01*
X62511097Y-59000855D01*
X62432169Y-59148520D01*
X62325949Y-59277949D01*
X62196520Y-59384169D01*
X62048855Y-59463097D01*
X61888630Y-59511701D01*
X61763752Y-59524000D01*
X61680248Y-59524000D01*
X61555370Y-59511701D01*
X61395145Y-59463097D01*
X61247480Y-59384169D01*
X61118051Y-59277949D01*
X61011831Y-59148520D01*
X60932903Y-59000855D01*
X60884299Y-58840630D01*
X60867888Y-58674000D01*
X60884299Y-58507370D01*
X60932903Y-58347145D01*
X61011831Y-58199480D01*
X61118051Y-58070051D01*
X61247480Y-57963831D01*
X61395145Y-57884903D01*
X61555370Y-57836299D01*
X61680248Y-57824000D01*
X61763752Y-57824000D01*
X61888630Y-57836299D01*
X61888630Y-57836299D01*
G37*
G36*
X57412000Y-59124000D02*
X56912000Y-59124000D01*
X56912000Y-58224000D01*
X57412000Y-58224000D01*
X57412000Y-59124000D01*
X57412000Y-59124000D01*
G37*
G36*
X58912000Y-59124000D02*
X58412000Y-59124000D01*
X58412000Y-58224000D01*
X58912000Y-58224000D01*
X58912000Y-59124000D01*
X58912000Y-59124000D01*
G37*
G36*
X72638000Y-58300000D02*
X71888000Y-58300000D01*
X71888000Y-57500000D01*
X72638000Y-57500000D01*
X72638000Y-58300000D01*
X72638000Y-58300000D01*
G37*
G36*
X99668700Y-57111000D02*
X97968700Y-57111000D01*
X97968700Y-55411000D01*
X99668700Y-55411000D01*
X99668700Y-57111000D01*
X99668700Y-57111000D01*
G37*
G36*
X96445330Y-55423299D02*
X96605555Y-55471903D01*
X96753220Y-55550831D01*
X96882649Y-55657051D01*
X96988869Y-55786480D01*
X97067797Y-55934145D01*
X97116401Y-56094370D01*
X97132812Y-56261000D01*
X97116401Y-56427630D01*
X97067797Y-56587855D01*
X96988869Y-56735520D01*
X96882649Y-56864949D01*
X96753220Y-56971169D01*
X96605555Y-57050097D01*
X96445330Y-57098701D01*
X96320452Y-57111000D01*
X96236948Y-57111000D01*
X96112070Y-57098701D01*
X95951845Y-57050097D01*
X95804180Y-56971169D01*
X95674751Y-56864949D01*
X95568531Y-56735520D01*
X95489603Y-56587855D01*
X95440999Y-56427630D01*
X95424588Y-56261000D01*
X95440999Y-56094370D01*
X95489603Y-55934145D01*
X95568531Y-55786480D01*
X95674751Y-55657051D01*
X95804180Y-55550831D01*
X95951845Y-55471903D01*
X96112070Y-55423299D01*
X96236948Y-55411000D01*
X96320452Y-55411000D01*
X96445330Y-55423299D01*
X96445330Y-55423299D01*
G37*
G36*
X61888630Y-55296299D02*
X62048855Y-55344903D01*
X62196520Y-55423831D01*
X62325949Y-55530051D01*
X62432169Y-55659480D01*
X62511097Y-55807145D01*
X62559701Y-55967370D01*
X62576112Y-56134000D01*
X62559701Y-56300630D01*
X62511097Y-56460855D01*
X62432169Y-56608520D01*
X62325949Y-56737949D01*
X62196520Y-56844169D01*
X62048855Y-56923097D01*
X61888630Y-56971701D01*
X61763752Y-56984000D01*
X61680248Y-56984000D01*
X61555370Y-56971701D01*
X61395145Y-56923097D01*
X61247480Y-56844169D01*
X61118051Y-56737949D01*
X61011831Y-56608520D01*
X60932903Y-56460855D01*
X60884299Y-56300630D01*
X60867888Y-56134000D01*
X60884299Y-55967370D01*
X60932903Y-55807145D01*
X61011831Y-55659480D01*
X61118051Y-55530051D01*
X61247480Y-55423831D01*
X61395145Y-55344903D01*
X61555370Y-55296299D01*
X61680248Y-55284000D01*
X61763752Y-55284000D01*
X61888630Y-55296299D01*
X61888630Y-55296299D01*
G37*
G36*
X72638000Y-56800000D02*
X71888000Y-56800000D01*
X71888000Y-56000000D01*
X72638000Y-56000000D01*
X72638000Y-56800000D01*
X72638000Y-56800000D01*
G37*
G36*
X49061630Y-53467499D02*
X49221855Y-53516103D01*
X49369520Y-53595031D01*
X49498949Y-53701251D01*
X49605169Y-53830680D01*
X49684097Y-53978345D01*
X49732701Y-54138570D01*
X49749112Y-54305200D01*
X49732701Y-54471830D01*
X49684097Y-54632055D01*
X49605169Y-54779720D01*
X49498949Y-54909149D01*
X49369520Y-55015369D01*
X49221855Y-55094297D01*
X49061630Y-55142901D01*
X48936752Y-55155200D01*
X48853248Y-55155200D01*
X48728370Y-55142901D01*
X48568145Y-55094297D01*
X48420480Y-55015369D01*
X48291051Y-54909149D01*
X48184831Y-54779720D01*
X48105903Y-54632055D01*
X48057299Y-54471830D01*
X48040888Y-54305200D01*
X48057299Y-54138570D01*
X48105903Y-53978345D01*
X48184831Y-53830680D01*
X48291051Y-53701251D01*
X48420480Y-53595031D01*
X48568145Y-53516103D01*
X48728370Y-53467499D01*
X48853248Y-53455200D01*
X48936752Y-53455200D01*
X49061630Y-53467499D01*
X49061630Y-53467499D01*
G37*
G36*
X61888630Y-52756299D02*
X62048855Y-52804903D01*
X62196520Y-52883831D01*
X62325949Y-52990051D01*
X62432169Y-53119480D01*
X62511097Y-53267145D01*
X62559701Y-53427370D01*
X62576112Y-53594000D01*
X62559701Y-53760630D01*
X62511097Y-53920855D01*
X62432169Y-54068520D01*
X62325949Y-54197949D01*
X62196520Y-54304169D01*
X62048855Y-54383097D01*
X61888630Y-54431701D01*
X61763752Y-54444000D01*
X61680248Y-54444000D01*
X61555370Y-54431701D01*
X61395145Y-54383097D01*
X61247480Y-54304169D01*
X61118051Y-54197949D01*
X61011831Y-54068520D01*
X60932903Y-53920855D01*
X60884299Y-53760630D01*
X60867888Y-53594000D01*
X60884299Y-53427370D01*
X60932903Y-53267145D01*
X61011831Y-53119480D01*
X61118051Y-52990051D01*
X61247480Y-52883831D01*
X61395145Y-52804903D01*
X61555370Y-52756299D01*
X61680248Y-52744000D01*
X61763752Y-52744000D01*
X61888630Y-52756299D01*
X61888630Y-52756299D01*
G37*
G36*
X49061630Y-50927499D02*
X49221855Y-50976103D01*
X49369520Y-51055031D01*
X49498949Y-51161251D01*
X49605169Y-51290680D01*
X49684097Y-51438345D01*
X49732701Y-51598570D01*
X49749112Y-51765200D01*
X49732701Y-51931830D01*
X49684097Y-52092055D01*
X49605169Y-52239720D01*
X49498949Y-52369149D01*
X49369520Y-52475369D01*
X49221855Y-52554297D01*
X49061630Y-52602901D01*
X48936752Y-52615200D01*
X48853248Y-52615200D01*
X48728370Y-52602901D01*
X48568145Y-52554297D01*
X48420480Y-52475369D01*
X48291051Y-52369149D01*
X48184831Y-52239720D01*
X48105903Y-52092055D01*
X48057299Y-51931830D01*
X48040888Y-51765200D01*
X48057299Y-51598570D01*
X48105903Y-51438345D01*
X48184831Y-51290680D01*
X48291051Y-51161251D01*
X48420480Y-51055031D01*
X48568145Y-50976103D01*
X48728370Y-50927499D01*
X48853248Y-50915200D01*
X48936752Y-50915200D01*
X49061630Y-50927499D01*
X49061630Y-50927499D01*
G37*
G36*
X54237000Y-52139000D02*
X53737000Y-52139000D01*
X53737000Y-51239000D01*
X54237000Y-51239000D01*
X54237000Y-52139000D01*
X54237000Y-52139000D01*
G37*
G36*
X55737000Y-52139000D02*
X55237000Y-52139000D01*
X55237000Y-51239000D01*
X55737000Y-51239000D01*
X55737000Y-52139000D01*
X55737000Y-52139000D01*
G37*
G36*
X61888630Y-50216299D02*
X62048855Y-50264903D01*
X62196520Y-50343831D01*
X62325949Y-50450051D01*
X62432169Y-50579480D01*
X62511097Y-50727145D01*
X62559701Y-50887370D01*
X62576112Y-51054000D01*
X62559701Y-51220630D01*
X62511097Y-51380855D01*
X62432169Y-51528520D01*
X62325949Y-51657949D01*
X62196520Y-51764169D01*
X62048855Y-51843097D01*
X61888630Y-51891701D01*
X61763752Y-51904000D01*
X61680248Y-51904000D01*
X61555370Y-51891701D01*
X61395145Y-51843097D01*
X61247480Y-51764169D01*
X61118051Y-51657949D01*
X61011831Y-51528520D01*
X60932903Y-51380855D01*
X60884299Y-51220630D01*
X60867888Y-51054000D01*
X60884299Y-50887370D01*
X60932903Y-50727145D01*
X61011831Y-50579480D01*
X61118051Y-50450051D01*
X61247480Y-50343831D01*
X61395145Y-50264903D01*
X61555370Y-50216299D01*
X61680248Y-50204000D01*
X61763752Y-50204000D01*
X61888630Y-50216299D01*
X61888630Y-50216299D01*
G37*
G36*
X94536211Y-50307868D02*
X92986211Y-50307868D01*
X92986211Y-47907868D01*
X94536211Y-47907868D01*
X94536211Y-50307868D01*
X94536211Y-50307868D01*
G37*
G36*
X92536211Y-50257868D02*
X91886211Y-50257868D01*
X91886211Y-49907868D01*
X92536211Y-49907868D01*
X92536211Y-50257868D01*
X92536211Y-50257868D01*
G37*
G36*
X95636211Y-50257868D02*
X94986211Y-50257868D01*
X94986211Y-49907868D01*
X95636211Y-49907868D01*
X95636211Y-50257868D01*
X95636211Y-50257868D01*
G37*
G36*
X49745000Y-50075200D02*
X48045000Y-50075200D01*
X48045000Y-48375200D01*
X49745000Y-48375200D01*
X49745000Y-50075200D01*
X49745000Y-50075200D01*
G37*
G36*
X89070211Y-49811868D02*
X88570211Y-49811868D01*
X88570211Y-48911868D01*
X89070211Y-48911868D01*
X89070211Y-49811868D01*
X89070211Y-49811868D01*
G37*
G36*
X90570211Y-49811868D02*
X90070211Y-49811868D01*
X90070211Y-48911868D01*
X90570211Y-48911868D01*
X90570211Y-49811868D01*
X90570211Y-49811868D01*
G37*
G36*
X54337000Y-49803000D02*
X53537000Y-49803000D01*
X53537000Y-49003000D01*
X54337000Y-49003000D01*
X54337000Y-49803000D01*
X54337000Y-49803000D01*
G37*
G36*
X55937000Y-49803000D02*
X55137000Y-49803000D01*
X55137000Y-49003000D01*
X55937000Y-49003000D01*
X55937000Y-49803000D01*
X55937000Y-49803000D01*
G37*
G36*
X92536211Y-49607868D02*
X91886211Y-49607868D01*
X91886211Y-49257868D01*
X92536211Y-49257868D01*
X92536211Y-49607868D01*
X92536211Y-49607868D01*
G37*
G36*
X95636211Y-49607868D02*
X94986211Y-49607868D01*
X94986211Y-49257868D01*
X95636211Y-49257868D01*
X95636211Y-49607868D01*
X95636211Y-49607868D01*
G37*
G36*
X95636211Y-48957868D02*
X94986211Y-48957868D01*
X94986211Y-48607868D01*
X95636211Y-48607868D01*
X95636211Y-48957868D01*
X95636211Y-48957868D01*
G37*
G36*
X92536211Y-48957868D02*
X91886211Y-48957868D01*
X91886211Y-48607868D01*
X92536211Y-48607868D01*
X92536211Y-48957868D01*
X92536211Y-48957868D01*
G37*
G36*
X99229211Y-48466868D02*
X98429211Y-48466868D01*
X98429211Y-47716868D01*
X99229211Y-47716868D01*
X99229211Y-48466868D01*
X99229211Y-48466868D01*
G37*
G36*
X97729211Y-48466868D02*
X96929211Y-48466868D01*
X96929211Y-47716868D01*
X97729211Y-47716868D01*
X97729211Y-48466868D01*
X97729211Y-48466868D01*
G37*
G36*
X95636211Y-48307868D02*
X94986211Y-48307868D01*
X94986211Y-47957868D01*
X95636211Y-47957868D01*
X95636211Y-48307868D01*
X95636211Y-48307868D01*
G37*
G36*
X92536211Y-48307868D02*
X91886211Y-48307868D01*
X91886211Y-47957868D01*
X92536211Y-47957868D01*
X92536211Y-48307868D01*
X92536211Y-48307868D01*
G37*
G36*
X90570211Y-48033868D02*
X90070211Y-48033868D01*
X90070211Y-47133868D01*
X90570211Y-47133868D01*
X90570211Y-48033868D01*
X90570211Y-48033868D01*
G37*
G36*
X89070211Y-48033868D02*
X88570211Y-48033868D01*
X88570211Y-47133868D01*
X89070211Y-47133868D01*
X89070211Y-48033868D01*
X89070211Y-48033868D01*
G37*
G36*
X48104599Y-39079421D02*
X48304237Y-39119131D01*
X48868401Y-39352815D01*
X49376135Y-39692072D01*
X49807928Y-40123865D01*
X50147185Y-40631599D01*
X50366920Y-41162088D01*
X50380869Y-41195764D01*
X50500000Y-41794675D01*
X50500000Y-42405325D01*
X50430169Y-42756388D01*
X50380869Y-43004237D01*
X50147185Y-43568401D01*
X49807928Y-44076135D01*
X49376135Y-44507928D01*
X48868401Y-44847185D01*
X48304237Y-45080869D01*
X48104599Y-45120579D01*
X47705325Y-45200000D01*
X47094675Y-45200000D01*
X46695401Y-45120579D01*
X46495763Y-45080869D01*
X45931599Y-44847185D01*
X45423865Y-44507928D01*
X44992072Y-44076135D01*
X44652815Y-43568401D01*
X44419131Y-43004237D01*
X44369831Y-42756388D01*
X44300000Y-42405325D01*
X44300000Y-41794675D01*
X44419131Y-41195764D01*
X44433080Y-41162088D01*
X44652815Y-40631599D01*
X44992072Y-40123865D01*
X45423865Y-39692072D01*
X45931599Y-39352815D01*
X46495763Y-39119131D01*
X46695401Y-39079421D01*
X47094675Y-39000000D01*
X47705325Y-39000000D01*
X48104599Y-39079421D01*
X48104599Y-39079421D01*
G37*
G36*
X106104599Y-39079421D02*
X106304237Y-39119131D01*
X106868401Y-39352815D01*
X107376135Y-39692072D01*
X107807928Y-40123865D01*
X108147185Y-40631599D01*
X108366920Y-41162088D01*
X108380869Y-41195764D01*
X108500000Y-41794675D01*
X108500000Y-42405325D01*
X108430169Y-42756388D01*
X108380869Y-43004237D01*
X108147185Y-43568401D01*
X107807928Y-44076135D01*
X107376135Y-44507928D01*
X106868401Y-44847185D01*
X106304237Y-45080869D01*
X106104599Y-45120579D01*
X105705325Y-45200000D01*
X105094675Y-45200000D01*
X104695401Y-45120579D01*
X104495763Y-45080869D01*
X103931599Y-44847185D01*
X103423865Y-44507928D01*
X102992072Y-44076135D01*
X102652815Y-43568401D01*
X102419131Y-43004237D01*
X102369831Y-42756388D01*
X102300000Y-42405325D01*
X102300000Y-41794675D01*
X102419131Y-41195764D01*
X102433080Y-41162088D01*
X102652815Y-40631599D01*
X102992072Y-40123865D01*
X103423865Y-39692072D01*
X103931599Y-39352815D01*
X104495763Y-39119131D01*
X104695401Y-39079421D01*
X105094675Y-39000000D01*
X105705325Y-39000000D01*
X106104599Y-39079421D01*
X106104599Y-39079421D01*
G37*
G36*
X87914712Y-42510565D02*
X87999295Y-42518896D01*
X88119727Y-42555429D01*
X88162088Y-42568279D01*
X88312112Y-42648468D01*
X88443612Y-42756388D01*
X88551532Y-42887888D01*
X88631721Y-43037912D01*
X88631722Y-43037916D01*
X88681104Y-43200705D01*
X88697778Y-43370000D01*
X88681104Y-43539295D01*
X88644571Y-43659727D01*
X88631721Y-43702088D01*
X88551532Y-43852112D01*
X88443612Y-43983612D01*
X88312112Y-44091532D01*
X88162088Y-44171721D01*
X88119727Y-44184571D01*
X87999295Y-44221104D01*
X87914712Y-44229435D01*
X87872421Y-44233600D01*
X87787579Y-44233600D01*
X87745288Y-44229435D01*
X87660705Y-44221104D01*
X87540273Y-44184571D01*
X87497912Y-44171721D01*
X87347888Y-44091532D01*
X87216388Y-43983612D01*
X87108468Y-43852112D01*
X87028279Y-43702088D01*
X87015429Y-43659727D01*
X86978896Y-43539295D01*
X86962222Y-43370000D01*
X86978896Y-43200705D01*
X87028278Y-43037916D01*
X87028279Y-43037912D01*
X87108468Y-42887888D01*
X87216388Y-42756388D01*
X87347888Y-42648468D01*
X87497912Y-42568279D01*
X87540273Y-42555429D01*
X87660705Y-42518896D01*
X87745288Y-42510565D01*
X87787579Y-42506400D01*
X87872421Y-42506400D01*
X87914712Y-42510565D01*
X87914712Y-42510565D01*
G37*
G36*
X85374712Y-42510565D02*
X85459295Y-42518896D01*
X85579727Y-42555429D01*
X85622088Y-42568279D01*
X85772112Y-42648468D01*
X85903612Y-42756388D01*
X86011532Y-42887888D01*
X86091721Y-43037912D01*
X86091722Y-43037916D01*
X86141104Y-43200705D01*
X86157778Y-43370000D01*
X86141104Y-43539295D01*
X86104571Y-43659727D01*
X86091721Y-43702088D01*
X86011532Y-43852112D01*
X85903612Y-43983612D01*
X85772112Y-44091532D01*
X85622088Y-44171721D01*
X85579727Y-44184571D01*
X85459295Y-44221104D01*
X85374712Y-44229435D01*
X85332421Y-44233600D01*
X85247579Y-44233600D01*
X85205288Y-44229435D01*
X85120705Y-44221104D01*
X85000273Y-44184571D01*
X84957912Y-44171721D01*
X84807888Y-44091532D01*
X84676388Y-43983612D01*
X84568468Y-43852112D01*
X84488279Y-43702088D01*
X84475429Y-43659727D01*
X84438896Y-43539295D01*
X84422222Y-43370000D01*
X84438896Y-43200705D01*
X84488278Y-43037916D01*
X84488279Y-43037912D01*
X84568468Y-42887888D01*
X84676388Y-42756388D01*
X84807888Y-42648468D01*
X84957912Y-42568279D01*
X85000273Y-42555429D01*
X85120705Y-42518896D01*
X85205288Y-42510565D01*
X85247579Y-42506400D01*
X85332421Y-42506400D01*
X85374712Y-42510565D01*
X85374712Y-42510565D01*
G37*
G36*
X80294712Y-42510565D02*
X80379295Y-42518896D01*
X80499727Y-42555429D01*
X80542088Y-42568279D01*
X80692112Y-42648468D01*
X80823612Y-42756388D01*
X80931532Y-42887888D01*
X81011721Y-43037912D01*
X81011722Y-43037916D01*
X81061104Y-43200705D01*
X81077778Y-43370000D01*
X81061104Y-43539295D01*
X81024571Y-43659727D01*
X81011721Y-43702088D01*
X80931532Y-43852112D01*
X80823612Y-43983612D01*
X80692112Y-44091532D01*
X80542088Y-44171721D01*
X80499727Y-44184571D01*
X80379295Y-44221104D01*
X80294712Y-44229435D01*
X80252421Y-44233600D01*
X80167579Y-44233600D01*
X80125288Y-44229435D01*
X80040705Y-44221104D01*
X79920273Y-44184571D01*
X79877912Y-44171721D01*
X79727888Y-44091532D01*
X79596388Y-43983612D01*
X79488468Y-43852112D01*
X79408279Y-43702088D01*
X79395429Y-43659727D01*
X79358896Y-43539295D01*
X79342222Y-43370000D01*
X79358896Y-43200705D01*
X79408278Y-43037916D01*
X79408279Y-43037912D01*
X79488468Y-42887888D01*
X79596388Y-42756388D01*
X79727888Y-42648468D01*
X79877912Y-42568279D01*
X79920273Y-42555429D01*
X80040705Y-42518896D01*
X80125288Y-42510565D01*
X80167579Y-42506400D01*
X80252421Y-42506400D01*
X80294712Y-42510565D01*
X80294712Y-42510565D01*
G37*
G36*
X77754712Y-42510565D02*
X77839295Y-42518896D01*
X77959727Y-42555429D01*
X78002088Y-42568279D01*
X78152112Y-42648468D01*
X78283612Y-42756388D01*
X78391532Y-42887888D01*
X78471721Y-43037912D01*
X78471722Y-43037916D01*
X78521104Y-43200705D01*
X78537778Y-43370000D01*
X78521104Y-43539295D01*
X78484571Y-43659727D01*
X78471721Y-43702088D01*
X78391532Y-43852112D01*
X78283612Y-43983612D01*
X78152112Y-44091532D01*
X78002088Y-44171721D01*
X77959727Y-44184571D01*
X77839295Y-44221104D01*
X77754712Y-44229435D01*
X77712421Y-44233600D01*
X77627579Y-44233600D01*
X77585288Y-44229435D01*
X77500705Y-44221104D01*
X77380273Y-44184571D01*
X77337912Y-44171721D01*
X77187888Y-44091532D01*
X77056388Y-43983612D01*
X76948468Y-43852112D01*
X76868279Y-43702088D01*
X76855429Y-43659727D01*
X76818896Y-43539295D01*
X76802222Y-43370000D01*
X76818896Y-43200705D01*
X76868278Y-43037916D01*
X76868279Y-43037912D01*
X76948468Y-42887888D01*
X77056388Y-42756388D01*
X77187888Y-42648468D01*
X77337912Y-42568279D01*
X77380273Y-42555429D01*
X77500705Y-42518896D01*
X77585288Y-42510565D01*
X77627579Y-42506400D01*
X77712421Y-42506400D01*
X77754712Y-42510565D01*
X77754712Y-42510565D01*
G37*
G36*
X53133600Y-44233600D02*
X51406400Y-44233600D01*
X51406400Y-42506400D01*
X53133600Y-42506400D01*
X53133600Y-44233600D01*
X53133600Y-44233600D01*
G37*
G36*
X75214712Y-42510565D02*
X75299295Y-42518896D01*
X75419727Y-42555429D01*
X75462088Y-42568279D01*
X75612112Y-42648468D01*
X75743612Y-42756388D01*
X75851532Y-42887888D01*
X75931721Y-43037912D01*
X75931722Y-43037916D01*
X75981104Y-43200705D01*
X75997778Y-43370000D01*
X75981104Y-43539295D01*
X75944571Y-43659727D01*
X75931721Y-43702088D01*
X75851532Y-43852112D01*
X75743612Y-43983612D01*
X75612112Y-44091532D01*
X75462088Y-44171721D01*
X75419727Y-44184571D01*
X75299295Y-44221104D01*
X75214712Y-44229435D01*
X75172421Y-44233600D01*
X75087579Y-44233600D01*
X75045288Y-44229435D01*
X74960705Y-44221104D01*
X74840273Y-44184571D01*
X74797912Y-44171721D01*
X74647888Y-44091532D01*
X74516388Y-43983612D01*
X74408468Y-43852112D01*
X74328279Y-43702088D01*
X74315429Y-43659727D01*
X74278896Y-43539295D01*
X74262222Y-43370000D01*
X74278896Y-43200705D01*
X74328278Y-43037916D01*
X74328279Y-43037912D01*
X74408468Y-42887888D01*
X74516388Y-42756388D01*
X74647888Y-42648468D01*
X74797912Y-42568279D01*
X74840273Y-42555429D01*
X74960705Y-42518896D01*
X75045288Y-42510565D01*
X75087579Y-42506400D01*
X75172421Y-42506400D01*
X75214712Y-42510565D01*
X75214712Y-42510565D01*
G37*
G36*
X72674712Y-42510565D02*
X72759295Y-42518896D01*
X72879727Y-42555429D01*
X72922088Y-42568279D01*
X73072112Y-42648468D01*
X73203612Y-42756388D01*
X73311532Y-42887888D01*
X73391721Y-43037912D01*
X73391722Y-43037916D01*
X73441104Y-43200705D01*
X73457778Y-43370000D01*
X73441104Y-43539295D01*
X73404571Y-43659727D01*
X73391721Y-43702088D01*
X73311532Y-43852112D01*
X73203612Y-43983612D01*
X73072112Y-44091532D01*
X72922088Y-44171721D01*
X72879727Y-44184571D01*
X72759295Y-44221104D01*
X72674712Y-44229435D01*
X72632421Y-44233600D01*
X72547579Y-44233600D01*
X72505288Y-44229435D01*
X72420705Y-44221104D01*
X72300273Y-44184571D01*
X72257912Y-44171721D01*
X72107888Y-44091532D01*
X71976388Y-43983612D01*
X71868468Y-43852112D01*
X71788279Y-43702088D01*
X71775429Y-43659727D01*
X71738896Y-43539295D01*
X71722222Y-43370000D01*
X71738896Y-43200705D01*
X71788278Y-43037916D01*
X71788279Y-43037912D01*
X71868468Y-42887888D01*
X71976388Y-42756388D01*
X72107888Y-42648468D01*
X72257912Y-42568279D01*
X72300273Y-42555429D01*
X72420705Y-42518896D01*
X72505288Y-42510565D01*
X72547579Y-42506400D01*
X72632421Y-42506400D01*
X72674712Y-42510565D01*
X72674712Y-42510565D01*
G37*
G36*
X70134712Y-42510565D02*
X70219295Y-42518896D01*
X70339727Y-42555429D01*
X70382088Y-42568279D01*
X70532112Y-42648468D01*
X70663612Y-42756388D01*
X70771532Y-42887888D01*
X70851721Y-43037912D01*
X70851722Y-43037916D01*
X70901104Y-43200705D01*
X70917778Y-43370000D01*
X70901104Y-43539295D01*
X70864571Y-43659727D01*
X70851721Y-43702088D01*
X70771532Y-43852112D01*
X70663612Y-43983612D01*
X70532112Y-44091532D01*
X70382088Y-44171721D01*
X70339727Y-44184571D01*
X70219295Y-44221104D01*
X70134712Y-44229435D01*
X70092421Y-44233600D01*
X70007579Y-44233600D01*
X69965288Y-44229435D01*
X69880705Y-44221104D01*
X69760273Y-44184571D01*
X69717912Y-44171721D01*
X69567888Y-44091532D01*
X69436388Y-43983612D01*
X69328468Y-43852112D01*
X69248279Y-43702088D01*
X69235429Y-43659727D01*
X69198896Y-43539295D01*
X69182222Y-43370000D01*
X69198896Y-43200705D01*
X69248278Y-43037916D01*
X69248279Y-43037912D01*
X69328468Y-42887888D01*
X69436388Y-42756388D01*
X69567888Y-42648468D01*
X69717912Y-42568279D01*
X69760273Y-42555429D01*
X69880705Y-42518896D01*
X69965288Y-42510565D01*
X70007579Y-42506400D01*
X70092421Y-42506400D01*
X70134712Y-42510565D01*
X70134712Y-42510565D01*
G37*
G36*
X67594712Y-42510565D02*
X67679295Y-42518896D01*
X67799727Y-42555429D01*
X67842088Y-42568279D01*
X67992112Y-42648468D01*
X68123612Y-42756388D01*
X68231532Y-42887888D01*
X68311721Y-43037912D01*
X68311722Y-43037916D01*
X68361104Y-43200705D01*
X68377778Y-43370000D01*
X68361104Y-43539295D01*
X68324571Y-43659727D01*
X68311721Y-43702088D01*
X68231532Y-43852112D01*
X68123612Y-43983612D01*
X67992112Y-44091532D01*
X67842088Y-44171721D01*
X67799727Y-44184571D01*
X67679295Y-44221104D01*
X67594712Y-44229435D01*
X67552421Y-44233600D01*
X67467579Y-44233600D01*
X67425288Y-44229435D01*
X67340705Y-44221104D01*
X67220273Y-44184571D01*
X67177912Y-44171721D01*
X67027888Y-44091532D01*
X66896388Y-43983612D01*
X66788468Y-43852112D01*
X66708279Y-43702088D01*
X66695429Y-43659727D01*
X66658896Y-43539295D01*
X66642222Y-43370000D01*
X66658896Y-43200705D01*
X66708278Y-43037916D01*
X66708279Y-43037912D01*
X66788468Y-42887888D01*
X66896388Y-42756388D01*
X67027888Y-42648468D01*
X67177912Y-42568279D01*
X67220273Y-42555429D01*
X67340705Y-42518896D01*
X67425288Y-42510565D01*
X67467579Y-42506400D01*
X67552421Y-42506400D01*
X67594712Y-42510565D01*
X67594712Y-42510565D01*
G37*
G36*
X65054712Y-42510565D02*
X65139295Y-42518896D01*
X65259727Y-42555429D01*
X65302088Y-42568279D01*
X65452112Y-42648468D01*
X65583612Y-42756388D01*
X65691532Y-42887888D01*
X65771721Y-43037912D01*
X65771722Y-43037916D01*
X65821104Y-43200705D01*
X65837778Y-43370000D01*
X65821104Y-43539295D01*
X65784571Y-43659727D01*
X65771721Y-43702088D01*
X65691532Y-43852112D01*
X65583612Y-43983612D01*
X65452112Y-44091532D01*
X65302088Y-44171721D01*
X65259727Y-44184571D01*
X65139295Y-44221104D01*
X65054712Y-44229435D01*
X65012421Y-44233600D01*
X64927579Y-44233600D01*
X64885288Y-44229435D01*
X64800705Y-44221104D01*
X64680273Y-44184571D01*
X64637912Y-44171721D01*
X64487888Y-44091532D01*
X64356388Y-43983612D01*
X64248468Y-43852112D01*
X64168279Y-43702088D01*
X64155429Y-43659727D01*
X64118896Y-43539295D01*
X64102222Y-43370000D01*
X64118896Y-43200705D01*
X64168278Y-43037916D01*
X64168279Y-43037912D01*
X64248468Y-42887888D01*
X64356388Y-42756388D01*
X64487888Y-42648468D01*
X64637912Y-42568279D01*
X64680273Y-42555429D01*
X64800705Y-42518896D01*
X64885288Y-42510565D01*
X64927579Y-42506400D01*
X65012421Y-42506400D01*
X65054712Y-42510565D01*
X65054712Y-42510565D01*
G37*
G36*
X92994712Y-42510565D02*
X93079295Y-42518896D01*
X93199727Y-42555429D01*
X93242088Y-42568279D01*
X93392112Y-42648468D01*
X93523612Y-42756388D01*
X93631532Y-42887888D01*
X93711721Y-43037912D01*
X93711722Y-43037916D01*
X93761104Y-43200705D01*
X93777778Y-43370000D01*
X93761104Y-43539295D01*
X93724571Y-43659727D01*
X93711721Y-43702088D01*
X93631532Y-43852112D01*
X93523612Y-43983612D01*
X93392112Y-44091532D01*
X93242088Y-44171721D01*
X93199727Y-44184571D01*
X93079295Y-44221104D01*
X92994712Y-44229435D01*
X92952421Y-44233600D01*
X92867579Y-44233600D01*
X92825288Y-44229435D01*
X92740705Y-44221104D01*
X92620273Y-44184571D01*
X92577912Y-44171721D01*
X92427888Y-44091532D01*
X92296388Y-43983612D01*
X92188468Y-43852112D01*
X92108279Y-43702088D01*
X92095429Y-43659727D01*
X92058896Y-43539295D01*
X92042222Y-43370000D01*
X92058896Y-43200705D01*
X92108278Y-43037916D01*
X92108279Y-43037912D01*
X92188468Y-42887888D01*
X92296388Y-42756388D01*
X92427888Y-42648468D01*
X92577912Y-42568279D01*
X92620273Y-42555429D01*
X92740705Y-42518896D01*
X92825288Y-42510565D01*
X92867579Y-42506400D01*
X92952421Y-42506400D01*
X92994712Y-42510565D01*
X92994712Y-42510565D01*
G37*
G36*
X90454712Y-42510565D02*
X90539295Y-42518896D01*
X90659727Y-42555429D01*
X90702088Y-42568279D01*
X90852112Y-42648468D01*
X90983612Y-42756388D01*
X91091532Y-42887888D01*
X91171721Y-43037912D01*
X91171722Y-43037916D01*
X91221104Y-43200705D01*
X91237778Y-43370000D01*
X91221104Y-43539295D01*
X91184571Y-43659727D01*
X91171721Y-43702088D01*
X91091532Y-43852112D01*
X90983612Y-43983612D01*
X90852112Y-44091532D01*
X90702088Y-44171721D01*
X90659727Y-44184571D01*
X90539295Y-44221104D01*
X90454712Y-44229435D01*
X90412421Y-44233600D01*
X90327579Y-44233600D01*
X90285288Y-44229435D01*
X90200705Y-44221104D01*
X90080273Y-44184571D01*
X90037912Y-44171721D01*
X89887888Y-44091532D01*
X89756388Y-43983612D01*
X89648468Y-43852112D01*
X89568279Y-43702088D01*
X89555429Y-43659727D01*
X89518896Y-43539295D01*
X89502222Y-43370000D01*
X89518896Y-43200705D01*
X89568278Y-43037916D01*
X89568279Y-43037912D01*
X89648468Y-42887888D01*
X89756388Y-42756388D01*
X89887888Y-42648468D01*
X90037912Y-42568279D01*
X90080273Y-42555429D01*
X90200705Y-42518896D01*
X90285288Y-42510565D01*
X90327579Y-42506400D01*
X90412421Y-42506400D01*
X90454712Y-42510565D01*
X90454712Y-42510565D01*
G37*
G36*
X62514712Y-42510565D02*
X62599295Y-42518896D01*
X62719727Y-42555429D01*
X62762088Y-42568279D01*
X62912112Y-42648468D01*
X63043612Y-42756388D01*
X63151532Y-42887888D01*
X63231721Y-43037912D01*
X63231722Y-43037916D01*
X63281104Y-43200705D01*
X63297778Y-43370000D01*
X63281104Y-43539295D01*
X63244571Y-43659727D01*
X63231721Y-43702088D01*
X63151532Y-43852112D01*
X63043612Y-43983612D01*
X62912112Y-44091532D01*
X62762088Y-44171721D01*
X62719727Y-44184571D01*
X62599295Y-44221104D01*
X62514712Y-44229435D01*
X62472421Y-44233600D01*
X62387579Y-44233600D01*
X62345288Y-44229435D01*
X62260705Y-44221104D01*
X62140273Y-44184571D01*
X62097912Y-44171721D01*
X61947888Y-44091532D01*
X61816388Y-43983612D01*
X61708468Y-43852112D01*
X61628279Y-43702088D01*
X61615429Y-43659727D01*
X61578896Y-43539295D01*
X61562222Y-43370000D01*
X61578896Y-43200705D01*
X61628278Y-43037916D01*
X61628279Y-43037912D01*
X61708468Y-42887888D01*
X61816388Y-42756388D01*
X61947888Y-42648468D01*
X62097912Y-42568279D01*
X62140273Y-42555429D01*
X62260705Y-42518896D01*
X62345288Y-42510565D01*
X62387579Y-42506400D01*
X62472421Y-42506400D01*
X62514712Y-42510565D01*
X62514712Y-42510565D01*
G37*
G36*
X82834712Y-42510565D02*
X82919295Y-42518896D01*
X83039727Y-42555429D01*
X83082088Y-42568279D01*
X83232112Y-42648468D01*
X83363612Y-42756388D01*
X83471532Y-42887888D01*
X83551721Y-43037912D01*
X83551722Y-43037916D01*
X83601104Y-43200705D01*
X83617778Y-43370000D01*
X83601104Y-43539295D01*
X83564571Y-43659727D01*
X83551721Y-43702088D01*
X83471532Y-43852112D01*
X83363612Y-43983612D01*
X83232112Y-44091532D01*
X83082088Y-44171721D01*
X83039727Y-44184571D01*
X82919295Y-44221104D01*
X82834712Y-44229435D01*
X82792421Y-44233600D01*
X82707579Y-44233600D01*
X82665288Y-44229435D01*
X82580705Y-44221104D01*
X82460273Y-44184571D01*
X82417912Y-44171721D01*
X82267888Y-44091532D01*
X82136388Y-43983612D01*
X82028468Y-43852112D01*
X81948279Y-43702088D01*
X81935429Y-43659727D01*
X81898896Y-43539295D01*
X81882222Y-43370000D01*
X81898896Y-43200705D01*
X81948278Y-43037916D01*
X81948279Y-43037912D01*
X82028468Y-42887888D01*
X82136388Y-42756388D01*
X82267888Y-42648468D01*
X82417912Y-42568279D01*
X82460273Y-42555429D01*
X82580705Y-42518896D01*
X82665288Y-42510565D01*
X82707579Y-42506400D01*
X82792421Y-42506400D01*
X82834712Y-42510565D01*
X82834712Y-42510565D01*
G37*
G36*
X59974712Y-42510565D02*
X60059295Y-42518896D01*
X60179727Y-42555429D01*
X60222088Y-42568279D01*
X60372112Y-42648468D01*
X60503612Y-42756388D01*
X60611532Y-42887888D01*
X60691721Y-43037912D01*
X60691722Y-43037916D01*
X60741104Y-43200705D01*
X60757778Y-43370000D01*
X60741104Y-43539295D01*
X60704571Y-43659727D01*
X60691721Y-43702088D01*
X60611532Y-43852112D01*
X60503612Y-43983612D01*
X60372112Y-44091532D01*
X60222088Y-44171721D01*
X60179727Y-44184571D01*
X60059295Y-44221104D01*
X59974712Y-44229435D01*
X59932421Y-44233600D01*
X59847579Y-44233600D01*
X59805288Y-44229435D01*
X59720705Y-44221104D01*
X59600273Y-44184571D01*
X59557912Y-44171721D01*
X59407888Y-44091532D01*
X59276388Y-43983612D01*
X59168468Y-43852112D01*
X59088279Y-43702088D01*
X59075429Y-43659727D01*
X59038896Y-43539295D01*
X59022222Y-43370000D01*
X59038896Y-43200705D01*
X59088278Y-43037916D01*
X59088279Y-43037912D01*
X59168468Y-42887888D01*
X59276388Y-42756388D01*
X59407888Y-42648468D01*
X59557912Y-42568279D01*
X59600273Y-42555429D01*
X59720705Y-42518896D01*
X59805288Y-42510565D01*
X59847579Y-42506400D01*
X59932421Y-42506400D01*
X59974712Y-42510565D01*
X59974712Y-42510565D01*
G37*
G36*
X57434712Y-42510565D02*
X57519295Y-42518896D01*
X57639727Y-42555429D01*
X57682088Y-42568279D01*
X57832112Y-42648468D01*
X57963612Y-42756388D01*
X58071532Y-42887888D01*
X58151721Y-43037912D01*
X58151722Y-43037916D01*
X58201104Y-43200705D01*
X58217778Y-43370000D01*
X58201104Y-43539295D01*
X58164571Y-43659727D01*
X58151721Y-43702088D01*
X58071532Y-43852112D01*
X57963612Y-43983612D01*
X57832112Y-44091532D01*
X57682088Y-44171721D01*
X57639727Y-44184571D01*
X57519295Y-44221104D01*
X57434712Y-44229435D01*
X57392421Y-44233600D01*
X57307579Y-44233600D01*
X57265288Y-44229435D01*
X57180705Y-44221104D01*
X57060273Y-44184571D01*
X57017912Y-44171721D01*
X56867888Y-44091532D01*
X56736388Y-43983612D01*
X56628468Y-43852112D01*
X56548279Y-43702088D01*
X56535429Y-43659727D01*
X56498896Y-43539295D01*
X56482222Y-43370000D01*
X56498896Y-43200705D01*
X56548278Y-43037916D01*
X56548279Y-43037912D01*
X56628468Y-42887888D01*
X56736388Y-42756388D01*
X56867888Y-42648468D01*
X57017912Y-42568279D01*
X57060273Y-42555429D01*
X57180705Y-42518896D01*
X57265288Y-42510565D01*
X57307579Y-42506400D01*
X57392421Y-42506400D01*
X57434712Y-42510565D01*
X57434712Y-42510565D01*
G37*
G36*
X54894712Y-42510565D02*
X54979295Y-42518896D01*
X55099727Y-42555429D01*
X55142088Y-42568279D01*
X55292112Y-42648468D01*
X55423612Y-42756388D01*
X55531532Y-42887888D01*
X55611721Y-43037912D01*
X55611722Y-43037916D01*
X55661104Y-43200705D01*
X55677778Y-43370000D01*
X55661104Y-43539295D01*
X55624571Y-43659727D01*
X55611721Y-43702088D01*
X55531532Y-43852112D01*
X55423612Y-43983612D01*
X55292112Y-44091532D01*
X55142088Y-44171721D01*
X55099727Y-44184571D01*
X54979295Y-44221104D01*
X54894712Y-44229435D01*
X54852421Y-44233600D01*
X54767579Y-44233600D01*
X54725288Y-44229435D01*
X54640705Y-44221104D01*
X54520273Y-44184571D01*
X54477912Y-44171721D01*
X54327888Y-44091532D01*
X54196388Y-43983612D01*
X54088468Y-43852112D01*
X54008279Y-43702088D01*
X53995429Y-43659727D01*
X53958896Y-43539295D01*
X53942222Y-43370000D01*
X53958896Y-43200705D01*
X54008278Y-43037916D01*
X54008279Y-43037912D01*
X54088468Y-42887888D01*
X54196388Y-42756388D01*
X54327888Y-42648468D01*
X54477912Y-42568279D01*
X54520273Y-42555429D01*
X54640705Y-42518896D01*
X54725288Y-42510565D01*
X54767579Y-42506400D01*
X54852421Y-42506400D01*
X54894712Y-42510565D01*
X54894712Y-42510565D01*
G37*
G36*
X100614712Y-42510565D02*
X100699295Y-42518896D01*
X100819727Y-42555429D01*
X100862088Y-42568279D01*
X101012112Y-42648468D01*
X101143612Y-42756388D01*
X101251532Y-42887888D01*
X101331721Y-43037912D01*
X101331722Y-43037916D01*
X101381104Y-43200705D01*
X101397778Y-43370000D01*
X101381104Y-43539295D01*
X101344571Y-43659727D01*
X101331721Y-43702088D01*
X101251532Y-43852112D01*
X101143612Y-43983612D01*
X101012112Y-44091532D01*
X100862088Y-44171721D01*
X100819727Y-44184571D01*
X100699295Y-44221104D01*
X100614712Y-44229435D01*
X100572421Y-44233600D01*
X100487579Y-44233600D01*
X100445288Y-44229435D01*
X100360705Y-44221104D01*
X100240273Y-44184571D01*
X100197912Y-44171721D01*
X100047888Y-44091532D01*
X99916388Y-43983612D01*
X99808468Y-43852112D01*
X99728279Y-43702088D01*
X99715429Y-43659727D01*
X99678896Y-43539295D01*
X99662222Y-43370000D01*
X99678896Y-43200705D01*
X99728278Y-43037916D01*
X99728279Y-43037912D01*
X99808468Y-42887888D01*
X99916388Y-42756388D01*
X100047888Y-42648468D01*
X100197912Y-42568279D01*
X100240273Y-42555429D01*
X100360705Y-42518896D01*
X100445288Y-42510565D01*
X100487579Y-42506400D01*
X100572421Y-42506400D01*
X100614712Y-42510565D01*
X100614712Y-42510565D01*
G37*
G36*
X98074712Y-42510565D02*
X98159295Y-42518896D01*
X98279727Y-42555429D01*
X98322088Y-42568279D01*
X98472112Y-42648468D01*
X98603612Y-42756388D01*
X98711532Y-42887888D01*
X98791721Y-43037912D01*
X98791722Y-43037916D01*
X98841104Y-43200705D01*
X98857778Y-43370000D01*
X98841104Y-43539295D01*
X98804571Y-43659727D01*
X98791721Y-43702088D01*
X98711532Y-43852112D01*
X98603612Y-43983612D01*
X98472112Y-44091532D01*
X98322088Y-44171721D01*
X98279727Y-44184571D01*
X98159295Y-44221104D01*
X98074712Y-44229435D01*
X98032421Y-44233600D01*
X97947579Y-44233600D01*
X97905288Y-44229435D01*
X97820705Y-44221104D01*
X97700273Y-44184571D01*
X97657912Y-44171721D01*
X97507888Y-44091532D01*
X97376388Y-43983612D01*
X97268468Y-43852112D01*
X97188279Y-43702088D01*
X97175429Y-43659727D01*
X97138896Y-43539295D01*
X97122222Y-43370000D01*
X97138896Y-43200705D01*
X97188278Y-43037916D01*
X97188279Y-43037912D01*
X97268468Y-42887888D01*
X97376388Y-42756388D01*
X97507888Y-42648468D01*
X97657912Y-42568279D01*
X97700273Y-42555429D01*
X97820705Y-42518896D01*
X97905288Y-42510565D01*
X97947579Y-42506400D01*
X98032421Y-42506400D01*
X98074712Y-42510565D01*
X98074712Y-42510565D01*
G37*
G36*
X95534712Y-42510565D02*
X95619295Y-42518896D01*
X95739727Y-42555429D01*
X95782088Y-42568279D01*
X95932112Y-42648468D01*
X96063612Y-42756388D01*
X96171532Y-42887888D01*
X96251721Y-43037912D01*
X96251722Y-43037916D01*
X96301104Y-43200705D01*
X96317778Y-43370000D01*
X96301104Y-43539295D01*
X96264571Y-43659727D01*
X96251721Y-43702088D01*
X96171532Y-43852112D01*
X96063612Y-43983612D01*
X95932112Y-44091532D01*
X95782088Y-44171721D01*
X95739727Y-44184571D01*
X95619295Y-44221104D01*
X95534712Y-44229435D01*
X95492421Y-44233600D01*
X95407579Y-44233600D01*
X95365288Y-44229435D01*
X95280705Y-44221104D01*
X95160273Y-44184571D01*
X95117912Y-44171721D01*
X94967888Y-44091532D01*
X94836388Y-43983612D01*
X94728468Y-43852112D01*
X94648279Y-43702088D01*
X94635429Y-43659727D01*
X94598896Y-43539295D01*
X94582222Y-43370000D01*
X94598896Y-43200705D01*
X94648278Y-43037916D01*
X94648279Y-43037912D01*
X94728468Y-42887888D01*
X94836388Y-42756388D01*
X94967888Y-42648468D01*
X95117912Y-42568279D01*
X95160273Y-42555429D01*
X95280705Y-42518896D01*
X95365288Y-42510565D01*
X95407579Y-42506400D01*
X95492421Y-42506400D01*
X95534712Y-42510565D01*
X95534712Y-42510565D01*
G37*
G36*
X80294712Y-39970565D02*
X80379295Y-39978896D01*
X80499727Y-40015429D01*
X80542088Y-40028279D01*
X80692112Y-40108468D01*
X80823612Y-40216388D01*
X80931532Y-40347888D01*
X81011721Y-40497912D01*
X81011722Y-40497916D01*
X81061104Y-40660705D01*
X81077778Y-40830000D01*
X81061104Y-40999295D01*
X81024571Y-41119727D01*
X81011721Y-41162088D01*
X80931532Y-41312112D01*
X80823612Y-41443612D01*
X80692112Y-41551532D01*
X80542088Y-41631721D01*
X80499727Y-41644571D01*
X80379295Y-41681104D01*
X80294712Y-41689435D01*
X80252421Y-41693600D01*
X80167579Y-41693600D01*
X80125288Y-41689435D01*
X80040705Y-41681104D01*
X79920273Y-41644571D01*
X79877912Y-41631721D01*
X79727888Y-41551532D01*
X79596388Y-41443612D01*
X79488468Y-41312112D01*
X79408279Y-41162088D01*
X79395429Y-41119727D01*
X79358896Y-40999295D01*
X79342222Y-40830000D01*
X79358896Y-40660705D01*
X79408278Y-40497916D01*
X79408279Y-40497912D01*
X79488468Y-40347888D01*
X79596388Y-40216388D01*
X79727888Y-40108468D01*
X79877912Y-40028279D01*
X79920273Y-40015429D01*
X80040705Y-39978896D01*
X80125288Y-39970565D01*
X80167579Y-39966400D01*
X80252421Y-39966400D01*
X80294712Y-39970565D01*
X80294712Y-39970565D01*
G37*
G36*
X85374712Y-39970565D02*
X85459295Y-39978896D01*
X85579727Y-40015429D01*
X85622088Y-40028279D01*
X85772112Y-40108468D01*
X85903612Y-40216388D01*
X86011532Y-40347888D01*
X86091721Y-40497912D01*
X86091722Y-40497916D01*
X86141104Y-40660705D01*
X86157778Y-40830000D01*
X86141104Y-40999295D01*
X86104571Y-41119727D01*
X86091721Y-41162088D01*
X86011532Y-41312112D01*
X85903612Y-41443612D01*
X85772112Y-41551532D01*
X85622088Y-41631721D01*
X85579727Y-41644571D01*
X85459295Y-41681104D01*
X85374712Y-41689435D01*
X85332421Y-41693600D01*
X85247579Y-41693600D01*
X85205288Y-41689435D01*
X85120705Y-41681104D01*
X85000273Y-41644571D01*
X84957912Y-41631721D01*
X84807888Y-41551532D01*
X84676388Y-41443612D01*
X84568468Y-41312112D01*
X84488279Y-41162088D01*
X84475429Y-41119727D01*
X84438896Y-40999295D01*
X84422222Y-40830000D01*
X84438896Y-40660705D01*
X84488278Y-40497916D01*
X84488279Y-40497912D01*
X84568468Y-40347888D01*
X84676388Y-40216388D01*
X84807888Y-40108468D01*
X84957912Y-40028279D01*
X85000273Y-40015429D01*
X85120705Y-39978896D01*
X85205288Y-39970565D01*
X85247579Y-39966400D01*
X85332421Y-39966400D01*
X85374712Y-39970565D01*
X85374712Y-39970565D01*
G37*
G36*
X98074712Y-39970565D02*
X98159295Y-39978896D01*
X98279727Y-40015429D01*
X98322088Y-40028279D01*
X98472112Y-40108468D01*
X98603612Y-40216388D01*
X98711532Y-40347888D01*
X98791721Y-40497912D01*
X98791722Y-40497916D01*
X98841104Y-40660705D01*
X98857778Y-40830000D01*
X98841104Y-40999295D01*
X98804571Y-41119727D01*
X98791721Y-41162088D01*
X98711532Y-41312112D01*
X98603612Y-41443612D01*
X98472112Y-41551532D01*
X98322088Y-41631721D01*
X98279727Y-41644571D01*
X98159295Y-41681104D01*
X98074712Y-41689435D01*
X98032421Y-41693600D01*
X97947579Y-41693600D01*
X97905288Y-41689435D01*
X97820705Y-41681104D01*
X97700273Y-41644571D01*
X97657912Y-41631721D01*
X97507888Y-41551532D01*
X97376388Y-41443612D01*
X97268468Y-41312112D01*
X97188279Y-41162088D01*
X97175429Y-41119727D01*
X97138896Y-40999295D01*
X97122222Y-40830000D01*
X97138896Y-40660705D01*
X97188278Y-40497916D01*
X97188279Y-40497912D01*
X97268468Y-40347888D01*
X97376388Y-40216388D01*
X97507888Y-40108468D01*
X97657912Y-40028279D01*
X97700273Y-40015429D01*
X97820705Y-39978896D01*
X97905288Y-39970565D01*
X97947579Y-39966400D01*
X98032421Y-39966400D01*
X98074712Y-39970565D01*
X98074712Y-39970565D01*
G37*
G36*
X100614712Y-39970565D02*
X100699295Y-39978896D01*
X100819727Y-40015429D01*
X100862088Y-40028279D01*
X101012112Y-40108468D01*
X101143612Y-40216388D01*
X101251532Y-40347888D01*
X101331721Y-40497912D01*
X101331722Y-40497916D01*
X101381104Y-40660705D01*
X101397778Y-40830000D01*
X101381104Y-40999295D01*
X101344571Y-41119727D01*
X101331721Y-41162088D01*
X101251532Y-41312112D01*
X101143612Y-41443612D01*
X101012112Y-41551532D01*
X100862088Y-41631721D01*
X100819727Y-41644571D01*
X100699295Y-41681104D01*
X100614712Y-41689435D01*
X100572421Y-41693600D01*
X100487579Y-41693600D01*
X100445288Y-41689435D01*
X100360705Y-41681104D01*
X100240273Y-41644571D01*
X100197912Y-41631721D01*
X100047888Y-41551532D01*
X99916388Y-41443612D01*
X99808468Y-41312112D01*
X99728279Y-41162088D01*
X99715429Y-41119727D01*
X99678896Y-40999295D01*
X99662222Y-40830000D01*
X99678896Y-40660705D01*
X99728278Y-40497916D01*
X99728279Y-40497912D01*
X99808468Y-40347888D01*
X99916388Y-40216388D01*
X100047888Y-40108468D01*
X100197912Y-40028279D01*
X100240273Y-40015429D01*
X100360705Y-39978896D01*
X100445288Y-39970565D01*
X100487579Y-39966400D01*
X100572421Y-39966400D01*
X100614712Y-39970565D01*
X100614712Y-39970565D01*
G37*
G36*
X52354712Y-39970565D02*
X52439295Y-39978896D01*
X52559727Y-40015429D01*
X52602088Y-40028279D01*
X52752112Y-40108468D01*
X52883612Y-40216388D01*
X52991532Y-40347888D01*
X53071721Y-40497912D01*
X53071722Y-40497916D01*
X53121104Y-40660705D01*
X53137778Y-40830000D01*
X53121104Y-40999295D01*
X53084571Y-41119727D01*
X53071721Y-41162088D01*
X52991532Y-41312112D01*
X52883612Y-41443612D01*
X52752112Y-41551532D01*
X52602088Y-41631721D01*
X52559727Y-41644571D01*
X52439295Y-41681104D01*
X52354712Y-41689435D01*
X52312421Y-41693600D01*
X52227579Y-41693600D01*
X52185288Y-41689435D01*
X52100705Y-41681104D01*
X51980273Y-41644571D01*
X51937912Y-41631721D01*
X51787888Y-41551532D01*
X51656388Y-41443612D01*
X51548468Y-41312112D01*
X51468279Y-41162088D01*
X51455429Y-41119727D01*
X51418896Y-40999295D01*
X51402222Y-40830000D01*
X51418896Y-40660705D01*
X51468278Y-40497916D01*
X51468279Y-40497912D01*
X51548468Y-40347888D01*
X51656388Y-40216388D01*
X51787888Y-40108468D01*
X51937912Y-40028279D01*
X51980273Y-40015429D01*
X52100705Y-39978896D01*
X52185288Y-39970565D01*
X52227579Y-39966400D01*
X52312421Y-39966400D01*
X52354712Y-39970565D01*
X52354712Y-39970565D01*
G37*
G36*
X54894712Y-39970565D02*
X54979295Y-39978896D01*
X55099727Y-40015429D01*
X55142088Y-40028279D01*
X55292112Y-40108468D01*
X55423612Y-40216388D01*
X55531532Y-40347888D01*
X55611721Y-40497912D01*
X55611722Y-40497916D01*
X55661104Y-40660705D01*
X55677778Y-40830000D01*
X55661104Y-40999295D01*
X55624571Y-41119727D01*
X55611721Y-41162088D01*
X55531532Y-41312112D01*
X55423612Y-41443612D01*
X55292112Y-41551532D01*
X55142088Y-41631721D01*
X55099727Y-41644571D01*
X54979295Y-41681104D01*
X54894712Y-41689435D01*
X54852421Y-41693600D01*
X54767579Y-41693600D01*
X54725288Y-41689435D01*
X54640705Y-41681104D01*
X54520273Y-41644571D01*
X54477912Y-41631721D01*
X54327888Y-41551532D01*
X54196388Y-41443612D01*
X54088468Y-41312112D01*
X54008279Y-41162088D01*
X53995429Y-41119727D01*
X53958896Y-40999295D01*
X53942222Y-40830000D01*
X53958896Y-40660705D01*
X54008278Y-40497916D01*
X54008279Y-40497912D01*
X54088468Y-40347888D01*
X54196388Y-40216388D01*
X54327888Y-40108468D01*
X54477912Y-40028279D01*
X54520273Y-40015429D01*
X54640705Y-39978896D01*
X54725288Y-39970565D01*
X54767579Y-39966400D01*
X54852421Y-39966400D01*
X54894712Y-39970565D01*
X54894712Y-39970565D01*
G37*
G36*
X57434712Y-39970565D02*
X57519295Y-39978896D01*
X57639727Y-40015429D01*
X57682088Y-40028279D01*
X57832112Y-40108468D01*
X57963612Y-40216388D01*
X58071532Y-40347888D01*
X58151721Y-40497912D01*
X58151722Y-40497916D01*
X58201104Y-40660705D01*
X58217778Y-40830000D01*
X58201104Y-40999295D01*
X58164571Y-41119727D01*
X58151721Y-41162088D01*
X58071532Y-41312112D01*
X57963612Y-41443612D01*
X57832112Y-41551532D01*
X57682088Y-41631721D01*
X57639727Y-41644571D01*
X57519295Y-41681104D01*
X57434712Y-41689435D01*
X57392421Y-41693600D01*
X57307579Y-41693600D01*
X57265288Y-41689435D01*
X57180705Y-41681104D01*
X57060273Y-41644571D01*
X57017912Y-41631721D01*
X56867888Y-41551532D01*
X56736388Y-41443612D01*
X56628468Y-41312112D01*
X56548279Y-41162088D01*
X56535429Y-41119727D01*
X56498896Y-40999295D01*
X56482222Y-40830000D01*
X56498896Y-40660705D01*
X56548278Y-40497916D01*
X56548279Y-40497912D01*
X56628468Y-40347888D01*
X56736388Y-40216388D01*
X56867888Y-40108468D01*
X57017912Y-40028279D01*
X57060273Y-40015429D01*
X57180705Y-39978896D01*
X57265288Y-39970565D01*
X57307579Y-39966400D01*
X57392421Y-39966400D01*
X57434712Y-39970565D01*
X57434712Y-39970565D01*
G37*
G36*
X59974712Y-39970565D02*
X60059295Y-39978896D01*
X60179727Y-40015429D01*
X60222088Y-40028279D01*
X60372112Y-40108468D01*
X60503612Y-40216388D01*
X60611532Y-40347888D01*
X60691721Y-40497912D01*
X60691722Y-40497916D01*
X60741104Y-40660705D01*
X60757778Y-40830000D01*
X60741104Y-40999295D01*
X60704571Y-41119727D01*
X60691721Y-41162088D01*
X60611532Y-41312112D01*
X60503612Y-41443612D01*
X60372112Y-41551532D01*
X60222088Y-41631721D01*
X60179727Y-41644571D01*
X60059295Y-41681104D01*
X59974712Y-41689435D01*
X59932421Y-41693600D01*
X59847579Y-41693600D01*
X59805288Y-41689435D01*
X59720705Y-41681104D01*
X59600273Y-41644571D01*
X59557912Y-41631721D01*
X59407888Y-41551532D01*
X59276388Y-41443612D01*
X59168468Y-41312112D01*
X59088279Y-41162088D01*
X59075429Y-41119727D01*
X59038896Y-40999295D01*
X59022222Y-40830000D01*
X59038896Y-40660705D01*
X59088278Y-40497916D01*
X59088279Y-40497912D01*
X59168468Y-40347888D01*
X59276388Y-40216388D01*
X59407888Y-40108468D01*
X59557912Y-40028279D01*
X59600273Y-40015429D01*
X59720705Y-39978896D01*
X59805288Y-39970565D01*
X59847579Y-39966400D01*
X59932421Y-39966400D01*
X59974712Y-39970565D01*
X59974712Y-39970565D01*
G37*
G36*
X62514712Y-39970565D02*
X62599295Y-39978896D01*
X62719727Y-40015429D01*
X62762088Y-40028279D01*
X62912112Y-40108468D01*
X63043612Y-40216388D01*
X63151532Y-40347888D01*
X63231721Y-40497912D01*
X63231722Y-40497916D01*
X63281104Y-40660705D01*
X63297778Y-40830000D01*
X63281104Y-40999295D01*
X63244571Y-41119727D01*
X63231721Y-41162088D01*
X63151532Y-41312112D01*
X63043612Y-41443612D01*
X62912112Y-41551532D01*
X62762088Y-41631721D01*
X62719727Y-41644571D01*
X62599295Y-41681104D01*
X62514712Y-41689435D01*
X62472421Y-41693600D01*
X62387579Y-41693600D01*
X62345288Y-41689435D01*
X62260705Y-41681104D01*
X62140273Y-41644571D01*
X62097912Y-41631721D01*
X61947888Y-41551532D01*
X61816388Y-41443612D01*
X61708468Y-41312112D01*
X61628279Y-41162088D01*
X61615429Y-41119727D01*
X61578896Y-40999295D01*
X61562222Y-40830000D01*
X61578896Y-40660705D01*
X61628278Y-40497916D01*
X61628279Y-40497912D01*
X61708468Y-40347888D01*
X61816388Y-40216388D01*
X61947888Y-40108468D01*
X62097912Y-40028279D01*
X62140273Y-40015429D01*
X62260705Y-39978896D01*
X62345288Y-39970565D01*
X62387579Y-39966400D01*
X62472421Y-39966400D01*
X62514712Y-39970565D01*
X62514712Y-39970565D01*
G37*
G36*
X82834712Y-39970565D02*
X82919295Y-39978896D01*
X83039727Y-40015429D01*
X83082088Y-40028279D01*
X83232112Y-40108468D01*
X83363612Y-40216388D01*
X83471532Y-40347888D01*
X83551721Y-40497912D01*
X83551722Y-40497916D01*
X83601104Y-40660705D01*
X83617778Y-40830000D01*
X83601104Y-40999295D01*
X83564571Y-41119727D01*
X83551721Y-41162088D01*
X83471532Y-41312112D01*
X83363612Y-41443612D01*
X83232112Y-41551532D01*
X83082088Y-41631721D01*
X83039727Y-41644571D01*
X82919295Y-41681104D01*
X82834712Y-41689435D01*
X82792421Y-41693600D01*
X82707579Y-41693600D01*
X82665288Y-41689435D01*
X82580705Y-41681104D01*
X82460273Y-41644571D01*
X82417912Y-41631721D01*
X82267888Y-41551532D01*
X82136388Y-41443612D01*
X82028468Y-41312112D01*
X81948279Y-41162088D01*
X81935429Y-41119727D01*
X81898896Y-40999295D01*
X81882222Y-40830000D01*
X81898896Y-40660705D01*
X81948278Y-40497916D01*
X81948279Y-40497912D01*
X82028468Y-40347888D01*
X82136388Y-40216388D01*
X82267888Y-40108468D01*
X82417912Y-40028279D01*
X82460273Y-40015429D01*
X82580705Y-39978896D01*
X82665288Y-39970565D01*
X82707579Y-39966400D01*
X82792421Y-39966400D01*
X82834712Y-39970565D01*
X82834712Y-39970565D01*
G37*
G36*
X67594712Y-39970565D02*
X67679295Y-39978896D01*
X67799727Y-40015429D01*
X67842088Y-40028279D01*
X67992112Y-40108468D01*
X68123612Y-40216388D01*
X68231532Y-40347888D01*
X68311721Y-40497912D01*
X68311722Y-40497916D01*
X68361104Y-40660705D01*
X68377778Y-40830000D01*
X68361104Y-40999295D01*
X68324571Y-41119727D01*
X68311721Y-41162088D01*
X68231532Y-41312112D01*
X68123612Y-41443612D01*
X67992112Y-41551532D01*
X67842088Y-41631721D01*
X67799727Y-41644571D01*
X67679295Y-41681104D01*
X67594712Y-41689435D01*
X67552421Y-41693600D01*
X67467579Y-41693600D01*
X67425288Y-41689435D01*
X67340705Y-41681104D01*
X67220273Y-41644571D01*
X67177912Y-41631721D01*
X67027888Y-41551532D01*
X66896388Y-41443612D01*
X66788468Y-41312112D01*
X66708279Y-41162088D01*
X66695429Y-41119727D01*
X66658896Y-40999295D01*
X66642222Y-40830000D01*
X66658896Y-40660705D01*
X66708278Y-40497916D01*
X66708279Y-40497912D01*
X66788468Y-40347888D01*
X66896388Y-40216388D01*
X67027888Y-40108468D01*
X67177912Y-40028279D01*
X67220273Y-40015429D01*
X67340705Y-39978896D01*
X67425288Y-39970565D01*
X67467579Y-39966400D01*
X67552421Y-39966400D01*
X67594712Y-39970565D01*
X67594712Y-39970565D01*
G37*
G36*
X95534712Y-39970565D02*
X95619295Y-39978896D01*
X95739727Y-40015429D01*
X95782088Y-40028279D01*
X95932112Y-40108468D01*
X96063612Y-40216388D01*
X96171532Y-40347888D01*
X96251721Y-40497912D01*
X96251722Y-40497916D01*
X96301104Y-40660705D01*
X96317778Y-40830000D01*
X96301104Y-40999295D01*
X96264571Y-41119727D01*
X96251721Y-41162088D01*
X96171532Y-41312112D01*
X96063612Y-41443612D01*
X95932112Y-41551532D01*
X95782088Y-41631721D01*
X95739727Y-41644571D01*
X95619295Y-41681104D01*
X95534712Y-41689435D01*
X95492421Y-41693600D01*
X95407579Y-41693600D01*
X95365288Y-41689435D01*
X95280705Y-41681104D01*
X95160273Y-41644571D01*
X95117912Y-41631721D01*
X94967888Y-41551532D01*
X94836388Y-41443612D01*
X94728468Y-41312112D01*
X94648279Y-41162088D01*
X94635429Y-41119727D01*
X94598896Y-40999295D01*
X94582222Y-40830000D01*
X94598896Y-40660705D01*
X94648278Y-40497916D01*
X94648279Y-40497912D01*
X94728468Y-40347888D01*
X94836388Y-40216388D01*
X94967888Y-40108468D01*
X95117912Y-40028279D01*
X95160273Y-40015429D01*
X95280705Y-39978896D01*
X95365288Y-39970565D01*
X95407579Y-39966400D01*
X95492421Y-39966400D01*
X95534712Y-39970565D01*
X95534712Y-39970565D01*
G37*
G36*
X70134712Y-39970565D02*
X70219295Y-39978896D01*
X70339727Y-40015429D01*
X70382088Y-40028279D01*
X70532112Y-40108468D01*
X70663612Y-40216388D01*
X70771532Y-40347888D01*
X70851721Y-40497912D01*
X70851722Y-40497916D01*
X70901104Y-40660705D01*
X70917778Y-40830000D01*
X70901104Y-40999295D01*
X70864571Y-41119727D01*
X70851721Y-41162088D01*
X70771532Y-41312112D01*
X70663612Y-41443612D01*
X70532112Y-41551532D01*
X70382088Y-41631721D01*
X70339727Y-41644571D01*
X70219295Y-41681104D01*
X70134712Y-41689435D01*
X70092421Y-41693600D01*
X70007579Y-41693600D01*
X69965288Y-41689435D01*
X69880705Y-41681104D01*
X69760273Y-41644571D01*
X69717912Y-41631721D01*
X69567888Y-41551532D01*
X69436388Y-41443612D01*
X69328468Y-41312112D01*
X69248279Y-41162088D01*
X69235429Y-41119727D01*
X69198896Y-40999295D01*
X69182222Y-40830000D01*
X69198896Y-40660705D01*
X69248278Y-40497916D01*
X69248279Y-40497912D01*
X69328468Y-40347888D01*
X69436388Y-40216388D01*
X69567888Y-40108468D01*
X69717912Y-40028279D01*
X69760273Y-40015429D01*
X69880705Y-39978896D01*
X69965288Y-39970565D01*
X70007579Y-39966400D01*
X70092421Y-39966400D01*
X70134712Y-39970565D01*
X70134712Y-39970565D01*
G37*
G36*
X77754712Y-39970565D02*
X77839295Y-39978896D01*
X77959727Y-40015429D01*
X78002088Y-40028279D01*
X78152112Y-40108468D01*
X78283612Y-40216388D01*
X78391532Y-40347888D01*
X78471721Y-40497912D01*
X78471722Y-40497916D01*
X78521104Y-40660705D01*
X78537778Y-40830000D01*
X78521104Y-40999295D01*
X78484571Y-41119727D01*
X78471721Y-41162088D01*
X78391532Y-41312112D01*
X78283612Y-41443612D01*
X78152112Y-41551532D01*
X78002088Y-41631721D01*
X77959727Y-41644571D01*
X77839295Y-41681104D01*
X77754712Y-41689435D01*
X77712421Y-41693600D01*
X77627579Y-41693600D01*
X77585288Y-41689435D01*
X77500705Y-41681104D01*
X77380273Y-41644571D01*
X77337912Y-41631721D01*
X77187888Y-41551532D01*
X77056388Y-41443612D01*
X76948468Y-41312112D01*
X76868279Y-41162088D01*
X76855429Y-41119727D01*
X76818896Y-40999295D01*
X76802222Y-40830000D01*
X76818896Y-40660705D01*
X76868278Y-40497916D01*
X76868279Y-40497912D01*
X76948468Y-40347888D01*
X77056388Y-40216388D01*
X77187888Y-40108468D01*
X77337912Y-40028279D01*
X77380273Y-40015429D01*
X77500705Y-39978896D01*
X77585288Y-39970565D01*
X77627579Y-39966400D01*
X77712421Y-39966400D01*
X77754712Y-39970565D01*
X77754712Y-39970565D01*
G37*
G36*
X87914712Y-39970565D02*
X87999295Y-39978896D01*
X88119727Y-40015429D01*
X88162088Y-40028279D01*
X88312112Y-40108468D01*
X88443612Y-40216388D01*
X88551532Y-40347888D01*
X88631721Y-40497912D01*
X88631722Y-40497916D01*
X88681104Y-40660705D01*
X88697778Y-40830000D01*
X88681104Y-40999295D01*
X88644571Y-41119727D01*
X88631721Y-41162088D01*
X88551532Y-41312112D01*
X88443612Y-41443612D01*
X88312112Y-41551532D01*
X88162088Y-41631721D01*
X88119727Y-41644571D01*
X87999295Y-41681104D01*
X87914712Y-41689435D01*
X87872421Y-41693600D01*
X87787579Y-41693600D01*
X87745288Y-41689435D01*
X87660705Y-41681104D01*
X87540273Y-41644571D01*
X87497912Y-41631721D01*
X87347888Y-41551532D01*
X87216388Y-41443612D01*
X87108468Y-41312112D01*
X87028279Y-41162088D01*
X87015429Y-41119727D01*
X86978896Y-40999295D01*
X86962222Y-40830000D01*
X86978896Y-40660705D01*
X87028278Y-40497916D01*
X87028279Y-40497912D01*
X87108468Y-40347888D01*
X87216388Y-40216388D01*
X87347888Y-40108468D01*
X87497912Y-40028279D01*
X87540273Y-40015429D01*
X87660705Y-39978896D01*
X87745288Y-39970565D01*
X87787579Y-39966400D01*
X87872421Y-39966400D01*
X87914712Y-39970565D01*
X87914712Y-39970565D01*
G37*
G36*
X92994712Y-39970565D02*
X93079295Y-39978896D01*
X93199727Y-40015429D01*
X93242088Y-40028279D01*
X93392112Y-40108468D01*
X93523612Y-40216388D01*
X93631532Y-40347888D01*
X93711721Y-40497912D01*
X93711722Y-40497916D01*
X93761104Y-40660705D01*
X93777778Y-40830000D01*
X93761104Y-40999295D01*
X93724571Y-41119727D01*
X93711721Y-41162088D01*
X93631532Y-41312112D01*
X93523612Y-41443612D01*
X93392112Y-41551532D01*
X93242088Y-41631721D01*
X93199727Y-41644571D01*
X93079295Y-41681104D01*
X92994712Y-41689435D01*
X92952421Y-41693600D01*
X92867579Y-41693600D01*
X92825288Y-41689435D01*
X92740705Y-41681104D01*
X92620273Y-41644571D01*
X92577912Y-41631721D01*
X92427888Y-41551532D01*
X92296388Y-41443612D01*
X92188468Y-41312112D01*
X92108279Y-41162088D01*
X92095429Y-41119727D01*
X92058896Y-40999295D01*
X92042222Y-40830000D01*
X92058896Y-40660705D01*
X92108278Y-40497916D01*
X92108279Y-40497912D01*
X92188468Y-40347888D01*
X92296388Y-40216388D01*
X92427888Y-40108468D01*
X92577912Y-40028279D01*
X92620273Y-40015429D01*
X92740705Y-39978896D01*
X92825288Y-39970565D01*
X92867579Y-39966400D01*
X92952421Y-39966400D01*
X92994712Y-39970565D01*
X92994712Y-39970565D01*
G37*
G36*
X72674712Y-39970565D02*
X72759295Y-39978896D01*
X72879727Y-40015429D01*
X72922088Y-40028279D01*
X73072112Y-40108468D01*
X73203612Y-40216388D01*
X73311532Y-40347888D01*
X73391721Y-40497912D01*
X73391722Y-40497916D01*
X73441104Y-40660705D01*
X73457778Y-40830000D01*
X73441104Y-40999295D01*
X73404571Y-41119727D01*
X73391721Y-41162088D01*
X73311532Y-41312112D01*
X73203612Y-41443612D01*
X73072112Y-41551532D01*
X72922088Y-41631721D01*
X72879727Y-41644571D01*
X72759295Y-41681104D01*
X72674712Y-41689435D01*
X72632421Y-41693600D01*
X72547579Y-41693600D01*
X72505288Y-41689435D01*
X72420705Y-41681104D01*
X72300273Y-41644571D01*
X72257912Y-41631721D01*
X72107888Y-41551532D01*
X71976388Y-41443612D01*
X71868468Y-41312112D01*
X71788279Y-41162088D01*
X71775429Y-41119727D01*
X71738896Y-40999295D01*
X71722222Y-40830000D01*
X71738896Y-40660705D01*
X71788278Y-40497916D01*
X71788279Y-40497912D01*
X71868468Y-40347888D01*
X71976388Y-40216388D01*
X72107888Y-40108468D01*
X72257912Y-40028279D01*
X72300273Y-40015429D01*
X72420705Y-39978896D01*
X72505288Y-39970565D01*
X72547579Y-39966400D01*
X72632421Y-39966400D01*
X72674712Y-39970565D01*
X72674712Y-39970565D01*
G37*
G36*
X75214712Y-39970565D02*
X75299295Y-39978896D01*
X75419727Y-40015429D01*
X75462088Y-40028279D01*
X75612112Y-40108468D01*
X75743612Y-40216388D01*
X75851532Y-40347888D01*
X75931721Y-40497912D01*
X75931722Y-40497916D01*
X75981104Y-40660705D01*
X75997778Y-40830000D01*
X75981104Y-40999295D01*
X75944571Y-41119727D01*
X75931721Y-41162088D01*
X75851532Y-41312112D01*
X75743612Y-41443612D01*
X75612112Y-41551532D01*
X75462088Y-41631721D01*
X75419727Y-41644571D01*
X75299295Y-41681104D01*
X75214712Y-41689435D01*
X75172421Y-41693600D01*
X75087579Y-41693600D01*
X75045288Y-41689435D01*
X74960705Y-41681104D01*
X74840273Y-41644571D01*
X74797912Y-41631721D01*
X74647888Y-41551532D01*
X74516388Y-41443612D01*
X74408468Y-41312112D01*
X74328279Y-41162088D01*
X74315429Y-41119727D01*
X74278896Y-40999295D01*
X74262222Y-40830000D01*
X74278896Y-40660705D01*
X74328278Y-40497916D01*
X74328279Y-40497912D01*
X74408468Y-40347888D01*
X74516388Y-40216388D01*
X74647888Y-40108468D01*
X74797912Y-40028279D01*
X74840273Y-40015429D01*
X74960705Y-39978896D01*
X75045288Y-39970565D01*
X75087579Y-39966400D01*
X75172421Y-39966400D01*
X75214712Y-39970565D01*
X75214712Y-39970565D01*
G37*
G36*
X65054712Y-39970565D02*
X65139295Y-39978896D01*
X65259727Y-40015429D01*
X65302088Y-40028279D01*
X65452112Y-40108468D01*
X65583612Y-40216388D01*
X65691532Y-40347888D01*
X65771721Y-40497912D01*
X65771722Y-40497916D01*
X65821104Y-40660705D01*
X65837778Y-40830000D01*
X65821104Y-40999295D01*
X65784571Y-41119727D01*
X65771721Y-41162088D01*
X65691532Y-41312112D01*
X65583612Y-41443612D01*
X65452112Y-41551532D01*
X65302088Y-41631721D01*
X65259727Y-41644571D01*
X65139295Y-41681104D01*
X65054712Y-41689435D01*
X65012421Y-41693600D01*
X64927579Y-41693600D01*
X64885288Y-41689435D01*
X64800705Y-41681104D01*
X64680273Y-41644571D01*
X64637912Y-41631721D01*
X64487888Y-41551532D01*
X64356388Y-41443612D01*
X64248468Y-41312112D01*
X64168279Y-41162088D01*
X64155429Y-41119727D01*
X64118896Y-40999295D01*
X64102222Y-40830000D01*
X64118896Y-40660705D01*
X64168278Y-40497916D01*
X64168279Y-40497912D01*
X64248468Y-40347888D01*
X64356388Y-40216388D01*
X64487888Y-40108468D01*
X64637912Y-40028279D01*
X64680273Y-40015429D01*
X64800705Y-39978896D01*
X64885288Y-39970565D01*
X64927579Y-39966400D01*
X65012421Y-39966400D01*
X65054712Y-39970565D01*
X65054712Y-39970565D01*
G37*
G36*
X90454712Y-39970565D02*
X90539295Y-39978896D01*
X90659727Y-40015429D01*
X90702088Y-40028279D01*
X90852112Y-40108468D01*
X90983612Y-40216388D01*
X91091532Y-40347888D01*
X91171721Y-40497912D01*
X91171722Y-40497916D01*
X91221104Y-40660705D01*
X91237778Y-40830000D01*
X91221104Y-40999295D01*
X91184571Y-41119727D01*
X91171721Y-41162088D01*
X91091532Y-41312112D01*
X90983612Y-41443612D01*
X90852112Y-41551532D01*
X90702088Y-41631721D01*
X90659727Y-41644571D01*
X90539295Y-41681104D01*
X90454712Y-41689435D01*
X90412421Y-41693600D01*
X90327579Y-41693600D01*
X90285288Y-41689435D01*
X90200705Y-41681104D01*
X90080273Y-41644571D01*
X90037912Y-41631721D01*
X89887888Y-41551532D01*
X89756388Y-41443612D01*
X89648468Y-41312112D01*
X89568279Y-41162088D01*
X89555429Y-41119727D01*
X89518896Y-40999295D01*
X89502222Y-40830000D01*
X89518896Y-40660705D01*
X89568278Y-40497916D01*
X89568279Y-40497912D01*
X89648468Y-40347888D01*
X89756388Y-40216388D01*
X89887888Y-40108468D01*
X90037912Y-40028279D01*
X90080273Y-40015429D01*
X90200705Y-39978896D01*
X90285288Y-39970565D01*
X90327579Y-39966400D01*
X90412421Y-39966400D01*
X90454712Y-39970565D01*
X90454712Y-39970565D01*
G37*
M02*
